<svg width="610" height="509" viewBox="0 0 610 509" fill="none" xmlns="http://www.w3.org/2000/svg">
<path d="M201.522 196.34C242.863 206.661 277.741 234.536 298.677 271.571C319.352 308.143 323.103 351.461 312.129 391.996C301.21 432.326 276.142 467.714 239.908 488.646C203.731 509.546 160.375 514.168 120.121 502.918C80.4274 491.825 48.2271 464.353 26.9471 429.128C5.28528 393.271 -6.64682 351.044 3.88789 310.518C14.4695 269.812 45.4938 238.539 81.9681 217.467C118.378 196.432 160.707 186.15 201.522 196.34Z" fill="#E6AFEA"/>
<path d="M447.438 10.6891C409.564 2.2394 370.186 -1.81049 331.683 0.771042C297.558 3.05905 258.877 9.30409 231.416 31.6737C218.329 42.3341 202.722 61.4897 198.442 78.3885C198.441 78.3905 175.909 167.339 130.846 186.399C85.7818 205.46 54.4873 530.763 396.222 498.995C396.222 498.995 596.939 490.671 609.025 250.892C611.944 192.969 610.313 129.292 575.338 80.8588C548.537 43.744 510.986 27.2416 467.836 15.6946C461.095 13.8911 454.291 12.2181 447.438 10.6891Z" fill="#E6F2F2"/>
<path d="M288.697 443.303C323.01 416.788 326.591 361.87 309.361 347.5C300.4 340.026 289.517 346.614 281.302 337.591C272.2 327.593 281.06 314.563 278.975 286.455C277.898 271.932 275.945 245.596 260.35 236.621C244.884 227.721 231.422 244.768 214.253 236.112C198.019 227.927 203.885 209.574 183.905 193.177C182.047 191.652 160.928 174.744 144.531 182.05C127.872 189.473 121.971 219.267 131.092 237.755C139.378 254.552 157.628 257.08 156.786 267.074C155.858 278.087 133.391 278.625 131.351 289.848C128.403 306.069 173.193 316.778 174.758 342.281C175.679 357.277 160.605 360.297 157.644 379.322C153.822 403.876 174.24 428.994 191.798 441.384C217.244 459.341 258.956 466.285 288.697 443.303Z" fill="url(#paint0_linear_2398_4826)"/>
<mask id="mask0_2398_4826" style="mask-type:luminance" maskUnits="userSpaceOnUse" x="126" y="180" width="194" height="278">
<path d="M288.697 443.305C323.01 416.79 326.591 361.872 309.361 347.502C300.4 340.028 289.517 346.616 281.302 337.593C272.2 327.595 281.06 314.565 278.975 286.457C277.898 271.934 275.945 245.598 260.35 236.623C244.884 227.723 231.422 244.77 214.253 236.114C198.019 227.929 203.886 209.576 183.906 193.179C182.047 191.654 160.928 174.746 144.531 182.052C127.872 189.475 121.971 219.269 131.092 237.757C139.378 254.554 157.628 257.082 156.786 267.076C155.858 278.089 133.391 278.627 131.351 289.85C128.403 306.071 173.193 316.78 174.759 342.283C175.679 357.279 160.605 360.299 157.644 379.324C153.822 403.878 174.24 428.996 191.799 441.386C217.244 459.343 258.956 466.287 288.697 443.305Z" fill="white"/>
</mask>
<g mask="url(#mask0_2398_4826)">
<g opacity="0.7">
<path d="M271.36 467.539L272.681 467.161C258.047 415.992 241.382 368.586 223.149 326.26C208.559 292.391 192.938 261.679 176.719 234.977C149.081 189.474 128.995 171.143 128.796 170.963L127.875 171.984C128.074 172.163 148.051 190.409 175.596 235.776C201.02 277.65 238.273 351.851 271.36 467.539Z" fill="white"/>
<path d="M179.215 239.434C185.642 197.322 170.974 163.534 170.825 163.197L169.568 163.754C169.716 164.087 184.221 197.527 177.856 239.227L179.215 239.434Z" fill="white"/>
<path d="M225.885 332.274C246.813 290.854 252.445 261.735 253.485 244.601C254.618 225.937 250.808 217.219 250.645 216.857L249.391 217.42C249.43 217.507 253.243 226.288 252.104 244.67C251.051 261.655 245.434 290.534 224.658 331.654L225.885 332.274Z" fill="white"/>
<path d="M259.246 424.034C311.172 361.697 311.817 313.864 311.818 313.388L310.443 313.387C310.443 313.506 310.239 325.905 303.334 346.058C297.254 363.804 284.487 391.585 258.19 423.155L259.246 424.034Z" fill="white"/>
<path d="M205.217 319.535C209.928 320.202 214.755 320.624 219.681 320.748L219.716 319.374C187.526 318.565 159.475 304.869 141.614 293.521C122.251 281.22 110.373 268.968 110.256 268.846L109.265 269.799C109.384 269.922 121.376 282.293 140.876 294.681C156.156 304.388 178.838 315.801 205.217 319.535Z" fill="white"/>
<path d="M245.16 406.456C247.704 406.817 250.295 407.092 252.936 407.275L253.03 405.904C219.539 403.585 193.874 386.107 178.24 371.853C161.287 356.397 152.161 341.316 152.071 341.166L150.891 341.873C150.983 342.025 160.213 357.278 177.314 372.869C191.879 386.147 215.071 402.197 245.16 406.456Z" fill="white"/>
</g>
</g>
<path d="M443.973 427.48C400.638 406.054 384.638 346.824 400.305 327.328C408.454 317.187 421.797 321.992 428.79 310.322C436.536 297.392 423.986 285.103 420.078 253.924C418.058 237.816 414.397 208.604 429.465 195.363C444.408 182.233 462.872 197.9 479.731 184.661C495.672 172.143 485.221 153.377 503.448 131.06C505.143 128.984 524.503 105.857 544.031 110.233C563.871 114.679 576.877 145.942 570.978 168.155C565.619 188.335 546.23 195.114 549.35 205.851C552.788 217.683 577.46 213.326 582.159 225.142C588.951 242.221 542.359 263.783 546.26 291.999C548.555 308.59 569.794 309.969 566.644 331.202C561.568 365.427 554.74 373.632 538.278 391.038C514.421 416.262 481.535 446.052 443.973 427.48Z" fill="url(#paint1_linear_2398_4826)"/>
<mask id="mask1_2398_4826" style="mask-type:luminance" maskUnits="userSpaceOnUse" x="394" y="109" width="189" height="325">
<path d="M443.974 427.486C400.638 406.06 384.638 346.83 400.305 327.334C408.454 317.193 421.798 321.998 428.79 310.328C436.537 297.398 423.986 285.109 420.078 253.93C418.058 237.821 414.397 208.609 429.465 195.369C444.408 182.238 462.872 197.906 479.731 184.667C495.672 172.149 485.221 153.383 503.448 131.066C505.143 128.99 524.503 105.863 544.031 110.239C563.871 114.685 576.877 145.948 570.978 168.16C565.619 188.341 546.23 195.12 549.35 205.857C552.788 217.689 577.46 213.332 582.159 225.148C588.951 242.227 542.359 263.788 546.26 292.004C548.555 308.596 569.794 309.975 566.644 331.207C561.568 365.433 554.74 373.638 538.278 391.043C514.421 416.268 481.535 446.057 443.974 427.486Z" fill="white"/>
</mask>
<g mask="url(#mask1_2398_4826)">
<g opacity="0.7">
<path d="M468.255 450.152L466.728 450.03C471.46 390.888 479.239 335.411 489.85 285.14C498.341 244.915 508.653 207.913 520.502 175.161C540.692 119.349 558.609 94.8948 558.787 94.6543L560.017 95.5679C559.84 95.8071 542.023 120.144 521.905 175.787C503.335 227.146 478.953 316.437 468.255 450.152Z" fill="white"/>
<path d="M518.755 180.58C502.461 135.971 511.056 95.8165 511.145 95.416L512.641 95.7474C512.553 96.1437 504.06 135.883 520.194 180.054L518.755 180.58Z" fill="white"/>
<path d="M488.183 292.314C456.196 251.652 443.631 221.069 438.724 202.572C433.378 182.425 435.623 172.058 435.721 171.627L437.216 171.966C437.192 172.069 434.958 182.505 440.249 202.344C445.138 220.675 457.631 250.999 489.388 291.366L488.183 292.314Z" fill="white"/>
<path d="M471.919 399.939C401.45 343.241 390.217 291.107 390.112 290.587L391.614 290.283C391.641 290.414 394.593 303.919 406.574 324.424C417.124 342.48 437.192 370.031 472.879 398.745L471.919 399.939Z" fill="white"/>
<path d="M507.967 273.844C502.964 275.61 497.782 277.134 492.426 278.353L492.085 276.859C527.087 268.89 554.728 247.748 571.751 231.416C590.205 213.71 600.49 197.706 600.591 197.547L601.884 198.37C601.781 198.531 591.397 214.69 572.813 232.521C558.251 246.492 535.973 263.957 507.967 273.844Z" fill="white"/>
<path d="M483.444 377.628C480.743 378.581 477.973 379.453 475.126 380.234L474.721 378.756C510.812 368.85 535.014 344.101 548.963 325.082C564.089 304.459 570.744 285.97 570.809 285.785L572.254 286.298C572.187 286.484 565.456 305.186 550.199 325.988C537.204 343.706 515.39 366.35 483.444 377.628Z" fill="white"/>
</g>
</g>
<path d="M492.731 445.398C492.731 453.387 487.063 460.218 480.073 460.626L210.445 476.363C202.438 476.83 195.9 470.221 195.9 461.629V74.8472C195.9 66.2544 202.438 59.5285 210.445 59.8531L480.073 70.7798C487.063 71.063 492.731 77.7925 492.731 85.7818V445.398Z" fill="url(#paint2_linear_2398_4826)"/>
<path d="M500.648 445.398C500.648 453.387 494.98 460.218 487.99 460.626L218.362 476.363C210.354 476.83 203.817 470.221 203.817 461.629V74.8472C203.817 66.2544 210.354 59.5285 218.362 59.8531L487.99 70.7798C494.98 71.063 500.648 77.7925 500.648 85.7818V445.398Z" fill="url(#paint3_linear_2398_4826)"/>
<path d="M210.6 75.098V461.259C210.6 465.851 214.079 469.377 218.362 469.135L431.609 457.054L487.99 453.86C491.735 453.648 494.766 450.004 494.766 445.72V85.5662C494.766 81.2828 491.735 77.6927 487.99 77.5476L429.573 75.2805L218.362 67.0837C214.079 66.9173 210.6 70.5054 210.6 75.098Z" fill="url(#paint4_linear_2398_4826)"/>
<path d="M490.861 85.2891V429.062C490.861 430.656 489.668 432.021 488.099 432.101L460.487 433.515L218.12 445.906C216.328 445.999 214.885 444.684 214.885 442.985V75.1059C214.885 73.4005 216.349 72.0672 218.141 72.1353L221.012 72.2408L488.098 82.2875C489.668 82.3495 490.861 83.6952 490.861 85.2891Z" fill="url(#paint5_linear_2398_4826)"/>
<path opacity="0.3" d="M460.529 433.515L218.141 445.906C216.349 445.999 214.885 444.684 214.885 442.985V75.1059C214.885 73.4005 216.349 72.0672 218.141 72.1353L221.012 72.2408C229.304 83.5403 246.514 96.5639 281.243 107.721C363.106 134.01 270.297 248.741 373.761 285.642C457.992 315.683 415.039 394.581 460.529 433.515Z" fill="url(#paint6_linear_2398_4826)"/>
<path d="M384.866 453.006L330.033 456.022C327.101 456.183 324.722 454.15 324.722 451.481V451.281C324.722 448.612 327.101 446.323 330.033 446.169L384.866 443.285C387.715 443.135 390.023 445.143 390.023 447.77V447.967C390.023 450.593 387.715 452.85 384.866 453.006Z" fill="url(#paint7_linear_2398_4826)"/>
<path d="M360.44 72.5961C360.44 74.016 359.184 75.1191 357.634 75.0597C356.082 75.0006 354.824 73.8 354.824 72.3781C354.824 70.9563 356.082 69.8534 357.634 69.9145C359.184 69.9757 360.44 71.1763 360.44 72.5961Z" fill="url(#paint8_linear_2398_4826)"/>
<path d="M443.368 252.298C455.103 252.298 464.617 238.929 464.617 222.437C464.617 205.945 455.103 192.576 443.368 192.576C431.633 192.576 422.119 205.945 422.119 222.437C422.119 238.929 431.633 252.298 443.368 252.298Z" fill="#D8DEE8"/>
<path d="M378.424 150.08H338.432C297.424 150.08 264.182 183.323 264.182 224.33V224.331C264.182 246.213 281.92 263.951 303.802 263.951H413.055C434.937 263.951 452.675 246.212 452.675 224.33C452.675 183.323 419.432 150.08 378.424 150.08Z" fill="white"/>
<path d="M371.401 345.142H345.455C318.851 345.142 297.284 323.575 297.284 296.971V296.97C297.284 282.774 308.792 271.266 322.988 271.266H393.868C408.064 271.266 419.573 282.774 419.573 296.97C419.573 323.574 398.006 345.142 371.401 345.142Z" fill="white"/>
<path d="M414.726 247.936H338.705C328.403 247.936 319.95 240.039 319.95 230.298V215.36C319.95 205.619 328.403 197.992 338.705 198.321L414.726 200.746C423.927 201.04 431.302 208.613 431.302 217.665V231.546C431.302 240.598 423.927 247.936 414.726 247.936Z" fill="url(#paint9_linear_2398_4826)"/>
<path d="M363.062 222.037C363.062 228.543 357.524 233.746 350.637 233.659C343.688 233.571 338.009 228.14 338.009 221.528C338.009 214.916 343.688 209.715 350.637 209.91C357.524 210.103 363.062 215.532 363.062 222.037Z" fill="white"/>
<path d="M414.436 223.083C414.436 229.37 409.265 234.401 402.835 234.32C396.349 234.238 391.05 228.994 391.05 222.607C391.05 216.221 396.349 211.192 402.835 211.374C409.265 211.554 414.436 216.796 414.436 223.083Z" fill="white"/>
<path opacity="0.3" d="M386.016 253.536C374.71 240.252 379.734 229.628 364.953 211.626C344.615 186.857 320.89 189.659 315.455 172.86C313.95 168.204 313.777 161.815 317.816 152.982C286.839 161.918 264.182 190.476 264.182 224.33V224.33C264.182 246.212 281.92 263.951 303.802 263.951H399.014C393.311 260.842 389.143 257.211 386.016 253.536Z" fill="white"/>
<path d="M274.866 252.091C286.602 252.091 296.115 238.721 296.115 222.23C296.115 205.738 286.602 192.369 274.866 192.369C263.131 192.369 253.618 205.738 253.618 222.23C253.618 238.721 263.131 252.091 274.866 252.091Z" fill="#D8DEE8"/>
<path d="M258.058 235.287C263.189 235.287 267.349 229.441 267.349 222.23C267.349 215.018 263.189 209.172 258.058 209.172C252.926 209.172 248.766 215.018 248.766 222.23C248.766 229.441 252.926 235.287 258.058 235.287Z" fill="#BFC8D6"/>
<path opacity="0.4" d="M377.791 318.621C374.232 301.903 334.856 302.306 333.785 291.379C332.96 282.956 355.567 274.616 358.408 273.568C360.837 272.671 363.249 271.913 365.636 271.264H322.988C308.792 271.264 297.284 282.772 297.284 296.968V296.969C297.284 323.573 318.851 345.14 345.455 345.14H371.401C373.894 345.14 376.343 344.95 378.734 344.585C376.476 341.787 375.004 338.726 374.648 335.385C373.858 327.979 379.171 325.099 377.791 318.621Z" fill="#D8DEE8"/>
<path d="M359.067 277.657C381.699 277.657 400.045 275.436 400.045 272.696C400.045 269.956 381.699 267.734 359.067 267.734C336.436 267.734 318.09 269.956 318.09 272.696C318.09 275.436 336.436 277.657 359.067 277.657Z" fill="#D8DEE8"/>
<path d="M522.599 24.418L422.536 22.247C415.401 22.1614 409.645 27.9368 409.687 35.1423L410.208 124.953C410.249 132.095 416.042 137.895 423.139 137.911L428.536 137.923L428.645 160.013C428.662 163.32 432.639 164.935 435.906 161.272L456.318 137.985L522.675 137.717C529.006 137.73 534.132 132.285 534.131 125.55L534.118 36.8623C534.116 30.0692 528.963 24.4959 522.599 24.418Z" fill="url(#paint10_linear_2398_4826)"/>
<path d="M525.92 135.289L426.2 135.549C419.09 135.537 413.287 129.736 413.247 122.586L412.738 32.6787C412.697 25.4655 418.465 19.6798 425.612 19.7606L525.86 21.8649C532.236 21.9386 537.398 27.5144 537.398 34.3151V123.102C537.398 129.844 532.262 135.299 525.92 135.289Z" fill="url(#paint11_linear_2398_4826)"/>
<path d="M416.932 124.954L416.412 30.3353C416.391 26.4922 419.464 23.4098 423.273 23.4516L527.967 25.4006C531.364 25.4387 534.116 28.4095 534.117 32.0349L534.13 125.319C534.131 128.913 531.393 131.82 528.013 131.814L423.834 131.863C420.044 131.856 416.953 128.763 416.932 124.954Z" fill="url(#paint12_linear_2398_4826)"/>
<path d="M431.713 157.67L431.584 131.002L463.418 131.064L437.987 160.053C435.813 162.53 431.729 160.981 431.713 157.67Z" fill="url(#paint13_linear_2398_4826)"/>
<path d="M457.506 78.5354C457.521 82.5958 454.065 85.8848 449.782 85.8826C445.493 85.8806 441.997 82.5797 441.979 78.5085C441.961 74.4359 445.431 71.1435 449.724 71.1563C454.01 71.1691 457.492 74.4734 457.506 78.5354Z" fill="white"/>
<path d="M483.865 78.58C483.875 82.6221 480.446 85.8962 476.202 85.894C471.951 85.8921 468.491 82.6061 468.478 78.5533C468.465 74.4991 471.908 71.2216 476.161 71.2344C480.408 71.2472 483.855 74.5364 483.865 78.58Z" fill="white"/>
<path d="M509.986 78.6269C509.991 82.6506 506.59 85.9101 502.383 85.9081C498.171 85.9061 494.745 82.6351 494.737 78.6006C494.73 74.5646 498.145 71.302 502.36 71.3145C506.569 71.3271 509.981 74.6015 509.986 78.6269Z" fill="white"/>
<path d="M198.183 488.883C196.866 490.984 197.071 491.967 197.297 492.414C197.961 493.725 199.99 492.765 204.908 493.875C205.485 494.005 206.584 494.273 208.009 494.09C209.23 493.934 210.701 493.447 210.675 493.121C210.665 493.003 210.458 492.934 210.379 492.909C209.029 492.47 200.655 488.911 200.655 488.911L198.183 488.883Z" fill="url(#paint14_linear_2398_4826)"/>
<path d="M198.028 483.945L198.283 488.976C198.283 488.976 200.252 490.702 201.001 488.935C201.54 487.665 201.899 484.126 201.899 484.126L198.028 483.945Z" fill="url(#paint15_linear_2398_4826)"/>
<path d="M222.879 489.021L220.196 494.503L217.213 493.702L218.467 488.498L222.879 489.021Z" fill="url(#paint16_linear_2398_4826)"/>
<path d="M218.923 497.543C217.636 495.648 216.309 495.669 216.169 494.444C216.06 493.481 216.757 492.387 217.672 492.04C218.958 491.552 220.337 492.668 220.649 492.92C222.765 494.634 221.905 496.878 223.942 498.103C224.352 498.35 225.013 498.635 225.662 499.384C225.938 499.703 226.621 500.492 226.392 500.962C226.128 501.506 224.78 501.345 223.498 501.192C221.96 501.009 221.191 500.918 220.499 500.378C219.539 499.63 219.915 499.006 218.923 497.543Z" fill="url(#paint17_linear_2398_4826)"/>
<path d="M194.173 363.842C193.531 375.415 194.152 385.416 195.19 393.625C196.306 402.456 197.251 404.044 197.326 410.092C197.49 423.254 193.126 424.775 191.13 439.471C188.926 455.699 192.186 469.012 193.48 474.094C194.611 478.537 195.881 482.155 196.853 484.675C198.239 486.102 200.566 485.791 203.015 485.501C205.128 470.791 207.387 456.971 209.501 442.261C214.206 420.26 218.911 398.259 223.616 376.257C213.802 372.119 203.987 367.981 194.173 363.842Z" fill="url(#paint18_linear_2398_4826)"/>
<path opacity="0.3" d="M203.015 485.501C205.128 470.791 207.387 456.971 209.501 442.262C214.206 420.26 218.911 398.259 223.616 376.258C213.802 372.119 203.988 367.981 194.173 363.842C194.131 364.608 194.108 365.349 194.076 366.102C207.211 379.566 209.174 389.533 208.485 396.163C207.65 404.204 202.914 407.832 202.806 419.582C202.729 427.984 205.118 429.663 204.492 437.199C203.686 446.902 199.07 452.012 196.577 457.451C194.167 462.708 192.833 470.326 195.715 481.558C196.119 482.726 196.505 483.774 196.853 484.675C198.239 486.102 200.566 485.791 203.015 485.501Z" fill="url(#paint19_linear_2398_4826)"/>
<path d="M211.112 376.444C217.491 389.582 220.793 399.781 222.525 406.053C223.582 409.879 224.497 413.85 224.365 418.946C224.203 425.189 222.544 430.193 221.202 433.374C219.295 437.433 217.481 442.202 216.14 447.647C211.789 465.307 214.739 480.631 217.305 489.516C219.042 490.329 220.78 491.142 222.518 491.954C227.52 480.93 233.831 465.226 239.05 445.648C241.9 434.955 244.096 426.566 245.007 415.753C245.967 404.349 245.84 386.174 238.295 363.846C229.234 368.045 220.173 372.245 211.112 376.444Z" fill="url(#paint20_linear_2398_4826)"/>
<path d="M223.44 278.059C234.679 280.963 243.19 283.721 246.571 290.013C250.141 296.66 243.24 300.868 240.323 314.56C235.857 335.522 247.383 344.447 242.11 365.489C240.333 372.579 237.428 377.936 235.472 381.1C231.538 383.8 225.342 387.415 217.167 389.536C205.271 392.622 199.763 389.798 184.134 389.398C158.571 388.742 154.15 395.806 143.031 390.316C131.794 384.766 124.413 371.677 127.316 366.586C129.054 363.538 133.545 365.903 140.544 362.563C149.563 358.259 148.686 351.291 156.154 345.994C166.88 338.387 175.819 347.708 185.003 341.082C194.293 334.378 196.825 316.413 194.028 305.362C192.202 298.144 192.789 290.507 191.599 283.157C191.5 282.547 191.462 281.583 191.924 280.531C193.689 276.51 201.328 276.343 207.099 276.271C215.9 276.16 222.516 277.821 223.44 278.059Z" fill="url(#paint21_linear_2398_4826)"/>
<path opacity="0.3" d="M145.032 382.391C148.749 380.336 147.393 373.523 152.903 370.423C158.017 367.545 161.438 372.146 168.756 370.55C178.142 368.503 178.394 359.65 187.399 357.565C193.874 356.065 195.443 360.249 204.527 361.177C213.595 362.104 225.812 359.343 234.15 350.34C237.692 346.514 239.844 342.298 241.153 338.344C242.931 346.391 244.94 354.195 242.109 365.489C240.333 372.579 237.428 377.936 235.472 381.099C231.538 383.799 225.342 387.415 217.167 389.535C205.271 392.621 199.762 389.798 184.134 389.397C158.571 388.742 154.15 395.805 143.031 390.315C135.849 386.769 130.259 380.147 127.905 374.498C137.355 382.646 142.335 383.883 145.032 382.391Z" fill="url(#paint22_linear_2398_4826)"/>
<path d="M231.661 258.873C231.661 258.873 234.314 265.032 234.169 269.187C234.024 273.342 229.378 272.654 229.378 272.654L229.337 275.279C229.302 277.521 230.589 279.573 232.621 280.517L234.409 281.348C234.409 281.348 222.166 282.927 215.982 277.741L217.89 277.713C220.593 277.673 222.892 275.734 223.388 273.077L223.594 271.969C223.594 271.969 222.577 258.895 231.661 258.873Z" fill="url(#paint23_linear_2398_4826)"/>
<path d="M243.928 326.103L262.234 294.528C262.46 294.138 262.914 293.942 263.353 294.044L288.963 300.03C289.647 300.189 289.971 300.974 289.599 301.57L268.358 335.535C268.102 335.944 267.595 336.119 267.141 335.955L244.632 327.826L243.928 326.103Z" fill="url(#paint24_linear_2398_4826)"/>
<path d="M248.432 322.519L263.253 296.952C263.436 296.637 263.804 296.478 264.159 296.561L284.896 301.407C285.45 301.536 285.712 302.172 285.41 302.654L268.211 330.155C268.004 330.486 267.594 330.628 267.227 330.495L249.001 323.913L248.432 322.519Z" fill="url(#paint25_linear_2398_4826)"/>
<path d="M267.627 297.247L268.804 295.197C268.968 294.912 269.298 294.767 269.619 294.839L280.285 297.237C280.781 297.349 281.024 297.91 280.767 298.348L279.458 300.578C279.291 300.863 278.956 301.005 278.634 300.926L268.099 298.348C267.615 298.23 267.379 297.68 267.627 297.247Z" fill="url(#paint26_linear_2398_4826)"/>
<path d="M281.598 306.04C281.582 306.038 281.566 306.035 281.549 306.031L262.771 301.6C262.538 301.545 262.394 301.312 262.449 301.08C262.505 300.847 262.745 300.707 262.969 300.759L281.748 305.191C281.98 305.245 282.124 305.479 282.07 305.71C282.019 305.927 281.813 306.066 281.598 306.04Z" fill="white"/>
<path d="M280.421 307.857C280.403 307.855 280.385 307.851 280.368 307.848L261.704 303.241C261.472 303.184 261.331 302.95 261.388 302.717C261.444 302.485 261.676 302.345 261.911 302.401L280.574 307.008C280.807 307.064 280.948 307.299 280.891 307.532C280.838 307.745 280.634 307.883 280.421 307.857Z" fill="white"/>
<path d="M270.576 309.884C270.555 309.882 270.533 309.878 270.512 309.872L260.365 307.072C260.134 307.009 259.999 306.77 260.063 306.54C260.126 306.311 260.368 306.174 260.594 306.239L270.741 309.038C270.972 309.101 271.107 309.34 271.043 309.571C270.986 309.778 270.784 309.909 270.576 309.884Z" fill="white"/>
<path d="M273.556 327.219C273.556 327.219 278.086 324.785 278.791 322.808C279.496 320.832 279.771 317.004 279.771 317.004L276.744 322.121C276.744 322.121 275.589 321.655 275.261 319.83C274.933 318.005 273.896 319.537 274.106 320.912C274.317 322.286 273.556 327.219 273.556 327.219Z" fill="url(#paint27_linear_2398_4826)"/>
<path d="M244.757 287.801C246.849 289.395 249.967 292.135 252.541 296.3C259.865 308.15 255.342 319.486 261.917 324.35C263.797 325.741 267.214 327.068 273.798 325.486L276.097 327.035C276.097 327.035 277.489 342.466 259.07 341.112C240.65 339.759 233.888 315.977 233.888 315.977L244.757 287.801Z" fill="url(#paint28_linear_2398_4826)"/>
<path d="M229.295 264.583C228.678 264.48 228.23 263.649 227.784 263.848C227.317 264.056 227.272 265.209 227.593 266.048C227.857 266.736 228.345 267.153 228.62 267.351C228.084 267.976 227.387 268.958 227.021 270.289C226.209 273.232 227.6 275.769 228.144 277.231C230.597 283.821 225.131 293.466 219.624 298.109C215.148 301.883 213.357 300.068 210.61 303.226C205.263 309.372 211.298 317.115 208.083 325.717C203.195 338.797 181.716 341.028 180.827 341.11C180.476 341.142 180.241 341.161 179.877 341.189C170.265 341.91 155.696 343.002 146.215 334.376C139.121 327.922 136.487 317.494 137.801 308.611C138.147 306.274 139.598 297.415 147.468 290.739C148.717 289.68 156.112 283.421 165.348 284.103C170.239 284.464 171.082 286.268 174.909 285.513C180.147 284.48 183.686 280.088 185.881 277.364C189.918 272.353 188.55 271.098 191.355 268.701C196.85 264.006 202.466 268.517 208.257 264.451C213.965 260.443 211.245 254.139 216.718 250.714C222.363 247.182 232.419 249.412 234.194 254.323C235.72 258.542 231.188 264.898 229.295 264.583Z" fill="url(#paint29_linear_2398_4826)"/>
<path d="M205.689 95.8519L210.113 95.8276C210.113 95.8276 220.712 82.4196 227.874 81.6784L228.538 43.9023C201.107 43.9941 176.898 59.4492 165.873 82.292L205.689 95.8519Z" fill="url(#paint30_linear_2398_4826)"/>
<path d="M258.606 112.594C256.357 125.006 245.05 134.764 231.198 135.195C227.788 135.301 223.812 133.257 223.812 133.257C223.812 133.257 220.165 133.458 219.54 133.214L197.918 166.692C207.968 171.229 219.322 173.452 231.198 172.769C265.735 170.785 292.889 144.786 295.904 113.487L258.606 112.594Z" fill="url(#paint31_linear_2398_4826)"/>
<path d="M191.15 163.17L195.476 163.319L212.971 129.593C206.444 124.761 202.249 117.241 202.249 108.711C202.249 106.65 202.496 104.64 202.962 102.706L167.328 89.2578L162.994 89.3085C160.847 95.6013 159.688 102.297 159.688 109.233C159.688 132.201 172.29 151.976 191.15 163.17Z" fill="url(#paint32_linear_2398_4826)"/>
<path d="M235.434 81.8439C248.049 83.721 257.748 93.4964 258.9 105.577L319.892 107.345C319.892 107.332 319.892 107.319 319.892 107.306C319.892 107.306 319.892 107.286 319.893 107.268C319.893 107.222 329.087 105.789 329.087 105.783C329.084 105.365 245.768 17.7852 245.768 17.7852L236.527 19.3036C236.527 19.3036 235.799 60.9972 235.434 81.8439Z" fill="url(#paint33_linear_2398_4826)"/>
<path d="M210.053 95.8498C214.47 88.1218 222.689 82.6645 232.238 81.6764L232.902 43.9004C205.471 43.9922 181.262 59.4473 170.237 82.29L210.053 95.8498Z" fill="url(#paint34_linear_2398_4826)"/>
<path d="M262.97 112.59C260.722 125.002 249.415 134.76 235.562 135.191C231.432 135.319 227.485 134.606 223.905 133.21L202.282 166.688C212.333 171.225 223.686 173.448 235.562 172.765C270.099 170.781 297.253 144.783 300.269 113.483L262.97 112.59Z" fill="url(#paint35_linear_2398_4826)"/>
<path d="M195.514 163.168L217.335 129.591C210.808 124.759 206.613 117.238 206.613 108.709C206.613 106.648 206.861 104.638 207.326 102.704L167.358 89.3066C165.211 95.5995 164.052 102.295 164.052 109.231C164.052 132.199 176.654 151.974 195.514 163.168Z" fill="url(#paint36_linear_2398_4826)"/>
<path d="M244.629 80.2492C257.244 82.1263 266.943 91.9018 268.095 103.983L329.087 105.75C329.087 105.724 329.088 105.699 329.088 105.673C329.088 60.9292 293.437 22.638 245.722 17.709L244.629 80.2492Z" fill="url(#paint37_linear_2398_4826)"/>
<g opacity="0.3">
<path d="M227.223 134.28C226.088 133.988 224.979 133.632 223.905 133.213L202.283 166.691C212.333 171.227 223.686 173.45 235.562 172.768C245.158 172.217 254.182 169.809 262.278 165.952C254.106 164.715 246.809 161.615 240.983 156.45C234.345 150.565 230.041 142.381 227.223 134.28Z" fill="url(#paint38_linear_2398_4826)"/>
</g>
<g opacity="0.3">
<path d="M219.965 58.8944C217.397 54.159 213.726 50.5699 209.606 47.8281C192.271 53.8094 177.992 66.2219 170.236 82.2901L210.053 95.8499C212.817 91.0142 217.069 87.0678 222.205 84.549C223.243 74.4981 224.42 67.1099 219.965 58.8944Z" fill="url(#paint39_linear_2398_4826)"/>
</g>
<path d="M519.852 492.353C520.062 491.193 523.81 490.142 525.665 491.696C526.587 492.468 527.221 494.033 526.688 494.739C526.494 494.996 527.288 495.448 526.527 495.457C524.003 495.487 519.642 493.506 519.852 492.353Z" fill="url(#paint40_linear_2398_4826)"/>
<path d="M523.949 492.358L527.837 492.552C526.49 490.103 528.109 483.443 528.109 483.443L523.912 483.567C523.912 483.567 524.015 485.5 524.271 488.372C524.358 489.355 524.197 490.837 523.949 492.358Z" fill="url(#paint41_linear_2398_4826)"/>
<path d="M523.438 492.3C523.438 492.3 528.078 491.231 528.58 492.151C529.082 493.072 529.471 495.536 526.527 495.457C523.583 495.377 523.176 493.08 523.438 492.3Z" fill="url(#paint42_linear_2398_4826)"/>
<path d="M470.642 500.768C471.013 499.649 474.87 499.133 476.49 500.932C477.294 501.825 477.704 503.463 477.077 504.088C476.849 504.315 477.572 504.874 476.817 504.776C474.314 504.452 470.273 501.881 470.642 500.768Z" fill="url(#paint43_linear_2398_4826)"/>
<path d="M475.2 501.847L479.02 502.596C478.038 499.98 480.596 493.621 480.596 493.621L476.424 493.141C476.424 493.141 476.249 495.069 476.09 497.948C476.036 498.934 475.663 500.376 475.2 501.847Z" fill="url(#paint44_linear_2398_4826)"/>
<path d="M474.2 501.219C474.2 501.219 478.944 500.81 479.312 501.792C479.68 502.773 479.721 505.268 476.817 504.777C473.913 504.287 473.832 501.955 474.2 501.219Z" fill="url(#paint45_linear_2398_4826)"/>
<path d="M509.29 367.409C510.331 385.196 511.787 403.692 513.749 422.833C516.022 445.008 518.784 466.197 521.88 486.334C525.697 487.643 529.225 486.334 529.225 486.334C529.225 486.334 533.687 479.025 537.093 459.597C539.279 447.131 539.43 447.289 539.454 445.114C539.578 434.144 535.729 430.968 534.995 421.162C534.316 412.09 537.204 409.373 538.929 399.159C540.256 391.306 540.754 379.861 536.569 364.902C527.476 365.738 518.383 366.573 509.29 367.409Z" fill="url(#paint46_linear_2398_4826)"/>
<path opacity="0.3" d="M509.29 367.407C510.331 385.194 511.787 403.69 513.749 422.831C516.022 445.007 518.784 466.195 521.88 486.333C525.697 487.642 529.224 486.333 529.224 486.333C529.176 484.469 529.046 481.66 528.657 478.267C527.624 469.268 525.978 466.707 525.81 461.185C525.594 454.122 528.151 453.905 528.657 446.95C529.441 436.169 523.521 433.613 522.963 424.173C522.372 414.199 528.617 410.917 533.402 398.55C536.226 391.249 538.733 380.288 536.569 364.9C527.476 365.736 518.383 366.572 509.29 367.407Z" fill="url(#paint47_linear_2398_4826)"/>
<path d="M490.143 366.85C484.917 384.455 479.852 406.322 477.028 431.743C474.288 456.415 474.338 478.325 475.455 496.359C477.116 496.823 478.777 497.287 480.438 497.751C490.098 487.645 493.546 478.355 494.864 471.571C496.814 461.535 493.876 458.132 496.438 446.783C497.027 444.172 497.856 441.368 507.454 422.553C516.614 404.594 518.493 401.986 520.044 395.537C522.259 386.331 521.674 378.167 520.831 372.699C510.602 370.749 500.372 368.799 490.143 366.85Z" fill="url(#paint48_linear_2398_4826)"/>
<path d="M448.952 328.8L432.561 290.403C431.742 288.485 432.841 286.29 434.868 285.798L464.894 278.506C466.517 278.112 468.184 278.964 468.815 280.51L483.892 317.414C484.643 319.252 483.654 321.337 481.755 321.918L453.044 330.703C451.394 331.208 449.63 330.387 448.952 328.8Z" fill="#26264F"/>
<path d="M449.694 326.953L434.383 291.087C433.618 289.295 434.645 287.245 436.539 286.785L464.585 279.974C466.101 279.606 467.658 280.402 468.248 281.846L482.331 316.317C483.032 318.034 482.108 319.982 480.334 320.524L453.516 328.73C451.975 329.201 450.327 328.435 449.694 326.953Z" fill="url(#paint49_linear_2398_4826)"/>
<path d="M440.242 316.41L439.75 311.886L437.143 306.916C436.788 306.239 436.602 305.486 436.602 304.722V299.787L439.75 307.066C439.75 307.066 441.816 305.197 442.602 304.803C443.389 304.41 443.291 305.984 442.701 306.574C442.111 307.164 442.996 311.984 442.406 312.476L442.602 315.426L440.242 316.41Z" fill="url(#paint50_linear_2398_4826)"/>
<path d="M465.225 287.592C467.673 281.606 472.927 278.164 475.651 276.379C482.097 272.155 486.225 272.926 501.028 270.674C520.757 267.672 523.118 264.827 529.749 267.133C538.459 270.161 543.008 278.067 545.093 281.69C555.604 299.955 543.315 309.239 546.47 345.624C547.759 360.483 551.062 373.396 543.126 381.033C541.455 382.641 539.586 383.482 535.847 385.164C521.021 391.835 507.728 390.685 499.651 389.886C490.763 389.006 486.27 388.501 483.913 385.361C480.149 380.345 484.024 373.969 484.7 362.935C485.186 355.013 483.385 348.736 479.782 336.181C471.408 306.995 460.536 299.059 465.225 287.592Z" fill="url(#paint51_linear_2398_4826)"/>
<path d="M498.248 259.904C497.35 256.704 498.92 253.741 499.266 253.102C500.715 250.429 501.087 250.064 501.778 249.601L502.739 249.008C502.739 249.008 502.795 248.986 502.853 248.965C503.47 248.745 505.572 248.681 505.998 248.773C507.358 249.063 508.807 254.605 508.394 262.44C508.45 262.739 508.504 263.04 508.557 263.344C508.771 264.581 508.941 265.794 509.073 266.98C509.199 268.114 510.807 268.088 511.946 268.015C516.569 267.72 518.831 268.114 519.028 268.802C519.397 270.092 513.913 274.311 507.143 275.259C498.056 275.327 490.664 274.359 491.458 272.929C491.811 272.293 498.852 270.454 500.832 268.63C502.645 266.96 502.497 265.237 502.646 264.003C502.097 263.717 498.909 262.262 498.248 259.904Z" fill="url(#paint52_linear_2398_4826)"/>
<path d="M499.92 246.783C499.928 249.21 501.071 251.803 501.654 252.219C501.729 252.273 502.153 252.607 502.533 253.179C502.585 253.257 502.631 253.348 502.672 253.466C503.203 254.996 500.771 256.796 501.241 257.481C501.581 257.978 503.234 257.313 503.431 257.742C503.616 258.146 502.242 258.982 502.453 259.466C502.611 259.831 503.457 259.497 503.99 260.056C504.256 260.335 504.178 260.556 504.459 261.407C504.619 261.889 504.841 262.416 505.014 262.709C505.853 264.134 508.229 264.655 508.686 264.085C508.813 263.926 508.704 263.792 508.834 263.259C508.834 263.259 508.955 262.764 509.299 262.193C509.79 261.376 510.976 260.792 512.174 259.93C514.39 258.334 514.993 256.972 515.174 256.513C515.238 256.349 515.278 256.225 515.307 256.136C515.883 254.347 515.886 251.719 515.082 250.103C513.734 247.395 510.694 248.681 508.206 245.998C505.336 242.903 507.046 238.673 505.488 238.206C503.771 237.691 499.905 242.294 499.92 246.783Z" fill="url(#paint53_linear_2398_4826)"/>
<path d="M502.113 256.911C502.708 256.094 503.753 256.862 503.76 257.92C503.766 258.977 502.741 260.077 501.747 259.868C500.752 259.659 501.312 258.012 502.113 256.911Z" fill="url(#paint54_linear_2398_4826)"/>
<path opacity="0.3" d="M507.323 379.457C504.708 374.25 511.116 367.329 506.93 359.392C503.374 352.65 496.916 354.161 493.946 347.982C490.36 340.519 498.16 334.942 497.881 323.589C497.547 310.016 485.868 296.43 478.996 297.622C474.549 298.393 473.977 305.027 470.849 312.289C473.617 318.36 476.852 325.966 479.782 336.179C483.385 348.733 485.186 355.011 484.7 362.933C484.024 373.967 480.149 380.342 483.913 385.358C486.27 388.499 490.762 389.003 499.651 389.883C507.728 390.683 521.021 391.833 535.847 385.162C537.724 384.317 539.129 383.685 540.275 383.061C517.112 386.54 509.397 383.587 507.323 379.457Z" fill="url(#paint55_linear_2398_4826)"/>
<path d="M439.357 315.523C440.799 314.9 442.242 314.277 443.684 313.654C446.123 316.148 449.232 318.572 451.848 317.785C455.748 316.612 454.773 309.438 459.52 296.834C464.9 282.554 471.003 278.883 474.078 277.556C475.795 276.815 476.981 276.323 478.406 276.671C484.963 278.274 487.13 295.361 485.291 308.146C484.254 315.349 482.222 329.474 470.635 336.179C468.989 337.131 459.929 342.374 450.963 338.244C443.303 334.716 438.57 325.665 439.357 315.523Z" fill="url(#paint56_linear_2398_4826)"/>
<path d="M455.903 375.299L284.304 376.759C281.292 376.784 278.763 379.375 278.763 382.544V388.925V392.327V484.399C278.763 487.569 281.305 489.988 284.318 489.803L286.807 489.651L289.761 483.494L457.815 473.187C460.358 473.031 460.473 476.649 460.473 473.747V389.468V386.354V380.513C460.473 377.612 458.445 375.277 455.903 375.299Z" fill="url(#paint57_linear_2398_4826)"/>
<path d="M462.953 386.354V473.748C462.953 476.427 461.263 478.74 458.994 479.206C458.801 479.249 458.639 479.274 458.44 479.286L286.816 489.804C283.802 489.99 281.243 487.572 281.243 484.403V388.927L462.953 386.354Z" fill="white"/>
<path d="M458.472 375.299L286.953 376.759C283.941 376.784 281.493 379.375 281.493 382.544V392.328L463.07 389.468V380.513C463.07 377.612 461.014 375.277 458.472 375.299Z" fill="url(#paint58_linear_2398_4826)"/>
<path d="M293.998 384.309C293.998 385.71 292.921 386.861 291.59 386.878C290.258 386.896 289.176 385.772 289.176 384.368C289.176 382.964 290.258 381.814 291.59 381.799C292.921 381.785 293.998 382.909 293.998 384.309Z" fill="white"/>
<path opacity="0.2" d="M318.861 475.516L305.262 476.271V405.408L318.861 405.107V475.516Z" fill="url(#paint59_linear_2398_4826)"/>
<path d="M318.861 475.518L305.262 476.273V442.629L318.861 442.09V475.518Z" fill="url(#paint60_linear_2398_4826)"/>
<path opacity="0.2" d="M337.494 474.484L324.135 475.225V404.992L337.494 404.697V474.484Z" fill="url(#paint61_linear_2398_4826)"/>
<path d="M337.494 474.484L324.135 475.226V458.553L337.494 457.918V474.484Z" fill="url(#paint62_linear_2398_4826)"/>
<path opacity="0.2" d="M355.8 473.468L342.675 474.196V404.583L355.8 404.293V473.468Z" fill="url(#paint63_linear_2398_4826)"/>
<path d="M355.8 473.467L342.675 474.195V465.519L355.8 464.846V473.467Z" fill="url(#paint64_linear_2398_4826)"/>
<path opacity="0.2" d="M373.789 472.471L360.891 473.186V404.181L373.789 403.896V472.471Z" fill="url(#paint65_linear_2398_4826)"/>
<path d="M373.789 472.47L360.891 473.186V419.128L373.789 418.75V472.47Z" fill="url(#paint66_linear_2398_4826)"/>
<path opacity="0.2" d="M391.467 471.488L378.792 472.191V403.784L391.467 403.504V471.488Z" fill="url(#paint67_linear_2398_4826)"/>
<path d="M391.467 471.491L378.792 472.194V424.695L391.467 424.285V471.491Z" fill="url(#paint68_linear_2398_4826)"/>
<path opacity="0.2" d="M408.844 470.525L396.385 471.216V403.396L408.844 403.121V470.525Z" fill="url(#paint69_linear_2398_4826)"/>
<path d="M408.844 470.525L396.385 471.216V413.258L408.844 412.922V470.525Z" fill="url(#paint70_linear_2398_4826)"/>
<path opacity="0.2" d="M425.927 469.577L413.678 470.257V403.015L425.927 402.744V469.577Z" fill="url(#paint71_linear_2398_4826)"/>
<path d="M425.927 469.575L413.678 470.255V428.952L425.927 428.523V469.575Z" fill="url(#paint72_linear_2398_4826)"/>
<path opacity="0.2" d="M442.722 468.645L430.679 469.313V402.639L442.722 402.373V468.645Z" fill="url(#paint73_linear_2398_4826)"/>
<path d="M442.722 468.645L430.679 469.313V446.165L442.722 445.637V468.645Z" fill="url(#paint74_linear_2398_4826)"/>
<path opacity="0.4" d="M459.053 479.205C458.861 479.249 458.668 479.274 458.47 479.286L286.831 489.804C283.817 489.99 281.244 487.572 281.244 484.403V393.678C283.104 398.639 287.83 407.83 305.139 409.455C308.122 409.74 311.533 409.796 315.291 409.566C316.476 409.492 317.679 409.449 318.832 409.43C320.631 409.393 322.401 409.418 324.119 409.504C328.876 409.734 333.349 410.404 337.486 411.452C339.278 411.905 341.012 412.432 342.674 413.027C347.611 414.782 352.009 417.12 355.799 419.93C357.641 421.294 359.341 422.77 360.892 424.339C367.695 431.217 371.658 439.949 372.278 449.394C372.384 450.988 372.905 452.327 373.792 453.45C374.914 454.876 376.62 455.955 378.791 456.786C382.09 458.051 386.456 458.727 391.467 459.137C393.049 459.267 394.692 459.366 396.385 459.453C400.323 459.651 404.534 459.763 408.844 459.906C410.444 459.962 412.063 460.017 413.681 460.092C417.781 460.272 421.911 460.526 425.93 460.96C427.536 461.134 429.117 461.332 430.68 461.574C434.959 462.225 439.034 463.137 442.724 464.458C450.401 467.211 456.404 471.708 459.053 479.205Z" fill="#D8DEE8"/>
<defs>
<linearGradient id="paint0_linear_2398_4826" x1="126.81" y1="319.05" x2="319.443" y2="319.05" gradientUnits="userSpaceOnUse">
<stop offset="0.0036" stop-color="#E38DDD"/>
<stop offset="1" stop-color="#9571F6"/>
</linearGradient>
<linearGradient id="paint1_linear_2398_4826" x1="503.467" y1="228.706" x2="419.749" y2="597.068" gradientUnits="userSpaceOnUse">
<stop offset="0.0036" stop-color="#E38DDD"/>
<stop offset="1" stop-color="#9571F6"/>
</linearGradient>
<linearGradient id="paint2_linear_2398_4826" x1="212.992" y1="128.873" x2="474.391" y2="416.92" gradientUnits="userSpaceOnUse">
<stop offset="0.0036" stop-color="#C137CA"/>
<stop offset="1" stop-color="#CD5FD4"/>
</linearGradient>
<linearGradient id="paint3_linear_2398_4826" x1="209.592" y1="268.34" x2="538.098" y2="259.186" gradientUnits="userSpaceOnUse">
<stop stop-color="#DA87DF"/>
<stop offset="0.9964" stop-color="#C137CA"/>
</linearGradient>
<linearGradient id="paint4_linear_2398_4826" x1="442.081" y1="346.477" x2="243.189" y2="183.747" gradientUnits="userSpaceOnUse">
<stop stop-color="#CD5FD4"/>
<stop offset="0.9964" stop-color="#C137CA"/>
</linearGradient>
<linearGradient id="paint5_linear_2398_4826" x1="496.955" y1="458.82" x2="256.295" y2="133.576" gradientUnits="userSpaceOnUse">
<stop stop-color="#DA87DF"/>
<stop offset="0.9964" stop-color="#C137CA"/>
</linearGradient>
<linearGradient id="paint6_linear_2398_4826" x1="418.1" y1="496.462" x2="185.83" y2="182.557" gradientUnits="userSpaceOnUse">
<stop stop-color="#E6AFEA"/>
<stop offset="0.9964" stop-color="#C137CA"/>
</linearGradient>
<linearGradient id="paint7_linear_2398_4826" x1="360.035" y1="429.347" x2="354.603" y2="470.714" gradientUnits="userSpaceOnUse">
<stop stop-color="#C137CA"/>
<stop offset="0.9964" stop-color="#E6AFEA"/>
</linearGradient>
<linearGradient id="paint8_linear_2398_4826" x1="356.24" y1="70.9527" x2="359.316" y2="74.3428" gradientUnits="userSpaceOnUse">
<stop stop-color="#FF9085"/>
<stop offset="1" stop-color="#FB6FBB"/>
</linearGradient>
<linearGradient id="paint9_linear_2398_4826" x1="319.95" y1="223.123" x2="431.302" y2="223.123" gradientUnits="userSpaceOnUse">
<stop stop-color="#444B8C"/>
<stop offset="0.9964" stop-color="#26264F"/>
</linearGradient>
<linearGradient id="paint10_linear_2398_4826" x1="369.633" y1="211.626" x2="798.818" y2="-339.582" gradientUnits="userSpaceOnUse">
<stop stop-color="#AB316D"/>
<stop offset="1" stop-color="#792D3D"/>
</linearGradient>
<linearGradient id="paint11_linear_2398_4826" x1="409.717" y1="161.746" x2="487.954" y2="61.2661" gradientUnits="userSpaceOnUse">
<stop stop-color="#FCB148"/>
<stop offset="0.0521" stop-color="#FDBA46"/>
<stop offset="0.1424" stop-color="#FFC244"/>
<stop offset="0.3183" stop-color="#FFC444"/>
<stop offset="0.4849" stop-color="#FDB946"/>
<stop offset="0.7754" stop-color="#F99C4D"/>
<stop offset="0.8658" stop-color="#F8924F"/>
<stop offset="1" stop-color="#F8924F"/>
</linearGradient>
<linearGradient id="paint12_linear_2398_4826" x1="494.206" y1="125.988" x2="445.155" y2="1.22641" gradientUnits="userSpaceOnUse">
<stop stop-color="#FCB148"/>
<stop offset="0.0521" stop-color="#FDBA46"/>
<stop offset="0.1424" stop-color="#FFC244"/>
<stop offset="0.3183" stop-color="#FFC444"/>
<stop offset="0.4849" stop-color="#FDB946"/>
<stop offset="0.7754" stop-color="#F99C4D"/>
<stop offset="0.8658" stop-color="#F8924F"/>
<stop offset="1" stop-color="#F8924F"/>
</linearGradient>
<linearGradient id="paint13_linear_2398_4826" x1="416.221" y1="171.207" x2="522.966" y2="34.1122" gradientUnits="userSpaceOnUse">
<stop stop-color="#FCB148"/>
<stop offset="0.0521" stop-color="#FDBA46"/>
<stop offset="0.1424" stop-color="#FFC244"/>
<stop offset="0.3183" stop-color="#FFC444"/>
<stop offset="0.4849" stop-color="#FDB946"/>
<stop offset="0.7754" stop-color="#F99C4D"/>
<stop offset="0.8658" stop-color="#F8924F"/>
<stop offset="1" stop-color="#F8924F"/>
</linearGradient>
<linearGradient id="paint14_linear_2398_4826" x1="206.498" y1="507.032" x2="200.046" y2="470.853" gradientUnits="userSpaceOnUse">
<stop stop-color="#444B8C"/>
<stop offset="0.9964" stop-color="#26264F"/>
</linearGradient>
<linearGradient id="paint15_linear_2398_4826" x1="198.174" y1="499.149" x2="204.824" y2="443.042" gradientUnits="userSpaceOnUse">
<stop stop-color="#FFC444"/>
<stop offset="0.9964" stop-color="#F36F56"/>
</linearGradient>
<linearGradient id="paint16_linear_2398_4826" x1="218.832" y1="501.598" x2="225.483" y2="445.491" gradientUnits="userSpaceOnUse">
<stop stop-color="#FFC444"/>
<stop offset="0.9964" stop-color="#F36F56"/>
</linearGradient>
<linearGradient id="paint17_linear_2398_4826" x1="222.482" y1="504.182" x2="216.03" y2="468.003" gradientUnits="userSpaceOnUse">
<stop stop-color="#444B8C"/>
<stop offset="0.9964" stop-color="#26264F"/>
</linearGradient>
<linearGradient id="paint18_linear_2398_4826" x1="207.673" y1="377.509" x2="188.778" y2="492.832" gradientUnits="userSpaceOnUse">
<stop stop-color="#311944"/>
<stop offset="1" stop-color="#893976"/>
</linearGradient>
<linearGradient id="paint19_linear_2398_4826" x1="207.673" y1="377.509" x2="188.778" y2="492.832" gradientUnits="userSpaceOnUse">
<stop stop-color="#311944"/>
<stop offset="1" stop-color="#893976"/>
</linearGradient>
<linearGradient id="paint20_linear_2398_4826" x1="280.376" y1="436.138" x2="186.419" y2="420.647" gradientUnits="userSpaceOnUse">
<stop stop-color="#311944"/>
<stop offset="1" stop-color="#893976"/>
</linearGradient>
<linearGradient id="paint21_linear_2398_4826" x1="137.629" y1="444.318" x2="221.579" y2="309.128" gradientUnits="userSpaceOnUse">
<stop offset="0.494" stop-color="#EBEFF2"/>
<stop offset="1" stop-color="white"/>
</linearGradient>
<linearGradient id="paint22_linear_2398_4826" x1="127.906" y1="365.382" x2="243.522" y2="365.382" gradientUnits="userSpaceOnUse">
<stop stop-color="#AA80F9"/>
<stop offset="0.9964" stop-color="#6165D7"/>
</linearGradient>
<linearGradient id="paint23_linear_2398_4826" x1="233.452" y1="267.385" x2="219.051" y2="285.5" gradientUnits="userSpaceOnUse">
<stop stop-color="#FFC444"/>
<stop offset="0.9964" stop-color="#F36F56"/>
</linearGradient>
<linearGradient id="paint24_linear_2398_4826" x1="274.869" y1="302.985" x2="245.842" y2="339.499" gradientUnits="userSpaceOnUse">
<stop stop-color="#444B8C"/>
<stop offset="0.9964" stop-color="#26264F"/>
</linearGradient>
<linearGradient id="paint25_linear_2398_4826" x1="272.357" y1="303.735" x2="247.147" y2="341.097" gradientUnits="userSpaceOnUse">
<stop stop-color="#FFC444"/>
<stop offset="0.9964" stop-color="#F36F56"/>
</linearGradient>
<linearGradient id="paint26_linear_2398_4826" x1="272.681" y1="300.164" x2="279.903" y2="288.828" gradientUnits="userSpaceOnUse">
<stop stop-color="#AA80F9"/>
<stop offset="0.9964" stop-color="#6165D7"/>
</linearGradient>
<linearGradient id="paint27_linear_2398_4826" x1="278.176" y1="319.164" x2="271.211" y2="327.925" gradientUnits="userSpaceOnUse">
<stop stop-color="#FFC444"/>
<stop offset="0.9964" stop-color="#F36F56"/>
</linearGradient>
<linearGradient id="paint28_linear_2398_4826" x1="166.025" y1="461.947" x2="249.973" y2="326.759" gradientUnits="userSpaceOnUse">
<stop offset="0.494" stop-color="#EBEFF2"/>
<stop offset="1" stop-color="white"/>
</linearGradient>
<linearGradient id="paint29_linear_2398_4826" x1="162.278" y1="347.205" x2="188.87" y2="281.153" gradientUnits="userSpaceOnUse">
<stop stop-color="#444B8C"/>
<stop offset="0.9964" stop-color="#26264F"/>
</linearGradient>
<linearGradient id="paint30_linear_2398_4826" x1="194.428" y1="37.9899" x2="208.04" y2="161.045" gradientUnits="userSpaceOnUse">
<stop stop-color="#311944"/>
<stop offset="1" stop-color="#893976"/>
</linearGradient>
<linearGradient id="paint31_linear_2398_4826" x1="244.443" y1="135.104" x2="297.55" y2="242.371" gradientUnits="userSpaceOnUse">
<stop stop-color="#311944"/>
<stop offset="1" stop-color="#893976"/>
</linearGradient>
<linearGradient id="paint32_linear_2398_4826" x1="160.81" y1="90.0995" x2="238.662" y2="190.196" gradientUnits="userSpaceOnUse">
<stop stop-color="#311944"/>
<stop offset="1" stop-color="#893976"/>
</linearGradient>
<linearGradient id="paint33_linear_2398_4826" x1="313.02" y1="20.4118" x2="261.168" y2="92.7197" gradientUnits="userSpaceOnUse">
<stop stop-color="#311944"/>
<stop offset="1" stop-color="#893976"/>
</linearGradient>
<linearGradient id="paint34_linear_2398_4826" x1="198.801" y1="38.0724" x2="212.288" y2="159.99" gradientUnits="userSpaceOnUse">
<stop stop-color="#FFC444"/>
<stop offset="0.9964" stop-color="#F36F56"/>
</linearGradient>
<linearGradient id="paint35_linear_2398_4826" x1="248.807" y1="135.1" x2="301.914" y2="242.367" gradientUnits="userSpaceOnUse">
<stop offset="0.0036" stop-color="#E38DDD"/>
<stop offset="1" stop-color="#9571F6"/>
</linearGradient>
<linearGradient id="paint36_linear_2398_4826" x1="165.189" y1="90.1175" x2="240.286" y2="186.671" gradientUnits="userSpaceOnUse">
<stop stop-color="#AA80F9"/>
<stop offset="0.9964" stop-color="#6165D7"/>
</linearGradient>
<linearGradient id="paint37_linear_2398_4826" x1="325.256" y1="8.94598" x2="268.363" y2="88.2831" gradientUnits="userSpaceOnUse">
<stop stop-color="#FF9085"/>
<stop offset="1" stop-color="#FB6FBB"/>
</linearGradient>
<linearGradient id="paint38_linear_2398_4826" x1="223.458" y1="148.503" x2="275.434" y2="253.483" gradientUnits="userSpaceOnUse">
<stop offset="0.0036" stop-color="#E38DDD"/>
<stop offset="1" stop-color="#9571F6"/>
</linearGradient>
<linearGradient id="paint39_linear_2398_4826" x1="192.564" y1="38.8846" x2="206.022" y2="160.55" gradientUnits="userSpaceOnUse">
<stop stop-color="#FFC444"/>
<stop offset="0.9964" stop-color="#F36F56"/>
</linearGradient>
<linearGradient id="paint40_linear_2398_4826" x1="517.77" y1="489.004" x2="526.022" y2="494.487" gradientUnits="userSpaceOnUse">
<stop stop-color="#444B8C"/>
<stop offset="0.9964" stop-color="#26264F"/>
</linearGradient>
<linearGradient id="paint41_linear_2398_4826" x1="525.555" y1="494.463" x2="526.197" y2="481.583" gradientUnits="userSpaceOnUse">
<stop stop-color="#FFC444"/>
<stop offset="0.9964" stop-color="#F36F56"/>
</linearGradient>
<linearGradient id="paint42_linear_2398_4826" x1="518.39" y1="488.071" x2="526.641" y2="493.554" gradientUnits="userSpaceOnUse">
<stop stop-color="#444B8C"/>
<stop offset="0.9964" stop-color="#26264F"/>
</linearGradient>
<linearGradient id="paint43_linear_2398_4826" x1="469.05" y1="497.161" x2="476.452" y2="503.745" gradientUnits="userSpaceOnUse">
<stop stop-color="#444B8C"/>
<stop offset="0.9964" stop-color="#26264F"/>
</linearGradient>
<linearGradient id="paint44_linear_2398_4826" x1="476.487" y1="504.16" x2="478.971" y2="491.506" gradientUnits="userSpaceOnUse">
<stop stop-color="#FFC444"/>
<stop offset="0.9964" stop-color="#F36F56"/>
</linearGradient>
<linearGradient id="paint45_linear_2398_4826" x1="469.794" y1="496.325" x2="477.196" y2="502.91" gradientUnits="userSpaceOnUse">
<stop stop-color="#444B8C"/>
<stop offset="0.9964" stop-color="#26264F"/>
</linearGradient>
<linearGradient id="paint46_linear_2398_4826" x1="509.29" y1="425.909" x2="539.878" y2="425.909" gradientUnits="userSpaceOnUse">
<stop stop-color="#311944"/>
<stop offset="1" stop-color="#6B3976"/>
</linearGradient>
<linearGradient id="paint47_linear_2398_4826" x1="509.29" y1="425.908" x2="537.386" y2="425.908" gradientUnits="userSpaceOnUse">
<stop stop-color="#311944"/>
<stop offset="1" stop-color="#6B3976"/>
</linearGradient>
<linearGradient id="paint48_linear_2398_4826" x1="565.873" y1="446.842" x2="481.728" y2="431.657" gradientUnits="userSpaceOnUse">
<stop stop-color="#311944"/>
<stop offset="0.7407" stop-color="#5C3169"/>
<stop offset="1" stop-color="#6B3976"/>
</linearGradient>
<linearGradient id="paint49_linear_2398_4826" x1="443.232" y1="226.594" x2="498.61" y2="509.017" gradientUnits="userSpaceOnUse">
<stop stop-color="#FFC444"/>
<stop offset="0.9964" stop-color="#F36F56"/>
</linearGradient>
<linearGradient id="paint50_linear_2398_4826" x1="437.514" y1="303.992" x2="465.971" y2="349.705" gradientUnits="userSpaceOnUse">
<stop stop-color="#FFC444"/>
<stop offset="0.9964" stop-color="#F36F56"/>
</linearGradient>
<linearGradient id="paint51_linear_2398_4826" x1="464.094" y1="328.398" x2="549.434" y2="328.398" gradientUnits="userSpaceOnUse">
<stop stop-color="#FF9085"/>
<stop offset="1" stop-color="#FB6FBB"/>
</linearGradient>
<linearGradient id="paint52_linear_2398_4826" x1="498.154" y1="254.808" x2="519.117" y2="302.901" gradientUnits="userSpaceOnUse">
<stop stop-color="#FFC444"/>
<stop offset="0.9964" stop-color="#F36F56"/>
</linearGradient>
<linearGradient id="paint53_linear_2398_4826" x1="512.541" y1="293.36" x2="507.993" y2="251.602" gradientUnits="userSpaceOnUse">
<stop stop-color="#311944"/>
<stop offset="1" stop-color="#6B3976"/>
</linearGradient>
<linearGradient id="paint54_linear_2398_4826" x1="496.587" y1="244.935" x2="519.993" y2="298.631" gradientUnits="userSpaceOnUse">
<stop stop-color="#FFC444"/>
<stop offset="0.9964" stop-color="#F36F56"/>
</linearGradient>
<linearGradient id="paint55_linear_2398_4826" x1="462.268" y1="321.038" x2="514.596" y2="371.004" gradientUnits="userSpaceOnUse">
<stop stop-color="#FF9085"/>
<stop offset="1" stop-color="#FB6FBB"/>
</linearGradient>
<linearGradient id="paint56_linear_2398_4826" x1="439.272" y1="308.183" x2="485.92" y2="308.183" gradientUnits="userSpaceOnUse">
<stop stop-color="#FF9085"/>
<stop offset="1" stop-color="#FB6FBB"/>
</linearGradient>
<linearGradient id="paint57_linear_2398_4826" x1="402.658" y1="325.051" x2="321.413" y2="578.594" gradientUnits="userSpaceOnUse">
<stop stop-color="#311944"/>
<stop offset="1" stop-color="#893976"/>
</linearGradient>
<linearGradient id="paint58_linear_2398_4826" x1="387.227" y1="360.727" x2="306.026" y2="493.473" gradientUnits="userSpaceOnUse">
<stop stop-color="#FF9085"/>
<stop offset="1" stop-color="#FB6FBB"/>
</linearGradient>
<linearGradient id="paint59_linear_2398_4826" x1="305.262" y1="440.689" x2="318.861" y2="440.689" gradientUnits="userSpaceOnUse">
<stop stop-color="#FF9085"/>
<stop offset="1" stop-color="#FB6FBB"/>
</linearGradient>
<linearGradient id="paint60_linear_2398_4826" x1="319.801" y1="434.919" x2="301.39" y2="492.375" gradientUnits="userSpaceOnUse">
<stop stop-color="#FF9085"/>
<stop offset="1" stop-color="#FB6FBB"/>
</linearGradient>
<linearGradient id="paint61_linear_2398_4826" x1="324.135" y1="439.961" x2="337.494" y2="439.961" gradientUnits="userSpaceOnUse">
<stop stop-color="#FF9085"/>
<stop offset="1" stop-color="#FB6FBB"/>
</linearGradient>
<linearGradient id="paint62_linear_2398_4826" x1="335.152" y1="452.982" x2="324.839" y2="485.166" gradientUnits="userSpaceOnUse">
<stop stop-color="#FF9085"/>
<stop offset="1" stop-color="#FB6FBB"/>
</linearGradient>
<linearGradient id="paint63_linear_2398_4826" x1="342.675" y1="439.245" x2="355.8" y2="439.245" gradientUnits="userSpaceOnUse">
<stop stop-color="#FF9085"/>
<stop offset="1" stop-color="#FB6FBB"/>
</linearGradient>
<linearGradient id="paint64_linear_2398_4826" x1="351.963" y1="460.988" x2="345.487" y2="481.196" gradientUnits="userSpaceOnUse">
<stop stop-color="#FF9085"/>
<stop offset="1" stop-color="#FB6FBB"/>
</linearGradient>
<linearGradient id="paint65_linear_2398_4826" x1="360.891" y1="438.541" x2="373.789" y2="438.541" gradientUnits="userSpaceOnUse">
<stop stop-color="#FF9085"/>
<stop offset="1" stop-color="#FB6FBB"/>
</linearGradient>
<linearGradient id="paint66_linear_2398_4826" x1="379.101" y1="409.098" x2="351.122" y2="496.41" gradientUnits="userSpaceOnUse">
<stop stop-color="#FF9085"/>
<stop offset="1" stop-color="#FB6FBB"/>
</linearGradient>
<linearGradient id="paint67_linear_2398_4826" x1="378.792" y1="437.848" x2="391.467" y2="437.848" gradientUnits="userSpaceOnUse">
<stop stop-color="#FF9085"/>
<stop offset="1" stop-color="#FB6FBB"/>
</linearGradient>
<linearGradient id="paint68_linear_2398_4826" x1="395.566" y1="415.523" x2="370.739" y2="493" gradientUnits="userSpaceOnUse">
<stop stop-color="#FF9085"/>
<stop offset="1" stop-color="#FB6FBB"/>
</linearGradient>
<linearGradient id="paint69_linear_2398_4826" x1="396.385" y1="437.169" x2="408.844" y2="437.169" gradientUnits="userSpaceOnUse">
<stop stop-color="#FF9085"/>
<stop offset="1" stop-color="#FB6FBB"/>
</linearGradient>
<linearGradient id="paint70_linear_2398_4826" x1="415.122" y1="402.858" x2="385.367" y2="495.714" gradientUnits="userSpaceOnUse">
<stop stop-color="#FF9085"/>
<stop offset="1" stop-color="#FB6FBB"/>
</linearGradient>
<linearGradient id="paint71_linear_2398_4826" x1="413.678" y1="436.5" x2="425.927" y2="436.5" gradientUnits="userSpaceOnUse">
<stop stop-color="#FF9085"/>
<stop offset="1" stop-color="#FB6FBB"/>
</linearGradient>
<linearGradient id="paint72_linear_2398_4826" x1="428.972" y1="420.648" x2="407.161" y2="488.712" gradientUnits="userSpaceOnUse">
<stop stop-color="#FF9085"/>
<stop offset="1" stop-color="#FB6FBB"/>
</linearGradient>
<linearGradient id="paint73_linear_2398_4826" x1="430.679" y1="435.843" x2="442.722" y2="435.843" gradientUnits="userSpaceOnUse">
<stop stop-color="#FF9085"/>
<stop offset="1" stop-color="#FB6FBB"/>
</linearGradient>
<linearGradient id="paint74_linear_2398_4826" x1="442.233" y1="440.141" x2="429.078" y2="481.191" gradientUnits="userSpaceOnUse">
<stop stop-color="#FF9085"/>
<stop offset="1" stop-color="#FB6FBB"/>
</linearGradient>
</defs>
</svg>
