<svg width="608" height="542" viewBox="0 0 608 542" fill="none" xmlns="http://www.w3.org/2000/svg">
<path d="M266.506 151.18C266.506 151.18 270.388 203.486 292.155 215.831C292.155 215.831 222.267 203.761 205.082 177.587C187.897 151.412 266.506 151.18 266.506 151.18Z" fill="url(#paint0_linear_2398_4733)"/>
<path d="M336.117 305.509C379.182 317.306 389.357 314.003 397.032 325.548C397.913 326.872 402.413 333.645 401.513 342.338C400.794 349.265 396.936 354.61 394.509 356.96C379.756 371.242 339.161 353.77 315.912 334.661C310.843 330.495 297.243 319.319 299.982 311.38C301.104 308.128 304.59 306.512 307.092 305.393C318.151 300.446 329.623 303.73 336.117 305.509Z" fill="url(#paint1_linear_2398_4733)"/>
<path d="M469.081 16.0371H459.915V76.1866H469.081V16.0371Z" fill="url(#paint2_linear_2398_4733)"/>
<path d="M496.15 109.416H432.847C428.178 109.416 424.395 105.633 424.395 100.964V78.3401C424.395 73.6719 428.178 69.8887 432.847 69.8887H496.15C500.819 69.8887 504.602 73.6719 504.602 78.3401V100.964C504.6 105.633 500.817 109.416 496.15 109.416Z" fill="url(#paint3_linear_2398_4733)"/>
<path d="M607.998 240.886C607.998 277.427 578.374 307.051 541.833 307.051H387.162C350.771 307.051 320.997 277.277 320.997 240.886V206.515C320.997 141.769 373.971 88.793 438.72 88.793H490.278C555.024 88.793 608 141.767 608 206.515L607.998 240.886Z" fill="url(#paint4_linear_2398_4733)"/>
<path d="M562.856 234.62C559.101 236.476 554.891 237.449 550.614 237.449H378.383C374.106 237.449 369.896 236.476 366.141 234.62C356.917 230.061 351.712 220.853 353.014 211.408L353.109 210.722C357.523 178.729 386.498 154.133 422.021 152.284C437.051 151.502 452.823 151.098 469.275 151.193C482.163 151.268 494.62 151.646 506.615 152.264C542.273 154.101 571.461 178.6 575.891 210.714C575.923 210.944 575.955 211.176 575.987 211.407C577.287 220.853 572.08 230.061 562.856 234.62Z" fill="url(#paint5_linear_2398_4733)"/>
<path d="M419.106 230.398C437.043 230.398 451.584 215.857 451.584 197.92C451.584 179.984 437.043 165.443 419.106 165.443C401.17 165.443 386.629 179.984 386.629 197.92C386.629 215.857 401.17 230.398 419.106 230.398Z" fill="url(#paint6_radial_2398_4733)"/>
<path d="M419.106 221.231C431.981 221.231 442.417 210.795 442.417 197.92C442.417 185.046 431.981 174.609 419.106 174.609C406.232 174.609 395.795 185.046 395.795 197.92C395.795 210.795 406.232 221.231 419.106 221.231Z" fill="#EEFDFF"/>
<path d="M419.106 217.498C429.919 217.498 438.685 208.733 438.685 197.92C438.685 187.107 429.919 178.342 419.106 178.342C408.294 178.342 399.528 187.107 399.528 197.92C399.528 208.733 408.294 217.498 419.106 217.498Z" fill="url(#paint7_linear_2398_4733)"/>
<path d="M431.648 192.846C431.648 196.852 428.402 200.098 424.396 200.098C420.39 200.098 417.144 196.85 417.144 192.846C417.144 188.842 420.39 185.594 424.396 185.594C428.402 185.594 431.648 188.842 431.648 192.846Z" fill="#EEFDFF"/>
<path d="M416.212 215.83C417.81 215.83 419.106 214.534 419.106 212.935C419.106 211.337 417.81 210.041 416.212 210.041C414.613 210.041 413.317 211.337 413.317 212.935C413.317 214.534 414.613 215.83 416.212 215.83Z" fill="#EEFDFF"/>
<path d="M409.035 208.593C409.035 209.392 408.387 210.039 407.588 210.039C406.789 210.039 406.142 209.392 406.142 208.593C406.142 207.794 406.789 207.146 407.588 207.146C408.387 207.146 409.035 207.796 409.035 208.593Z" fill="#EEFDFF"/>
<path d="M506.842 230.398C524.778 230.398 539.319 215.857 539.319 197.92C539.319 179.984 524.778 165.443 506.842 165.443C488.905 165.443 474.365 179.984 474.365 197.92C474.365 215.857 488.905 230.398 506.842 230.398Z" fill="url(#paint8_radial_2398_4733)"/>
<path d="M506.842 221.231C519.716 221.231 530.153 210.795 530.153 197.92C530.153 185.046 519.716 174.609 506.842 174.609C493.967 174.609 483.531 185.046 483.531 197.92C483.531 210.795 493.967 221.231 506.842 221.231Z" fill="#EEFDFF"/>
<path d="M506.842 217.498C517.655 217.498 526.42 208.733 526.42 197.92C526.42 187.107 517.655 178.342 506.842 178.342C496.029 178.342 487.263 187.107 487.263 197.92C487.263 208.733 496.029 217.498 506.842 217.498Z" fill="url(#paint9_linear_2398_4733)"/>
<path d="M519.385 192.846C519.385 196.852 516.137 200.098 512.133 200.098C508.129 200.098 504.879 196.85 504.879 192.846C504.879 188.842 508.127 185.594 512.133 185.594C516.139 185.594 519.385 188.842 519.385 192.846Z" fill="#EEFDFF"/>
<path d="M503.947 215.83C505.546 215.83 506.842 214.534 506.842 212.935C506.842 211.337 505.546 210.041 503.947 210.041C502.349 210.041 501.053 211.337 501.053 212.935C501.053 214.534 502.349 215.83 503.947 215.83Z" fill="#EEFDFF"/>
<path d="M496.77 208.593C496.77 209.392 496.122 210.039 495.324 210.039C494.525 210.039 493.877 209.392 493.877 208.593C493.877 207.794 494.525 207.146 495.324 207.146C496.122 207.146 496.77 207.796 496.77 208.593Z" fill="#EEFDFF"/>
<path d="M476.241 12.0295C476.241 18.5145 470.983 23.7739 464.497 23.7739C458.012 23.7739 452.754 18.5163 452.754 12.0295C452.754 5.54459 458.012 0.285156 464.497 0.285156C470.983 0.285156 476.241 5.54271 476.241 12.0295Z" fill="url(#paint10_linear_2398_4733)"/>
<path d="M472.662 7.44636C472.662 9.42403 471.058 11.0256 469.081 11.0256C467.103 11.0256 465.5 9.42216 465.5 7.44636C465.5 5.4687 467.103 3.86523 469.081 3.86523C471.058 3.86711 472.662 5.4687 472.662 7.44636Z" fill="white"/>
<path d="M565.616 126.448C565.771 131.93 561.296 138.488 556.169 139.047C551.364 139.573 547.527 134.663 543.57 129.6C539.669 124.61 531.139 111.79 534.536 108.164C539.014 103.384 565.247 113.513 565.616 126.448Z" fill="#339999"/>
<path d="M521.718 105.548C523.972 105.548 525.799 103.721 525.799 101.467C525.799 99.2137 523.972 97.3867 521.718 97.3867C519.465 97.3867 517.638 99.2137 517.638 101.467C517.638 103.721 519.465 105.548 521.718 105.548Z" fill="#8AC5C5"/>
<path d="M565.034 202.502C563.724 203.427 554.596 184.829 530.089 168.704C521.475 163.035 512.971 158.996 513.476 157.821C513.989 156.629 523.567 158.846 531.234 162.403C555.666 173.737 566.591 201.404 565.034 202.502Z" fill="white"/>
<path d="M502.28 81.5905C501.988 81.6317 501.801 79.916 500.371 77.2647C500.371 77.2647 499.704 76.0242 498.94 74.9727C496.48 71.5862 488.139 71.661 487.484 71.6666C474.493 71.7789 466.141 70.9557 466.145 71.0342C466.147 71.0997 472.239 70.9763 476.703 70.8864C489.297 70.6301 496.8 69.9528 500.016 73.3262C501.35 74.7257 502.022 76.5481 502.022 76.5481C502.931 79.0216 502.628 81.54 502.28 81.5905Z" fill="white"/>
<path d="M499.578 251.385C499.26 254.496 496.671 256.893 493.557 257.192L450.535 261.34C447.424 261.64 444.423 259.785 443.515 256.792C443.111 255.461 442.8 254.09 442.589 252.679C442.531 252.29 442.634 251.893 442.877 251.581C443.12 251.27 443.48 251.074 443.873 251.035L498.149 245.8C498.536 245.762 498.92 245.886 499.214 246.14C499.507 246.395 499.681 246.759 499.698 247.147C499.764 248.582 499.721 249.996 499.578 251.385Z" fill="#EEFDFF"/>
<path d="M499.58 251.389C498.205 264.725 487.602 275.689 473.751 277.012C460.088 278.335 447.749 269.863 443.693 257.318C444.776 259.999 447.594 261.632 450.533 261.339L493.567 257.196C496.676 256.888 499.254 254.498 499.58 251.389Z" fill="url(#paint11_linear_2398_4733)"/>
<path d="M567.363 348.015C567.363 348.41 567.363 348.787 567.346 349.149C567.21 352.758 566.366 355.473 565.954 356.693C554.113 392.869 547.016 411.946 537.066 427.378C535.348 430.042 533.543 432.602 531.601 435.111C529.058 438.462 526.274 441.727 523.179 445.096C516.305 452.573 505.908 455.957 502.557 457.127C490.304 461.458 479.476 460.667 472.276 460.736H471.021C463.802 460.667 452.994 461.458 440.74 457.127C437.389 455.957 426.975 452.573 420.118 445.096C401.213 424.524 393.944 407.425 377.343 356.693C376.948 355.525 376.157 352.997 375.968 349.613C375.917 348.632 375.898 347.654 375.951 346.673C376.312 340.607 378.768 334.659 383.135 329.23C390.612 319.916 402.16 314.812 414.104 314.759L471.659 314.518L528.165 314.295C540.368 314.243 552.191 319.366 559.941 328.799C563.689 333.37 566.076 338.302 566.953 343.39C567.073 344.112 567.176 344.851 567.245 345.573C567.311 346.381 567.363 347.19 567.363 348.015Z" fill="url(#paint12_linear_2398_4733)"/>
<path d="M471.648 314.53L414.093 314.771C402.149 314.823 390.601 319.928 383.124 329.241C378.759 334.673 376.303 340.619 375.94 346.685C376.232 340.464 378.793 334.362 383.347 328.811C391.08 319.376 402.922 314.255 415.122 314.307L471.648 314.53Z" fill="url(#paint13_linear_2398_4733)"/>
<path d="M528.851 399.318C528.011 354.674 521.969 345.845 530.879 335.225C531.902 334.005 537.128 327.776 545.722 326.186C552.569 324.919 558.785 327.112 561.726 328.777C579.591 338.898 574.29 382.775 562.521 410.473C559.956 416.513 553.073 432.714 544.683 432.327C541.246 432.168 538.711 429.279 536.933 427.196C529.066 417.982 528.978 406.048 528.851 399.318Z" fill="url(#paint14_linear_2398_4733)"/>
<path d="M537.064 427.378C535.347 430.042 533.541 432.602 531.599 435.111C530.98 434.475 530.43 433.838 529.932 433.255C522.061 424.044 521.974 412.116 521.855 405.38C521.013 360.732 514.964 351.916 523.883 341.294C524.536 340.505 526.925 337.668 530.809 335.314C522.01 345.901 528.009 354.803 528.851 399.315C528.97 406.05 529.073 417.978 536.928 427.208C536.978 427.258 537.031 427.309 537.064 427.378Z" fill="url(#paint15_linear_2398_4733)"/>
<path d="M562.258 362.143C562.005 357.346 561.105 353.819 559.305 346.762C556.951 337.53 553.999 333.03 555.917 331.247C557.165 330.087 559.623 330.871 560.181 331.049C568.619 333.741 571.231 349.572 570.868 359.479C570.645 365.545 569.165 372.327 566.943 372.627C566.593 372.673 565.721 372.629 565.098 372.077C562.617 369.886 562.45 365.79 562.258 362.143Z" fill="url(#paint16_linear_2398_4733)"/>
<path d="M568.052 379.075C568.052 380.043 567.268 380.827 566.3 380.827C565.333 380.827 564.549 380.043 564.549 379.075C564.549 378.108 565.333 377.324 566.3 377.324C567.268 377.324 568.052 378.108 568.052 379.075Z" fill="white"/>
<path d="M469.081 541.375C519.786 541.375 560.892 524.547 560.892 503.788C560.892 483.029 519.786 466.201 469.081 466.201C418.375 466.201 377.27 483.029 377.27 503.788C377.27 524.547 418.375 541.375 469.081 541.375Z" fill="url(#paint17_radial_2398_4733)"/>
<path d="M214.263 177.586H88.7928C39.9574 177.586 0 137.628 0 88.7929C0 39.9575 39.9574 0 88.7928 0H214.263C263.099 0 303.056 39.9575 303.056 88.7929C303.056 137.628 263.101 177.586 214.263 177.586Z" fill="url(#paint18_linear_2398_4733)"/>
<path d="M95.248 122.773C95.2948 123.794 92.2824 124.443 86.2147 124.724C80.1451 125.003 77.0879 124.632 77.0411 123.611L76.0888 102.88L63.4706 103.46L64.423 124.191C64.4697 125.212 61.4593 125.864 55.3897 126.142C49.3201 126.421 46.2629 126.051 46.2161 125.029L43.4695 65.2707C43.4115 64.0096 46.4163 63.2388 52.4859 62.96C58.5555 62.6812 61.6183 63.1733 61.6763 64.4344L62.6492 85.6161L75.2693 85.0361L74.3038 64.0358C74.2645 63.1939 75.7389 62.5241 78.7269 62.0264C80.2836 61.8355 81.8122 61.7045 83.3165 61.6353L87.9211 61.6035C90.9428 61.8262 92.4733 62.3575 92.5107 63.1995L95.248 122.773Z" fill="url(#paint19_linear_2398_4733)"/>
<path d="M137.838 119.908C134.154 122.304 129.338 123.64 123.39 123.914C117.442 124.187 112.331 122.389 108.059 118.521C103.786 114.654 101.484 109.131 101.155 101.95C100.826 94.7706 102.526 88.8956 106.261 84.3266C109.994 79.7594 114.866 77.3365 120.875 77.0614C126.883 76.7845 131.595 78.1036 135.011 81.0186C138.427 83.9337 140.235 87.584 140.437 91.9697C140.884 101.705 135.52 106.827 124.344 107.342L118.125 107.628C118.207 109.432 118.761 110.656 119.783 111.301C120.806 111.947 122.279 112.225 124.202 112.136C128.408 111.943 132.36 110.798 136.057 108.7C136.113 108.639 136.403 109.045 136.925 109.924C138.485 112.442 139.307 114.587 139.389 116.358C139.473 118.134 138.953 119.316 137.838 119.908ZM125.375 94.3777C125.259 91.8537 123.968 90.6487 121.506 90.7629C120.363 90.8153 119.403 91.2063 118.625 91.9341C117.844 92.6638 117.485 93.6892 117.547 95.0101L117.676 97.8035L122.543 97.579C124.524 97.4892 125.469 96.4227 125.375 94.3777Z" fill="url(#paint20_linear_2398_4733)"/>
<path d="M164.055 120.42C164.079 120.961 161.027 121.373 154.898 121.653C150.088 121.814 147.674 121.685 147.653 121.264L144.832 59.8835C144.791 58.9817 147.683 58.3979 153.513 58.1304C158.627 58.0761 161.196 58.2595 161.216 58.6786L164.055 120.42Z" fill="url(#paint21_linear_2398_4733)"/>
<path d="M188.569 119.295C188.593 119.836 185.541 120.248 179.412 120.528C174.601 120.689 172.188 120.56 172.167 120.139L169.346 58.7585C169.305 57.8567 172.197 57.2729 178.027 57.0054C183.143 56.9511 185.71 57.1345 185.73 57.5555L188.569 119.295Z" fill="url(#paint22_linear_2398_4733)"/>
<path d="M200.39 114.145C196.444 110.171 194.301 104.521 193.965 97.1881C193.628 89.8575 195.242 84.033 198.807 79.7147C202.371 75.3964 207.339 73.0894 213.708 72.7975C220.076 72.5057 225.22 74.3467 229.136 78.3208C233.052 82.2948 235.179 87.949 235.516 95.2797C235.853 102.612 234.253 108.435 230.719 112.751C227.183 117.068 222.23 119.375 215.863 119.667C209.494 119.958 204.336 118.119 200.39 114.145ZM214.445 87.848C211.049 88.0033 209.479 90.8472 209.733 96.3742C209.988 101.903 211.812 104.588 215.206 104.433C218.6 104.277 220.172 101.435 219.917 95.9065C219.665 90.3776 217.839 87.6908 214.445 87.848Z" fill="url(#paint23_linear_2398_4733)"/>
<path d="M242.327 103.998C242.308 103.577 245.077 103.238 250.636 102.984C256.193 102.728 258.981 102.78 258.998 103.141L259.595 116.12C259.623 116.723 256.855 117.149 251.299 117.406C245.74 117.662 242.952 117.608 242.937 117.248L242.327 103.998ZM256.951 97.9059C256.968 98.267 254.827 98.5458 250.531 98.7423C246.234 98.9406 244.08 98.8901 244.065 98.5888L240.22 54.2364C240.198 53.7574 242.935 53.3888 248.434 53.1362C253.931 52.8836 256.691 52.9678 256.709 53.3888L256.951 97.9059Z" fill="url(#paint24_linear_2398_4733)"/>
<path d="M254.659 89.2995C254.659 89.2995 251.106 57.1199 252.872 56.2424C254.638 55.3667 255.478 72.9431 254.659 89.2995Z" fill="white"/>
<path d="M258.18 105.548C258.18 106.616 257.314 107.481 256.247 107.481C255.179 107.481 254.314 106.614 254.314 105.548C254.314 104.48 255.181 103.615 256.247 103.615C257.314 103.615 258.18 104.481 258.18 105.548Z" fill="white"/>
<path d="M232.861 91.4557C232.872 89.6614 232.657 84.5461 228.943 80.3999C225.749 76.8356 221.478 75.6718 219.534 75.8982C219.163 75.9413 217.906 76.1583 217.824 76.6841C217.653 77.7711 222.789 78.5308 226.63 81.4103C228.78 83.0193 231.329 85.8969 232.861 91.4557Z" fill="white"/>
<path d="M182.866 58.1289C184.839 58.1102 185.592 94.1984 185.017 100.726C184.443 107.254 182.07 58.1364 182.866 58.1289Z" fill="white"/>
<path d="M138.221 89.0297C137.357 84.1501 131.787 78.6717 128.311 79.5287C124.832 80.3856 132.431 83.0237 135.155 85.3774C137.877 87.7331 138.221 89.0297 138.221 89.0297Z" fill="white"/>
<path d="M107.698 116.826C111.737 121.305 117.507 122.17 117.588 121.979C117.674 121.779 111.269 120.92 107.902 115.778C106.317 113.361 104.747 108.994 103.703 108.992C103.679 108.992 103.638 108.994 103.6 109.022C103.065 109.409 105.11 113.958 107.698 116.826Z" fill="white"/>
<path d="M92.9053 115.913C91.6162 117.683 91.4441 72.1401 90.619 67.689C90.619 67.689 90.619 67.689 90.619 67.3971C90.6021 67.1052 90.5853 66.5215 90.5666 65.3521C90.5628 65.0939 90.3233 64.2014 90.1175 64.0143C88.4299 62.4875 81.0132 63.2566 84.1752 62.8431C86.9686 62.4782 90.1924 62.7514 91.0137 63.047C91.373 63.1761 91.3936 63.874 91.4796 64.1322C93.0943 73.1542 94.6229 113.576 92.9053 115.913Z" fill="white"/>
<defs>
<linearGradient id="paint0_linear_2398_4733" x1="230.004" y1="146.873" x2="254.064" y2="212.179" gradientUnits="userSpaceOnUse">
<stop stop-color="#AEF0EB"/>
<stop offset="0.0131" stop-color="#B0F0EB"/>
<stop offset="0.1379" stop-color="#C2F4EB"/>
<stop offset="0.2895" stop-color="#CEF6EA"/>
<stop offset="0.4961" stop-color="#D5F8EA"/>
<stop offset="1" stop-color="#D7F8EA"/>
</linearGradient>
<linearGradient id="paint1_linear_2398_4733" x1="332.979" y1="321.259" x2="527.602" y2="462.422" gradientUnits="userSpaceOnUse">
<stop offset="0.0397" stop-color="#C137CA"/>
<stop offset="0.278508" stop-color="#FE8597"/>
</linearGradient>
<linearGradient id="paint2_linear_2398_4733" x1="445.818" y1="48.8358" x2="473.315" y2="44.8259" gradientUnits="userSpaceOnUse">
<stop offset="0.0397" stop-color="#E6AFEA"/>
<stop offset="1" stop-color="#FF9085"/>
</linearGradient>
<linearGradient id="paint3_linear_2398_4733" x1="438.804" y1="118.661" x2="487.602" y2="63.5672" gradientUnits="userSpaceOnUse">
<stop offset="0.0397" stop-color="#C137CA"/>
<stop offset="1" stop-color="#FF9085"/>
</linearGradient>
<linearGradient id="paint4_linear_2398_4733" x1="368.125" y1="309.496" x2="561.492" y2="116.129" gradientUnits="userSpaceOnUse">
<stop offset="0.0397" stop-color="#EA6AEF"/>
<stop offset="1" stop-color="#FFBEB8"/>
</linearGradient>
<linearGradient id="paint5_linear_2398_4733" x1="463.989" y1="237.17" x2="465.708" y2="159.835" gradientUnits="userSpaceOnUse">
<stop stop-color="#030D14"/>
<stop offset="1" stop-color="#0B2F45"/>
</linearGradient>
<radialGradient id="paint6_radial_2398_4733" cx="0" cy="0" r="1" gradientUnits="userSpaceOnUse" gradientTransform="translate(419.106 197.92) scale(32.1411 32.1411)">
<stop offset="0.1296" stop-color="#3280FC"/>
<stop offset="1"/>
</radialGradient>
<linearGradient id="paint7_linear_2398_4733" x1="399.527" y1="197.92" x2="438.685" y2="197.92" gradientUnits="userSpaceOnUse">
<stop stop-color="#030D14"/>
<stop offset="1" stop-color="#0B2F45"/>
</linearGradient>
<radialGradient id="paint8_radial_2398_4733" cx="0" cy="0" r="1" gradientUnits="userSpaceOnUse" gradientTransform="translate(506.841 197.92) scale(32.1411)">
<stop offset="0.1296" stop-color="#3280FC"/>
<stop offset="1"/>
</radialGradient>
<linearGradient id="paint9_linear_2398_4733" x1="487.262" y1="197.92" x2="526.42" y2="197.92" gradientUnits="userSpaceOnUse">
<stop stop-color="#030D14"/>
<stop offset="1" stop-color="#0B2F45"/>
</linearGradient>
<linearGradient id="paint10_linear_2398_4733" x1="439.777" y1="15.6339" x2="476.167" y2="10.3269" gradientUnits="userSpaceOnUse">
<stop offset="0.0397" stop-color="#C137CA"/>
<stop offset="1" stop-color="#FFA683"/>
</linearGradient>
<linearGradient id="paint11_linear_2398_4733" x1="463.323" y1="267.207" x2="519.309" y2="211.22" gradientUnits="userSpaceOnUse">
<stop offset="0.0714" stop-color="#0DA9AB"/>
<stop offset="1" stop-color="#DEFA8E"/>
</linearGradient>
<linearGradient id="paint12_linear_2398_4733" x1="410.446" y1="437.104" x2="558.781" y2="263.886" gradientUnits="userSpaceOnUse">
<stop offset="0.0397" stop-color="#E98AEF"/>
<stop offset="0.0408" stop-color="#D3BDD5"/>
<stop offset="0.1607" stop-color="#ED85F4"/>
<stop offset="0.2745" stop-color="#E6AFEA"/>
<stop offset="0.3793" stop-color="#E6AFEA"/>
<stop offset="0.4719" stop-color="#E6AFEA"/>
<stop offset="0.5423" stop-color="#E6AFEA"/>
<stop offset="0.8004" stop-color="#FF9085"/>
<stop offset="1" stop-color="#FC78AC"/>
</linearGradient>
<linearGradient id="paint13_linear_2398_4733" x1="402.588" y1="350.75" x2="491.792" y2="246.583" gradientUnits="userSpaceOnUse">
<stop offset="0.0397" stop-color="#E6AFEA"/>
<stop offset="1" stop-color="#FFA683"/>
</linearGradient>
<linearGradient id="paint14_linear_2398_4733" x1="594.255" y1="411.237" x2="483.193" y2="330.008" gradientUnits="userSpaceOnUse">
<stop offset="0.0397" stop-color="#B9D5D5"/>
<stop offset="0.0734" stop-color="#F599D0"/>
<stop offset="0.4151" stop-color="#C037C9"/>
<stop offset="0.6937" stop-color="#C037C9"/>
<stop offset="0.8955" stop-color="#E6AFEA"/>
<stop offset="1" stop-color="#E6AFEA"/>
</linearGradient>
<linearGradient id="paint15_linear_2398_4733" x1="496.379" y1="403.361" x2="575.09" y2="362.343" gradientUnits="userSpaceOnUse">
<stop offset="0.0397" stop-color="#C137CA"/>
<stop offset="1" stop-color="#E363AD"/>
</linearGradient>
<linearGradient id="paint16_linear_2398_4733" x1="563.1" y1="330.625" x2="563.1" y2="372.641" gradientUnits="userSpaceOnUse">
<stop stop-color="#B6EAEA"/>
<stop offset="1" stop-color="#007474"/>
</linearGradient>
<radialGradient id="paint17_radial_2398_4733" cx="0" cy="0" r="1" gradientUnits="userSpaceOnUse" gradientTransform="translate(469.081 503.789) scale(91.8105 37.5861)">
<stop stop-color="#E15BEA"/>
<stop offset="1" stop-color="#F9DCFB"/>
</radialGradient>
<linearGradient id="paint18_linear_2398_4733" x1="0.000374203" y1="88.7925" x2="303.056" y2="88.7925" gradientUnits="userSpaceOnUse">
<stop stop-color="#AFCFCF"/>
<stop offset="0.5053" stop-color="#E6F2F2"/>
<stop offset="1" stop-color="#ACD5D5"/>
</linearGradient>
<linearGradient id="paint19_linear_2398_4733" x1="47.7806" y1="99.517" x2="289.757" y2="36.4037" gradientUnits="userSpaceOnUse">
<stop offset="0.0397" stop-color="#C137CA"/>
<stop offset="1" stop-color="#F0CFF2"/>
</linearGradient>
<linearGradient id="paint20_linear_2398_4733" x1="52.8024" y1="118.767" x2="294.781" y2="55.6535" gradientUnits="userSpaceOnUse">
<stop offset="0.0397" stop-color="#C137CA"/>
<stop offset="1" stop-color="#F0CFF2"/>
</linearGradient>
<linearGradient id="paint21_linear_2398_4733" x1="52.2503" y1="116.639" x2="294.222" y2="53.5266" gradientUnits="userSpaceOnUse">
<stop offset="0.0397" stop-color="#C137CA"/>
<stop offset="1" stop-color="#F0CFF2"/>
</linearGradient>
<linearGradient id="paint22_linear_2398_4733" x1="53.5378" y1="121.571" x2="295.509" y2="58.4595" gradientUnits="userSpaceOnUse">
<stop offset="0.0397" stop-color="#C137CA"/>
<stop offset="1" stop-color="#F0CFF2"/>
</linearGradient>
<linearGradient id="paint23_linear_2398_4733" x1="57.6162" y1="137.225" x2="299.595" y2="74.1109" gradientUnits="userSpaceOnUse">
<stop offset="0.0397" stop-color="#C137CA"/>
<stop offset="1" stop-color="#F0CFF2"/>
</linearGradient>
<linearGradient id="paint24_linear_2398_4733" x1="57.1726" y1="135.496" x2="299.143" y2="72.3842" gradientUnits="userSpaceOnUse">
<stop offset="0.0397" stop-color="#C137CA"/>
<stop offset="1" stop-color="#F0CFF2"/>
</linearGradient>
</defs>
</svg>
