<svg width="551" height="361" viewBox="0 0 551 361" fill="none" xmlns="http://www.w3.org/2000/svg">
<path d="M55.1823 268.664C54.1311 266.122 53.0909 263.488 52.091 260.834L54.5556 260.256C55.5491 262.892 56.5822 265.509 57.6266 268.035L55.1823 268.664ZM496.066 265.381L493.514 265.133C493.938 262.426 494.341 259.7 494.71 257.031L497.266 257.252C496.895 259.931 496.491 262.666 496.066 265.381ZM49.2526 252.948C48.3526 250.326 47.48 247.655 46.6587 245.01L49.1559 244.527C49.9724 247.156 50.8398 249.811 51.7344 252.417L49.2526 252.948ZM498.319 249.11L495.759 248.919C496.085 246.201 496.386 243.468 496.655 240.795L499.218 240.955C498.948 243.639 498.645 246.382 498.319 249.11ZM44.3093 237.025C43.5667 234.354 42.8602 231.652 42.2092 228.997L44.7336 228.611C45.3805 231.251 46.0828 233.935 46.8207 236.59L44.3093 237.025ZM499.956 232.79L497.39 232.662C497.607 229.946 497.798 227.207 497.957 224.521L500.525 224.615C500.366 227.313 500.174 230.063 499.956 232.79ZM40.3666 220.928C39.7949 218.224 39.2655 215.497 38.7933 212.823L41.3397 212.543C41.8088 215.199 42.3346 217.908 42.9026 220.594L40.3666 220.928ZM500.918 216.433L498.347 216.374C498.448 213.647 498.517 210.905 498.553 208.225L501.124 208.246C501.088 210.939 501.018 213.693 500.918 216.433ZM37.5031 204.686C37.1197 201.955 36.7862 199.208 36.5115 196.522L39.0743 196.359C39.3472 199.025 39.6782 201.752 40.0586 204.463L37.5031 204.686ZM498.564 200.074C498.533 197.345 498.468 194.604 498.368 191.927L500.938 191.868C501.038 194.558 501.104 197.313 501.135 200.056L498.564 200.074ZM35.8372 188.336C35.6667 185.588 35.5535 182.83 35.501 180.138L38.0719 180.106C38.1238 182.777 38.2361 185.512 38.4052 188.237L35.8372 188.336ZM497.955 183.787C497.778 181.061 497.561 178.326 497.31 175.658L499.874 175.507C500.127 178.191 500.345 180.942 500.523 183.684L497.955 183.787ZM38.0962 171.973L35.5255 171.931C35.5971 169.176 35.7352 166.417 35.936 163.731L38.5028 163.85C38.3038 166.511 38.167 169.244 38.0962 171.973ZM496.418 167.545C496.075 164.82 495.686 162.098 495.262 159.454L497.813 159.2C498.239 161.861 498.631 164.601 498.977 167.344L496.418 167.545ZM39.3181 155.749L36.7598 155.546C37.1091 152.802 37.5349 150.059 38.0254 147.394L40.5699 147.686C40.0846 150.321 39.6634 153.034 39.3181 155.749ZM493.823 151.395C493.288 148.686 492.701 145.989 492.077 143.376L494.604 143C495.232 145.634 495.824 148.353 496.363 151.082L493.823 151.395ZM189.742 151.108C186.17 150.664 183.585 149.38 180.006 147.164L181.631 145.591C184.767 147.528 187.032 148.69 190.016 149.091L189.742 151.108ZM198.663 146.28L196.373 145.357C197.55 143.538 198.59 141.014 199.465 137.854L201.977 138.288C201.042 141.664 199.958 144.278 198.663 146.28ZM172.46 141.343C170.412 139.543 168.223 137.471 165.768 135.009L167.789 133.754C170.209 136.181 172.362 138.22 174.373 139.987L172.46 141.343ZM42.2873 139.679L39.7631 139.292C40.4291 136.584 41.1827 133.883 42.0032 131.265L44.4991 131.752C43.689 134.337 42.945 137.004 42.2873 139.679ZM489.999 135.41C489.238 132.73 488.417 130.072 487.558 127.512L490.044 126.993C490.911 129.578 491.74 132.261 492.508 134.966L489.999 135.41ZM203.707 130.121L201.157 129.862C201.552 127.439 201.906 124.787 202.239 121.752L204.801 121.927C204.464 124.99 204.107 127.67 203.707 130.121ZM159.471 128.471C157.381 126.243 155.213 123.889 153.345 121.856L155.427 120.665C157.291 122.693 159.454 125.043 161.537 127.264L159.471 128.471ZM347.708 128.304C345.706 128.304 343.741 127.832 341.869 126.901L343.24 125.184C346.052 126.585 348.819 126.588 351.806 125.47L352.913 127.302C351.146 127.967 349.396 128.304 347.708 128.304ZM47.2339 123.932L44.7751 123.338C45.7966 120.701 46.9174 118.079 48.1065 115.544L50.5177 116.248C49.3459 118.747 48.2411 121.332 47.2339 123.932ZM361.32 121.997L359.431 120.62C361.381 118.954 363.47 116.898 365.82 114.336L367.903 115.526C365.493 118.154 363.34 120.271 361.32 121.997ZM334.559 120.602C332.895 118.576 331.246 116.19 329.518 113.308L331.841 112.44C333.52 115.24 335.115 117.548 336.716 119.498L334.559 120.602ZM484.718 119.703C483.682 117.074 482.577 114.485 481.433 112.01L483.848 111.315C485.006 113.821 486.125 116.44 487.173 119.101L484.718 119.703ZM147.252 115.24C144.9 112.703 142.939 110.62 141.083 108.684L143.132 107.459C144.998 109.404 146.966 111.495 149.327 114.042L147.252 115.24ZM205.574 113.732L203.008 113.601C203.203 111.223 203.402 108.551 203.615 105.431L206.182 105.54C205.969 108.668 205.77 111.347 205.574 113.732ZM54.3716 108.736L52.0194 107.917C53.4309 105.394 54.935 102.916 56.5332 100.494L58.8132 101.432C57.2403 103.816 55.7607 106.253 54.3716 108.736ZM373.793 108.736L371.645 107.621C373.472 105.429 375.359 103.105 377.27 100.759L379.433 101.856C377.518 104.209 375.628 106.533 373.793 108.736ZM325.379 105.735C324.214 103.429 323.011 100.914 321.7 98.0446L324.118 97.356C325.42 100.204 326.613 102.699 327.767 104.983L325.379 105.735ZM477.65 104.469C476.268 101.928 474.806 99.459 473.304 97.1317L475.596 96.2109C477.122 98.5775 478.609 101.087 480.013 103.669L477.65 104.469ZM134.734 102.254C132.402 99.9687 130.23 97.9344 128.096 96.0351L130.019 94.6886C132.18 96.612 134.378 98.6703 136.737 100.981L134.734 102.254ZM206.717 97.3544L204.149 97.2523C204.322 94.5413 204.494 91.8286 204.678 89.0686L207.245 89.1751C207.062 91.9334 206.89 94.6447 206.717 97.3544ZM385.07 95.002L382.925 93.8831C385.073 91.3177 386.994 89.0983 388.799 87.0987L390.893 88.2759C389.106 90.2559 387.201 92.4561 385.07 95.002ZM63.912 94.4292L61.745 93.337C63.7654 90.8396 65.8487 88.5839 67.9368 86.6329L69.9009 87.9425C67.8861 89.8249 65.8713 92.0072 63.912 94.4292ZM318.267 90.3007C317.088 87.5734 315.931 84.8447 314.955 82.5352L317.394 81.8931C318.368 84.1993 319.523 86.9238 320.7 89.6453L318.267 90.3007ZM121.026 90.1585C118.398 88.139 115.814 86.3552 113.346 84.8563L114.914 83.2481C117.461 84.7948 120.121 86.6306 122.82 88.7046L121.026 90.1585ZM468.312 90.072C466.47 87.6991 464.538 85.4548 462.571 83.4017L464.621 82.1775C466.639 84.2833 468.619 86.5826 470.504 89.0115L468.312 90.072ZM77.1125 82.4213L75.5531 80.8078C78.6235 78.9591 81.819 77.626 85.0512 76.8454L85.8035 78.786C82.8638 79.4959 79.9399 80.7189 77.1125 82.4213ZM397.094 81.8007L395.097 80.5229C397.508 78.1747 399.793 76.154 402.082 74.3457L403.9 75.7798C401.675 77.5381 399.449 79.5075 397.094 81.8007ZM207.822 81.0027L205.255 80.882C205.478 77.9323 205.699 75.2537 205.931 72.6927L208.495 72.8375C208.264 75.3903 208.044 78.0612 207.822 81.0027ZM104.846 80.5779C101.637 79.3177 98.4818 78.5134 95.4664 78.1874L95.8155 76.1768C99.1085 76.5329 102.532 77.4024 105.991 78.7612L104.846 80.5779ZM455.957 77.2975C453.481 75.2959 450.918 73.529 448.339 72.0464L449.853 70.406C452.548 71.9554 455.221 73.7972 457.797 75.8801L455.957 77.2975ZM311.675 74.7697C310.396 71.7504 309.342 69.2885 308.358 67.0219L310.79 66.364C311.776 68.6354 312.832 71.1019 314.113 74.1262L311.675 74.7697ZM411.595 70.5997L410.122 68.937C413.284 67.191 416.478 65.8979 419.615 65.0938L420.409 67.0238C417.514 67.7657 414.549 68.969 411.595 70.5997ZM439.649 68.1137C436.465 67.0534 433.242 66.3974 430.069 66.1635L430.308 64.1429C433.743 64.3962 437.222 65.1029 440.648 66.2438L439.649 68.1137ZM209.318 64.6904L206.757 64.5108C207.077 61.6636 207.425 58.9138 207.793 56.3377L210.348 56.5646C209.983 59.1249 209.637 61.8587 209.318 64.6904ZM304.937 59.3035C303.695 56.5665 302.524 54.0644 301.358 51.6547L303.76 50.9307C304.932 53.3536 306.109 55.8684 307.357 58.6189L304.937 59.3035ZM211.657 48.4727L209.112 48.1825C209.632 45.3413 210.204 42.6089 210.811 40.0614L213.338 40.4365C212.737 42.9559 212.172 45.6596 211.657 48.4727ZM297.538 44.0779C296.156 41.455 294.764 38.9455 293.399 36.6191L295.732 35.7663C297.111 38.1168 298.518 40.6511 299.913 43.2988L297.538 44.0779ZM215.521 32.4954L213.027 32.0036C213.924 29.1698 214.912 26.5007 215.965 24.0699L218.398 24.7265C217.369 27.103 216.401 29.7168 215.521 32.4954ZM288.833 29.3361C287.142 26.8225 285.414 24.4627 283.698 22.3223L285.871 21.2373C287.621 23.421 289.382 25.8254 291.104 28.3845L288.833 29.3361ZM222.259 17.2916L219.954 16.3933C221.642 13.6934 223.514 11.3062 225.518 9.29782L227.538 10.5536C225.644 12.4513 223.869 14.7181 222.259 17.2916ZM277.805 15.7405C275.559 13.5175 273.24 11.5484 270.913 9.888L272.638 8.38284C275.067 10.1167 277.482 12.1666 279.815 14.4752L277.805 15.7405ZM234.711 5.29386L233.325 3.58477C236.371 2.0462 239.727 1.04562 243.299 0.611328L243.69 2.6169C240.475 3.00804 237.453 3.90863 234.711 5.29386ZM262.801 5.2927C259.806 4.01837 256.686 3.147 253.528 2.7032L253.979 0.705285C257.407 1.18713 260.786 2.12949 264.021 3.50636L262.801 5.2927Z" fill="#FFBDB6"/>
<path d="M70.5371 281.075C70.5371 281.075 30.7894 147.25 77.9711 117.451C109.508 97.5328 142.935 141.441 182.832 118.213C218.352 97.5331 207.061 34.6161 263.71 25.9196C327.402 16.1421 341.427 133.49 393.696 117.451C457.122 97.988 516.578 135.922 479.287 281.331L70.5371 281.075Z" fill="#E6F2F2"/>
<path d="M518.712 233.792C496.821 230.972 500.393 256.452 469.188 256.452C440.658 256.452 431.531 159.421 410.772 187.158C304.353 329.353 366.149 126.687 281.516 124.112C243.247 122.947 217.746 158.413 208.343 221.207C194.711 277.975 163.099 177.909 130.566 187.213C109.89 193.126 112.258 256.452 83.7279 256.452C52.5231 256.452 56.0956 230.972 34.2041 233.792C10.6344 236.829 3.59448 281.927 3.59448 281.927H549.322C549.322 281.927 542.282 236.829 518.712 233.792Z" fill="#E6F2F2"/>
<path d="M499.326 261.372C479.187 260.168 482.473 271.048 453.765 271.048C427.518 271.048 428.239 246.664 410.675 241.482C378.329 231.939 351.663 280.238 339.123 255.998C315.305 191.677 245.84 159.421 213.794 255.998C201.253 280.238 171.928 236.985 142.241 241.482C123.968 244.25 125.398 271.048 99.151 271.048C70.4435 271.048 73.73 260.168 53.5903 261.372C31.9069 262.669 25.4302 281.926 25.4302 281.926H527.486C527.486 281.926 521.01 262.669 499.326 261.372Z" fill="#E6F2F2"/>
<path d="M3.59446 281.924C3.59446 281.924 -8.55027 303.687 17.6979 316.598C42.1909 328.646 165.079 327.674 134.141 340.223C116.677 347.307 143.057 356.926 228.121 360.468C313.186 364.01 460.454 349.289 410.05 333.229C354.419 315.504 566.116 338.919 549.322 281.924H3.59446Z" fill="#B0D8D8"/>
<path d="M393.015 166.451C394.758 163.336 396.401 160.26 397.948 157.239C398.531 159.356 407.335 164.704 408.351 162.723C409.29 160.701 400.528 155.354 398.61 155.933C399.278 154.612 399.931 153.3 400.563 152.002C401.094 154.068 410.928 158.221 411.676 156.048C412.363 153.889 402.901 149.912 401.119 150.848C401.715 149.61 402.299 148.38 402.863 147.166C403.831 149.144 413.006 152.965 413.762 150.873C414.416 148.783 405.572 144.996 403.578 145.608C404.097 144.473 404.604 143.349 405.095 142.239C405.953 144.191 415.928 147.069 416.471 144.841C416.927 142.654 407.535 139.911 405.695 140.867C406.222 139.658 406.733 138.464 407.227 137.288C408.36 139.146 417.884 141.858 418.435 139.682C418.883 137.549 409.885 134.869 407.911 135.648C408.391 134.487 408.851 133.348 409.298 132.224C410.594 134.015 419.823 136.609 420.369 134.472C420.815 132.378 412.06 129.732 410.016 130.405C410.381 129.47 410.734 128.55 411.077 127.644C412.324 129.353 422.377 130.378 422.604 128.102C422.742 125.932 413.575 124.891 411.703 125.975C412.181 124.687 412.63 123.466 413.07 122.215C414.187 123.993 424.462 125.054 424.679 122.756C424.813 120.546 415.381 119.515 413.607 120.697C414.009 119.546 414.393 118.417 414.766 117.305C416.054 118.99 426.03 120.002 426.26 117.734C426.397 115.556 417.178 114.517 415.324 115.621C415.675 114.553 416.014 113.502 416.338 112.474C417.913 113.862 427.758 113.143 427.678 110.88C427.547 108.797 418.84 109.225 416.961 110.471C417.308 109.341 417.64 108.238 417.954 107.166C419.693 108.297 429.334 106.166 428.993 103.938C428.668 101.96 420.445 103.487 418.606 104.904C418.935 103.745 419.245 102.626 419.535 101.549C421.319 102.549 430.85 99.4272 430.325 97.2314C429.862 95.32 421.927 97.6003 420.166 99.1676C420.471 97.9928 420.748 96.8827 421.005 95.8297C422.749 96.8173 432.289 92.6858 431.574 90.5257C430.957 88.6582 423.186 91.7253 421.569 93.4664C421.855 92.2327 422.105 91.111 422.321 90.1072C424.092 90.9185 432.966 84.3572 431.812 82.4078C430.947 80.7876 424.282 85.2741 422.896 87.317C423.367 84.1086 424.544 83.4465 424.814 79.0994C425.116 75.4202 424.614 72.3614 423.693 72.2672C421.714 72.1173 420.79 82.6632 421.852 84.6426C421.769 85.1205 421.636 85.8536 421.444 86.834C420.667 84.4329 415.351 77.9069 414.08 79.1915C412.548 80.6876 418.923 89.2073 420.901 89.4801C420.672 90.5584 420.399 91.7859 420.082 93.1456C419.496 90.7519 413.901 83.6615 412.505 84.9741C410.926 86.4804 417.627 95.3859 419.56 95.3323C419.343 96.2234 419.109 97.1604 418.857 98.1411C417.988 95.7991 412.212 89.5297 410.984 90.9154C409.575 92.4979 416.185 100.279 418.208 100.616C417.921 101.689 417.613 102.807 417.287 103.965C406.548 92.1144 404.983 101.083 416.569 106.462C416.224 107.641 415.86 108.857 415.475 110.107C414.744 107.904 407.243 101.84 406.046 103.566C404.854 105.436 413.018 112.164 414.953 111.782C414.587 112.942 414.204 114.131 413.804 115.345C413.154 113.141 405.535 106.951 404.321 108.695C403.12 110.568 411.376 117.365 413.284 116.909C412.953 117.894 412.613 118.892 412.259 119.908C411.142 117.925 402.618 113.772 401.776 115.75C401.012 117.786 409.598 122.147 411.631 121.689C411.162 123.019 410.683 124.319 410.171 125.694C409.229 123.672 400.405 119.321 399.542 121.342C398.764 123.414 407.622 127.873 409.577 127.27C409.211 128.234 408.836 129.21 408.445 130.207C407.305 128.352 397.792 125.644 397.241 127.819C396.793 129.958 405.833 132.644 407.794 131.847C407.278 133.138 406.74 134.454 406.182 135.795C405.141 133.904 395.457 131.13 394.906 133.325C394.456 135.482 403.612 138.185 405.535 137.338C405.064 138.452 404.574 139.584 404.073 140.727C403.452 138.707 393.121 135.709 392.597 137.973C392.125 140.197 401.857 143.003 403.563 141.888C403.04 143.068 402.496 144.266 401.94 145.474C400.673 143.777 390.657 142.758 390.428 145.03C390.281 147.152 399.164 148.209 401.128 147.225C400.565 148.43 399.985 149.646 399.39 150.873C398.348 149.057 387.945 147.975 387.736 150.285C387.598 152.455 396.764 153.496 398.636 152.412C398.159 153.382 397.671 154.358 397.173 155.339C395.897 153.722 385.463 154.442 385.575 156.761C385.699 158.826 394.311 158.421 396.22 157.205C394.786 159.984 393.27 162.808 391.67 165.664L393.015 166.451Z" fill="#B46DB9"/>
<path d="M366.232 172.146C365.899 169.955 346.871 171.055 344.439 172.498C345.608 169.994 346.763 166.915 347.671 163.247C349.509 164.458 369.868 159.524 369.493 157.294C368.833 155.186 349.995 160.071 347.968 161.983C348.614 159.087 349.099 155.848 349.318 152.257C350.668 153.66 371.088 144.141 370.165 142.107C369.275 140.07 350.35 149.217 349.363 151.418C349.487 148.894 349.481 146.205 349.306 143.341C351.556 143.771 369.677 133.354 368.851 131.29C367.721 129.457 350.811 139.524 349.209 141.973C349.028 139.564 348.69 136.913 348.273 134.346C350.619 134.295 366.966 121.054 365.889 119.145C364.523 117.55 349.469 130.098 348.045 132.853C347.64 130.156 347.291 127.601 346.992 125.185C349.454 124.961 365.514 111.948 364.47 110.027C363.116 108.457 348.404 120.691 346.79 123.51C346.45 120.604 346.185 117.91 345.981 115.413C348.379 115.284 364.599 102.144 363.537 100.229C362.182 98.6586 347.455 110.906 345.849 113.723C345.645 110.939 345.52 108.421 345.454 106.149C347.504 106.53 364.516 92.7412 363.348 90.8827C361.98 89.2708 346.727 101.999 345.418 104.712C345.359 101.623 345.413 99.0368 345.522 96.9038C347.572 97.079 363.187 81.2318 361.835 79.5357C360.343 78.1493 347.036 91.971 345.641 95.0022C345.945 88.2166 348.106 87.5195 350.069 79.5086C354.523 63.6953 351.467 62.6246 347.076 78.4655C344.799 86.6054 345.07 88.4322 344.429 93.967C343.988 90.2461 337.315 72.691 335.555 73.3067C333.62 74.0329 342.397 96.8458 344.231 96.8068C344.125 98.8458 344.072 101.29 344.119 104.18C343.269 100.785 333.36 84.2551 331.663 85.2288C329.9 86.3774 342.351 106.784 344.172 106.443C344.243 108.643 344.369 111.073 344.567 113.743C343.012 110.55 330.578 96.8421 329.119 98.1668C327.784 99.8712 342.531 115.845 344.752 116.067C344.955 118.446 345.214 121.001 345.537 123.741C343.948 120.917 329.306 108.557 327.958 110.125C326.784 111.979 343.703 125.909 345.757 125.541C346.059 127.964 346.412 130.525 346.82 133.23C344.639 130.684 328.918 121.327 327.832 123.081C327.069 125.162 344.639 135.361 347.121 135.189C347.53 137.738 347.819 140.248 347.985 142.59C346.896 140.245 329.169 129.573 328.093 131.481C327.046 133.436 346.525 144.792 348.053 143.6C348.213 146.314 348.219 148.868 348.105 151.265C346.786 148.87 329.435 138.43 328.332 140.304C327.438 142.343 346.034 153.142 348.038 152.451C347.806 155.985 347.313 159.164 346.662 161.994C345.707 159.547 328.862 147.361 327.647 149.161C326.611 151.114 344.359 163.536 346.412 163.035C345.522 166.588 344.393 169.56 343.259 171.97C341.958 169.249 326.803 156.411 325.44 158.02C324.433 159.951 340.018 172.787 342.629 173.255C339.039 180.277 334.974 183.526 334.924 183.565L335.649 184.721C335.832 184.578 340.07 181.211 343.832 173.747C345.49 175.283 366.244 174.414 366.232 172.146Z" fill="#FF8C81"/>
<path d="M438.004 136.789C439.218 140.658 440.015 144.133 440.189 146.068C441.135 143.936 442.049 141.971 442.925 140.162C441.436 138.828 437.755 119.474 439.444 118.986C441.06 118.838 444.048 135.268 443.791 138.402C444.797 136.387 445.751 134.583 446.647 132.973C445.198 132.243 445.067 110.974 446.821 111.103C447.566 111.102 448.176 116.024 448.184 122.097C448.189 125.966 447.948 129.367 447.58 131.327C448.788 129.236 449.877 127.518 450.828 126.117C449.5 125.163 453.03 104.147 454.725 104.67C456.245 105.189 453.475 121.281 452.19 124.194C455.018 120.59 455.623 119.123 460.743 114.534C470.684 105.57 472.413 107.969 462.433 116.885C457.582 121.562 455.751 120.891 452.612 125.584C454.894 124.167 470.376 121.421 470.83 123.214C471.059 125.152 453.109 128.101 451.709 126.879C450.715 128.345 449.565 130.164 448.28 132.404C450.364 131.166 466.768 130.249 467.036 132.134C467.062 134.089 449.001 134.82 447.688 133.45C446.76 135.108 445.767 136.975 444.716 139.075C447.056 137.923 462.879 137.067 463.156 138.916C463.077 140.855 445.87 141.545 444.085 140.353C443.158 142.247 442.189 144.315 441.184 146.574C443.531 145.424 459.336 144.57 459.613 146.418C459.519 148.352 442.481 149.038 440.609 147.879C439.784 149.766 438.936 151.779 438.067 153.924C440.25 152.719 456.435 151.823 456.71 153.696C456.645 155.638 439.302 156.334 437.589 155.113C436.79 157.153 435.914 159.186 434.981 161.066C437.162 160.172 453.604 162.05 453.608 163.964C453.298 165.881 435.9 163.611 434.462 162.097C433.401 164.156 432.263 166.091 431.051 167.894C432.721 166.865 450.142 170.469 449.899 172.399C449.668 174.344 431.059 170.211 430.648 168.487C429.083 170.748 427.389 172.815 425.517 174.704C427.788 174.432 443.339 181.04 442.893 182.893C442.188 184.68 425.579 177.315 424.749 175.457C422.767 177.354 420.661 178.983 418.454 180.324C420.797 180.584 434.898 190.024 434.181 191.758C433.206 193.378 418.02 182.886 417.485 180.892C411.589 184.208 407.114 184.343 406.922 184.347L406.9 183.131C406.945 183.13 411.249 182.991 416.837 179.894C415.177 178.179 409.544 160.612 411.099 159.789C412.77 159.388 418.072 176.653 417.839 179.314C419.685 178.2 421.769 176.681 423.932 174.619C422.253 173.888 414.898 155.471 416.482 154.641C418.129 154.021 424.92 171.733 424.558 174.009C426.239 172.335 427.957 170.328 429.641 167.926C427.917 167.357 419.257 149.646 420.777 148.678C422.378 147.944 430.277 164.681 430.199 167.115C431.31 165.462 432.403 163.634 433.455 161.609C431.853 161.645 422.806 143.075 424.397 142.244C425.993 141.471 434.062 158.576 433.84 160.851C434.728 159.087 435.6 157.138 436.403 155.098C434.562 153.907 426.373 137.164 427.82 136.101C429.357 135.445 436.556 150.532 437.029 153.537C437.9 151.384 438.748 149.364 439.573 147.47C437.951 146.645 431.837 127.593 433.476 126.909C434.179 126.634 436.207 131.057 438.004 136.789Z" fill="#CE4ABF"/>
<path d="M133.599 153.745C128.225 150.369 123.185 146.896 118.493 143.421C120.688 143.559 128.557 139.629 127.843 137.72C127.017 135.588 117.392 140.143 116.895 142.227C116.058 141.596 115.231 140.966 114.417 140.336C116.526 140.373 124.313 134.874 123.324 133.001C122.214 131.037 113.335 137.189 113.128 139.334C112.105 138.532 111.101 137.733 110.116 136.936C112.266 136.838 119.794 131.465 118.816 129.639C117.703 127.719 109.146 133.623 108.69 135.773C107.71 134.969 106.745 134.167 105.805 133.372C107.778 133.52 115.368 126.159 114.057 124.404C112.683 122.638 104.634 130.47 104.886 132.588C103.98 131.814 103.09 131.045 102.223 130.283C104.283 130.083 111.398 123.101 110.135 121.395C108.764 119.705 101.205 127.013 101.028 129.224C99.9933 128.303 98.9865 127.392 98.0095 126.494C100.082 126.231 107.1 119.321 105.846 117.63C104.484 115.959 97.0515 123.122 96.7724 125.351C96.024 124.653 95.2982 123.967 94.5859 123.286C96.5762 122.852 102.723 114.447 101.2 112.979C99.6205 111.601 93.4609 119.892 93.4252 122.172C92.4174 121.196 91.4703 120.271 90.5196 119.315C92.5217 118.711 98.4647 110.53 96.9676 109.088C95.4244 107.738 89.4536 115.703 89.2462 118.034C88.5237 117.301 87.8207 116.577 87.1311 115.861C89.0206 115.318 93.696 105.12 91.8723 104.042C90.0903 103.087 85.7424 112.424 86.0408 114.72C85.1981 113.833 84.3805 112.96 83.59 112.103C85.4743 111.481 90.0941 101.391 88.2813 100.312C86.5205 99.3635 82.2289 108.528 82.4544 110.865C81.6105 109.937 80.7991 109.031 80.0193 108.148C88.2415 97.5593 83.2587 90.3131 78.3798 106.271C77.6254 105.397 76.9037 104.55 76.218 103.733C77.8947 102.423 80.7036 92.1643 78.8099 91.4507C77.1573 90.8225 74.4923 99.3116 74.6493 101.841C74.0323 101.089 73.4486 100.367 72.8983 99.6777C74.6495 98.7624 77.0908 87.4528 75.0769 86.8912C73.303 86.4123 71.1271 95.5461 71.5584 97.9806C70.7317 96.9216 69.9976 95.9588 69.3613 95.1083C71.0237 93.8783 73.3265 83.0765 71.358 82.501C69.7077 81.9845 67.5561 90.4743 67.8194 93.0104C67.2562 92.2286 66.8446 91.6387 66.5792 91.2526C66.7387 88.9522 61.7015 79.9739 59.9897 81.0944C59.2033 81.6375 59.9754 84.6255 61.7144 87.7681C63.6924 91.5238 65.0099 91.5301 66.7123 94.1669C64.6562 93.029 56.8993 92.3353 56.7726 94.2161C56.5184 96.5356 67.0803 97.9857 68.3415 96.3771C68.935 97.1682 69.6066 98.0477 70.356 99.0088C68.2137 98.2565 60.0334 99.3842 60.2269 101.363C60.4493 103.653 70.6378 102.596 71.8041 100.843C72.4545 101.658 73.1466 102.513 73.8882 103.412C71.6865 102.887 63.6742 104.8 64.0232 106.742C64.4299 108.969 74.2059 107.014 75.4033 105.229C76.0936 106.049 76.8176 106.896 77.5747 107.769C75.3624 107.417 67.3941 110.148 67.8927 112.08C68.4777 114.244 77.9566 111.348 79.0612 109.469C79.7706 110.271 80.5084 111.094 81.2697 111.932C79.0911 111.753 71.1271 115.709 71.8412 117.638C72.673 119.704 81.7714 115.442 82.6272 113.414C83.3275 114.172 84.0504 114.944 84.7909 115.725C82.6912 115.661 74.8551 121.185 75.8471 123.066C76.9586 124.982 85.483 119.104 85.963 116.954C86.7409 117.764 87.5352 118.582 88.3546 119.413C86.2942 119.239 78.2646 124.862 79.2676 126.773C80.3788 128.722 89.1513 122.652 89.441 120.504C90.335 121.404 91.2242 122.273 92.166 123.188C90.0573 123.15 82.2692 128.65 83.2585 130.524C84.3712 132.448 92.959 126.52 93.3926 124.37C94.0611 125.009 94.7447 125.656 95.445 126.312C93.3461 126.728 86.5673 133.459 87.8027 135.111C89.1442 136.751 96.3685 129.831 96.8137 127.582C97.6631 128.365 98.5293 129.155 99.4222 129.955C97.3449 130.241 90.3622 137.124 91.614 138.81C92.9758 140.483 100.417 133.309 100.689 131.082C101.601 131.888 102.535 132.702 103.49 133.521C101.461 133.583 94.1506 140.718 95.4321 142.448C96.8081 144.172 104.586 136.625 104.575 134.45C105.457 135.199 106.36 135.953 107.277 136.71C105.249 137.155 98.8451 144.952 100.265 146.497C101.778 147.993 108.463 140.001 108.54 137.748C109.529 138.554 110.543 139.363 111.571 140.174C109.602 140.225 102.721 148.499 104.199 150.089C105.735 151.661 112.879 143.044 112.529 140.929C113.613 141.776 114.721 142.625 115.847 143.475C113.898 143.913 108.192 153.064 109.84 154.406C111.54 155.672 117.284 146.499 116.96 144.313C121.69 147.842 126.778 151.374 132.21 154.811C141.262 160.538 142.422 159.288 133.599 153.745Z" fill="#B46DB9"/>
<path d="M149.327 147.871C147.257 144.233 145.35 140.648 143.596 137.149C145.16 138.175 152.268 138.608 152.388 136.905C152.502 134.992 143.894 134.277 142.826 135.598C142.424 134.782 142.03 133.971 141.645 133.165C143.181 134.081 150.758 133.327 150.664 131.534C150.513 129.624 141.913 130.398 141.037 131.886C140.556 130.865 140.089 129.855 139.635 128.854C141.247 129.689 148.591 128.918 148.49 127.164C148.322 125.285 140.042 126.012 138.981 127.399C138.533 126.395 138.095 125.399 137.674 124.419C139.073 125.36 147.133 123.154 146.764 121.313C146.352 119.437 137.795 121.794 137.263 123.455C136.86 122.506 136.466 121.565 136.087 120.64C137.667 121.362 145.251 119.235 144.9 117.449C144.465 115.63 136.445 117.81 135.567 119.359C135.119 118.246 134.687 117.153 134.273 116.081C135.884 116.761 143.373 114.647 143.023 112.876C142.588 111.075 134.709 113.201 133.751 114.719C133.437 113.892 133.136 113.081 132.843 112.282C134.451 112.802 141.806 109.222 141.183 107.502C140.489 105.824 133.164 109.315 132.367 110.974C131.956 109.832 131.575 108.753 131.198 107.65C132.872 108.052 140.002 104.55 139.39 102.859C138.713 101.217 131.636 104.548 130.696 106.173C130.414 105.331 130.141 104.501 129.877 103.685C131.447 104.084 138.328 98.5662 137.353 97.0054C136.367 95.552 130.017 100.577 129.462 102.389C129.142 101.381 128.837 100.395 128.546 99.4323C130.14 99.7707 136.943 94.3087 135.976 92.7514C135.004 91.3123 128.755 96.2333 128.131 98.0443C127.825 97.0073 127.535 95.9995 127.261 95.0219C129.032 94.7824 134.917 89.8981 134.019 88.4651C133.223 87.1402 127.732 91.203 126.691 92.9523C126.432 91.9923 126.189 91.0662 125.961 90.1762C127.635 89.9217 133.165 83.5726 132.015 82.25C131.014 81.0917 126.187 86.2031 125.448 88.1266C125.249 87.3135 125.065 86.5372 124.893 85.7985C126.489 85.8658 132.104 78.5891 130.814 77.3273C129.673 76.2275 124.989 82.0182 124.483 83.9876C124.234 82.8601 124.02 81.8449 123.84 80.9511C125.477 80.7488 130.818 73.7878 129.567 72.5349C128.529 71.4596 124.081 76.7866 123.417 78.7601C123.268 77.9523 123.165 77.3424 123.1 76.9464C123.994 75.3246 123.329 66.607 121.694 66.7079C120.933 66.7752 120.49 69.2948 120.705 72.336C120.889 75.9282 121.854 76.4882 122.213 79.1425C121.088 77.4399 115.626 73.6593 114.897 74.987C113.927 76.5833 121.192 82.1013 122.662 81.4526C122.831 82.2832 123.027 83.2134 123.252 84.234C121.933 82.7782 115.545 80.1574 115.019 81.692C114.409 83.4673 122.246 86.987 123.695 86.1925C123.897 87.0631 124.118 87.9865 124.358 88.9576C122.919 87.6433 116.389 85.6698 115.989 87.2427C115.536 89.0495 123.374 91.7357 124.856 90.9309C125.086 91.8231 125.332 92.7511 125.592 93.7109C124.086 92.5198 117.313 91.1657 117.027 92.7943C116.725 94.6303 124.665 96.5003 126.111 95.5863C126.361 96.4751 126.624 97.3891 126.9 98.3259C125.36 97.2764 118.176 96.8228 118.049 98.5407C117.961 100.408 126.082 101.115 127.396 99.9876C127.654 100.84 127.923 101.709 128.203 102.596C126.682 101.664 119.063 102.417 119.156 104.216C119.325 106.091 127.569 105.37 128.649 103.994C128.946 104.916 129.255 105.853 129.575 106.807C128.121 105.811 120.325 106.554 120.416 108.38C120.573 110.28 129.064 109.522 130.004 108.067C130.358 109.105 130.716 110.118 131.099 111.187C129.563 110.27 121.985 111.025 122.079 112.818C122.246 114.7 130.555 113.968 131.6 112.572C131.875 113.324 132.158 114.087 132.451 114.863C130.769 114.284 123.517 116.369 123.866 118.102C124.297 119.873 131.94 117.837 133.027 116.374C133.386 117.307 133.756 118.252 134.141 119.216C132.519 118.551 125.065 120.66 125.415 122.426C125.85 124.229 133.738 122.099 134.691 120.578C135.087 121.555 135.499 122.546 135.923 123.55C134.412 122.74 126.633 124.897 126.989 126.708C127.417 128.554 135.679 126.292 136.406 124.69C136.8 125.612 137.209 126.546 137.626 127.489C135.987 126.96 128.649 129.986 129.17 131.719C129.775 133.455 137.385 130.405 138.203 128.783C138.657 129.792 139.128 130.814 139.608 131.843C138.146 131.05 130.297 134.225 130.845 136.016C131.442 137.818 139.599 134.502 140.057 132.802C140.567 133.881 141.094 134.972 141.634 136.071C140.055 135.571 132.772 139.884 133.529 141.564C134.349 143.212 141.667 138.897 142.168 137.156C143.982 140.803 145.962 144.548 148.119 148.35L149.327 147.871Z" fill="#FF8C81"/>
<path d="M191.333 228.434V196.338C191.333 195.314 190.589 194.483 189.672 194.483H143.172V170.365H197.81C198.727 170.365 199.47 169.534 199.47 168.51V134.187C199.47 133.163 198.727 132.332 197.81 132.332H103.149C102.231 132.332 101.488 133.163 101.488 134.187V293.554C101.488 294.578 102.231 295.409 103.149 295.409H141.511C142.429 295.409 143.172 294.578 143.172 293.554V230.29H189.672C190.589 230.29 191.333 229.459 191.333 228.434Z" fill="#E6CEE8"/>
<path d="M279.612 133.613C279.389 132.849 278.752 132.332 278.033 132.332H236.011C235.292 132.332 234.654 132.849 234.432 133.614L188.038 292.98C187.874 293.545 187.961 294.163 188.274 294.644C188.586 295.124 189.086 295.409 189.618 295.409H228.74C229.499 295.409 230.161 294.835 230.349 294.015L236.08 269.064H276.946L282.812 294.025C283.004 294.84 283.664 295.409 284.419 295.409H324.468C325 295.409 325.499 295.125 325.812 294.644C326.124 294.163 326.212 293.544 326.047 292.979L279.612 133.613ZM245.264 230.846L256.636 182.697L268.128 230.846H245.264Z" fill="#E6CEE8"/>
<path d="M433.67 277.866C438.08 272.572 441.747 266.368 444.633 259.302C449.583 247.183 452.093 231.495 452.093 212.675C452.093 199.711 450.66 188.008 447.833 177.893C444.988 167.71 440.652 158.853 434.948 151.563C429.222 144.25 422.185 138.686 414.034 135.029C405.928 131.395 396.509 129.551 386.035 129.551C375.806 129.551 366.556 131.428 358.545 135.131C350.495 138.853 343.486 144.511 337.708 151.949C331.949 159.363 327.571 168.363 324.698 178.7C321.845 188.967 320.398 200.837 320.398 213.983C320.398 232.836 323.331 248.788 329.116 261.393C334.933 274.07 342.649 283.479 352.05 289.363C361.411 295.223 373.359 298.194 387.556 298.194C394.154 298.194 400.282 297.427 405.904 295.908L424.154 316.296L420.639 320.457H428.943C429.601 320.457 430.259 320.176 430.761 319.616L449.084 299.145C450.089 298.025 450.089 296.205 449.084 295.084L433.67 277.866ZM405.219 246.081C404.867 246.762 404.496 247.398 404.11 247.988C399.881 254.432 394.051 257.563 386.287 257.563C378.747 257.563 372.956 254.357 368.585 247.762C368.572 247.742 368.559 247.721 368.545 247.701C364.146 241.024 361.916 229.742 361.916 214.169C361.916 198.409 364.173 187.032 368.623 180.357C373.026 173.76 378.692 170.552 385.95 170.552C393.554 170.552 399.403 173.711 403.832 180.21C408.306 186.774 410.575 197.466 410.575 211.991C410.575 227.777 408.775 239.224 405.219 246.081Z" fill="#E6CEE8"/>
<path d="M183.029 228.434V196.338C183.029 195.314 182.286 194.483 181.369 194.483H134.869V170.365H189.506C190.423 170.365 191.167 169.534 191.167 168.51V134.187C191.167 133.163 190.423 132.332 189.506 132.332H94.8453C93.928 132.332 93.1846 133.163 93.1846 134.187V293.554C93.1846 294.578 93.928 295.409 94.8453 295.409H133.208C134.125 295.409 134.869 294.578 134.869 293.554V230.29H181.369C182.286 230.29 183.029 229.459 183.029 228.434Z" fill="#A754AD"/>
<path d="M271.308 133.613C271.085 132.849 270.448 132.332 269.729 132.332H227.707C226.988 132.332 226.351 132.849 226.128 133.614L179.735 292.98C179.57 293.545 179.658 294.163 179.97 294.644C180.283 295.124 180.782 295.409 181.314 295.409H220.437C221.195 295.409 221.857 294.835 222.045 294.015L227.776 269.064H268.642L274.509 294.025C274.7 294.84 275.36 295.409 276.115 295.409H316.164C316.696 295.409 317.195 295.125 317.508 294.644C317.82 294.163 317.908 293.544 317.743 292.979L271.308 133.613ZM259.824 230.846H236.96L248.332 182.697L259.824 230.846Z" fill="#A754AD"/>
<path d="M425.367 277.866C429.776 272.572 433.443 266.368 436.329 259.302C441.28 247.183 443.789 231.495 443.789 212.675C443.789 199.711 442.356 188.008 439.53 177.893C436.685 167.71 432.349 158.853 426.644 151.563C420.918 144.25 413.882 138.686 405.731 135.029C397.625 131.395 388.205 129.551 377.731 129.551C367.503 129.551 358.252 131.428 350.241 135.131C342.192 138.853 335.182 144.511 329.404 151.949C323.645 159.363 319.267 168.363 316.394 178.7C313.541 188.967 312.095 200.837 312.095 213.983C312.095 232.837 315.027 248.788 320.812 261.393C326.629 274.07 334.345 283.479 343.746 289.363C353.108 295.223 365.055 298.194 379.252 298.194C385.85 298.194 391.978 297.427 397.6 295.908L418.822 319.616C419.825 320.737 421.453 320.737 422.458 319.616L440.78 299.145C441.785 298.025 441.785 296.205 440.78 295.084L425.367 277.866ZM360.32 180.357C364.722 173.76 370.389 170.552 377.646 170.552C385.25 170.552 391.1 173.711 395.529 180.21C400.003 186.774 402.271 197.466 402.271 211.991C402.271 227.777 400.471 239.224 396.915 246.081C396.563 246.762 396.193 247.399 395.806 247.989C391.578 254.432 385.747 257.564 377.983 257.564C370.444 257.564 364.653 254.358 360.282 247.762C360.268 247.742 360.255 247.722 360.242 247.701C355.843 241.024 353.612 229.742 353.612 214.169C353.612 198.409 355.869 187.032 360.32 180.357Z" fill="#A754AD"/>
<path d="M109.267 273.605C108.338 289.306 106.592 304.972 104.669 320.559C104.222 324.25 100.281 324.955 99.9162 320.926C99.5881 316.923 99.6894 313.168 99.4043 309.145C98.7477 297.413 97.8146 285.662 96.6513 273.978C95.852 263.841 109.585 263.415 109.267 273.605Z" fill="#F99370"/>
<path d="M99.132 275.013L87.629 321.57C87.2585 323.126 86.3363 323.687 84.9472 323.272C83.7072 322.901 82.9069 322.809 83.0149 321.424L86.7013 272.573C87.7401 262.504 101.206 265.135 99.132 275.013Z" fill="#F99370"/>
<path d="M104.669 320.557C110.029 320.844 111.59 322.887 112.029 324.256C112.031 324.263 112.033 324.271 112.036 324.278C112.225 324.876 111.817 325.503 111.25 325.505L99.5881 325.547C99.391 325.165 99.282 324.74 99.2336 324.303C99.0351 322.53 99.834 320.574 99.834 320.574C99.834 320.574 102.25 321.757 104.669 320.557Z" fill="#1D3F70"/>
<path d="M112.029 324.258L99.2338 324.304C99.2822 324.742 99.3912 325.166 99.5883 325.549L111.25 325.506C111.817 325.504 112.226 324.878 112.036 324.279L112.029 324.258Z" fill="#395B96"/>
<path d="M88.7389 324.165V325.335H81.9673V324.165C81.9673 322.07 83.4835 320.371 85.3522 320.371C87.2227 320.371 88.7389 322.069 88.7389 324.165Z" fill="#1D3F70"/>
<path d="M88.7389 324.164H81.9673V325.334H88.7389V324.164Z" fill="#395B96"/>
<path d="M92.8974 211.442C94.1885 208.944 93.665 205.906 91.728 204.657C89.791 203.407 87.1741 204.42 85.883 206.918C84.5918 209.416 85.1154 212.454 87.0524 213.704C88.9894 214.953 91.6063 213.941 92.8974 211.442Z" fill="#662948"/>
<path d="M91.2752 209.528C91.2752 209.528 86.7118 207.52 86.278 200.228C85.8225 192.576 92.5268 191.038 95.2273 193.213L91.2752 209.528Z" fill="#662948"/>
<path d="M99.4146 215.219C99.4146 215.219 110.72 217.934 115.03 235.395L104.108 238.173L99.4146 215.219Z" fill="#339999"/>
<path d="M93.9492 192.562C100.554 190.485 104.947 201.207 101.778 206.794L93.9492 192.562Z" fill="#662948"/>
<path d="M86.7119 253.704H107.33C107.436 244.596 106.495 235.388 104.58 226.543C103.438 221.382 102.78 217.254 98.3771 214.496C98.6909 211.439 98.2629 207.031 97.8812 205.215C97.6806 204.234 97.0524 203.492 96.3464 203.246C94.5403 202.546 92.402 204.265 92.9577 206.539C93.1215 206.424 93.6457 212.908 93.2839 214.708C84.3348 217.899 88.8966 229.257 88.285 236.878C88.2378 242.477 87.7544 248.23 86.7119 253.704Z" fill="#F99370"/>
<path d="M92.9091 206.242C92.9216 206.34 92.9371 206.44 92.9577 206.537C93.0759 206.449 93.4065 210.027 93.4094 212.624C95.5936 213.734 98.0204 213.281 98.466 213.179C98.5765 209.463 98.7208 204.212 96.3464 203.244C94.6414 202.43 92.609 204.166 92.9091 206.242Z" fill="#E57D61"/>
<path d="M89.477 203.849C89.8437 206.391 90.6121 209.257 92.4097 210.938H92.4126C93.1386 211.612 94.0237 212.041 94.9615 212.248C100.272 213.907 106.5 207.01 102.35 201.987C100.842 200.43 100.522 197.672 99.3196 196.124C97.5716 193.29 93.7354 193.437 91.6642 195.748C89.7923 197.838 89.1522 200.718 89.477 203.849Z" fill="#F99370"/>
<path d="M98.162 202.282C98.3703 201.84 97.7444 201.485 97.5477 201.934C97.3395 202.376 97.9656 202.731 98.162 202.282Z" fill="#C16256"/>
<path d="M101.058 201.736C101.267 201.294 100.641 200.938 100.444 201.387C100.236 201.829 100.862 202.184 101.058 201.736Z" fill="#C16256"/>
<path d="M99.9632 205.086C100.594 205.078 101.575 204.603 100.777 203.977C100.127 203.583 99.6478 202.076 99.6432 202.061C98.9702 201.493 99.9281 203.84 100.653 204.233C101.163 204.582 100.1 204.921 99.6604 204.748C99.5915 204.723 99.5184 204.765 99.4966 204.842C99.4592 205.103 99.8 205.067 99.9632 205.086Z" fill="#C16256"/>
<path d="M112.941 301.894C112.941 301.894 97.5693 311.366 80.1064 301.974C80.1064 301.974 80.2236 300.11 80.431 297.044C81.3396 283.447 83.952 246.203 85.4823 242.814C87.8478 243.502 90.2761 243.97 92.696 244.278C98.0048 244.968 104.379 244.928 109.389 244.299C110.065 248.217 112.669 284.762 112.92 299.766C112.935 300.536 112.941 301.247 112.941 301.894Z" fill="#007474"/>
<path d="M85.7026 241.952C85.7026 241.952 95.8176 251.967 109.39 244.295C109.379 244.279 105.171 238.811 107.222 231.203C108.646 225.924 103.277 217.734 99.4148 215.219C99.4148 215.219 98.2758 219.642 92.0859 215.219C84.4494 218.02 88.5257 231.249 85.7026 241.952Z" fill="#007474"/>
<path d="M109.39 244.294C109.39 244.294 97.204 249.818 85.7026 241.951L84.4493 245.416C84.4493 245.416 93.8419 254.361 109.777 248.408L109.39 244.294Z" fill="#7640CC"/>
<path d="M89.4769 203.848C89.8436 206.39 90.612 209.256 92.4095 210.938H92.4124C91.4163 209.556 90.7949 206.465 90.7949 206.465L91.2657 205.09C99.1676 202.241 98.4809 195.113 98.4809 195.113C97.3019 193.963 95.7199 193.767 94.2056 194.188C90.4959 195.259 89.0102 199.735 89.4769 203.848Z" fill="#E57D61"/>
<path d="M97.6651 194.446C97.6651 194.446 98.2862 201.514 91.2146 204.383L88.6765 202.818C86.2013 197.393 90.6973 189.35 97.6651 194.446Z" fill="#662948"/>
<path d="M89.5911 216.853C83.9791 221.49 78.6365 230.122 78.0835 237.783C77.503 252.316 89.6131 253.476 98.8403 247.875C100.786 246.771 99.1684 243.431 97.0812 244.05C95.5606 244.486 94.486 244.868 92.987 244.914C79.6825 245.33 86.3926 233.379 91.5514 227.993C91.5514 227.993 93.3436 213.913 89.5911 216.853Z" fill="#F99370"/>
<path d="M80.2287 248.587C81.5185 249.436 83.1105 250.077 85.0422 250.455C85.0422 250.455 85.0654 245.705 87.9721 244.151C87.9721 244.151 85.5092 239.026 88.9806 234.321C91.1451 231.386 92.3931 229.446 92.8265 225.398C93.0882 222.954 91.7996 215.375 91.7996 215.375C89.5359 216.037 83.758 218.338 79.7398 225.335C75.0916 233.43 73.2854 244.018 80.2287 248.587Z" fill="#339999"/>
<path d="M100.025 253.398L114.944 252.117L119.53 223.588L104.611 224.869L100.025 253.398Z" fill="#FFD2CE"/>
<path d="M116.047 242.14C116.701 242.283 118.001 241.474 117.008 240.819C116.63 240.592 116.276 240.794 115.969 240.932L116.001 240.934C114.992 240.883 115.156 242.087 116.047 242.14Z" fill="#F99370"/>
<path d="M116.408 241.036C116.854 240.979 117.352 240.794 117.564 240.316C117.848 239.548 116.431 239.113 116.181 239.792C116.184 239.777 116.197 239.777 116.168 239.793C116.14 239.809 116.085 239.826 116.048 239.832C116.047 239.832 116.03 239.835 116.054 239.832C115.036 239.993 115.614 241.159 116.408 241.036Z" fill="#F99370"/>
<path d="M116.825 239.896L117.443 239.64C118.331 239.176 117.286 238.21 116.665 238.54L116.047 238.795C115.159 239.26 116.204 240.225 116.825 239.896Z" fill="#F99370"/>
<path d="M117.024 238.839L117.641 238.583C118.529 238.119 117.484 237.154 116.863 237.483L116.245 237.739C115.358 238.203 116.402 239.169 117.024 238.839Z" fill="#F99370"/>
<path d="M96.9316 245.894C96.9347 245.731 96.9795 245.58 97.0535 245.452C96.3644 244.49 97.1943 243.831 97.8904 243.347C99.2061 242.392 100.695 241.727 102.249 241.48C102.867 241.381 103.493 241.357 104.111 241.398C104.713 241.423 104.723 242.479 104.113 242.508C103.452 242.553 102.803 242.683 102.175 242.904C102.967 242.809 103.785 242.769 104.582 242.796C105.17 242.79 105.241 243.813 104.651 243.901C103.531 244.08 102.422 244.401 101.355 244.817C102.408 244.677 103.452 244.47 104.486 244.21C105.087 244.05 105.334 245.097 104.735 245.284C103.605 245.672 102.456 245.993 101.294 246.24C101.883 246.201 102.489 246.129 103.073 246.046C103.663 245.952 103.847 246.977 103.259 247.136C103.044 247.199 102.829 247.266 102.613 247.328C101.083 247.75 99.5195 248.073 97.9379 248.098C97.1835 248.192 96.6556 247.167 97.1494 246.508C97.0109 246.35 96.927 246.133 96.9316 245.894Z" fill="#F99370"/>
<path d="M88.0315 205.13C88.5913 208.019 91.7495 207.273 91.2146 204.378C90.6547 201.489 87.4965 202.235 88.0315 205.13Z" fill="#F99370"/>
<path d="M88.8525 205.73C88.9382 205.731 89.0036 205.634 88.9771 205.542C88.4843 204.005 89.094 203.359 90.0218 203.786C90.1776 203.857 90.2754 203.58 90.1167 203.515C89.0306 203.019 88.1391 203.787 88.7278 205.627C88.7449 205.69 88.7966 205.73 88.8525 205.73Z" fill="#C16256"/>
<path d="M90.0694 205.528C90.4743 205.492 89.7026 204.096 88.7137 204.022C88.6437 204.017 88.5798 204.077 88.575 204.157C88.5702 204.238 88.6246 204.307 88.6965 204.312C89.708 204.429 89.8301 205.491 90.0694 205.528Z" fill="#C16256"/>
<path d="M89.4566 206.469C89.451 206.893 90.0474 206.893 90.0418 206.469C90.0474 206.044 89.451 206.044 89.4566 206.469Z" fill="#F4D4BE"/>
<path d="M96.2987 201.567C96.3374 201.567 96.3752 201.544 96.397 201.505C97.1439 200.129 98.2011 200.03 98.2117 200.029C98.2747 200.024 98.3224 199.963 98.3181 199.893C98.3137 199.822 98.2597 199.769 98.1964 199.774C98.1484 199.777 97.0127 199.877 96.2007 201.372C96.1679 201.432 96.1851 201.511 96.2393 201.548C96.258 201.56 96.2786 201.567 96.2987 201.567Z" fill="#C16256"/>
<path d="M100.938 200.274C100.976 200.274 101.014 200.252 101.035 200.213C101.069 200.153 101.053 200.074 100.999 200.037C100.966 200.014 100.173 199.472 99.2886 199.694C99.2267 199.709 99.1879 199.778 99.2018 199.847C99.2157 199.915 99.277 199.959 99.3389 199.944C100.133 199.745 100.87 200.249 100.878 200.254C100.897 200.267 100.918 200.274 100.938 200.274Z" fill="#C16256"/>
<path d="M96.5146 244.222C96.5146 244.222 96.1452 246.598 97.729 248.524C97.729 248.524 97.5941 248.991 96.8456 248.972C96.8456 248.972 95.5184 246.966 95.6648 244.467C95.6648 244.467 96.0031 244 96.5146 244.222Z" fill="#1D3F70"/>
<path d="M112.941 301.891C112.941 301.891 97.5693 311.363 80.1064 301.971C80.1064 301.971 80.2236 300.107 80.431 297.041C81.9696 297.338 83.8538 298.203 86.0496 300.126C92.6794 305.928 96.7573 301.021 101.076 300.126C105.009 299.309 106.314 303.245 112.92 299.763C112.935 300.533 112.941 301.244 112.941 301.891Z" fill="#339999"/>
<path d="M99.8614 206.972C99.9912 206.972 100.124 206.965 100.26 206.95C100.343 206.941 100.403 206.859 100.395 206.766C100.387 206.674 100.314 206.606 100.231 206.616C98.8678 206.765 97.7553 206.011 97.7443 206.004C97.6735 205.955 97.5809 205.98 97.5372 206.058C97.4936 206.137 97.5154 206.241 97.5858 206.289C97.6299 206.32 98.5874 206.972 99.8614 206.972Z" fill="#C16256"/>
<path d="M329.757 281.78C329.677 281.73 329.565 281.654 329.493 281.6C329.491 281.599 329.49 281.597 329.488 281.596C332.476 284.878 334.35 289.102 336.384 293.251C337.763 295.945 340.239 300.791 336.279 302.113C334.156 302.109 334.145 305.734 336.271 305.746C336.68 305.782 337.112 305.824 337.52 305.797C345.093 305.284 345.23 295.607 343.15 289.459C341.223 283.771 338.647 278.074 334.156 274.193C329.132 270.377 324.531 278.3 329.757 281.78Z" fill="#F99370"/>
<path d="M322.32 281.78C322.4 281.73 322.512 281.654 322.583 281.6C322.585 281.599 322.587 281.597 322.589 281.596C319.601 284.878 317.727 289.102 315.693 293.251C314.314 295.945 311.838 300.791 315.798 302.113C317.921 302.109 317.932 305.734 315.806 305.746C315.397 305.782 314.965 305.824 314.557 305.797C306.984 305.284 306.847 295.607 308.927 289.459C310.854 283.771 313.003 278.199 317.494 274.317C322.518 270.502 327.546 278.3 322.32 281.78Z" fill="#F99370"/>
<path d="M321.573 272.055C321.573 272.055 315.176 273.289 311.12 278.75C307.317 283.871 299.802 301.045 311.891 305.045L317.886 297.676C317.886 297.676 316.096 295.99 317.047 290.306C317.997 284.621 323.107 275.984 321.573 272.055Z" fill="#8C3D35"/>
<path d="M331.015 272.141C331.015 272.141 337.117 273.289 341.251 278.75C345.097 283.831 352.569 301.045 340.48 305.045L334.486 297.676C334.486 297.676 336.275 295.99 335.324 290.305C334.374 284.621 329.481 276.07 331.015 272.141Z" fill="#8C3D35"/>
<path d="M340.421 304.959C331.464 309.44 320.861 309.504 311.891 305.048C311.498 299.979 313.056 298.346 313.809 292.698C315.443 280.435 319.755 272.688 319.755 272.688C323.253 271.135 329.16 270.956 332.547 272.788C332.547 272.788 337.462 280.93 338.097 292.094C338.407 297.554 340.421 300.047 340.421 304.959Z" fill="#8C3D35"/>
<path d="M322.729 271.796C322.729 271.796 323.205 275.18 326.186 275.078C329.168 274.977 329.526 271.764 329.526 271.764C329.526 271.764 326.503 270.696 322.729 271.796Z" fill="#E86558"/>
<path d="M326.156 273.798C324.967 273.798 324.003 272.722 324.003 271.394V268.119H328.308V271.394C328.308 272.722 327.345 273.798 326.156 273.798Z" fill="#F99370"/>
<path d="M333.643 261.471C333.1 264.275 330.035 263.551 330.554 260.742C331.098 257.938 334.162 258.662 333.643 261.471Z" fill="#F99370"/>
<path d="M318.669 261.471C319.212 264.275 322.276 263.551 321.757 260.742C321.214 257.938 318.149 258.662 318.669 261.471Z" fill="#F99370"/>
<path d="M332.455 264.501C332.105 273.889 318.628 272.513 319.958 263.085C320.141 261.215 320.741 259.972 321.022 256.991C321.672 250.092 330.448 249.725 331.237 256.94C331.547 259.786 332.475 261.884 332.455 264.501Z" fill="#F99370"/>
<path d="M325.862 263.21C325.25 263.202 324.299 262.741 325.073 262.133C325.705 261.751 326.168 260.288 326.173 260.274C326.224 260.101 326.469 260.194 326.412 260.367C326.392 260.431 325.91 261.948 325.194 262.381C324.698 262.721 325.731 263.049 326.157 262.881C326.224 262.857 326.294 262.898 326.316 262.973C326.352 263.226 326.021 263.191 325.862 263.21Z" fill="#C16256"/>
<path d="M322.028 256.556C325.06 258.129 328.538 253.007 330.395 255.356L330.623 253.921L327.087 252.068L321.445 254.263L322.028 256.556Z" fill="#E57D61"/>
<path d="M331.608 259.113C331.608 259.113 330.551 256.849 330.395 255.354C330.24 253.859 328.443 253.598 326.967 254.769C325.491 255.939 323.649 256.471 321.713 255.673C319.777 254.875 318.524 251.596 320.494 249.662C322.443 247.747 324.472 249.239 326.226 249.981C328.489 250.939 334.176 249.007 331.608 259.113Z" fill="#8C4225"/>
<path d="M320.765 259.003C320.765 259.003 322.348 257 322.443 254.34L320.748 253.596C320.748 253.596 320.058 256.183 320.765 259.003Z" fill="#8C4225"/>
<path d="M333.002 262.031C332.92 262.032 332.858 261.939 332.884 261.852C333.316 260.475 332.867 259.771 331.893 260.188C331.746 260.256 331.653 259.993 331.803 259.931C332.832 259.461 333.677 260.189 333.12 261.933C333.103 261.992 333.055 262.031 333.002 262.031Z" fill="#C16256"/>
<path d="M331.99 261.692C331.607 261.658 332.196 260.477 333.133 260.406C333.201 260.402 333.205 260.464 333.209 260.54C333.214 260.616 333.218 260.677 333.15 260.682C332.191 260.793 332.217 261.657 331.99 261.692Z" fill="#C16256"/>
<path d="M316.761 279.898C316.761 279.898 314.121 284.232 313.002 290.645H314.114C314.114 290.645 314.997 285.981 316.761 279.898Z" fill="#E86558"/>
<path d="M335.676 279.898C335.676 279.898 338.294 284.107 339.611 290.645H337.989C337.989 290.645 337.921 287.542 335.676 279.898Z" fill="#E86558"/>
<path d="M319.388 262.031C319.335 262.031 319.286 261.993 319.27 261.933C318.711 260.188 319.559 259.461 320.586 259.931C320.736 259.994 320.645 260.255 320.496 260.188C319.615 259.784 319.04 260.396 319.506 261.853C319.531 261.939 319.469 262.032 319.388 262.031Z" fill="#C16256"/>
<path d="M320.541 261.834C320.317 261.801 320.193 260.79 319.24 260.682C319.172 260.677 319.187 260.616 319.192 260.54C319.197 260.464 319.19 260.402 319.256 260.406C320.193 260.478 320.925 261.798 320.541 261.834Z" fill="#C16256"/>
<path d="M332.456 263.175C332.042 260.334 331.635 259.152 331.063 257.379C331.279 259.437 333.468 266.734 329.578 264.42C327.174 262.992 324.596 263.631 322.444 264.771C321.43 265.195 320.388 265.117 320.521 263.427C320.623 262.136 320.735 260.131 321.159 257.848C320.65 258.736 320.435 261.143 319.958 263.084C318.531 273.628 333.506 273.856 332.456 263.175ZM328.144 268.76C326.901 268.8 327.102 266.898 326.164 266.925C325.41 266.946 325.53 269.797 323.173 268.68C322.042 268.155 321.922 266.417 322.937 265.652C323.816 264.988 324.999 264.477 326.179 264.425C327.295 264.375 328.406 264.693 329.299 265.226C331.046 266.404 329.739 268.698 328.144 268.76Z" fill="#8C4225"/>
<path d="M325.886 265.758C325.533 265.758 325.281 265.702 325.258 265.697C325.195 265.683 325.155 265.614 325.168 265.544C325.181 265.474 325.242 265.429 325.305 265.444C325.317 265.447 326.521 265.713 327.365 265.03C327.417 264.989 327.489 265.001 327.527 265.059C327.564 265.117 327.552 265.198 327.501 265.24C326.976 265.664 326.346 265.758 325.886 265.758Z" fill="#C16256"/>
<path d="M329.535 258.748C329.522 258.748 329.509 258.745 329.496 258.74C328.467 258.319 327.357 258.391 327.345 258.391C327.282 258.397 327.227 258.342 327.223 258.27C327.219 258.199 327.267 258.138 327.331 258.133C327.378 258.13 328.502 258.057 329.575 258.497C329.635 258.522 329.666 258.596 329.644 258.663C329.627 258.715 329.583 258.748 329.535 258.748Z" fill="#C16256"/>
<path d="M322.841 258.748C322.794 258.748 322.75 258.715 322.732 258.663C322.71 258.596 322.741 258.522 322.801 258.497C323.875 258.057 324.998 258.13 325.045 258.133C325.109 258.138 325.157 258.199 325.153 258.27C325.15 258.342 325.094 258.396 325.031 258.391C325.019 258.39 323.907 258.319 322.881 258.74C322.868 258.745 322.854 258.748 322.841 258.748Z" fill="#C16256"/>
<path d="M314.404 323.756C314.404 323.756 312.053 326.562 310.625 327.263C308.71 328.203 304.083 329.761 303.137 330.085C300.551 330.97 300.781 333.724 304.205 333.334C308.548 333.083 314.742 332.814 317.649 329.647C321.554 327.299 318.052 320.926 314.404 323.756Z" fill="#F99370"/>
<path d="M337.633 323.756C337.633 323.756 339.985 326.562 341.413 327.263C343.327 328.203 347.954 329.761 348.901 330.085C351.486 330.97 351.256 333.724 347.833 333.334C343.489 333.083 337.295 332.814 334.388 329.647C330.483 327.299 333.986 320.926 337.633 323.756Z" fill="#F99370"/>
<path d="M301.633 303.977C301.633 303.977 306.777 303.674 311.559 304.949C318.386 306.768 326.16 307.896 340.878 304.665C345.581 303.632 351.137 304.045 351.137 304.045C348.434 306.179 345.843 308.092 343.329 309.741C329.092 319.081 317.337 319.917 301.633 303.977Z" fill="#D1A68F"/>
<path d="M311.559 309.454H340.928V290.399C340.928 289.894 340.561 289.484 340.109 289.484H312.378C311.926 289.484 311.559 289.894 311.559 290.399V309.454Z" fill="#003636"/>
<path d="M335.904 331.614C270.034 318.546 291.27 281.778 339.22 322.906C339.969 328.315 335.904 331.614 335.904 331.614Z" fill="#E8C0A6"/>
<path d="M335.904 331.619C335.831 331.621 335.098 331.477 333.876 331.197C333.876 331.197 338.297 327.877 337.752 321.775C338.693 322.491 339.22 322.911 339.22 322.911C339.969 328.319 335.904 331.619 335.904 331.619Z" fill="#D1A68F"/>
<path d="M338.606 323.613L336.982 326.941L328.172 329.878C328.172 329.878 326.681 329.516 325.927 329.3L338.606 323.613Z" fill="#D1A68F"/>
<path d="M318.167 331.243C317.079 331.49 316.431 331.617 316.362 331.614C316.362 331.614 312.296 328.315 313.045 322.906C360.435 282.126 381.601 318.088 318.167 331.243Z" fill="#E8C0A6"/>
<path d="M318.167 331.245C317.079 331.492 316.431 331.618 316.362 331.616C316.362 331.616 312.297 328.316 313.046 322.907C313.046 322.907 313.569 322.402 314.545 321.748C314.545 321.748 314.241 327.427 318.167 331.245Z" fill="#D1A68F"/>
<path d="M313.83 322.966C313.767 322.966 313.704 322.936 313.66 322.878C313.581 322.773 313.593 322.616 313.686 322.528C313.759 322.459 321.013 315.633 326.902 312.007C327.009 311.941 327.145 311.985 327.204 312.105C327.264 312.226 327.224 312.377 327.117 312.443C321.266 316.045 314.046 322.839 313.974 322.907C313.932 322.947 313.881 322.966 313.83 322.966Z" fill="#D1A68F"/>
<path d="M327.813 260.561C327.73 260.379 327.795 260.157 327.958 260.065C328.12 259.973 328.319 260.046 328.401 260.227C328.484 260.409 328.419 260.631 328.256 260.723C328.094 260.815 327.895 260.742 327.813 260.561Z" fill="#C16256"/>
<path d="M323.857 260.575C323.775 260.393 323.84 260.171 324.002 260.079C324.165 259.987 324.363 260.059 324.446 260.241C324.528 260.422 324.463 260.644 324.301 260.736C324.139 260.829 323.94 260.756 323.857 260.575Z" fill="#C16256"/>
<path d="M301.044 332.759C300.552 330.801 301.574 328.768 303.326 328.219L312.194 326.086C312.194 326.086 312.321 329.151 314.503 331.708L305.108 335.308C303.356 335.858 301.536 334.716 301.044 332.759Z" fill="#1D3F70"/>
<path d="M305.375 334.037C305.362 334.036 305.349 334.034 305.335 334.031C305.166 333.993 305.056 333.809 305.09 333.62C305.483 331.415 304.037 329.968 303.975 329.907C303.845 329.78 303.832 329.56 303.945 329.415C304.059 329.27 304.256 329.254 304.386 329.38C304.459 329.451 306.168 331.147 305.703 333.756C305.672 333.931 305.53 334.049 305.375 334.037Z" fill="#E8C0A6"/>
<path d="M307.643 333.011C307.63 333.01 307.616 333.008 307.603 333.005C307.434 332.968 307.324 332.784 307.358 332.595C307.745 330.419 306.457 329.355 306.402 329.311C306.262 329.199 306.229 328.981 306.329 328.825C306.429 328.668 306.623 328.631 306.763 328.742C306.832 328.796 308.44 330.098 307.971 332.731C307.939 332.905 307.797 333.023 307.643 333.011Z" fill="#E8C0A6"/>
<path d="M310.023 332.004C310.013 332.003 310.003 332.002 309.993 332C309.823 331.969 309.707 331.789 309.736 331.599C310.049 329.467 308.964 328.702 308.917 328.67C308.77 328.57 308.722 328.356 308.811 328.192C308.899 328.027 309.088 327.972 309.236 328.069C309.297 328.11 310.738 329.088 310.352 331.712C310.326 331.891 310.182 332.016 310.023 332.004Z" fill="#E8C0A6"/>
<path d="M350.645 332.903C351.17 330.956 350.182 328.903 348.439 328.317L339.662 325.912C339.662 325.912 339.775 329.199 337.551 331.711L346.54 335.368C348.283 335.954 350.121 334.851 350.645 332.903Z" fill="#1D3F70"/>
<path d="M346.294 334.095C346.307 334.095 346.32 334.093 346.334 334.09C346.504 334.056 346.617 333.874 346.586 333.684C346.23 331.472 347.7 330.054 347.763 329.995C347.895 329.871 347.912 329.651 347.801 329.503C347.69 329.356 347.493 329.337 347.361 329.46C347.287 329.529 345.55 331.189 345.971 333.808C345.999 333.983 346.139 334.104 346.294 334.095Z" fill="#E8C0A6"/>
<path d="M344.044 333.028C344.057 333.027 344.07 333.025 344.084 333.022C344.254 332.988 344.367 332.806 344.336 332.617C343.985 330.434 345.291 329.397 345.347 329.354C345.488 329.245 345.525 329.028 345.427 328.869C345.33 328.71 345.137 328.669 344.995 328.777C344.925 328.83 343.296 330.098 343.721 332.74C343.749 332.915 343.889 333.036 344.044 333.028Z" fill="#E8C0A6"/>
<path d="M341.681 331.969C341.691 331.968 341.701 331.967 341.711 331.965C341.882 331.937 342 331.76 341.975 331.57C341.698 329.432 342.795 328.689 342.842 328.658C342.99 328.561 343.042 328.349 342.957 328.182C342.871 328.016 342.683 327.956 342.534 328.051C342.472 328.09 341.015 329.038 341.357 331.67C341.38 331.85 341.522 331.977 341.681 331.969Z" fill="#E8C0A6"/>
<path d="M246.424 57.0657C246.424 57.0657 248.456 52.6648 254.669 53.953C260.881 55.241 262.359 64.0433 264.472 68.0475C268.949 76.5296 270.298 85.548 267.984 89.8854C265.414 94.7025 259.722 92.8298 251.412 91.9805C242.544 91.0741 238.818 82.4832 244.318 70.653L246.424 57.0657Z" fill="#163260"/>
<path d="M249.028 77.502C246.604 81.4843 245.079 100.886 245.03 102.393C242.173 102.162 235.307 101.606 232.38 101.37C231.544 94.2697 239.953 79.6927 247.638 77.9548C247.638 77.9525 247.638 77.9525 247.638 77.9525C248.503 77.6226 249.028 77.502 249.028 77.502Z" fill="#EFB8E7"/>
<path d="M213.15 184.506L225.5 184.334C225.465 182.128 224.934 177.677 225.322 175.16C225.322 175.16 219.992 175.937 219.992 175.937C220.141 177.146 220.473 179.767 218.678 180.397C216.352 181.214 213.819 180.968 212.369 182.97C211.993 183.643 212.44 184.515 213.15 184.506Z" fill="#F99370"/>
<path d="M225.847 183C225.801 183.467 225.691 183.922 225.486 184.334L213.016 184.507C212.41 184.515 211.964 183.855 212.157 183.213C212.614 181.713 214.148 179.529 219.892 179.113C219.892 179.113 221.997 179.484 225.205 178.789C225.205 178.789 226.032 181.106 225.847 183Z" fill="#1D3F70"/>
<path d="M215.837 182.671C215.738 182.671 215.644 182.606 215.603 182.498C215.133 181.245 214.304 180.871 214.269 180.856C213.606 179.733 215.494 180.512 216.069 182.279C216.141 182.46 216.012 182.674 215.837 182.671Z" fill="#E8C0A6"/>
<path d="M217.797 182.379C217.69 182.379 217.591 182.303 217.556 182.184C217.136 180.731 215.991 180.072 215.98 180.066C215.375 178.758 217.573 180.136 218.037 182.01C218.092 182.188 217.965 182.381 217.797 182.379Z" fill="#E8C0A6"/>
<path d="M220.027 182.042C219.924 182.042 219.827 181.97 219.789 181.855C219.301 180.347 218.202 179.537 218.191 179.53C217.721 178.157 219.722 179.802 220.265 181.663C220.326 181.842 220.198 182.045 220.027 182.042Z" fill="#E8C0A6"/>
<path d="M212.178 183.192L225.86 183.002C225.815 183.469 225.705 183.924 225.5 184.336L213.03 184.509C212.415 184.518 211.967 183.837 212.178 183.192Z" fill="#395B96"/>
<path d="M252.206 131.771C246.127 131.495 235.533 127.773 230.977 136.419C225.989 145.863 227.239 165.877 227.758 175.549C221.088 177.961 217.497 175.566 217.497 175.566C214.628 155.77 205.206 110.681 236.522 116.888C236.521 116.887 257.517 116.852 257.517 116.852C261.04 124.843 257.909 131.628 252.206 131.771Z" fill="#CE4ABF"/>
<path d="M227.96 184.482L240.31 184.31C240.275 182.105 239.743 177.654 240.132 175.137C240.131 175.137 234.802 175.915 234.802 175.915C234.951 177.123 235.325 179.744 233.488 180.373C231.157 181.172 228.629 180.944 227.179 182.947C226.803 183.619 227.25 184.492 227.96 184.482Z" fill="#F99370"/>
<path d="M240.67 182.974C240.625 183.441 240.515 183.896 240.31 184.307L227.84 184.481C227.233 184.489 226.787 183.828 226.981 183.187C227.438 181.687 228.99 179.465 234.734 179.05C234.734 179.05 236.809 179.513 240.017 178.818C240.017 178.818 240.856 181.079 240.67 182.974Z" fill="#1D3F70"/>
<path d="M230.646 182.644C230.548 182.644 230.454 182.579 230.413 182.47C229.942 181.217 229.113 180.844 229.079 180.828C228.415 179.705 230.304 180.485 230.879 182.252C230.951 182.432 230.822 182.647 230.646 182.644Z" fill="#E8C0A6"/>
<path d="M232.607 182.356C232.5 182.356 232.401 182.28 232.366 182.16C231.946 180.707 230.801 180.049 230.79 180.043C230.185 178.735 232.382 180.113 232.847 181.987C232.901 182.165 232.774 182.358 232.607 182.356Z" fill="#E8C0A6"/>
<path d="M234.837 182.016C234.734 182.016 234.637 181.945 234.599 181.83C234.111 180.322 233.012 179.512 233.001 179.504C232.531 178.131 234.531 179.776 235.074 181.638C235.136 181.817 235.008 182.019 234.837 182.016Z" fill="#E8C0A6"/>
<path d="M226.988 183.169L240.67 182.979C240.625 183.446 240.515 183.901 240.31 184.312L227.84 184.486C227.225 184.495 226.777 183.814 226.988 183.169Z" fill="#395B96"/>
<path d="M238.231 116.883L236.455 131.509C228.609 134.976 228.056 144.205 227.353 154.593C223.697 138.551 223.991 122.327 238.231 116.883Z" fill="#A523A2"/>
<path d="M262.018 133.137C255.345 136.889 247.403 132.057 242.942 142.155C239.343 150.995 241.39 167.873 242.391 175.525C235.721 177.936 232.131 175.542 232.131 175.542C228.152 158.467 219.05 118.786 244.619 116.874C251.62 116.614 260.822 116.667 267.01 116.24C267.01 116.24 270.269 128.498 262.018 133.137Z" fill="#CE4ABF"/>
<path d="M238.341 96.4471C238.219 96.448 238.12 96.329 238.131 96.1928C238.544 92.316 242.213 87.2857 242.697 87.5532C243.026 88.0262 238.793 92.1951 238.55 96.2323C238.54 96.3548 238.449 96.4471 238.341 96.4471Z" fill="#9B3CA1"/>
<path d="M267.129 112.198C267.677 116.524 267.408 118.353 267.408 118.353C257.098 119.802 250.596 119.879 238.037 117.941C245.932 91.3918 228.104 108.483 249.028 77.502C249.078 77.5066 254.173 78.0133 254.219 78.0167C260.12 82.9598 263.926 89.5201 267.129 112.198Z" fill="#EFB8E7"/>
<path d="M216.394 118.436L244.182 118.39L238.62 95.6445L211 95.69L216.394 118.436Z" fill="#003636"/>
<path d="M244.187 118.27L216.399 118.316L216.401 119.862L244.189 119.815L244.187 118.27Z" fill="#234270"/>
<path d="M238.202 95.6462L239.197 95.6445L244.645 118.278L257.833 118.256L257.835 119.801L243.722 119.825L243.72 118.443L238.202 95.6462Z" fill="#0B274F"/>
<path d="M263.362 82.4067C269.775 87.7597 273.209 97.4066 271.528 106.187C270.887 111.119 268.108 115.812 263.754 117.215C261.604 118.18 251.573 119.742 252.035 115.762C252.193 114.808 252.95 114.455 253.684 114.199C254.893 113.72 256.139 113.192 257.291 112.604C259.355 111.403 262.009 110.277 262.455 107.686C263.405 101.635 261.178 95.7249 257.127 91.7829C257.135 91.7876 257.108 91.7648 257.168 91.8133C251.679 87.2595 257.84 77.9105 263.362 82.4067Z" fill="#F99370"/>
<path d="M267.246 116.132C263.986 117.764 260.898 118.269 258.524 118.369C258.524 118.369 259.067 114.409 256.504 112.783C270.912 100.512 250.303 95.3921 254.237 77.3906C269.703 77.6737 285.707 103.837 267.246 116.132Z" fill="#EFB8E7"/>
<path d="M245.918 118.274C245.918 118.274 247.149 113.438 254.538 113.982L256.091 118.257L245.918 118.274Z" fill="#F99370"/>
<path d="M260.237 118.233C259.181 118.366 258.523 118.369 258.523 118.369C258.523 118.369 259.067 114.41 256.504 112.783C256.504 112.783 257.133 112.325 257.956 111.512C257.956 111.512 260.765 113.809 260.237 118.233Z" fill="#23659B"/>
<path d="M257.825 112.187C257.638 112.192 257.538 111.91 257.687 111.775C264.084 105.388 260.938 98.6435 257.122 94.2779C256.934 94.0638 257.246 93.7283 257.43 93.9582C261.487 98.4765 264.571 105.948 257.825 112.187Z" fill="#9B3CA1"/>
<path d="M260.099 118.257C258.901 117.48 263.463 117.861 266.93 116.024C267.037 115.974 267.16 116.031 267.204 116.151C267.249 116.271 267.198 116.408 267.09 116.457C263.507 118.106 260.146 118.256 260.099 118.257Z" fill="#23659B"/>
<path d="M255.675 84.6279C255.529 85.8651 254.471 86.2525 254.206 86.1871C250.483 84.4172 253.137 90.0219 251.608 90.5954C250.321 91.0779 250.166 89.2028 249.043 89.1018C247.414 88.9555 247.084 89.947 246.511 89.3457C245.714 88.5082 247.64 87.0406 247.391 85.5398C247.216 84.4864 245.342 85.5486 245.364 83.3793C245.39 81.2484 247.569 78.053 247.638 77.9544C247.638 77.9521 247.638 77.9521 247.638 77.9521C249.705 76.7239 254.237 77.3886 254.237 77.3886C254.237 77.3886 254.835 77.2401 255.412 77.4832C255.698 79.2153 255.968 82.7701 255.675 84.6279Z" fill="#9B3CA1"/>
<path d="M249.15 75.4427L249.028 77.5044C249.028 77.5044 248.858 79.4875 248.863 83.1738C248.87 88.3561 250.015 87.7508 251.599 84.128C252.47 82.1373 254.237 77.3917 254.237 77.3917L254.477 73.7656L249.15 75.4427Z" fill="#F99370"/>
<path d="M255.325 69.5301C255.304 69.628 255.279 69.7273 255.25 69.8222C255.139 69.7215 254.576 73.0615 254.35 75.6772C252.132 77.1332 249.498 77.0358 249.057 76.885C249.171 73.0153 249.454 67.2248 252.12 66.1416C253.907 65.5041 255.806 67.4712 255.325 69.5301Z" fill="#E57D61"/>
<path d="M248.583 56.7915C241.88 55.9043 240.832 67.7246 245.393 72.0654L248.583 56.7915Z" fill="#163260"/>
<path d="M256.495 65.108C256.821 67.6883 256.847 70.7153 255.559 72.9419L255.557 72.9429C252.039 79.3911 240.366 75.257 243.553 67.6124C244.021 66.6366 244.284 65.4509 244.318 64.4455C244.41 53.8956 255.549 56.0912 256.495 65.108Z" fill="#F99370"/>
<path d="M247.679 66.4957C247.359 66.1382 247.869 65.5856 248.18 65.9533C248.499 66.3108 247.989 66.8636 247.679 66.4957Z" fill="#C16256"/>
<path d="M244.734 66.941C244.414 66.5835 244.924 66.0309 245.234 66.3986C245.554 66.7561 245.044 67.3089 244.734 66.941Z" fill="#C16256"/>
<path d="M246.493 69.8618C245.904 69.9676 245.049 69.7982 245.606 69.0076C246.129 68.4098 246.188 66.7925 246.188 66.7765C246.192 66.5872 246.461 66.5949 246.452 66.7872C246.45 66.8582 246.389 68.5346 245.794 69.2138C245.727 69.2911 245.657 69.3969 245.707 69.4623C245.847 69.6474 246.511 69.6771 246.892 69.3799C246.95 69.3333 247.034 69.3496 247.075 69.4164C247.174 69.7238 246.698 69.791 246.493 69.8618Z" fill="#C16256"/>
<path d="M256.495 65.1077C256.822 67.6879 256.847 70.7147 255.56 72.9416L255.557 72.9426C256.15 71.2738 255.922 68.0777 255.922 68.0777L255.098 66.9059C246.697 66.7941 245.452 59.7144 245.452 59.7144C249.02 54.0489 256.049 59.1599 256.495 65.1077Z" fill="#E57D61"/>
<path d="M246.095 58.8236C246.095 58.8236 247.353 65.7941 254.958 66.2035L256.992 63.8421C257.931 57.7708 251.465 51.5671 246.095 58.8236Z" fill="#163260"/>
<path d="M258.236 65.8669C258.51 68.8185 255.172 69.1623 254.958 66.2044C254.684 63.2533 258.022 62.9092 258.236 65.8669Z" fill="#F99370"/>
<path d="M257.449 65.1033L257.449 65.1031C257.107 63.9336 255.093 65.1866 255.951 65.2293C255.954 65.1775 256.847 64.5783 257.126 65.0966C256.246 65.562 255.955 67.3954 256.464 66.8022C256.465 66.791 256.569 65.7471 257.261 65.3515C257.609 68.0171 257.919 66.1668 257.449 65.1033Z" fill="#C16256"/>
<path d="M257.216 67.6332C257.335 68.0413 256.758 68.2408 256.65 67.829C256.531 67.4207 257.108 67.2212 257.216 67.6332Z" fill="#F4D4BE"/>
<path d="M248.874 91.9548C248.887 92.8097 247.684 92.8118 247.695 91.9566C247.682 91.1018 248.884 91.0997 248.874 91.9548Z" fill="#9B3CA1"/>
<path d="M247.722 96.5974C247.734 97.4526 246.532 97.4544 246.542 96.5993C246.53 95.7442 247.732 95.7423 247.722 96.5974Z" fill="#9B3CA1"/>
<path d="M247.727 100.775C247.74 101.63 246.538 101.632 246.548 100.777C246.535 99.922 247.738 99.9201 247.727 100.775Z" fill="#9B3CA1"/>
<path d="M227.58 172.223C227.692 174.294 227.758 175.545 227.758 175.545C221.088 177.956 217.497 175.562 217.497 175.562C217.497 175.562 217.364 174.533 217.074 172.74C217.154 172.785 221.333 175.072 227.58 172.223Z" fill="#A523A2"/>
<path d="M242.392 175.522C235.722 177.933 232.131 175.539 232.131 175.539C232.131 175.539 231.906 174.58 231.525 172.923C231.525 172.923 235.208 175.055 242.04 172.906C242.243 174.544 242.392 175.522 242.392 175.522Z" fill="#A523A2"/>
<path d="M246.321 118.224C245.008 118.271 249.783 114.6 251.21 115.494C251.222 115.623 251.138 115.738 251.022 115.751C248.333 116.07 246.548 118.214 246.321 118.224Z" fill="#E57D61"/>
<path d="M248.346 118.307C247.349 117.833 250.443 117.014 251.974 116.548C252.087 116.521 252.199 116.603 252.223 116.73C252.247 116.857 252.174 116.981 252.06 117.007C250.428 117.386 248.51 118.286 248.346 118.307Z" fill="#E57D61"/>
<path d="M248.772 65.3002C248.74 65.3002 248.707 65.2888 248.68 65.2649C247.84 64.533 247.078 64.7726 247.046 64.7833C246.967 64.8095 246.884 64.7594 246.86 64.671C246.837 64.5829 246.881 64.4903 246.96 64.4636C246.997 64.4506 247.897 64.1585 248.864 65.0014C248.929 65.0582 248.941 65.1631 248.89 65.2357C248.86 65.2781 248.817 65.3002 248.772 65.3002Z" fill="#C16256"/>
<path d="M246.727 71.0314C246.747 71.0038 246.776 70.9832 246.81 70.975C247.851 70.724 248.175 69.9165 248.188 69.8821C248.221 69.7974 248.308 69.7585 248.384 69.7949C248.46 69.8311 248.495 69.9283 248.463 70.0132C248.448 70.0536 248.072 71.0124 246.873 71.3015C246.792 71.3209 246.713 71.2636 246.695 71.1736C246.685 71.1212 246.698 71.0695 246.727 71.0314Z" fill="#C16256"/>
<path d="M244.384 65.7103C244.355 65.7103 244.326 65.7012 244.3 65.682C244.232 65.6305 244.214 65.5268 244.26 65.4502C244.279 65.4177 244.744 64.6582 245.521 64.6905C245.603 64.6939 245.668 64.7714 245.665 64.8635C245.661 64.9556 245.593 65.0294 245.51 65.0241C244.899 65.0032 244.512 65.6305 244.508 65.6368C244.479 65.6843 244.432 65.7101 244.384 65.7103Z" fill="#C16256"/>
<path d="M427.568 202.725C427.568 202.725 427.943 204.027 428.994 204.571C430.046 205.114 429.856 202.865 429.856 202.865L427.568 202.725Z" fill="#F99370"/>
<path d="M464.59 212.612C458.022 219.025 448.188 221.101 440.854 214.934V214.925C438.671 213.161 436.462 210.281 434.921 207.301L436.7 204.076C450.987 213.807 456.546 197.026 468.122 195.654L465.821 199.449C465.821 199.449 464.791 212.349 464.59 212.612Z" fill="#339999"/>
<path d="M478.227 324.353L478.444 324.225C478.445 324.395 478.636 324.984 478.788 324.983L485.215 325.094C485.367 325.093 485.459 324.772 485.458 324.602L486.006 324.424C486.001 323.349 485.92 322.96 485.491 322.13C483.917 319.82 485.734 309.434 485.668 306.724C486.049 305.981 478.9 306.604 478.799 306.43C478.638 306.431 478.512 306.585 478.526 306.763L479.423 318.613C479.811 320.862 478.271 322.231 478.227 324.353Z" fill="#F99370"/>
<path d="M450.376 325.55L463.176 325.476C464.293 325.419 464.279 324.146 464.068 323.16C463.347 319.606 464.555 311.427 464.768 307.766C464.827 307.096 464.353 306.516 463.75 306.52L458.101 306.552C457.489 306.556 457.018 307.158 457.097 307.837L458.167 316.982C458.744 320.955 454.503 321.737 452.084 322.191C450.491 322.329 447.838 324.774 450.376 325.55Z" fill="#F99370"/>
<path d="M464.559 323.985C464.528 324.687 464.221 325.488 463.494 325.475L450.216 325.552C447.079 324.273 451.596 319.543 457.726 319.535C460.54 320.38 463.846 319.561 463.846 319.561C464.421 320.017 464.6 321.537 464.559 323.985Z" fill="#103663"/>
<path d="M484.992 325.346L479.317 325.379C476.549 324.974 478.496 319.504 482.126 319.442C485.774 319.38 487.753 324.914 484.992 325.346Z" fill="#103663"/>
<path d="M453.372 323.524C453.567 323.527 453.71 323.29 453.632 323.089C453.018 321.424 451.885 320.917 451.837 320.896C451.499 320.743 451.289 321.34 451.632 321.483C451.676 321.503 452.595 321.93 453.11 323.329C453.155 323.451 453.261 323.525 453.372 323.524Z" fill="#E8C0A6"/>
<path d="M455.563 323.217C455.749 323.219 455.89 323.005 455.831 322.807C455.326 320.711 452.883 319.152 453.547 320.617C453.57 320.63 454.838 321.386 455.293 322.996C455.331 323.132 455.443 323.218 455.563 323.217Z" fill="#E8C0A6"/>
<path d="M458.056 322.859C458.246 322.861 458.388 322.639 458.321 322.439C457.728 320.355 455.506 318.5 456.021 320.038C456.033 320.046 457.254 320.961 457.789 322.649C457.83 322.779 457.94 322.86 458.056 322.859Z" fill="#E8C0A6"/>
<path d="M484.17 321.317C484.445 321.327 484.56 320.877 484.31 320.729C482.401 319.496 480.031 320.688 479.931 320.739C479.598 320.904 479.835 321.488 480.166 321.312C480.189 321.233 482.579 320.259 484.17 321.317Z" fill="#E8C0A6"/>
<path d="M449.28 324.072L464.559 323.982C464.52 324.364 464.442 324.738 464.311 325.091C464.227 325.319 464.029 325.469 463.808 325.47L450.216 325.55C449.53 325.555 449.04 324.789 449.28 324.072Z" fill="#0F2E54"/>
<path d="M484.992 325.348L479.317 325.381C478.595 325.386 478.011 324.71 478.051 323.905L486.243 323.857C486.291 324.662 485.714 325.345 484.992 325.348Z" fill="#0F2E54"/>
<path d="M465.2 180.134C465.2 180.134 464.459 175.573 468.04 174.08L470.311 175.971L465.2 180.134Z" fill="#662948"/>
<path d="M486.612 317.249C486.612 317.249 480.567 318.926 477.441 317.18C475.765 305.82 471.112 274.188 469.442 252.504C469.387 253.769 466.329 304.804 465.76 317.248C463.611 318.065 459.286 319.061 456.855 317.126C455.706 304.037 452.01 260.941 457.109 225.697C457.109 225.697 471.541 227.405 482.787 223.537C485.94 234.689 487.084 303.841 486.612 317.249Z" fill="#6B2F29"/>
<path d="M459.178 316.022C457.524 278.393 460.766 246.004 460.255 245.621C459.366 245.706 456.106 278.385 459.178 316.022Z" fill="#FF9F95"/>
<path d="M481.843 315.893C481.075 277.221 475.76 240.619 474.982 240.484C474.403 240.975 479.628 277.155 481.843 315.893Z" fill="#FF9F95"/>
<path d="M468.016 195.526C467.687 192.462 468.096 188.036 468.47 186.214C469.143 182.62 474.246 183.979 473.415 187.513C473.251 187.399 472.755 193.907 473.126 195.71C477.916 197.285 463.558 202.639 468.016 195.526Z" fill="#F99370"/>
<path d="M473.463 187.216C473.451 187.315 473.435 187.415 473.415 187.512C473.297 187.425 472.982 191.016 472.991 193.621C470.805 194.747 468.367 194.274 467.919 194.174C467.792 190.857 468.106 187.864 468.531 185.974C469.404 182.774 473.901 183.912 473.463 187.216Z" fill="#E57D61"/>
<path d="M476.573 184.701C476.214 187.253 475.454 190.131 473.656 191.826H473.653C472.923 192.509 472.043 192.938 471.101 193.15C465.896 194.933 459.457 187.802 463.653 182.89C464.35 182.116 464.907 181.077 465.199 180.135C468.112 170.154 477.93 175.759 476.573 184.701Z" fill="#F99370"/>
<path d="M465.601 187.706L468.588 185.984C468.9 187.976 466.934 189.326 465.601 187.706Z" fill="#F9F8F3"/>
<path d="M458.715 208.551L456.537 217.669C451.787 219.33 446.1 218.97 442.183 215.946C447.117 219.022 453.909 217.233 454.967 215.404C456.081 213.466 458.563 208.831 458.715 208.551Z" fill="#54AAAA"/>
<path d="M467.855 183.166C467.645 182.724 468.272 182.365 468.47 182.814C468.681 183.257 468.054 183.616 467.855 183.166Z" fill="#C16256"/>
<path d="M464.948 182.631C464.738 182.189 465.364 181.83 465.563 182.279C465.774 182.721 465.147 183.08 464.948 182.631Z" fill="#C16256"/>
<path d="M476.573 184.697C476.214 187.249 475.454 190.127 473.656 191.822H473.653C473.504 191.962 473.348 192.092 473.185 192.21C474.552 190.682 475.336 187.415 475.336 187.415L475.003 184.653C472.78 182.155 473.723 179.331 473.723 179.331C470.023 180.508 468.766 177.96 468.766 177.96C467.595 178.134 466.361 177.48 466.361 177.48C470.692 170.714 477.882 177.916 476.573 184.697Z" fill="#E57D61"/>
<path d="M465.622 187.847C465.68 187.744 468.908 186.162 468.705 185.914C468.718 185.551 465.613 187.612 465.541 187.573C465.41 187.643 465.481 187.878 465.622 187.847Z" fill="#C16256"/>
<path d="M466.282 185.965C466.516 186.001 466.654 185.62 466.361 185.644C465.922 185.823 464.854 185.484 465.364 185.132C466.104 184.689 467.032 182.458 466.369 182.949C466.364 182.964 465.889 184.478 465.238 184.876C464.369 185.575 465.627 186.087 466.282 185.965Z" fill="#C16256"/>
<path d="M455.082 240.847C456.15 241.478 462.732 243.788 468.347 243.692C472.65 243.619 478.044 242.149 481.497 240.959C483.522 240.262 484.881 239.66 484.965 239.492C486.827 235.771 482.498 222.452 479.033 211.953C477.068 205.997 475.381 200.95 475.26 199.077C475.376 197.949 473.434 195.855 473.127 195.712C467.052 200.102 467.978 195.699 468.013 195.531C468.013 195.531 462.52 198.272 460.108 202.732C456.495 209.409 451.696 238.844 455.082 240.847Z" fill="#008080"/>
<path d="M463.912 173.677C463.912 173.677 465.595 172.809 467.52 173.27C467.614 172.466 467.932 171.682 468.535 170.996C468.967 171.872 469.518 172.688 470.118 173.433C470.023 171.653 470.779 170.057 470.779 170.057C471.285 171.685 473.537 172.509 474.782 174.144C474.782 174.144 480.626 175.244 477.478 181.396L477.478 181.395C477.611 183.433 477.034 185.625 477.034 185.625C473.694 183.198 473.794 179.523 474.977 178.354C472.749 179.727 470.477 179.004 469.029 177.469C467.221 177.467 464.912 176.793 463.912 173.677Z" fill="#662948"/>
<path d="M478.028 185.982C477.523 188.869 474.269 188.116 474.832 185.242C475.338 182.355 478.592 183.109 478.028 185.982Z" fill="#F99370"/>
<path d="M477.227 186.582C477.69 185.825 477.527 184.727 477.228 184.468C476.684 184.021 475.813 184.246 475.857 184.556C476.021 184.846 476.544 184.226 477.051 184.684C477.572 185.004 476.843 186.483 477.227 186.582Z" fill="#C16256"/>
<path d="M476.006 186.383C476.201 186.331 476.374 185.273 477.358 185.159C477.43 185.155 477.484 185.083 477.479 185.003C476.738 184.401 475.432 186.503 476.006 186.383Z" fill="#C16256"/>
<path d="M465.76 317.246C465.764 317.236 464.979 317.574 463.894 317.813C463.894 317.813 466.698 267.167 467.12 260.408C467.541 253.649 469.441 252.502 469.441 252.502C469.441 252.502 465.704 316.153 465.76 317.246Z" fill="#FF9F95"/>
<path d="M479.216 224.076C482.345 229.702 482.457 236.313 481.497 240.957C483.522 240.26 484.881 239.658 484.965 239.49C486.827 235.769 482.498 222.45 479.033 211.951L473.781 209.609C473.781 209.609 475.424 217.255 479.216 224.076Z" fill="#54AAAA"/>
<path d="M465.868 314.793C465.793 316.254 465.753 317.128 465.76 317.248C463.611 318.065 459.286 319.061 456.855 317.126C456.855 317.126 456.789 316.325 456.656 314.847C456.656 314.847 460.895 317.002 465.868 314.793Z" fill="#FF9F95"/>
<path d="M486.612 317.249C486.612 317.249 480.567 318.927 477.441 317.18C477.441 317.18 477.308 316.301 477.075 314.728C477.075 314.728 481.345 316.038 486.673 314.672C486.704 316.207 486.592 317.122 486.612 317.249Z" fill="#FF9F95"/>
<path d="M475.003 196.074C489.42 199.008 497.703 222.44 490.871 237.548C489.854 239.798 487.759 243.32 485.476 245.632L482.249 244.38C487.742 226.722 475.318 221.817 471.501 201.031L475.003 196.074Z" fill="#339999"/>
<path d="M482.793 242.445C484.609 242.005 486.609 244.373 486.609 244.373C486.252 244.785 485.868 245.23 485.476 245.632L482.249 244.38C482.424 243.717 482.617 242.984 482.793 242.445Z" fill="#54AAAA"/>
<path d="M477.715 248.517C478.301 249.167 479.396 247.592 480.145 247.506C479.882 248.888 479.259 250.196 479.262 250.205C478.288 251.575 477.249 252.884 476.157 254.142C475.667 256.696 479.637 251.853 480.16 251.433C480.167 251.438 480.174 251.443 480.18 251.448C479.45 253.089 478.638 254.689 477.712 256.202C477.742 258.932 480.994 252.608 481.41 252.003C481.414 252.004 481.418 252.005 481.422 252.006C480.969 253.68 480.333 255.293 479.552 256.81C479.801 259.555 482.662 252.85 482.894 252.126C482.9 252.126 482.907 252.126 482.913 252.125C483.003 253.291 481.591 256.086 482.193 256.721C483.362 257.176 485.485 248.43 485.477 245.633C485.475 244.96 483.084 243.806 482.253 244.384C481.535 244.882 480.639 245.663 480.322 245.964C479.553 246.505 477.561 247.391 477.715 248.517Z" fill="#F99370"/>
<path d="M469.577 182.505C469.597 182.501 469.617 182.493 469.636 182.48C469.715 182.427 469.74 182.313 469.693 182.225C469.669 182.18 469.086 181.124 467.912 180.999C467.82 180.989 467.739 181.064 467.73 181.166C467.722 181.269 467.789 181.36 467.88 181.369C468.883 181.476 469.402 182.409 469.407 182.418C469.444 182.485 469.512 182.517 469.577 182.505Z" fill="#C16256"/>
<path d="M465.051 181.397C465.08 181.391 465.109 181.377 465.133 181.354C465.581 180.925 466.243 181.153 466.249 181.155C466.336 181.186 466.431 181.133 466.459 181.035C466.487 180.937 466.439 180.832 466.352 180.801C466.318 180.789 465.508 180.504 464.916 181.072C464.846 181.139 464.838 181.256 464.898 181.334C464.937 181.385 464.996 181.407 465.051 181.397Z" fill="#C16256"/>
<path d="M475.003 196.073C475.048 198.67 469.094 200.998 468.756 201.004L468.029 198.644C467.113 198.903 466.311 200.343 466.311 200.343C463.652 197.543 466.129 195.073 468.015 195.527C468.015 195.527 468.015 195.528 468.013 195.53C467.978 195.698 467.58 199.555 473.103 195.577C473.815 195.204 475.003 196.073 475.003 196.073Z" fill="#FFD2D2"/>
<path d="M438.913 205.413C438.915 207.489 436.104 209.421 436.104 209.421C435.819 208.944 435.121 207.77 434.921 207.301L436.7 204.076C437.242 204.407 438.403 205.136 438.913 205.413Z" fill="#54AAAA"/>
<path d="M436.6 202.924C436.187 202.224 435.671 201.488 435.133 200.617L430.18 205.64L435.316 208.032C435.316 208.032 437.095 207.142 437.556 204.632C437.556 204.632 436.783 203.235 436.6 202.924Z" fill="#F99370"/>
<path d="M433.339 194.686L427.226 194.684L429.504 207.419L435.617 207.422L433.339 194.686Z" fill="#163356"/>
<path d="M432.992 195.406L427.986 195.404L429.852 205.832L434.857 205.834L432.992 195.406Z" fill="#E9EDF4"/>
<path d="M428.995 208.035L429.504 207.419L427.226 194.684L426.716 195.299L428.995 208.035Z" fill="#2E619E"/>
<path d="M435.108 208.036L435.618 207.421L429.504 207.418L428.995 208.034L435.108 208.036Z" fill="#2E619E"/>
<path d="M428.824 203.352C427.034 203.55 427.17 201.261 428.878 202.122L428.847 202.125C429.817 202.034 429.733 203.288 428.824 203.352Z" fill="#F99370"/>
<path d="M428.443 202.232C426.406 202.08 427.414 199.751 428.646 200.964C428.612 200.945 428.805 201.018 428.773 201.002C429.741 201.106 429.288 202.345 428.443 202.232Z" fill="#F99370"/>
<path d="M428.005 201.077L427.384 200.826C426.531 200.443 427.44 199.355 428.139 199.696L428.76 199.948C429.613 200.331 428.705 201.418 428.005 201.077Z" fill="#F99370"/>
<path d="M427.787 200.009L427.166 199.757C426.313 199.374 427.221 198.287 427.92 198.628L428.542 198.879C429.394 199.262 428.486 200.35 427.787 200.009Z" fill="#F99370"/>
<path d="M435.217 204.635C435.217 204.635 436.643 201.19 433.747 198.907C432.189 197.679 432 199.251 432.975 200.106C433.95 200.961 434.822 203.7 434.822 203.7L435.217 204.635Z" fill="#F99370"/>
</svg>
