<svg width="284" height="288" viewBox="0 0 284 288" fill="none" xmlns="http://www.w3.org/2000/svg">
<path opacity="0.3" d="M250.917 247.924C245.094 254.054 239.585 258.007 235.232 261.131C184.062 297.845 123.515 287.143 110.647 284.53C91.6452 280.67 54.9148 273.21 28.3595 241.981C-11.8164 194.735 -5.56048 120.3 25.6028 71.1647C31.3031 62.177 61.4134 12.293 122.612 4.29306C159.65 -0.54835 202.823 9.21624 234.088 35.41C299.716 90.3932 295.044 201.469 250.917 247.924Z" fill="url(#paint0_linear_2487_8289)"/>
<path d="M194.071 278.37C193.578 278.303 193.137 278.043 192.841 277.644C188.522 271.823 157.118 226.273 198.912 184.636C238.588 145.11 256.573 136.995 258.965 113.771C259.244 111.059 262.911 110.408 264.117 112.853C273.132 131.126 287.179 173.764 240.696 201.75C189.42 232.622 193.623 266.464 196.102 276.081C196.43 277.352 195.372 278.547 194.071 278.37Z" fill="url(#paint1_linear_2487_8289)"/>
<path d="M200.43 279.235C199.264 279.077 198.339 278.177 198.159 277.013C196.935 269.092 193.929 239.495 215.734 231.646C239.738 223.006 259.118 245.361 276.762 227.864C277.691 226.943 279.252 227.745 279.03 229.034C277.459 238.174 270.464 259.345 239.342 263.605C206.03 268.164 202.282 271.986 202.954 276.726C203.162 278.188 201.893 279.434 200.43 279.235Z" fill="url(#paint2_linear_2487_8289)"/>
<path opacity="0.47" d="M257.805 137.448C257.398 139.171 256.857 140.788 256.211 142.393C255.577 143.996 254.847 145.559 254.051 147.088C252.475 150.158 250.584 153.061 248.514 155.828C244.344 161.346 239.3 166.194 233.741 170.305C230.968 172.348 228.004 174.227 225.074 175.924C222.221 177.578 219.475 179.43 216.846 181.435C211.583 185.444 206.812 190.097 202.598 195.198C194.204 205.408 188.246 217.729 186.284 230.848C185.284 237.392 185.272 244.093 186.173 250.692C187.064 257.299 188.947 263.769 191.431 270.007C191.565 270.34 191.404 270.718 191.072 270.852C190.752 270.981 190.388 270.833 190.241 270.527C187.337 264.362 185.167 257.809 183.966 251.041C183.352 247.661 182.989 244.228 182.885 240.782C182.802 237.336 182.948 233.876 183.382 230.448C184.216 223.583 186.153 216.859 188.941 210.53C191.738 204.197 195.433 198.282 199.749 192.886C204.063 187.483 209.068 182.649 214.541 178.425C217.283 176.318 220.15 174.369 223.143 172.618C226.073 170.937 228.854 169.229 231.548 167.284C236.926 163.444 241.895 159.01 246.169 153.949C248.334 151.442 250.293 148.757 252.084 145.959C253.839 143.155 255.479 140.197 256.659 137.138L256.675 137.098C256.792 136.793 257.136 136.641 257.441 136.759C257.721 136.867 257.872 137.164 257.805 137.448Z" fill="white"/>
<path opacity="0.47" d="M199.048 273.863C199.149 273.577 199.118 273.31 199.108 273.036L199.083 272.22L199.064 270.588C199.066 269.5 199.089 268.413 199.137 267.326C199.234 265.153 199.419 262.982 199.709 260.822C200.302 256.51 201.28 252.21 203.02 248.16C204.742 244.138 207.349 240.294 211.132 237.783C213.017 236.55 215.143 235.672 217.347 235.226C219.548 234.762 221.81 234.693 224.023 234.887C232.694 235.893 241.194 237.556 249.716 238.906C253.96 239.539 258.265 240.104 262.433 239.534C263.468 239.382 264.489 239.156 265.48 238.837C266.461 238.495 267.424 238.094 268.325 237.566C270.137 236.532 271.73 235.117 273.154 233.547L273.159 233.543C273.355 233.326 273.689 233.31 273.905 233.506C274.118 233.7 274.137 234.028 273.949 234.244C272.506 235.906 270.857 237.442 268.93 238.598C267.974 239.186 266.941 239.644 265.889 240.035C264.826 240.403 263.734 240.669 262.632 240.854C258.194 241.504 253.794 240.951 249.5 240.363C245.195 239.75 240.943 238.952 236.676 238.261C232.423 237.569 228.12 236.9 223.884 236.403C221.793 236.201 219.679 236.25 217.64 236.661C215.598 237.055 213.647 237.843 211.9 238.962C208.38 241.204 205.825 244.771 204.091 248.633C202.336 252.514 201.293 256.716 200.632 260.955C200.306 263.079 200.084 265.221 199.949 267.369C199.882 268.443 199.839 269.519 199.817 270.595L199.806 272.209L199.817 273.015C199.824 273.282 199.812 273.556 199.943 273.809C200.068 274.05 199.974 274.346 199.733 274.471C199.492 274.596 199.196 274.502 199.071 274.261C199.007 274.136 199.001 273.996 199.044 273.872L199.048 273.863Z" fill="white"/>
<path d="M153.741 3.26928C140.676 3.16623 127.498 5.2381 115.839 10.0756C88.6989 21.3365 65.6657 51.133 74.6795 81.5684C77.6076 91.4553 76.0694 102.363 85.9188 106.66C91.248 108.984 105.761 110.368 111.279 108.536C125.945 103.667 135.585 90.3398 127.609 75.561C125.054 70.8282 121.748 66.5047 119.543 61.5998C117.337 56.6949 116.331 50.873 118.58 45.9873C122.995 36.3974 137.659 33.3487 147.168 33.6365C158.393 33.9761 168.563 39.5275 174.603 49.0513C182.131 60.9206 184.038 75.3576 182.936 89.1354C181.757 103.878 175.541 115.136 166.225 126.446C158.205 136.183 149.372 145.53 144.042 156.963C139.148 167.459 137.549 179.089 137.328 190.573C137.285 192.798 126.216 213.773 126.264 220.181C126.27 221.086 138.817 224.085 139.723 224.095C144.446 224.148 157.827 224.297 162.752 224.352C163.764 224.364 164.599 223.554 164.61 222.542C164.961 191.366 174.55 161.644 198.825 140.706C207.657 133.088 217.17 126.884 224.038 117.268C233.827 103.562 238.656 90.0737 237.262 73.1586C235.989 57.7098 230.902 42.2527 220.832 30.2663C210.009 17.3834 194.168 9.33826 177.704 5.8665C170.026 4.2475 161.906 3.33371 153.741 3.26928Z" fill="url(#paint3_linear_2487_8289)"/>
<path d="M177.833 259.3C177.833 273.636 169.887 286.319 155.551 286.319C152.454 286.319 141.921 286.347 139.168 285.353C129.174 281.742 129.138 274.064 129.138 262.825C129.138 248.49 133.979 234.391 148.315 234.391C162.65 234.391 177.833 244.964 177.833 259.3Z" fill="url(#paint4_linear_2487_8289)"/>
<path d="M141.327 -0.000252202C128.262 -0.103298 115.084 1.96846 103.425 6.80605C76.2848 18.067 53.2517 47.8635 62.2654 78.2988C65.1935 88.1858 71.9637 100.631 81.8132 104.928C87.1424 107.253 93.3467 107.099 98.8647 105.267C113.531 100.397 123.171 87.0702 115.195 72.2915C112.64 67.5587 109.334 63.2352 107.128 58.3303C104.923 53.4254 103.917 47.6035 106.166 42.7177C110.58 33.1277 125.245 30.0791 134.754 30.3668C145.979 30.7064 156.149 36.2579 162.189 45.7816C169.717 57.651 171.624 72.088 170.522 85.8658C169.343 100.608 163.127 111.867 153.811 123.176C145.791 132.913 136.958 142.26 131.628 153.693C126.734 164.19 125.135 175.82 124.914 187.303C124.871 189.529 125.62 212.771 125.667 219.179C125.674 220.084 126.403 220.815 127.309 220.825C132.032 220.878 145.413 221.028 150.338 221.083C151.35 221.094 152.185 220.285 152.196 219.272C152.547 188.096 162.136 158.374 186.411 137.437C195.243 129.818 204.756 123.614 211.624 113.998C221.413 100.292 226.242 86.8042 224.848 69.889C223.575 54.4403 218.488 38.9832 208.418 26.9968C197.595 14.1139 181.754 6.06872 165.29 2.59696C157.612 0.977961 149.492 0.0641774 141.327 -0.000252202Z" fill="url(#paint5_linear_2487_8289)"/>
<path d="M142.681 285.514C157.017 285.514 168.638 273.893 168.638 259.557C168.638 245.221 157.017 233.6 142.681 233.6C128.345 233.6 116.724 245.221 116.724 259.557C116.724 273.893 128.345 285.514 142.681 285.514Z" fill="url(#paint6_linear_2487_8289)"/>
<path d="M70.8575 75.3187C70.7047 75.3187 70.567 75.213 70.5326 75.0575C68.7135 66.8441 68.4464 53.9819 77.5042 39.3503C86.345 25.0691 98.7462 15.5131 114.364 10.9482C131.058 6.06839 150.879 7.113 173.276 14.0531C173.452 14.1076 173.551 14.2941 173.496 14.4699C173.442 14.6458 173.255 14.7439 173.079 14.6896C150.808 7.78868 131.117 6.74522 114.551 11.5876C99.0958 16.1052 86.8223 25.5639 78.0708 39.7009C69.1308 54.1424 69.3907 66.8206 71.183 74.9136C71.2229 75.0931 71.1095 75.271 70.9297 75.3107C70.9055 75.3163 70.8814 75.3187 70.8575 75.3187Z" fill="white"/>
<path d="M76.3177 88.534C76.2149 88.534 76.1136 88.4866 76.0483 88.3974C75.9695 88.2896 74.0992 85.7053 72.3597 81.1532C72.294 80.9813 72.38 80.7888 72.5518 80.7232C72.7241 80.6576 72.9162 80.7435 72.9819 80.9153C74.6898 85.3847 76.5674 87.9788 76.5862 88.0044C76.6946 88.1529 76.6622 88.3614 76.5137 88.47C76.4547 88.5132 76.3857 88.534 76.3177 88.534Z" fill="white"/>
<path d="M151.367 242.734C151.316 242.734 151.265 242.722 151.216 242.697C148.557 241.348 145.685 240.664 142.681 240.664C142.497 240.664 142.348 240.515 142.348 240.331C142.348 240.147 142.497 239.998 142.681 239.998C145.791 239.998 148.764 240.706 151.518 242.103C151.682 242.187 151.747 242.387 151.664 242.551C151.605 242.667 151.488 242.734 151.367 242.734Z" fill="white"/>
<path d="M131.931 275.833C131.867 275.833 131.802 275.814 131.745 275.775C126.345 272.128 123.122 266.065 123.122 259.557C123.122 252.342 127.073 245.736 133.434 242.317C133.595 242.23 133.797 242.291 133.885 242.453C133.972 242.615 133.911 242.817 133.749 242.904C127.605 246.207 123.788 252.588 123.788 259.557C123.788 265.843 126.902 271.7 132.118 275.224C132.27 275.326 132.31 275.533 132.207 275.686C132.143 275.781 132.038 275.833 131.931 275.833Z" fill="white"/>
<path d="M186.607 88.2266L172.499 102.659L189.423 98.1382L186.607 88.2266Z" fill="url(#paint7_linear_2487_8289)"/>
<path d="M270.559 94.2014L190.39 98.0922C188.331 98.1922 186.607 96.5498 186.607 94.4885V61.5069C186.607 57.9221 189.454 54.9854 193.038 54.8745L265.29 52.6387C270.671 52.6387 275.033 57.0005 275.033 62.3811V89.5052C275.033 92.0133 273.064 94.0799 270.559 94.2014Z" fill="url(#paint8_linear_2487_8289)"/>
<path opacity="0.85" d="M192.788 96.7673C191.51 96.7673 190.306 96.2859 189.374 95.3972C188.384 94.4527 187.839 93.1788 187.839 91.8103V62.0842C187.839 58.5809 190.647 55.752 194.233 55.6438L264.19 53.5312C269.492 53.5312 273.802 57.7387 273.802 62.9102V88.5384C273.802 91.0045 271.826 93.0298 269.304 93.1493L193.03 96.7615C192.949 96.7653 192.868 96.7673 192.788 96.7673ZM264.195 53.8788L194.244 55.9913C190.847 56.0939 188.186 58.7702 188.186 62.0842V91.8103C188.186 93.0829 188.693 94.2674 189.614 95.1456C190.535 96.0239 191.743 96.4732 193.014 96.4143L269.288 92.802C271.624 92.6913 273.454 90.8186 273.454 88.5384V62.9102C273.454 57.9302 269.3 53.8788 264.195 53.8788Z" fill="white"/>
<path opacity="0.94" d="M263.961 59.8936L199.857 62.2928C199.228 62.3163 198.732 62.7336 198.753 63.2224L198.777 63.7858C198.798 64.2696 199.317 64.6413 199.94 64.6185L264.046 62.2775C264.676 62.2545 265.173 61.837 265.152 61.3478L265.125 60.7261C265.104 60.2421 264.585 59.8703 263.961 59.8936Z" fill="white"/>
<path opacity="0.94" d="M258.225 76.1221L194.12 78.5091C193.491 78.5325 192.996 78.9639 193.017 79.4703L193.042 80.0539C193.064 80.5549 193.583 80.9408 194.206 80.9182L258.313 78.5916C258.943 78.5688 259.439 78.1372 259.418 77.6304L259.39 76.9864C259.369 76.4848 258.848 76.099 258.225 76.1221Z" fill="white"/>
<path opacity="0.94" d="M265.714 82.9114L194.251 85.6096C193.55 85.6362 192.996 86.074 193.018 86.5853L193.043 87.1747C193.064 87.6807 193.642 88.068 194.336 88.0424L265.802 85.4052C266.504 85.3793 267.059 84.9411 267.037 84.4294L267.009 83.7792C266.987 83.2727 266.409 82.8852 265.714 82.9114Z" fill="white"/>
<path opacity="0.94" d="M228.815 69.4611L193.875 70.4796C193.532 70.4896 193.276 70.9605 193.304 71.5288L193.336 72.1839C193.364 72.7462 193.66 73.1922 194 73.183L228.942 72.2323C229.286 72.223 229.543 71.7519 229.515 71.183L229.479 70.4603C229.451 69.8974 229.155 69.4512 228.815 69.4611Z" fill="white"/>
<path opacity="0.94" d="M267.313 68.2521L234.289 69.1988C233.964 69.2081 233.723 69.6784 233.752 70.2467L233.784 70.9018C233.812 71.4641 234.093 71.9106 234.414 71.9022L267.442 71.0232C267.767 71.0145 268.008 70.544 267.98 69.9753L267.944 69.2525C267.916 68.6897 267.635 68.2429 267.313 68.2521Z" fill="white"/>
<path d="M64.8799 276.113C64.8799 276.113 64.2191 279.854 63.8951 283.557C63.7685 285.005 64.8842 286.261 66.3358 286.322C71.2673 286.527 81.816 286.926 85.6011 286.758C86.1701 286.732 86.5423 286.15 86.3316 285.62C86.1551 285.177 85.8147 284.818 85.3811 284.619L67.9567 276.611L64.8799 276.113Z" fill="url(#paint9_linear_2487_8289)"/>
<path d="M64.3384 273.916L64.8693 278.39C64.8693 278.39 67.9216 279.811 70.006 278.211L68.742 273.225L64.3384 273.916Z" fill="url(#paint10_linear_2487_8289)"/>
<path d="M64.7376 189.79C64.5083 190.958 63.5066 248.102 69.615 273.71C69.7146 274.128 69.5027 274.559 69.1051 274.721C68.1683 275.104 66.3315 275.658 64.1304 275.732C63.4487 275.755 62.8376 275.312 62.6453 274.658C60.8993 268.716 52.5327 238.948 51.4412 210.511C50.2217 178.735 51.4412 209.429 51.4412 209.429L52.1565 189.787L64.7376 189.79Z" fill="url(#paint11_linear_2487_8289)"/>
<path d="M44.8359 278.064C44.8359 278.064 43.7841 279.953 42.7657 284.971C42.5818 285.878 43.2151 286.745 44.1355 286.836C45.7639 286.996 48.2706 287.202 50.2787 287.188C51.2043 287.181 51.9268 286.375 51.8153 285.456C51.5929 283.625 50.9 280.619 48.7593 278.277L44.8359 278.064Z" fill="url(#paint12_linear_2487_8289)"/>
<path d="M43.9121 272.31L45.1527 279.077C45.1527 279.077 46.3793 279.989 48.8057 279.328L48.2136 272.047L43.9121 272.31Z" fill="url(#paint13_linear_2487_8289)"/>
<path d="M40.5609 191.543C35.5651 221.693 41.6445 266.061 43.6949 274.745C43.8205 275.276 44.2495 275.684 44.7883 275.773C45.7036 275.925 47.2103 276.048 48.6958 275.617C49.2077 275.468 49.5672 275.007 49.588 274.474C49.8631 267.454 49.368 224.354 54.0229 207.321C54.2588 206.457 54.786 205.705 55.5154 205.186L64.5502 198.763L65.2428 188.381L40.5609 191.543Z" fill="url(#paint14_linear_2487_8289)"/>
<path d="M72.3938 134.416C57.4225 134.169 40.9034 138.347 40.9034 138.347C36.4408 164.386 40.123 194.421 40.123 194.421C51.7135 197.46 64.788 192.563 64.788 192.563C66.7144 181.679 75.7025 151.048 75.7025 151.048C83.0175 150.14 89.0434 148.03 94.0058 145.24C90.2206 140.852 88.4362 135.269 87.6611 131.969C82.3677 133.614 77.0115 134.492 72.3938 134.416Z" fill="#54AAAA"/>
<path d="M116.616 112.363C115.146 110.587 113.284 111.427 113.284 111.427C111.081 120.734 99.5292 128.279 87.6611 131.968C88.4361 135.268 90.2207 140.851 94.0058 145.239C113.702 134.164 116.616 112.363 116.616 112.363Z" fill="url(#paint15_linear_2487_8289)"/>
<path d="M116.259 112.815C116.413 113.305 114.631 114.05 113.582 112.049C113.545 111.09 112.962 106.982 113.535 106.2C116.587 102.04 122.504 96.8242 122.504 96.8242C123.504 97.8109 122.68 98.7802 122.68 98.7802L119.81 101.77C120.41 102.855 121.142 103.771 121.486 105.083C121.745 106.077 121.586 107.139 121.084 108.044C120.581 108.951 119.893 110.131 119.243 111.055C118.013 112.802 116.259 112.815 116.259 112.815Z" fill="url(#paint16_linear_2487_8289)"/>
<path d="M118.554 103.711L115.939 105.928L115.117 108.136L117.45 110.723C117.45 110.723 118.234 106.343 118.816 105.395C119.399 104.447 119.097 103.988 118.554 103.711Z" fill="url(#paint17_linear_2487_8289)"/>
<path d="M46.6458 152.844L40.9034 138.348C40.9034 138.348 26.9194 147.849 24.6196 159.896C27.2619 160.091 32.07 160.778 36.7763 163.154C37.8105 157.466 46.6458 152.844 46.6458 152.844Z" fill="#54AAAA"/>
<path d="M58.8663 166.484C58.8663 166.484 43.1658 175.357 37.8681 167.78C36.7682 166.207 36.5053 164.643 36.7762 163.153C32.07 160.776 27.2619 160.089 24.6196 159.895C23.9261 163.526 24.2928 167.389 26.4269 171.293C35.7065 188.268 60.944 170.355 60.944 170.355L58.8663 166.484Z" fill="url(#paint18_linear_2487_8289)"/>
<path d="M56.9799 177.711L65.5487 147.787C65.6459 147.447 65.9357 147.2 66.2867 147.159C67.8392 146.978 72.3377 146.469 77.5318 146.03C83.7883 145.501 91.0538 145.072 95.3954 145.437C96.0127 145.488 96.3857 146.141 96.1112 146.697C93.6422 151.691 83.4866 172.01 78.401 178.666C78.2324 178.886 77.9719 179.015 77.6944 179.013L57.8134 178.828C57.235 178.822 56.8207 178.267 56.9799 177.711Z" fill="#FFD2CE"/>
<path d="M78.4208 143.436L84.6333 142.401C84.9642 142.346 85.2352 142.662 85.13 142.98L84.5151 144.844C84.4615 145.006 84.32 145.124 84.1507 145.146L78.1724 145.945C77.8631 145.986 77.6081 145.705 77.6793 145.401L78.0599 143.774C78.1008 143.599 78.2432 143.466 78.4208 143.436Z" fill="#FF6F61"/>
<path d="M73.7688 148.695L74.2806 146.029C74.332 145.762 74.5527 145.56 74.8236 145.532L87.3714 144.259C87.7937 144.216 88.132 144.603 88.0329 145.016L87.235 148.338C87.1712 148.604 86.9399 148.796 86.6668 148.809L74.4051 149.427C74.0059 149.447 73.6936 149.088 73.7688 148.695Z" fill="#FF6F61"/>
<path d="M59.05 170.482C59.05 170.482 57.8564 165.574 58.3378 163.832C58.8193 162.091 59.7522 159.852 62.8617 160.35C65.9712 160.847 69.6393 162.157 69.6393 162.157C69.6393 162.157 69.454 164.425 67.0907 163.694L68.5563 164.828C68.5563 164.828 68.3469 166.644 66.3506 165.673L67.7137 167.177C67.7137 167.177 66.8564 168.669 65.3878 167.712C63.9191 166.755 63.215 171.073 59.05 170.482Z" fill="url(#paint19_linear_2487_8289)"/>
<path d="M57.2291 122.262L52.4655 136.038C52.3866 136.266 52.4803 136.519 52.6917 136.636C53.9902 137.354 58.6686 139.429 64.3063 135.854C64.8936 135.482 65.2934 134.875 65.3826 134.185L66.9252 122.262H57.2291Z" fill="url(#paint20_linear_2487_8289)"/>
<path d="M67.5941 109.502C67.5941 109.502 72.825 119.349 72.1545 123.326C71.484 127.304 65.001 127.018 59.34 123.788L55.384 113.156L67.5941 109.502Z" fill="url(#paint21_linear_2487_8289)"/>
<path d="M59.5904 118.568C59.8204 118.466 59.9053 118.184 59.7674 117.974C59.3483 117.333 58.5627 116.027 58.3121 114.884C58.3121 114.884 57.3718 114.281 60.7056 113.484C64.0394 112.686 69.0109 111.447 70.0559 108.609C71.0748 105.843 68.3979 98.8849 64.1271 104.429C63.9646 104.64 63.6463 104.644 63.484 104.433C62.7838 103.522 60.9432 101.631 58.3878 102.777C55.9963 103.85 55.727 105.603 55.7599 106.486C55.7695 106.746 55.5372 106.948 55.2818 106.899C54.0727 106.668 51.1712 106.47 49.817 109.447C48.7014 111.899 49.4265 113.286 50.0868 113.965C50.3008 114.185 50.2071 114.547 49.9136 114.637C49.1191 114.88 48.093 115.554 48.1956 117.416C48.3377 119.989 51.2152 119.762 52.0344 119.645C52.1688 119.626 52.304 119.672 52.3949 119.773C53.0973 120.55 56.2624 123.851 59.6879 124.249C59.9846 124.283 60.2144 123.99 60.1174 123.708L58.6348 119.399C58.566 119.198 58.6618 118.979 58.8552 118.893L59.5904 118.568Z" fill="url(#paint22_linear_2487_8289)"/>
<path d="M60.1861 119.179C60.1861 119.179 56.4617 116.624 56.1895 118.776C55.9175 120.928 59.5435 121.893 61.3395 121.091L60.1861 119.179Z" fill="url(#paint23_linear_2487_8289)"/>
<defs>
<linearGradient id="paint0_linear_2487_8289" x1="320.659" y1="372.086" x2="67.1509" y2="57.2447" gradientUnits="userSpaceOnUse">
<stop stop-color="#B0D8D8"/>
<stop offset="1" stop-color="#EE72F7"/>
</linearGradient>
<linearGradient id="paint1_linear_2487_8289" x1="284.003" y1="147.803" x2="124.721" y2="281.231" gradientUnits="userSpaceOnUse">
<stop stop-color="#B37CFF"/>
<stop offset="1" stop-color="#F895E7"/>
</linearGradient>
<linearGradient id="paint2_linear_2487_8289" x1="312.118" y1="181.362" x2="152.834" y2="314.791" gradientUnits="userSpaceOnUse">
<stop stop-color="#B37CFF"/>
<stop offset="1" stop-color="#F895E7"/>
</linearGradient>
<linearGradient id="paint3_linear_2487_8289" x1="503.484" y1="-195.252" x2="-26.2943" y2="256.311" gradientUnits="userSpaceOnUse">
<stop stop-color="#CB236D"/>
<stop offset="1" stop-color="#4C246D"/>
</linearGradient>
<linearGradient id="paint4_linear_2487_8289" x1="580.753" y1="-104.599" x2="50.9743" y2="346.964" gradientUnits="userSpaceOnUse">
<stop stop-color="#CB236D"/>
<stop offset="1" stop-color="#4C246D"/>
</linearGradient>
<linearGradient id="paint5_linear_2487_8289" x1="8.91255" y1="234.579" x2="468.818" y2="-252.442" gradientUnits="userSpaceOnUse">
<stop stop-color="#C137CA"/>
<stop offset="1" stop-color="#54AAAA"/>
</linearGradient>
<linearGradient id="paint6_linear_2487_8289" x1="92.0925" y1="313.128" x2="551.999" y2="-173.894" gradientUnits="userSpaceOnUse">
<stop stop-color="#C137CA"/>
<stop offset="1" stop-color="#54AAAA"/>
</linearGradient>
<linearGradient id="paint7_linear_2487_8289" x1="131.141" y1="183.773" x2="405.271" y2="-274.989" gradientUnits="userSpaceOnUse">
<stop stop-color="#C137CA"/>
<stop offset="1" stop-color="#F36F56"/>
</linearGradient>
<linearGradient id="paint8_linear_2487_8289" x1="158.533" y1="196.213" x2="427.603" y2="-254.082" gradientUnits="userSpaceOnUse">
<stop stop-color="#C137CA"/>
<stop offset="1" stop-color="#F36F56"/>
</linearGradient>
<linearGradient id="paint9_linear_2487_8289" x1="85.0496" y1="270.943" x2="21.242" y2="340.348" gradientUnits="userSpaceOnUse">
<stop stop-color="#54AAAA"/>
<stop offset="1" stop-color="#0D4E4E"/>
</linearGradient>
<linearGradient id="paint10_linear_2487_8289" x1="64.3384" y1="276.098" x2="70.0061" y2="276.098" gradientUnits="userSpaceOnUse">
<stop stop-color="#F9B776"/>
<stop offset="1" stop-color="#F47960"/>
</linearGradient>
<linearGradient id="paint11_linear_2487_8289" x1="90.0738" y1="192.453" x2="35.7797" y2="266.042" gradientUnits="userSpaceOnUse">
<stop stop-color="#54AAAA"/>
<stop offset="1" stop-color="#0D4E4E"/>
</linearGradient>
<linearGradient id="paint12_linear_2487_8289" x1="70.7353" y1="257.783" x2="6.92749" y2="327.188" gradientUnits="userSpaceOnUse">
<stop stop-color="#54AAAA"/>
<stop offset="1" stop-color="#0D4E4E"/>
</linearGradient>
<linearGradient id="paint13_linear_2487_8289" x1="43.9121" y1="275.808" x2="48.8057" y2="275.808" gradientUnits="userSpaceOnUse">
<stop stop-color="#F9B776"/>
<stop offset="1" stop-color="#F47960"/>
</linearGradient>
<linearGradient id="paint14_linear_2487_8289" x1="80.3973" y1="185.314" x2="26.1031" y2="258.903" gradientUnits="userSpaceOnUse">
<stop stop-color="#54AAAA"/>
<stop offset="1" stop-color="#0D4E4E"/>
</linearGradient>
<linearGradient id="paint15_linear_2487_8289" x1="112.151" y1="94.4975" x2="102.151" y2="123.069" gradientUnits="userSpaceOnUse">
<stop stop-color="#F9B776"/>
<stop offset="1" stop-color="#F47960"/>
</linearGradient>
<linearGradient id="paint16_linear_2487_8289" x1="120.699" y1="97.4896" x2="110.699" y2="126.061" gradientUnits="userSpaceOnUse">
<stop stop-color="#F9B776"/>
<stop offset="1" stop-color="#F47960"/>
</linearGradient>
<linearGradient id="paint17_linear_2487_8289" x1="113.017" y1="115.744" x2="120.549" y2="100.549" gradientUnits="userSpaceOnUse">
<stop stop-color="#F9B776"/>
<stop offset="1" stop-color="#F47960"/>
</linearGradient>
<linearGradient id="paint18_linear_2487_8289" x1="24.3009" y1="169.248" x2="60.9441" y2="169.248" gradientUnits="userSpaceOnUse">
<stop stop-color="#F9B776"/>
<stop offset="1" stop-color="#F47960"/>
</linearGradient>
<linearGradient id="paint19_linear_2487_8289" x1="58.2235" y1="165.409" x2="69.6393" y2="165.409" gradientUnits="userSpaceOnUse">
<stop stop-color="#F9B776"/>
<stop offset="1" stop-color="#F47960"/>
</linearGradient>
<linearGradient id="paint20_linear_2487_8289" x1="52.4378" y1="130.075" x2="66.9252" y2="130.075" gradientUnits="userSpaceOnUse">
<stop stop-color="#F9B776"/>
<stop offset="1" stop-color="#F47960"/>
</linearGradient>
<linearGradient id="paint21_linear_2487_8289" x1="70.371" y1="120.856" x2="54.4419" y2="111.14" gradientUnits="userSpaceOnUse">
<stop stop-color="#F9B776"/>
<stop offset="1" stop-color="#F47960"/>
</linearGradient>
<linearGradient id="paint22_linear_2487_8289" x1="46.0102" y1="100.9" x2="66.5887" y2="117.154" gradientUnits="userSpaceOnUse">
<stop stop-color="#2B3582"/>
<stop offset="1" stop-color="#150E42"/>
</linearGradient>
<linearGradient id="paint23_linear_2487_8289" x1="66.1871" y1="124.48" x2="51.8555" y2="115.739" gradientUnits="userSpaceOnUse">
<stop stop-color="#F9B776"/>
<stop offset="1" stop-color="#F47960"/>
</linearGradient>
</defs>
</svg>
