<svg width="666" height="666" viewBox="0 0 666 666" fill="none" xmlns="http://www.w3.org/2000/svg">
<path d="M550.541 330.081C429.593 260.251 234.135 260.252 113.973 330.082C-6.19779 399.918 -5.5611 513.134 115.388 582.964C236.345 652.798 431.802 652.797 551.973 582.961C672.135 513.131 671.497 399.915 550.541 330.081Z" fill="#FDF5FC"/>
<path d="M594.218 452.91C603.14 447.759 617.558 447.759 626.422 452.91C635.287 458.061 635.24 466.412 626.318 471.563C617.395 476.714 602.978 476.714 594.113 471.563C585.249 466.412 585.295 458.061 594.218 452.91Z" fill="#E6F2F2"/>
<path d="M340.487 460.399L323.984 437.966C320.615 433.386 315.417 430.503 309.75 430.067L285.425 428.197L246.765 404.709L261.214 396.364C262.086 395.86 262.082 394.601 261.206 394.104L255.194 390.687C252.783 389.316 249.824 389.327 247.423 390.715L105.805 472.586C104.938 473.087 104.938 474.34 105.805 474.841L111.664 478.224C114.082 479.62 117.06 479.62 119.476 478.224L180.961 442.714L219.077 464.581L224.061 478.596C227.199 487.419 235.551 493.312 244.915 493.312H280.482L304.614 507.245L362.927 473.357L340.487 460.399Z" fill="#E6F2F2"/>
<path d="M557.473 439.71C518.923 417.453 456.624 417.453 418.325 439.711C384.483 459.378 380.723 489.833 406.893 512.012C385.778 510.704 363.896 514.728 347.77 524.099C319.467 540.547 319.616 567.214 348.103 583.66C376.592 600.109 422.63 600.109 450.934 583.66C473.453 570.575 477.939 551.025 464.492 535.294C496.944 539.987 532.659 534.997 557.929 520.312C596.228 498.053 596.026 461.967 557.473 439.71Z" fill="#E6F2F2"/>
<path d="M110.003 501.137C99.8508 495.275 83.4432 495.275 73.356 501.137C63.2687 506.999 63.322 516.503 73.4745 522.365C83.6283 528.227 100.035 528.227 110.122 522.365C120.209 516.503 120.156 506.999 110.003 501.137Z" fill="#E0E0E0"/>
<path d="M208.817 42.54L215.941 38.4707L216.389 194.235L216.37 194.245L158.93 227.043L158.908 218.885L158.484 71.2792L208.817 42.54Z" fill="#E6F2F2"/>
<path opacity="0.1" d="M209.24 190.144L208.817 42.54L215.942 38.4707L216.389 194.235L216.37 194.245L209.215 190.159L209.24 190.144Z" fill="black"/>
<path opacity="0.2" d="M158.908 218.886L209.215 190.16L216.37 194.247L158.931 227.045L158.908 218.886Z" fill="black"/>
<path d="M130.217 87.4156L137.341 83.3477L137.789 239.112L137.77 239.122L80.3305 271.919L80.3079 263.76L79.8843 116.156L130.217 87.4156Z" fill="#E6F2F2"/>
<path opacity="0.1" d="M130.64 235.021L130.217 87.4156L137.342 83.3477L137.789 239.112L137.77 239.122L130.615 235.036L130.64 235.021Z" fill="black"/>
<path opacity="0.2" d="M80.308 263.762L130.615 235.037L137.77 239.124L80.3306 271.92L80.308 263.762Z" fill="black"/>
<path d="M374.887 129.955C374.451 129.487 374.02 129.01 373.595 128.524C373.501 128.416 373.409 128.306 373.316 128.196C372.616 127.388 371.933 126.558 371.27 125.706C371.198 125.612 371.127 125.516 371.055 125.423C370.528 124.737 370.014 124.039 369.512 123.329C369.438 123.225 369.362 123.123 369.289 123.018C368.807 122.328 368.338 121.626 367.881 120.916C367.772 120.745 367.664 120.573 367.555 120.402C367.186 119.817 366.825 119.227 366.472 118.63C366.397 118.503 366.321 118.38 366.247 118.253C365.85 117.57 365.466 116.878 365.093 116.182C365.001 116.009 364.912 115.834 364.82 115.661C364.53 115.108 364.249 114.553 363.974 113.993C363.883 113.807 363.791 113.622 363.701 113.434C363.363 112.725 363.035 112.014 362.724 111.297C362.678 111.195 362.637 111.09 362.593 110.987C362.317 110.344 362.054 109.696 361.801 109.048C361.725 108.853 361.65 108.66 361.575 108.466C361.284 107.696 361.003 106.922 360.744 106.148C360.723 106.085 360.704 106.021 360.684 105.959C360.421 105.161 360.18 104.36 359.953 103.561C359.909 103.408 359.864 103.253 359.823 103.1C359.568 102.17 359.342 101.242 359.141 100.316C359.097 100.113 359.051 99.9101 359.01 99.7076C358.935 99.3453 358.868 98.9843 358.801 98.622C358.758 98.3903 358.716 98.1585 358.677 97.9281C358.673 97.9068 358.669 97.8841 358.665 97.8628C358.602 97.4872 358.548 97.1142 358.496 96.7399C358.464 96.5175 358.431 96.295 358.403 96.0726C358.301 95.2707 358.224 94.4755 358.168 93.6843C358.156 93.5152 358.147 93.3473 358.138 93.1795C358.09 92.3683 358.058 91.5598 358.06 90.7619C358.062 90.2118 358.075 89.671 358.102 89.1422C358.111 88.9411 358.131 88.7479 358.144 88.5495C358.166 88.2258 358.183 87.8981 358.214 87.5824C358.233 87.3786 358.263 87.1842 358.285 86.983C358.32 86.6833 358.351 86.3796 358.393 86.0866C358.424 85.8748 358.465 85.6723 358.5 85.4645C358.547 85.1941 358.588 84.9198 358.641 84.656C358.684 84.4456 358.736 84.2444 358.782 84.0366C358.838 83.7876 358.891 83.5331 358.954 83.2894C359.007 83.0843 359.07 82.8885 359.129 82.6873C359.197 82.4542 359.259 82.2171 359.332 81.9907C359.396 81.7922 359.47 81.6031 359.539 81.4099C359.616 81.1928 359.689 80.9704 359.772 80.7599C359.847 80.5708 359.929 80.3923 360.008 80.2085C360.096 80.0033 360.18 79.7942 360.271 79.5971C360.355 79.4199 360.446 79.2534 360.534 79.0803C360.632 78.8871 360.727 78.6887 360.831 78.5022C360.923 78.337 361.023 78.1812 361.119 78.0213C361.228 77.8402 361.333 77.6537 361.446 77.4792C361.548 77.3234 361.657 77.1782 361.762 77.0277C361.879 76.8598 361.994 76.688 362.116 76.5268C362.227 76.3803 362.347 76.2458 362.461 76.1046C362.588 75.9514 362.709 75.7929 362.84 75.6464C362.959 75.5118 363.087 75.3866 363.211 75.2574C363.346 75.1176 363.476 74.9737 363.615 74.8405C363.745 74.7153 363.883 74.6008 364.016 74.4822C364.157 74.357 364.294 74.2278 364.439 74.1092C364.578 73.996 364.723 73.8935 364.866 73.7856C365.015 73.6737 365.16 73.5565 365.313 73.4512C365.46 73.35 365.611 73.2608 365.761 73.1662C367.107 72.3137 368.599 71.705 370.215 71.3613C367.217 74.7353 365.456 79.8661 365.437 86.4742C365.434 87.2721 365.466 88.0806 365.514 88.8918C365.524 89.0596 365.533 89.2274 365.545 89.3966C365.601 90.1878 365.678 90.983 365.779 91.7835C365.807 92.006 365.842 92.2298 365.873 92.4536C365.926 92.8265 365.979 93.1995 366.042 93.5738C366.083 93.8268 366.13 94.0799 366.176 94.333C366.242 94.6953 366.311 95.0576 366.385 95.4199C366.427 95.6224 366.472 95.8262 366.516 96.0286C366.717 96.9544 366.943 97.8828 367.198 98.8112C367.241 98.9657 367.286 99.1215 367.33 99.276C367.556 100.074 367.797 100.872 368.06 101.668C368.081 101.731 368.1 101.795 368.12 101.857C368.378 102.631 368.659 103.404 368.951 104.174C369.024 104.368 369.1 104.563 369.176 104.757C369.429 105.406 369.693 106.053 369.968 106.697C370.012 106.799 370.054 106.903 370.099 107.006C370.411 107.722 370.738 108.435 371.078 109.144C371.167 109.33 371.259 109.515 371.35 109.7C371.624 110.262 371.908 110.82 372.2 111.376C372.289 111.546 372.377 111.718 372.469 111.889C372.842 112.585 373.225 113.277 373.622 113.96C373.697 114.088 373.774 114.213 373.849 114.341C374.2 114.938 374.561 115.528 374.931 116.113C375.039 116.283 375.146 116.454 375.255 116.623C375.713 117.334 376.182 118.037 376.666 118.729C376.738 118.832 376.814 118.934 376.885 119.036C377.389 119.749 377.906 120.448 378.435 121.136C378.505 121.227 378.574 121.322 378.646 121.414C379.31 122.268 379.994 123.098 380.694 123.907C380.787 124.015 380.879 124.126 380.972 124.232C381.401 124.721 381.834 125.203 382.275 125.675C382.301 125.703 382.327 125.732 382.352 125.76C382.82 126.258 383.294 126.742 383.775 127.219C383.876 127.319 383.978 127.415 384.081 127.514C384.704 128.125 385.338 128.716 385.982 129.286C386.042 129.339 386.099 129.394 386.159 129.446C386.826 130.031 387.504 130.587 388.19 131.127C388.321 131.229 388.451 131.333 388.583 131.435C389.258 131.954 389.942 132.452 390.633 132.924C390.756 133.008 390.879 133.088 391.003 133.17C391.728 133.654 392.458 134.119 393.197 134.545C393.79 134.887 394.377 135.197 394.962 135.493C395.131 135.578 395.299 135.658 395.467 135.74C395.912 135.955 396.354 136.156 396.792 136.344C396.948 136.411 397.107 136.483 397.262 136.547C397.675 136.716 398.084 136.869 398.491 137.014C398.592 137.05 398.696 137.093 398.797 137.127C399.303 137.301 399.803 137.454 400.299 137.591C400.592 137.672 400.883 137.74 401.172 137.808C401.305 137.84 401.44 137.877 401.573 137.905C401.996 137.996 402.417 138.076 402.832 138.138C403.464 138.236 404.082 138.29 404.692 138.325C404.816 138.332 404.94 138.341 405.063 138.345C405.61 138.365 406.148 138.362 406.676 138.332C406.768 138.326 406.857 138.314 406.949 138.308C407.375 138.276 407.795 138.225 408.207 138.16C408.337 138.14 408.466 138.12 408.592 138.096C408.73 138.071 408.86 138.031 408.997 138.003C407.981 139.148 406.825 140.094 405.543 140.825C405.539 140.828 405.537 140.829 405.533 140.832C405.486 140.858 405.437 140.88 405.39 140.905C405.362 140.918 405.333 140.932 405.306 140.946C404.972 141.129 404.628 141.295 404.278 141.449C404.27 141.452 404.263 141.455 404.255 141.459C404.137 141.511 404.018 141.56 403.897 141.608C403.532 141.755 403.158 141.887 402.777 142.004C402.706 142.025 402.638 142.051 402.568 142.072C402.127 142.198 401.674 142.298 401.214 142.384C401.205 142.385 401.196 142.388 401.185 142.39C401.067 142.412 400.945 142.429 400.826 142.448C400.421 142.511 400.01 142.559 399.592 142.591C399.484 142.599 399.379 142.611 399.27 142.618C398.752 142.647 398.221 142.65 397.685 142.631C397.677 142.631 397.669 142.631 397.661 142.631C397.547 142.627 397.432 142.618 397.318 142.611C397.317 142.611 397.316 142.611 397.314 142.611C397.021 142.595 396.726 142.573 396.429 142.545C396.097 142.51 395.763 142.473 395.424 142.42C395.211 142.386 394.994 142.341 394.78 142.3C394.576 142.261 394.373 142.229 394.167 142.184C394.043 142.156 393.918 142.122 393.794 142.093C393.757 142.084 393.719 142.075 393.683 142.067C393.424 142.004 393.165 141.944 392.903 141.871C392.413 141.736 391.918 141.584 391.419 141.414C391.318 141.379 391.214 141.337 391.113 141.301C390.706 141.155 390.297 141.002 389.884 140.833C389.88 140.832 389.877 140.83 389.871 140.828C389.722 140.767 389.57 140.699 389.421 140.633C389.42 140.632 389.417 140.631 389.416 140.631C388.976 140.443 388.534 140.24 388.089 140.025C387.992 139.978 387.894 139.93 387.799 139.882C387.727 139.846 387.656 139.813 387.584 139.777C387.001 139.482 386.413 139.172 385.821 138.83C385.081 138.404 384.351 137.939 383.627 137.455C383.593 137.433 383.56 137.411 383.528 137.39C383.438 137.33 383.347 137.271 383.258 137.21C382.566 136.739 381.884 136.242 381.208 135.721C381.123 135.654 381.037 135.588 380.952 135.52C380.907 135.484 380.862 135.449 380.816 135.413C380.13 134.874 379.452 134.317 378.785 133.732C378.748 133.7 378.712 133.667 378.676 133.634C378.653 133.614 378.63 133.592 378.606 133.571C377.964 133.002 377.332 132.411 376.71 131.802C376.607 131.702 376.503 131.605 376.401 131.504C375.921 131.028 375.447 130.545 374.981 130.048C374.946 130.021 374.917 129.988 374.887 129.955Z" fill="#EBEBEB"/>
<path d="M408.527 114.766L408.522 116.479L413.355 119.268L413.36 117.555L408.527 114.766Z" fill="white"/>
<path d="M369.428 78.6367L368.682 79.6837L372.864 84.8825L373.61 83.8289L369.428 78.6367Z" fill="white"/>
<path d="M417.446 120.777C417.396 138.447 404.884 145.569 389.506 136.691C374.128 127.812 361.697 106.29 361.747 88.6195C361.798 70.9412 374.31 63.819 389.688 72.6968C405.067 81.5759 417.497 103.098 417.446 120.777ZM377.015 103.703C377.135 104.095 377.408 104.445 377.695 104.611C377.795 104.669 377.897 104.705 377.99 104.713L389.818 105.64C390.003 105.678 390.167 105.622 390.259 105.465L398.002 92.3504C398.183 92.0321 398.038 91.4327 397.672 91.0051C397.565 90.8839 397.453 90.7906 397.342 90.7267C397.071 90.5695 396.808 90.5908 396.675 90.8146L389.061 103.726L377.409 102.805C377.031 102.781 376.856 103.18 377.015 103.703ZM399.755 92.124L402.187 88.7061L400.9 87.109L398.467 90.5269L399.755 92.124ZM400.764 135.251L402.056 135.144L399.651 128.931L398.359 129.039L400.764 135.251ZM369.347 107.421L373.545 107.06L372.807 105.15L368.609 105.511L369.347 107.421ZM409.767 130.759L410.513 129.705L406.331 124.506L405.585 125.56L409.767 130.759ZM369.428 78.6375L368.682 79.6831L372.864 84.8819L373.61 83.8283L369.428 78.6375ZM406.388 104.239L410.587 103.878L409.849 101.974L405.65 102.327L406.388 104.239ZM378.424 74.1313L377.139 74.2432L379.544 80.4557L380.83 80.3438L378.424 74.1313ZM378.288 122.275L380.722 118.857L379.44 117.264L377.007 120.682L378.288 122.275ZM370.668 94.6228L370.673 92.9099L365.834 90.1167L365.829 91.8296L370.668 94.6228ZM413.36 117.555L408.527 114.765L408.522 116.478L413.354 119.267L413.36 117.555ZM388.779 131.57L390.263 132.426L390.279 126.867L388.795 126.01L388.779 131.57ZM390.417 77.817L388.934 76.9605L388.918 82.5203L390.401 83.3767L390.417 77.817Z" fill="#E0E0E0"/>
<path d="M388.934 76.959L388.918 82.5188L390.401 83.3766L390.417 77.8155L388.934 76.959Z" fill="white"/>
<path d="M400.9 87.1074L398.468 90.5253L399.755 92.1224L402.188 88.7045L400.9 87.1074Z" fill="white"/>
<path d="M409.849 101.973L405.65 102.326L406.388 104.237L410.587 103.876L409.849 101.973Z" fill="white"/>
<path d="M406.331 124.506L405.585 125.559L409.767 130.76L410.513 129.705L406.331 124.506Z" fill="white"/>
<path d="M399.651 128.932L398.359 129.04L400.764 135.251L402.056 135.144L399.651 128.932Z" fill="white"/>
<path d="M388.794 126.01L388.779 131.57L390.263 132.427L390.278 126.866L388.794 126.01Z" fill="white"/>
<path d="M379.44 117.264L377.007 120.682L378.288 122.275L380.722 118.857L379.44 117.264Z" fill="white"/>
<path d="M372.807 105.15L368.609 105.511L369.346 107.421L373.545 107.062L372.807 105.15Z" fill="white"/>
<path d="M365.834 90.1172L365.83 91.8301L370.668 94.6233L370.673 92.9104L365.834 90.1172Z" fill="white"/>
<path d="M378.424 74.1309L377.139 74.2427L379.544 80.4552L380.831 80.3433L378.424 74.1309Z" fill="white"/>
<path d="M389.603 103.841C389.504 103.784 389.404 103.749 389.306 103.743L389.06 103.724L377.408 102.804C377.033 102.78 376.857 103.178 377.017 103.702C377.137 104.093 377.41 104.443 377.698 104.61C377.798 104.667 377.899 104.703 377.992 104.711L389.821 105.637L389.892 105.642C390.267 105.674 390.443 105.275 390.284 104.744C390.158 104.354 389.887 104.005 389.603 103.841Z" fill="white"/>
<path d="M397.34 90.7268C397.068 90.5697 396.806 90.591 396.672 90.8148L389.059 103.726L389.305 103.744C389.402 103.751 389.504 103.786 389.602 103.843C389.886 104.007 390.156 104.356 390.279 104.746C390.437 105.276 390.263 105.676 389.887 105.644L389.815 105.639C389.999 105.677 390.164 105.621 390.256 105.465L397.999 92.3506C398.18 92.0322 398.035 91.4328 397.669 91.0052C397.564 90.884 397.452 90.7894 397.34 90.7268Z" fill="#F5F5F5"/>
<path d="M408.664 142.56C408.814 142.447 408.967 142.339 409.113 142.22C409.273 142.09 409.424 141.947 409.578 141.81C409.721 141.684 409.867 141.561 410.004 141.429C410.154 141.285 410.296 141.129 410.44 140.978C410.575 140.838 410.712 140.703 410.842 140.557C410.982 140.399 411.114 140.229 411.25 140.064C411.375 139.911 411.504 139.764 411.626 139.606C411.756 139.434 411.877 139.251 412.002 139.073C412.118 138.908 412.238 138.748 412.35 138.577C412.471 138.391 412.583 138.194 412.699 138.001C412.804 137.825 412.915 137.654 413.015 137.472C413.125 137.272 413.228 137.059 413.333 136.851C413.428 136.663 413.528 136.482 413.618 136.289C413.719 136.073 413.81 135.847 413.905 135.624C413.988 135.427 414.078 135.235 414.158 135.032C414.248 134.8 414.328 134.557 414.413 134.319C414.487 134.112 414.565 133.911 414.633 133.7C414.712 133.454 414.78 133.199 414.853 132.947C414.916 132.73 414.983 132.518 415.041 132.296C415.107 132.037 415.163 131.768 415.223 131.503C415.275 131.275 415.332 131.053 415.379 130.82C415.435 130.539 415.48 130.246 415.528 129.958C415.567 129.729 415.612 129.506 415.647 129.273C415.695 128.95 415.728 128.613 415.767 128.281C415.791 128.072 415.821 127.871 415.841 127.659C415.877 127.289 415.899 126.906 415.923 126.525C415.935 126.34 415.953 126.162 415.962 125.974C415.989 125.401 416.005 124.818 416.006 124.222C416.009 123.359 415.974 122.484 415.923 121.605C415.919 121.549 415.916 121.494 415.912 121.438C415.851 120.458 415.761 119.472 415.635 118.479C415.621 118.37 415.604 118.26 415.59 118.151C415.519 117.616 415.44 117.08 415.351 116.542C415.306 116.27 415.255 115.997 415.207 115.726V115.724C415.135 115.331 415.061 114.938 414.981 114.544C414.967 114.479 414.953 114.412 414.938 114.347C414.481 112.16 413.889 109.959 413.164 107.767C413.164 107.765 413.163 107.764 413.163 107.761C412.216 104.899 411.05 102.054 409.699 99.2753C409.67 99.2154 409.641 99.1554 409.612 99.0968C408.848 97.5384 408.032 95.9999 407.158 94.4948C407.077 94.3549 406.991 94.2164 406.909 94.0778C406.513 93.4065 406.106 92.7405 405.69 92.0825C405.592 91.9253 405.493 91.7695 405.393 91.6136C404.256 89.8474 403.047 88.1358 401.774 86.4948C401.759 86.4761 401.745 86.4561 401.73 86.4375C400.475 84.8244 399.161 83.278 397.793 81.8154C397.793 81.8154 397.793 81.8154 397.791 81.8141C397.787 81.8101 397.785 81.8075 397.782 81.8035C397.259 81.244 396.727 80.6992 396.189 80.1664C396.104 80.0825 396.017 79.9999 395.931 79.916C395.231 79.2314 394.521 78.5654 393.799 77.9273L393.798 77.926C393.771 77.902 393.745 77.8781 393.718 77.8541C392.963 77.1881 392.194 76.5527 391.416 75.9413C391.277 75.8308 391.135 75.7202 390.994 75.611C390.994 75.611 390.994 75.611 390.993 75.611C390.263 75.0489 389.525 74.5121 388.778 74.0019C388.747 73.982 388.718 73.962 388.687 73.942C388.213 73.6196 387.736 73.308 387.257 73.0083C386.842 72.7472 386.425 72.4928 386.007 72.2504C385.366 71.8801 384.731 71.5444 384.1 71.226C384.082 71.2167 384.065 71.2087 384.046 71.2007C382.092 70.2177 380.186 69.4705 378.351 68.9643C378.344 68.963 378.338 68.9603 378.331 68.959C378.155 68.9097 377.982 68.8711 377.807 68.8284C377.532 68.7592 377.256 68.6846 376.984 68.626C376.975 68.6233 376.966 68.6207 376.956 68.6193C376.763 68.578 376.574 68.5501 376.382 68.5128C376.128 68.4648 375.871 68.4102 375.619 68.3702C375.61 68.3689 375.602 68.3662 375.592 68.3649C375.578 68.3622 375.563 68.3609 375.547 68.3596C375.358 68.3303 375.171 68.3143 374.985 68.2916C374.653 68.2504 374.323 68.2131 373.997 68.1878C373.971 68.1864 373.947 68.1838 373.922 68.1824C373.819 68.1744 373.719 68.1718 373.617 68.1664C372.886 68.1238 372.168 68.1172 371.468 68.1571C371.459 68.1571 371.448 68.1571 371.439 68.1571C371.339 68.1624 371.243 68.1758 371.143 68.1838C371.137 68.1838 371.13 68.1864 371.123 68.1864C370.67 68.2211 370.224 68.273 369.786 68.3423C369.785 68.3423 369.783 68.3423 369.783 68.3423C369.775 68.3436 369.767 68.3449 369.761 68.3463C369.127 68.4475 368.505 68.5767 367.904 68.7485C367.891 68.7525 367.877 68.7539 367.864 68.7578C367.841 68.7645 367.819 68.7738 367.796 68.7805C367.757 68.7925 367.721 68.8085 367.683 68.8205C367.269 68.9457 366.864 69.0895 366.467 69.2494C366.457 69.2534 366.449 69.2547 366.44 69.2587C366.377 69.284 366.318 69.3106 366.256 69.3373C365.701 69.5704 365.159 69.8274 364.639 70.1271C364.622 70.1365 364.603 70.1458 364.586 70.1551L371.964 65.8674C372.018 65.8354 372.073 65.8035 372.129 65.7728C372.192 65.7369 372.261 65.7116 372.324 65.6769C372.684 65.4811 373.055 65.3 373.433 65.1348C373.504 65.1042 373.569 65.0629 373.64 65.0336C373.697 65.0096 373.759 64.9936 373.818 64.971C374.26 64.7925 374.71 64.63 375.173 64.4928C375.193 64.4875 375.21 64.4781 375.23 64.4728C375.234 64.4715 375.238 64.4715 375.241 64.4701C375.729 64.3289 376.233 64.2184 376.744 64.1238C376.804 64.1132 376.86 64.0932 376.92 64.0839C376.999 64.0705 377.083 64.0679 377.161 64.0559C377.608 63.9853 378.06 63.932 378.521 63.8974C378.595 63.8921 378.665 63.8761 378.738 63.8721C378.764 63.8707 378.79 63.8721 378.817 63.8721C379.387 63.8388 379.969 63.8361 380.561 63.8574C380.619 63.8588 380.674 63.8534 380.731 63.8561C380.919 63.8641 381.109 63.8841 381.299 63.8974C381.433 63.9067 381.566 63.9147 381.702 63.9267C382.106 63.964 382.513 64.0119 382.925 64.0745C382.94 64.0772 382.954 64.0785 382.97 64.0799C382.973 64.0799 382.974 64.0799 382.977 64.0799C383.424 64.1491 383.877 64.2344 384.334 64.3329C384.477 64.3636 384.622 64.4035 384.764 64.4382C385.051 64.5048 385.336 64.5687 385.625 64.6473C385.653 64.6553 385.681 64.6659 385.709 64.6726C386.244 64.8205 386.785 64.9856 387.332 65.1734C387.443 65.2107 387.555 65.2574 387.667 65.2973C388.106 65.4532 388.547 65.6197 388.993 65.8021C389.052 65.8261 389.111 65.8448 389.171 65.8687C389.28 65.914 389.392 65.9726 389.501 66.0193C389.975 66.2231 390.453 66.4402 390.934 66.6746C391.115 66.7625 391.297 66.8491 391.479 66.941C392.11 67.2607 392.746 67.5963 393.386 67.9666C394.186 68.4275 394.974 68.9297 395.757 69.4532C395.891 69.5424 396.025 69.629 396.158 69.7196C396.906 70.2297 397.644 70.7665 398.373 71.3286C398.516 71.4378 398.656 71.5497 398.797 71.6603C399.539 72.2437 400.273 72.8458 400.993 73.4785C401.056 73.5331 401.117 73.5917 401.18 73.6463C401.877 74.263 402.563 74.9037 403.238 75.5644C403.306 75.631 403.376 75.6896 403.444 75.7562C403.487 75.7975 403.527 75.8428 403.57 75.884C404.088 76.3982 404.602 76.9217 405.105 77.4598C405.131 77.4864 405.156 77.5157 405.181 77.5424C405.661 78.0552 406.132 78.5787 406.599 79.1102C406.642 79.1608 406.689 79.2087 406.733 79.258C406.789 79.3233 406.841 79.3939 406.898 79.4591C407.655 80.3356 408.395 81.232 409.113 82.1551C409.133 82.1817 409.156 82.2057 409.176 82.2324C409.231 82.303 409.281 82.3789 409.336 82.4495C409.907 83.1927 410.465 83.9493 411.009 84.7179C411.065 84.7965 411.123 84.8697 411.179 84.9483C411.205 84.9856 411.229 85.0229 411.254 85.0602C411.775 85.8061 412.281 86.564 412.775 87.3313C412.822 87.4045 412.874 87.4751 412.92 87.5484C412.991 87.6589 413.056 87.7735 413.125 87.8854C413.524 88.5154 413.913 89.1508 414.291 89.7928C414.351 89.894 414.416 89.9926 414.475 90.0938C414.497 90.1325 414.517 90.1724 414.54 90.211C414.969 90.949 415.384 91.6962 415.787 92.4488C415.819 92.5101 415.855 92.5687 415.887 92.6286C415.952 92.7525 416.012 92.879 416.077 93.0042C416.391 93.6036 416.696 94.2057 416.993 94.8131C417.055 94.9396 417.123 95.0635 417.184 95.1887C417.221 95.2646 417.253 95.3419 417.289 95.4192C417.655 96.1864 418.011 96.9576 418.349 97.7342C418.359 97.7568 418.371 97.7795 418.38 97.8021C418.415 97.882 418.444 97.9633 418.479 98.0432C418.781 98.7465 419.069 99.4538 419.346 100.162C419.391 100.276 419.442 100.389 419.486 100.503C419.523 100.599 419.554 100.697 419.59 100.792C419.905 101.626 420.209 102.461 420.489 103.299C420.494 103.315 420.501 103.33 420.506 103.346C420.522 103.394 420.534 103.442 420.55 103.491C420.836 104.357 421.097 105.223 421.344 106.09C421.374 106.199 421.413 106.307 421.442 106.415C421.46 106.475 421.47 106.535 421.486 106.595C421.762 107.599 422.006 108.603 422.224 109.605C422.243 109.694 422.271 109.783 422.289 109.871C422.317 110.002 422.337 110.132 422.365 110.263C422.447 110.657 422.521 111.05 422.593 111.443C422.642 111.716 422.693 111.989 422.738 112.261C422.806 112.667 422.865 113.072 422.922 113.477C422.949 113.666 422.983 113.858 423.009 114.047C423.015 114.098 423.017 114.146 423.023 114.196C423.133 115.063 423.217 115.925 423.276 116.782C423.29 116.963 423.299 117.144 423.31 117.325C423.362 118.204 423.396 119.078 423.394 119.943C423.367 129.432 420.017 136.11 414.613 139.25L407.235 143.538C407.395 143.444 407.547 143.338 407.704 143.239C407.861 143.139 408.022 143.045 408.176 142.938C408.338 142.814 408.499 142.685 408.664 142.56Z" fill="#EBEBEB"/>
<path d="M355.799 89.459C355.745 108.559 369.181 131.831 385.809 141.431C394.42 146.403 402.191 146.722 407.695 143.23C407.852 143.131 408.013 143.036 408.166 142.929C408.335 142.812 408.498 142.683 408.663 142.559C408.812 142.446 408.965 142.338 409.112 142.219C409.272 142.089 409.422 141.946 409.577 141.809C409.719 141.683 409.866 141.56 410.003 141.428C410.152 141.284 410.295 141.129 410.439 140.977C410.573 140.837 410.71 140.702 410.841 140.556C410.981 140.399 411.113 140.228 411.248 140.063C411.374 139.91 411.503 139.763 411.624 139.605C411.755 139.433 411.876 139.25 412.001 139.072C412.117 138.907 412.237 138.747 412.349 138.576C412.47 138.39 412.582 138.193 412.698 138C412.803 137.824 412.913 137.653 413.013 137.471C413.124 137.271 413.226 137.058 413.332 136.85C413.426 136.662 413.526 136.481 413.617 136.288C413.718 136.072 413.809 135.846 413.903 135.623C413.987 135.426 414.076 135.234 414.156 135.031C414.247 134.799 414.327 134.557 414.412 134.318C414.485 134.112 414.564 133.91 414.632 133.699C414.71 133.454 414.778 133.198 414.852 132.946C414.914 132.729 414.982 132.517 415.039 132.295C415.106 132.036 415.162 131.767 415.222 131.502C415.274 131.274 415.331 131.052 415.378 130.819C415.434 130.538 415.479 130.245 415.527 129.957C415.565 129.728 415.611 129.506 415.645 129.272C415.693 128.949 415.727 128.612 415.765 128.28C415.789 128.071 415.82 127.87 415.84 127.658C415.876 127.288 415.897 126.905 415.921 126.525C415.933 126.339 415.952 126.161 415.961 125.973C415.988 125.4 416.004 124.817 416.005 124.222C416.008 123.358 415.973 122.483 415.921 121.604C415.917 121.548 415.914 121.494 415.91 121.438C415.849 120.457 415.76 119.472 415.633 118.478C415.62 118.369 415.603 118.259 415.588 118.149C415.517 117.613 415.439 117.078 415.35 116.54C415.304 116.268 415.254 115.995 415.204 115.722C415.133 115.329 415.058 114.936 414.978 114.542C414.965 114.477 414.95 114.41 414.935 114.345C414.479 112.158 413.886 109.957 413.161 107.765C413.161 107.765 413.16 107.762 413.16 107.759C412.213 104.897 411.047 102.052 409.697 99.2732C409.667 99.2132 409.638 99.1533 409.609 99.0933C408.846 97.5349 408.029 95.9964 407.155 94.4913C407.074 94.3514 406.989 94.2129 406.905 94.073C406.509 93.4017 406.102 92.737 405.686 92.079C405.587 91.9232 405.489 91.766 405.389 91.6102C404.251 89.8439 403.043 88.1323 401.77 86.4913C401.755 86.4726 401.741 86.4527 401.726 86.434C400.471 84.821 399.157 83.2745 397.789 81.812C397.785 81.808 397.782 81.804 397.778 81.8C397.254 81.2405 396.723 80.6957 396.185 80.1629C396.1 80.0777 396.012 79.9964 395.926 79.9125C395.227 79.2279 394.517 78.5619 393.795 77.9239C393.769 77.8999 393.742 77.8746 393.714 77.8506C392.959 77.1846 392.19 76.5492 391.412 75.9378C391.271 75.8273 391.131 75.7154 390.989 75.6062C390.259 75.0441 389.521 74.5073 388.774 73.9971C388.743 73.9771 388.714 73.9572 388.683 73.9372C388.209 73.6148 387.732 73.3031 387.252 73.0034C386.837 72.745 386.421 72.488 386.003 72.2455C385.362 71.8752 384.727 71.5396 384.096 71.2212C384.078 71.2119 384.06 71.2039 384.042 71.1946C382.088 70.2116 380.182 69.4643 378.347 68.9582C378.164 68.9075 377.984 68.8676 377.803 68.8223C377.528 68.753 377.252 68.6784 376.98 68.6198C376.778 68.5759 376.579 68.5452 376.379 68.5066C376.125 68.4587 375.868 68.4041 375.616 68.3641C375.402 68.3308 375.193 68.3121 374.982 68.2855C374.65 68.2442 374.32 68.2069 373.994 68.1816C373.866 68.1723 373.741 68.167 373.614 68.159C372.883 68.1163 372.165 68.1097 371.466 68.1496C371.35 68.1563 371.236 68.1696 371.121 68.1789C370.668 68.2136 370.222 68.2655 369.783 68.3348C369.774 68.3361 369.766 68.3375 369.757 68.3388C369.123 68.44 368.501 68.5692 367.9 68.7411C367.825 68.7624 367.753 68.7903 367.679 68.813C367.264 68.9382 366.86 69.082 366.463 69.2419C366.392 69.2699 366.323 69.3005 366.252 69.3298C365.697 69.5629 365.155 69.82 364.635 70.1197C359.201 73.2472 355.827 79.9365 355.799 89.459ZM374.975 130.054C374.946 130.022 374.917 129.989 374.886 129.957C374.449 129.49 374.019 129.013 373.594 128.527C373.5 128.419 373.408 128.308 373.314 128.199C372.615 127.39 371.932 126.561 371.268 125.708C371.197 125.615 371.126 125.519 371.054 125.426C370.527 124.74 370.012 124.042 369.509 123.33C369.436 123.227 369.36 123.124 369.286 123.019C368.804 122.329 368.335 121.627 367.879 120.915C367.769 120.745 367.661 120.573 367.552 120.401C367.183 119.817 366.821 119.227 366.469 118.63C366.395 118.503 366.319 118.379 366.244 118.253C365.847 117.57 365.462 116.878 365.089 116.182C364.997 116.008 364.908 115.834 364.816 115.661C364.526 115.108 364.245 114.551 363.97 113.993C363.879 113.807 363.787 113.621 363.697 113.434C363.359 112.725 363.031 112.014 362.72 111.297C362.674 111.195 362.633 111.089 362.589 110.987C362.313 110.343 362.05 109.696 361.797 109.047C361.721 108.853 361.646 108.66 361.572 108.465C361.28 107.694 360.999 106.923 360.74 106.148C360.719 106.085 360.7 106.021 360.68 105.958C360.417 105.161 360.176 104.36 359.949 103.561C359.905 103.408 359.86 103.254 359.819 103.101C359.564 102.172 359.338 101.243 359.135 100.317C359.091 100.114 359.046 99.9112 359.005 99.7087C358.93 99.3464 358.862 98.9854 358.796 98.6231C358.753 98.3914 358.71 98.1596 358.672 97.9292C358.605 97.5322 358.547 97.1366 358.491 96.741C358.459 96.5186 358.425 96.2961 358.397 96.0737C358.296 95.2718 358.219 94.4766 358.163 93.6854C358.151 93.5162 358.142 93.3484 358.132 93.1806C358.084 92.3694 358.052 91.5609 358.055 90.763C358.056 90.2129 358.07 89.6721 358.096 89.1433C358.106 88.9422 358.126 88.749 358.139 88.5506C358.16 88.2269 358.178 87.8992 358.208 87.5835C358.228 87.3797 358.258 87.1853 358.28 86.9841C358.315 86.6844 358.345 86.3807 358.388 86.0877C358.419 85.8759 358.46 85.6734 358.495 85.4656C358.541 85.1952 358.583 84.9209 358.636 84.6571C358.678 84.4467 358.73 84.2455 358.777 84.0377C358.833 83.7887 358.886 83.5342 358.949 83.2905C359.002 83.0854 359.065 82.8896 359.123 82.6884C359.191 82.4553 359.254 82.2182 359.327 81.9918C359.391 81.7933 359.464 81.6042 359.534 81.411C359.611 81.1939 359.684 80.9715 359.767 80.761C359.841 80.5719 359.924 80.3934 360.002 80.2096C360.09 80.0044 360.174 79.7953 360.266 79.5982C360.35 79.421 360.441 79.2545 360.529 79.0814C360.627 78.8882 360.722 78.6898 360.826 78.5033C360.918 78.3381 361.017 78.1823 361.113 78.0224C361.223 77.8413 361.328 77.6548 361.441 77.4803C361.542 77.3245 361.651 77.1793 361.757 77.0288C361.874 76.8609 361.988 76.6891 362.111 76.5279C362.222 76.3814 362.341 76.2455 362.456 76.1057C362.583 75.9525 362.704 75.794 362.834 75.6475C362.954 75.5129 363.082 75.3877 363.206 75.2585C363.34 75.1187 363.471 74.9748 363.609 74.8416C363.74 74.7164 363.877 74.6018 364.01 74.4833C364.152 74.3581 364.289 74.2289 364.434 74.1103C364.573 73.9971 364.718 73.8946 364.86 73.7867C365.009 73.6748 365.155 73.5576 365.308 73.4523C365.454 73.3511 365.606 73.2619 365.755 73.1673C367.102 72.3148 368.594 71.7061 370.21 71.3624C374.704 70.4047 380.14 71.4597 385.994 74.8403C401.372 83.7194 413.802 105.242 413.753 122.92C413.734 129.512 411.98 134.635 408.991 138.008C407.974 139.153 406.818 140.099 405.537 140.83C405.533 140.833 405.53 140.834 405.526 140.837C405.48 140.864 405.43 140.885 405.384 140.91C405.016 141.114 404.636 141.296 404.249 141.466C404.13 141.518 404.012 141.567 403.89 141.615C403.524 141.761 403.151 141.894 402.77 142.01C402.7 142.032 402.632 142.057 402.561 142.078C402.111 142.208 401.649 142.311 401.179 142.397C401.06 142.418 400.939 142.435 400.819 142.454C400.414 142.518 400.004 142.566 399.585 142.598C399.478 142.606 399.372 142.618 399.263 142.624C398.737 142.654 398.2 142.658 397.654 142.638C397.541 142.634 397.425 142.624 397.312 142.618C397.017 142.602 396.722 142.582 396.422 142.551C396.09 142.517 395.756 142.479 395.418 142.426C395.204 142.393 394.987 142.346 394.773 142.306C394.569 142.267 394.367 142.235 394.16 142.19C394 142.156 393.837 142.112 393.675 142.072C393.416 142.009 393.157 141.949 392.895 141.876C391.905 141.603 390.893 141.254 389.863 140.833C389.714 140.772 389.562 140.704 389.413 140.638C388.876 140.408 388.335 140.158 387.789 139.887C387.717 139.851 387.647 139.818 387.575 139.782C386.991 139.488 386.404 139.177 385.811 138.835C385.072 138.409 384.342 137.944 383.617 137.46C383.584 137.438 383.551 137.416 383.519 137.395C382.648 136.81 381.789 136.186 380.943 135.526C380.898 135.49 380.852 135.456 380.807 135.42C380.084 134.851 379.37 134.259 378.666 133.64C378.644 133.62 378.621 133.599 378.597 133.577C377.955 133.009 377.322 132.417 376.7 131.809C376.598 131.709 376.494 131.611 376.391 131.51C375.916 131.035 375.442 130.551 374.975 130.054Z" fill="white"/>
<path d="M456.208 92.0465L535.955 138.166C537.366 138.974 538.486 140.145 539.257 141.513C539.991 142.817 540.408 144.302 540.408 145.851V226.042C540.408 231.989 533.675 237.048 527.023 233.248L493.667 213.48L492.953 214.634C492.924 214.684 492.877 214.705 492.836 214.74L492.842 214.756C492.816 214.773 492.782 214.793 492.756 214.812C492.748 214.816 492.741 214.822 492.733 214.826C491.434 215.685 489.15 216.911 488.637 217.176L488.649 217.143C488.413 217.209 488.14 217.112 488.046 216.846L485.141 208.61L447.285 187.237C444.524 185.658 442.82 182.722 442.82 179.543V99.25C442.819 92.8577 452.232 89.7648 456.208 92.0465Z" fill="#FF9F95"/>
<path opacity="0.2" d="M492.953 214.636C492.924 214.686 492.877 214.707 492.837 214.742L492.844 214.758C492.817 214.775 492.784 214.795 492.757 214.814C492.749 214.818 492.744 214.824 492.734 214.828C491.436 215.687 489.151 216.913 488.639 217.178L488.651 217.145C488.761 217.113 488.866 217.057 488.937 216.943L491.75 212.387L491.193 212.068L493.668 213.483L492.953 214.636Z" fill="white"/>
<path opacity="0.4" d="M530.443 146.52C529.868 145.381 529.075 144.358 528.071 143.547L528.066 143.542C527.73 143.271 527.372 143.025 526.991 142.806L447.244 96.6872C445.275 95.5577 442.82 96.9789 442.82 99.25C442.82 92.8577 452.232 89.7648 456.21 92.0465L535.957 138.166C537.367 138.974 538.487 140.145 539.259 141.513L530.443 146.52Z" fill="white"/>
<path opacity="0.2" d="M531.441 230.683V150.493C531.441 150.138 531.417 149.789 531.372 149.446C531.235 148.416 530.904 147.433 530.444 146.521L539.257 141.514C539.991 142.818 540.408 144.303 540.408 145.852V226.042C540.408 231.99 533.675 237.049 527.023 233.249C528.992 234.373 531.441 232.95 531.441 230.683Z" fill="white"/>
<path d="M462.354 129.624L508.636 156.345L505.857 188.07C505.691 190.005 504.206 190.696 502.434 189.673L466.971 169.198C466.305 168.813 465.675 168.23 465.146 167.541L465.211 168.439C465.498 172.276 468.131 176.575 471.34 178.427L472.896 179.325C473.427 179.44 473.983 179.654 474.562 179.99C475.148 180.328 475.703 180.756 476.228 181.25L492.892 190.871C493.423 190.985 493.978 191.2 494.559 191.536C495.14 191.87 495.701 192.301 496.224 192.796L499.754 194.834C500.507 195.268 501.122 196.327 501.119 197.199C501.117 198.072 500.497 198.417 499.745 197.982L499.473 197.825C499.866 198.932 500.091 200.058 500.088 201.114C500.079 204.638 497.59 206.057 494.522 204.287C491.461 202.519 488.982 198.233 488.991 194.708C488.994 193.652 489.226 192.79 489.623 192.139L479.477 186.281C479.875 187.392 480.095 188.513 480.092 189.57C480.082 193.094 477.594 194.513 474.526 192.742C471.465 190.975 468.986 186.688 468.996 183.164C468.998 182.037 469.261 181.137 469.708 180.471C465.84 177.428 462.846 172.04 462.482 167.156L459.339 124.547C459.213 122.84 458.038 120.926 456.612 120.103L450.878 116.793C450.118 116.355 449.51 115.3 449.512 114.427C449.515 113.555 450.128 113.206 450.887 113.644L456.62 116.954C459.472 118.601 461.816 122.419 462.072 125.835L462.354 129.624ZM486.577 174.794L486.649 149.383C486.653 148.199 485.821 146.767 484.797 146.176C483.773 145.584 482.936 146.053 482.934 147.237L482.862 172.648C482.858 173.825 483.689 175.264 484.713 175.855C485.737 176.447 486.574 175.971 486.577 174.794ZM494.606 179.429L494.678 154.018C494.682 152.834 493.851 151.402 492.826 150.811C491.802 150.22 490.966 150.688 490.963 151.873L490.891 177.283C490.887 178.461 491.718 179.899 492.742 180.491C493.767 181.083 494.603 180.606 494.606 179.429ZM502.635 184.066L502.707 158.655C502.711 157.471 501.88 156.039 500.856 155.448C499.831 154.856 498.995 155.325 498.992 156.509L498.92 181.92C498.918 183.097 499.747 184.536 500.772 185.127C501.796 185.719 502.633 185.243 502.635 184.066ZM478.547 170.158L478.619 144.748C478.623 143.564 477.792 142.132 476.768 141.54C475.743 140.949 474.907 141.418 474.904 142.602L474.832 168.012C474.828 169.19 475.66 170.628 476.684 171.22C477.708 171.811 478.543 171.334 478.547 170.158ZM470.518 165.522L470.59 140.111C470.594 138.927 469.763 137.495 468.738 136.904C467.714 136.312 466.878 136.781 466.875 137.965L466.803 163.376C466.8 164.553 467.63 165.992 468.655 166.583C469.679 167.176 470.514 166.699 470.518 165.522ZM474.551 183.976C473.403 183.313 472.468 183.846 472.464 185.166C472.46 186.485 473.39 188.094 474.537 188.757C475.69 189.423 476.62 188.888 476.623 187.567C476.628 186.247 475.706 184.642 474.551 183.976ZM494.549 195.521C493.4 194.858 492.465 195.39 492.461 196.71C492.457 198.03 493.387 199.638 494.535 200.301C495.683 200.965 496.619 200.432 496.621 199.112C496.625 197.793 495.697 196.184 494.549 195.521Z" fill="white"/>
<path d="M521.894 157.021C522.409 157.318 522.923 157.842 523.312 158.522C524.1 159.876 524.096 161.343 523.303 161.785L511.54 168.496C511.147 168.72 510.632 168.648 510.118 168.351C509.603 168.054 509.089 167.531 508.692 166.852L502.929 156.861C502.141 155.497 502.145 154.04 502.938 153.588C503.331 153.364 503.846 153.436 504.361 153.735C504.876 154.032 505.392 154.555 505.786 155.233L510.133 162.764L520.463 156.877C520.861 156.652 521.378 156.724 521.894 157.021Z" fill="white"/>
<path d="M513.154 144.71C520.994 149.236 527.328 160.208 527.303 169.208C527.277 178.218 520.901 181.842 513.062 177.316C505.229 172.794 498.895 161.832 498.92 152.822C498.946 143.822 505.322 140.188 513.154 144.71ZM511.541 168.498L523.304 161.788C524.097 161.344 524.101 159.879 523.313 158.524C522.923 157.845 522.41 157.32 521.895 157.023C521.379 156.726 520.863 156.654 520.466 156.881L510.136 162.768L505.788 155.237C505.394 154.559 504.879 154.037 504.363 153.739C503.848 153.442 503.332 153.368 502.94 153.592C502.148 154.044 502.144 155.501 502.931 156.865L508.695 166.856C509.092 167.535 509.606 168.058 510.12 168.355C510.634 168.65 511.148 168.722 511.541 168.498Z" fill="#FF9F95"/>
<path opacity="0.3" d="M513.154 144.71C520.994 149.236 527.328 160.208 527.303 169.208C527.277 178.218 520.901 181.842 513.062 177.316C505.229 172.794 498.895 161.832 498.92 152.822C498.946 143.822 505.322 140.188 513.154 144.71ZM511.541 168.498L523.304 161.788C524.097 161.344 524.101 159.879 523.313 158.524C522.923 157.845 522.41 157.32 521.895 157.023C521.379 156.726 520.863 156.654 520.466 156.881L510.136 162.768L505.788 155.237C505.394 154.559 504.879 154.037 504.363 153.739C503.848 153.442 503.332 153.368 502.94 153.592C502.148 154.044 502.144 155.501 502.931 156.865L508.695 166.856C509.092 167.535 509.606 168.058 510.12 168.355C510.634 168.65 511.148 168.722 511.541 168.498Z" fill="white"/>
<path d="M257.493 106.079L257.503 106.07C256.565 102.777 249.881 96.518 243.229 96.6485C242.989 96.6472 241.793 96.7684 241.361 97.0148L112.151 170.527C109.954 171.776 108.259 173.654 107.184 175.848C106.368 177.512 105.902 179.352 105.902 181.269V460.761C105.902 467.881 114.111 474.675 121.82 471.407C121.84 471.399 121.852 471.379 121.872 471.371C122.038 471.311 122.206 471.263 122.367 471.171L251.583 397.537C255.441 395.339 257.824 391.239 257.824 386.798V107.426C257.822 106.929 257.69 106.483 257.493 106.079Z" fill="#455A64"/>
<path d="M123.927 210.812C123.927 208.59 125.12 206.539 127.05 205.44L247.024 137.184C249.084 136.012 251.642 137.5 251.642 139.87V365.24C251.642 367.455 250.446 369.513 248.519 370.612L128.545 438.978C126.486 440.152 123.926 438.665 123.926 436.293L123.927 210.812Z" fill="#BA68C8"/>
<path opacity="0.2" d="M123.927 210.812C123.927 208.59 125.12 206.539 127.05 205.44L247.024 137.184C249.084 136.012 251.642 137.5 251.642 139.87V365.24C251.642 367.455 250.446 369.513 248.519 370.612L128.545 438.978C126.486 440.152 123.926 438.665 123.926 436.293L123.927 210.812Z" fill="black"/>
<path opacity="0.1" d="M123.927 210.812C123.927 208.59 125.12 206.539 127.05 205.44L247.024 137.184C249.084 136.012 251.642 137.5 251.642 139.87V365.24C251.642 367.455 250.446 369.513 248.519 370.612L128.545 438.978C126.486 440.152 123.926 438.665 123.926 436.293L123.927 210.812Z" fill="white"/>
<path opacity="0.3" d="M105.902 181.271V460.764C105.902 467.883 114.111 474.678 121.82 471.409C121.84 471.401 121.852 471.381 121.872 471.373C119.919 472.08 117.748 470.674 117.748 468.488V188.997C117.748 186.521 118.51 184.165 119.835 182.172L107.185 175.852C106.368 177.515 105.902 179.355 105.902 181.271Z" fill="black"/>
<path opacity="0.1" d="M243.227 96.6485C242.988 96.6472 241.792 96.7684 241.36 97.0148L112.149 170.527C109.953 171.776 108.257 173.654 107.182 175.848L119.832 182.168C120.885 180.585 122.283 179.225 123.993 178.251L253.204 104.738C254.832 103.812 256.75 104.559 257.492 106.076L257.501 106.067C256.565 102.777 249.879 96.5167 243.227 96.6485Z" fill="white"/>
<path d="M203.71 150.896C204.617 150.373 205.37 150.778 205.372 151.821C205.375 152.864 204.628 154.158 203.721 154.682L178.37 169.318C177.463 169.841 176.73 169.402 176.728 168.359C176.725 167.316 177.452 166.056 178.359 165.532L203.71 150.896Z" fill="#263238"/>
<path d="M171.848 169.292C172.755 168.769 173.488 169.186 173.491 170.229C173.493 171.272 172.766 172.554 171.859 173.078C170.952 173.601 170.199 173.174 170.197 172.131C170.194 171.088 170.941 169.817 171.848 169.292Z" fill="#263238"/>
<path d="M188.075 148.766C189.888 147.719 191.351 148.553 191.357 150.636C191.362 152.72 189.909 155.282 188.096 156.329C186.283 157.376 184.781 156.52 184.775 154.437C184.77 152.353 186.262 149.813 188.075 148.766Z" fill="#263238"/>
<path d="M188.084 411.884C191.777 409.753 194.756 411.45 194.768 415.693C194.78 419.936 191.821 425.157 188.127 427.288C184.435 429.42 181.374 427.675 181.362 423.433C181.351 419.191 184.392 414.017 188.084 411.884Z" fill="#263238"/>
<path d="M251.247 133.652L294.877 169.871L278.974 179.056L235.348 142.84L251.247 133.652Z" fill="#BA68C8"/>
<path d="M219.45 152.029L263.072 188.244L247.169 197.429L203.552 161.217L219.45 152.029Z" fill="#BA68C8"/>
<path d="M203.552 161.217L247.169 197.429L231.265 206.615L187.654 170.406L203.552 161.217Z" fill="white"/>
<path d="M235.348 142.842L278.974 179.058L263.071 188.244L219.45 152.03L235.348 142.842Z" fill="white"/>
<path d="M155.857 188.785L199.459 224.989L183.555 234.174L139.958 197.973L155.857 188.785Z" fill="#BA68C8"/>
<path d="M187.654 170.406L231.265 206.615L215.362 215.801L171.755 179.594L187.654 170.406Z" fill="#BA68C8"/>
<path d="M123.75 207.339L139.959 197.971L183.555 234.172L167.307 243.557L123.75 207.339Z" fill="white"/>
<path d="M171.755 179.594L215.362 215.8L199.459 224.987L155.857 188.783L171.755 179.594Z" fill="white"/>
<path d="M294.877 169.873L278.974 179.059C278.974 183.779 284.085 186.73 288.173 184.368C292.322 181.972 294.877 177.544 294.877 172.753V169.873Z" fill="#BA68C8"/>
<path d="M278.974 179.059L263.071 188.244C263.071 192.965 268.182 195.915 272.27 193.553C276.419 191.157 278.974 186.73 278.974 181.938V179.059Z" fill="#E0E0E0"/>
<path d="M263.071 188.244L247.169 197.43C247.169 202.15 252.279 205.101 256.367 202.739C260.517 200.343 263.071 195.915 263.071 191.124V188.244Z" fill="#BA68C8"/>
<path d="M247.167 197.43L231.265 206.615C231.265 211.336 236.376 214.286 240.463 211.925C244.613 209.528 247.167 205.101 247.167 200.309V197.43Z" fill="#E0E0E0"/>
<path d="M231.265 206.613L215.362 215.799C215.362 220.519 220.473 223.47 224.561 221.108C228.71 218.712 231.265 214.284 231.265 209.493V206.613Z" fill="#BA68C8"/>
<path d="M215.362 215.803L199.459 224.988C199.459 229.709 204.57 232.659 208.658 230.298C212.807 227.901 215.362 223.474 215.362 218.683V215.803Z" fill="#E0E0E0"/>
<path d="M199.459 224.986L183.556 234.172C183.556 238.892 188.667 241.843 192.755 239.481C196.903 237.085 199.459 232.657 199.459 227.866V224.986Z" fill="#BA68C8"/>
<path opacity="0.2" d="M294.877 169.873L278.974 179.059C278.974 183.779 284.085 186.73 288.173 184.368C292.322 181.972 294.877 177.544 294.877 172.753V169.873Z" fill="black"/>
<path opacity="0.2" d="M263.071 188.244L247.169 197.43C247.169 202.15 252.279 205.101 256.367 202.739C260.517 200.343 263.071 195.915 263.071 191.124V188.244Z" fill="black"/>
<path opacity="0.2" d="M231.265 206.613L215.362 215.799C215.362 220.519 220.473 223.47 224.561 221.108C228.71 218.712 231.265 214.284 231.265 209.493V206.613Z" fill="black"/>
<path opacity="0.2" d="M199.459 224.986L183.556 234.172C183.556 238.892 188.667 241.843 192.755 239.481C196.903 237.085 199.459 232.657 199.459 227.866V224.986Z" fill="black"/>
<path d="M183.555 234.176L167.306 243.561C167.306 248.282 172.417 251.232 176.505 248.87C180.867 246.35 183.554 241.695 183.554 236.657V234.176H183.555Z" fill="#E0E0E0"/>
<path d="M202.091 281.064C197.967 281.516 193.22 282.835 188.585 285.232C183.949 287.61 179.444 291.06 175.779 295.281C172.113 299.502 169.329 304.445 167.624 309.369C165.901 314.295 165.26 319.18 165.39 323.326C166.353 319.285 167.777 314.783 169.91 310.303C172.03 305.822 174.85 301.376 178.264 297.44C181.683 293.507 185.691 290.093 189.83 287.365C193.966 284.625 198.226 282.584 202.091 281.064Z" fill="#BA68C8"/>
<path d="M189.647 350.795C187.307 350.75 184.67 350.381 182.048 349.473C179.43 348.575 176.838 347.144 174.657 345.235C172.481 343.323 170.725 340.94 169.493 338.46C168.25 335.979 167.542 333.413 167.19 331.098C166.92 333.419 167.178 336.229 168.214 339.01C169.235 341.788 171.03 344.522 173.433 346.63C175.836 348.737 178.781 350.161 181.669 350.811C184.562 351.477 187.38 351.367 189.647 350.795Z" fill="#BA68C8"/>
<path d="M210.298 307.949C210.52 311.163 210.555 314.821 210.139 318.655C209.733 322.485 208.883 326.485 207.584 330.339C206.272 334.188 204.517 337.881 202.511 341.171C200.511 344.467 198.26 347.35 196.13 349.767C198.814 347.997 201.64 345.454 204.089 342.254C206.545 339.063 208.615 335.231 210 331.158C211.376 327.082 212.061 322.781 212.05 318.754C212.05 314.722 211.352 310.986 210.298 307.949Z" fill="#BA68C8"/>
<path d="M168.534 293.25C165.698 295.933 162.886 299.616 160.767 304.043C158.636 308.457 157.208 313.599 156.842 318.846C156.476 324.092 157.176 329.382 158.673 334.049C160.157 338.728 162.43 342.767 164.866 345.816C163.314 342.229 161.845 338.036 160.92 333.46C159.985 328.892 159.592 323.953 159.931 319.062C160.276 314.169 161.349 309.334 162.91 304.938C164.464 300.535 166.499 296.587 168.534 293.25Z" fill="#BA68C8"/>
<path d="M219.418 294.819C219.173 291.675 217.975 288.015 215.643 284.733C213.337 281.45 209.907 278.562 205.873 276.923C201.837 275.288 197.364 274.971 193.422 275.722C189.462 276.453 186.054 278.246 183.688 280.331C186.524 278.94 189.956 277.862 193.671 277.583C197.374 277.29 201.337 277.792 204.931 279.244C208.521 280.705 211.713 283.105 214.167 285.894C216.638 288.682 218.351 291.846 219.418 294.819Z" fill="#BA68C8"/>
<path d="M276.545 253.117C285.3 252.226 293.263 258.233 294.809 266.896L300.998 301.552L339.759 328.653L331.097 339.188L294.22 319.823C289.835 317.52 286.568 313.543 285.16 308.794L273.28 268.717L276.545 253.117Z" fill="#FFA8A7"/>
<path d="M290.932 290.29C294.348 288.508 297.111 285.55 298.76 282.072L295.279 266.192C293.449 257.841 285.648 252.192 277.143 253.058L276.545 253.119L273.279 268.718L278.434 291.731C282.596 292.75 287.127 292.275 290.932 290.29Z" fill="#455A64"/>
<path d="M290.932 290.291C287.128 292.276 282.596 292.752 278.435 291.733L279.704 297.402C284.522 298.472 296.835 298.115 300.048 287.944L298.761 282.074C297.11 285.552 294.348 288.509 290.932 290.291Z" fill="#455A64"/>
<path opacity="0.2" d="M290.932 290.29C294.348 288.508 297.111 285.55 298.76 282.072L295.279 266.192C293.449 257.841 285.648 252.192 277.143 253.058L276.545 253.119L273.279 268.718L278.434 291.731C282.596 292.75 287.127 292.275 290.932 290.29Z" fill="white"/>
<path opacity="0.5" d="M290.932 290.291C287.128 292.276 282.596 292.752 278.435 291.733L279.704 297.402C284.522 298.472 296.835 298.115 300.048 287.944L298.761 282.074C297.11 285.552 294.348 288.509 290.932 290.291Z" fill="white"/>
<path d="M285.126 267.98C285.126 267.98 283.587 256.197 276.545 253.119C276.545 253.119 259.72 258.162 245.75 263.462C238.941 266.045 234.735 267.778 229.562 270.349C226.387 273.099 217.295 281.262 213.016 283.466C210.938 284.536 208.681 285.147 206.364 285.46C206.354 285.461 206.344 285.463 206.334 285.464C203.763 285.817 200.975 286.804 198.061 288.486C185.243 295.887 174.895 313.818 174.936 328.54C174.962 338.19 179.465 344.035 186.163 344.854C186.162 344.866 186.162 344.878 186.162 344.89C186.248 344.889 186.35 344.889 186.438 344.887C187.454 344.99 188.513 344.986 189.62 344.854C201.273 344.749 219.964 344.659 227.313 342.556C261.626 332.522 288.587 307.742 285.126 267.98Z" fill="#455A64"/>
<path d="M252.448 263.144L257.481 254.033L277.676 267.65C275.013 271.229 272.349 274.808 269.686 278.388C266.217 279.874 262.28 280.384 258.844 278.823C255.407 277.262 252.681 274.206 251.519 270.615C250.712 268.119 251.22 265.599 252.448 263.144Z" fill="#FFA8A7"/>
<path opacity="0.2" d="M259.373 255.309C259.373 266.274 268.097 271.426 273.425 273.365L277.677 267.651L259.373 255.309Z" fill="black"/>
<path d="M250.243 244.356C249.492 239.971 248.742 235.47 249.595 231.102C250.447 226.736 253.263 222.466 257.525 221.191C259.058 217.505 262.751 214.522 266.548 213.291C270.346 212.059 274.402 211.947 278.392 211.856C282.805 211.755 287.264 211.673 291.581 212.593C295.896 213.513 300.12 215.542 302.872 218.993C306.043 222.971 306.908 228.43 306.147 233.46C305.388 238.491 303.161 243.178 300.675 247.618C292.199 248.224 283.567 249.188 275.09 249.793C270.765 250.102 266.411 250.411 262.105 249.905C257.801 249.399 253.611 247.086 250.243 244.356Z" fill="#263238"/>
<path d="M302.11 224.045C304.291 236.999 302.836 250.545 297.954 262.742C296.819 265.578 295.35 268.514 292.698 270.027C289.917 271.615 286.478 271.283 283.312 270.806C278.213 270.037 273.076 268.989 268.489 266.636C263.902 264.283 259.868 260.468 258.229 255.58C254.855 256.387 251.33 254.829 249.244 252.057C247.158 249.285 246.408 245.711 246.333 242.243C246.285 240.022 246.74 237.401 248.735 236.423C250.591 235.513 252.818 236.534 254.423 237.835C257.05 239.962 259.009 242.903 259.96 246.147C261.428 240.737 263.711 235.519 265.179 230.109C265.756 227.984 266.468 225.663 268.325 224.476C270.596 223.023 273.555 223.857 276.172 224.506C284.155 226.48 294.259 226.489 302.11 224.045Z" fill="#FFA8A7"/>
<path d="M286.342 240.463L292.668 251.111L285.126 252.527L286.342 240.463Z" fill="#F28F8F"/>
<path d="M277.856 256.197C279.766 257.126 281.676 258.054 283.587 258.984C282.753 260.285 280.653 260.853 279.242 260.22C277.832 259.586 277.437 257.685 277.856 256.197Z" fill="#F28F8F"/>
<path opacity="0.3" d="M277.856 256.197C279.766 257.126 281.676 258.054 283.587 258.984C282.753 260.285 280.653 260.853 279.242 260.22C277.832 259.586 277.437 257.685 277.856 256.197Z" fill="black"/>
<path d="M281.232 260.408C280.544 260.529 279.834 260.485 279.242 260.22C278.135 259.723 277.663 258.446 277.709 257.199C278.523 257.203 279.338 257.468 279.968 257.985C280.694 258.579 281.139 259.476 281.232 260.408Z" fill="#F28F8F"/>
<path d="M275.419 240.889C275.299 242.079 276.167 243.141 277.357 243.261C278.548 243.381 279.61 242.514 279.73 241.323C279.85 240.132 278.982 239.07 277.792 238.951C276.602 238.831 275.539 239.698 275.419 240.889Z" fill="#263238"/>
<path d="M293.584 242.014C293.464 243.204 294.331 244.266 295.522 244.386C296.713 244.506 297.775 243.639 297.894 242.448C298.014 241.257 297.147 240.195 295.956 240.076C294.767 239.956 293.704 240.823 293.584 242.014Z" fill="#263238"/>
<path d="M296.545 233.647C298.026 234.908 299.507 236.17 300.99 237.432C301.576 236.347 301.27 234.83 300.397 233.957C299.525 233.084 297.632 233.062 296.545 233.647Z" fill="#263238"/>
<path d="M278.833 233.351C277.13 234.292 275.426 235.232 273.724 236.174C273.366 234.992 273.969 233.567 274.997 232.886C276.026 232.204 277.885 232.561 278.833 233.351Z" fill="#263238"/>
<path d="M306.158 228.429C288.104 231.405 268.236 231.419 250.177 228.47C251.046 205.802 261.235 198.396 278.816 198.396C296.397 198.396 306.292 207.731 306.158 228.429Z" fill="#455A64"/>
<path d="M306.158 228.428C306.214 219.747 304.485 213.091 301.186 208.259L293.833 206.198C290.384 205.232 286.765 205.038 283.234 205.631L276.215 206.808C271.308 207.631 267.533 211.597 266.955 216.54L265.354 230.203C278.988 231.166 293.048 230.588 306.158 228.428Z" fill="#455A64"/>
<path opacity="0.29" d="M306.158 228.428C306.214 219.747 304.485 213.091 301.186 208.259L293.833 206.198C290.384 205.232 286.765 205.038 283.234 205.631L276.215 206.808C271.308 207.631 267.533 211.597 266.955 216.54L265.354 230.203C278.988 231.166 293.048 230.588 306.158 228.428Z" fill="white"/>
<path d="M308.364 209.359H305.112C304.063 209.359 303.018 209.409 301.978 209.485C292.477 210.177 283.437 213.987 276.301 220.386L265.354 230.204C278.988 231.167 293.048 230.589 306.158 228.428L313.284 219.833C316.739 215.665 313.776 209.359 308.364 209.359Z" fill="#455A64"/>
<path opacity="0.2" d="M308.364 209.359H305.112C304.063 209.359 303.018 209.409 301.978 209.485C292.477 210.177 283.437 213.987 276.301 220.386L265.354 230.204C278.988 231.167 293.048 230.589 306.158 228.428L313.284 219.833C316.739 215.665 313.776 209.359 308.364 209.359Z" fill="black"/>
<path d="M364.658 330.407L315.002 359.264L265.023 330.407L314.677 301.551L364.658 330.407Z" fill="#339999"/>
<g opacity="0.3">
<path d="M364.658 330.407L315.002 359.264L265.023 330.407L314.677 301.551L364.658 330.407Z" fill="white"/>
</g>
<path d="M364.658 330.408L364.514 380.923L314.86 409.779L315.002 359.265L364.658 330.408Z" fill="#339999"/>
<g opacity="0.1">
<path d="M364.658 330.408L364.514 380.923L314.86 409.779L315.002 359.265L364.658 330.408Z" fill="white"/>
</g>
<path d="M315.002 359.265L314.86 409.779L264.879 380.923L265.023 330.408L315.002 359.265Z" fill="#339999"/>
<path d="M323.655 326.71L340.459 316.438L331.881 311.484L315.002 321.55L323.655 326.71Z" fill="#FF9F95"/>
<path d="M323.655 326.711L315.002 321.551L297.858 311.326L289.311 316.295L306.35 326.711L315.002 332.001L337.866 345.978L347.032 340.651L323.655 326.711Z" fill="white"/>
<path d="M306.35 326.713L282.871 340.715L292.067 346.026L315.002 332.004L306.35 326.713Z" fill="#FF9F95"/>
<path d="M347.031 340.65L337.866 345.977L337.938 346.022L338.08 396.283L347.347 390.897L347.206 340.754L347.031 340.65Z" fill="#FF9F95"/>
<path d="M292.067 346.024L282.87 340.713L282.799 340.756L282.656 391.186L291.924 396.537L292.067 346.024Z" fill="white"/>
<path opacity="0.2" d="M292.067 346.024L282.87 340.713L282.799 340.756L282.656 391.186L291.924 396.537L292.067 346.024Z" fill="#FFF1EF"/>
<path d="M314.982 341.977L304.586 348.333L314.982 354.336L325.347 348.313L314.982 341.977Z" fill="white"/>
<path d="M216.681 340.232C216.681 340.232 220.552 283.815 221.359 280.332C224.47 266.916 243.92 267.874 245.769 281.52C246.523 287.085 237.639 341.152 237.639 341.152L269.822 375.198L276.342 381.18L282.142 380.001L295.386 381.254C296.095 381.32 296.678 381.842 296.823 382.539C297.002 383.395 296.469 384.24 295.618 384.448L286.877 386.583L293.186 390.899C294.071 391.505 295.072 391.92 296.127 392.119L306.029 393.989C306.933 394.159 307.569 394.977 307.511 395.895C307.466 396.614 307.004 397.239 306.328 397.491L301.014 399.477C294.049 402.078 286.295 401.527 279.77 397.964L268.233 391.664C266.562 390.752 264.983 389.682 263.517 388.468L222.419 354.442C218.222 350.983 216.063 345.635 216.681 340.232Z" fill="#FFA8A7"/>
<path d="M245.246 318.609L249.36 288.009C250.558 279.101 244.192 270.953 235.26 269.959C226.46 268.98 218.535 275.327 217.569 284.129L214.138 315.391C218.616 317.948 223.597 319.629 228.718 320.243C234.259 320.909 239.936 320.326 245.246 318.609Z" fill="#455A64"/>
<path opacity="0.2" d="M245.246 318.609L249.36 288.009C250.558 279.101 244.192 270.953 235.26 269.959C226.46 268.98 218.535 275.327 217.569 284.129L214.138 315.391C218.616 317.948 223.597 319.629 228.718 320.243C234.259 320.909 239.936 320.326 245.246 318.609Z" fill="white"/>
<path d="M228.718 320.245C223.598 319.63 218.616 317.95 214.138 315.393L213.347 322.599C227.182 333.229 244.16 326.676 244.16 326.676L245.244 318.611C239.936 320.328 234.259 320.911 228.718 320.245Z" fill="#455A64"/>
<path opacity="0.5" d="M228.718 320.245C223.598 319.63 218.616 317.95 214.138 315.393L213.347 322.599C227.182 333.229 244.16 326.676 244.16 326.676L245.244 318.611C239.936 320.328 234.259 320.911 228.718 320.245Z" fill="white"/>
<path d="M588.665 423.273L610.266 423.903L631.867 423.273C632.799 437.862 629.949 452.728 626.023 459.989L626.007 459.986C625.303 461.579 623.89 463.091 621.731 464.338C615.357 468.018 605.057 468.018 598.725 464.338C596.53 463.062 595.118 461.508 594.452 459.874C590.557 452.573 587.74 437.79 588.665 423.273Z" fill="white"/>
<path d="M595.043 414.426C586.58 419.313 586.534 427.235 594.943 432.12C603.352 437.007 617.029 437.007 625.493 432.12C633.955 427.235 634 419.312 625.591 414.426C617.182 409.54 603.507 409.54 595.043 414.426Z" fill="#EBEBEB"/>
<path d="M598.39 416.371C591.788 420.183 591.753 426.363 598.312 430.176C604.872 433.988 615.541 433.988 622.145 430.176C628.748 426.363 628.783 420.183 622.222 416.371C615.662 412.559 604.992 412.559 598.39 416.371Z" fill="#E0E0E0"/>
<g opacity="0.15">
<path d="M598.39 416.371C591.788 420.183 591.753 426.363 598.312 430.176C604.872 433.988 615.541 433.988 622.145 430.176C628.748 426.363 628.783 420.183 622.222 416.371C615.662 412.559 604.992 412.559 598.39 416.371Z" fill="black"/>
</g>
<path d="M621.285 379.069C624.797 374.701 628.878 370.789 632.099 366.201C634.297 363.073 636.134 359.242 635.211 355.531C634.353 352.088 631.136 349.527 627.648 348.875C624.16 348.222 620.508 349.265 617.496 351.139C614.483 353.013 612.035 355.667 609.824 358.443C597.738 373.61 591.85 393.575 593.772 412.875C593.992 415.087 594.364 417.414 595.777 419.13C597.293 420.971 599.949 421.782 602.234 421.104C608.119 419.358 607.339 411.408 608.3 406.732C609.619 400.323 611.907 394.115 615.059 388.381C616.858 385.103 618.942 381.982 621.285 379.069Z" fill="#BA68C8"/>
<path opacity="0.2" d="M621.285 379.069C624.797 374.701 628.878 370.789 632.099 366.201C634.297 363.073 636.134 359.242 635.211 355.531C634.353 352.088 631.136 349.527 627.648 348.875C624.16 348.222 620.508 349.265 617.496 351.139C614.483 353.013 612.035 355.667 609.824 358.443C597.738 373.61 591.85 393.575 593.772 412.875C593.992 415.087 594.364 417.414 595.777 419.13C597.293 420.971 599.949 421.782 602.234 421.104C608.119 419.358 607.339 411.408 608.3 406.732C609.619 400.323 611.907 394.115 615.059 388.381C616.858 385.103 618.942 381.982 621.285 379.069Z" fill="white"/>
<path d="M601.868 415.176C602.096 415.131 602.272 414.935 602.284 414.694C602.695 405.248 605.765 373.005 627.986 354.713C628.206 354.533 628.236 354.207 628.056 353.988C627.875 353.769 627.552 353.738 627.332 353.918C604.784 372.482 601.672 405.096 601.255 414.649C601.243 414.933 601.464 415.174 601.748 415.186C601.788 415.187 601.828 415.184 601.868 415.176Z" fill="#F0F0F0"/>
<path d="M598.621 416.198C599.293 419.905 602.478 424.495 605.836 426.203C609.165 427.897 613.029 428.35 616.755 428.03C620.547 427.704 624.23 426.617 627.837 425.402C629.618 424.803 631.598 423.993 631.789 421.786C631.889 420.622 631.367 419.494 630.529 418.678C630.177 418.336 629.791 418.003 629.379 417.689C628.54 417.048 628.934 415.716 629.987 415.643C631.047 415.569 632.101 415.451 633.145 415.252C635.557 414.792 637.931 413.873 639.777 412.253C641.162 411.037 642.212 409.45 642.839 407.716C643.376 406.232 643.525 404.37 642.402 403.262C641.757 402.626 640.83 402.385 639.946 402.194C639.156 402.023 638.365 401.878 637.57 401.754C636.515 401.589 636.339 400.15 637.325 399.739L640.676 398.343C641.607 397.955 642.575 397.54 643.219 396.763C644.244 395.526 644.171 393.725 643.863 392.146C643.454 390.048 642.73 388.025 642.236 385.946C641.742 383.867 641.483 381.671 642.015 379.602C635.757 378.967 629.329 379.266 623.243 380.855C621.425 381.329 619.586 381.925 618.12 383.098C616.03 384.77 615.486 387.279 615.708 389.998C615.749 390.513 615.042 390.709 614.795 390.253L612.653 386.304C612.009 385.115 610.549 384.666 609.323 385.24C607.476 386.107 605.827 387.496 604.427 389.091C602.918 390.81 602.146 393.077 602.332 395.358C602.582 398.443 603.12 401.566 603.893 404.559C604.095 405.344 603.217 405.934 602.561 405.46L602.458 405.386C601.873 404.963 601.155 404.71 600.439 404.799C598.546 405.033 598.063 406.951 597.936 408.585C597.756 410.951 598.174 413.737 598.621 416.198Z" fill="#BA68C8"/>
<path opacity="0.2" d="M598.621 416.198C599.293 419.905 602.478 424.495 605.836 426.203C609.165 427.897 613.029 428.35 616.755 428.03C620.547 427.704 624.23 426.617 627.837 425.402C629.618 424.803 631.598 423.993 631.789 421.786C631.889 420.622 631.367 419.494 630.529 418.678C630.177 418.336 629.791 418.003 629.379 417.689C628.54 417.048 628.934 415.716 629.987 415.643C631.047 415.569 632.101 415.451 633.145 415.252C635.557 414.792 637.931 413.873 639.777 412.253C641.162 411.037 642.212 409.45 642.839 407.716C643.376 406.232 643.525 404.37 642.402 403.262C641.757 402.626 640.83 402.385 639.946 402.194C639.156 402.023 638.365 401.878 637.57 401.754C636.515 401.589 636.339 400.15 637.325 399.739L640.676 398.343C641.607 397.955 642.575 397.54 643.219 396.763C644.244 395.526 644.171 393.725 643.863 392.146C643.454 390.048 642.73 388.025 642.236 385.946C641.742 383.867 641.483 381.671 642.015 379.602C635.757 378.967 629.329 379.266 623.243 380.855C621.425 381.329 619.586 381.925 618.12 383.098C616.03 384.77 615.486 387.279 615.708 389.998C615.749 390.513 615.042 390.709 614.795 390.253L612.653 386.304C612.009 385.115 610.549 384.666 609.323 385.24C607.476 386.107 605.827 387.496 604.427 389.091C602.918 390.81 602.146 393.077 602.332 395.358C602.582 398.443 603.12 401.566 603.893 404.559C604.095 405.344 603.217 405.934 602.561 405.46L602.458 405.386C601.873 404.963 601.155 404.71 600.439 404.799C598.546 405.033 598.063 406.951 597.936 408.585C597.756 410.951 598.174 413.737 598.621 416.198Z" fill="black"/>
<path opacity="0.2" d="M598.621 416.198C599.293 419.905 602.478 424.495 605.836 426.203C609.165 427.897 613.029 428.35 616.755 428.03C620.547 427.704 624.23 426.617 627.837 425.402C629.618 424.803 631.598 423.993 631.789 421.786C631.889 420.622 631.367 419.494 630.529 418.678C630.177 418.336 629.791 418.003 629.379 417.689C628.54 417.048 628.934 415.716 629.987 415.643C631.047 415.569 632.101 415.451 633.145 415.252C635.557 414.792 637.931 413.873 639.777 412.253C641.162 411.037 642.212 409.45 642.839 407.716C643.376 406.232 643.525 404.37 642.402 403.262C641.757 402.626 640.83 402.385 639.946 402.194C639.156 402.023 638.365 401.878 637.57 401.754C636.515 401.589 636.339 400.15 637.325 399.739L640.676 398.343C641.607 397.955 642.575 397.54 643.219 396.763C644.244 395.526 644.171 393.725 643.863 392.146C643.454 390.048 642.73 388.025 642.236 385.946C641.742 383.867 641.483 381.671 642.015 379.602C635.757 378.967 629.329 379.266 623.243 380.855C621.425 381.329 619.586 381.925 618.12 383.098C616.03 384.77 615.486 387.279 615.708 389.998C615.749 390.513 615.042 390.709 614.795 390.253L612.653 386.304C612.009 385.115 610.549 384.666 609.323 385.24C607.476 386.107 605.827 387.496 604.427 389.091C602.918 390.81 602.146 393.077 602.332 395.358C602.582 398.443 603.12 401.566 603.893 404.559C604.095 405.344 603.217 405.934 602.561 405.46L602.458 405.386C601.873 404.963 601.155 404.71 600.439 404.799C598.546 405.033 598.063 406.951 597.936 408.585C597.756 410.951 598.174 413.737 598.621 416.198Z" fill="white"/>
<path d="M608.575 425.686C608.601 425.554 609.897 419.273 613.623 411.054C613.623 410.906 613.686 410.769 613.8 410.669C613.917 410.415 614.032 410.162 614.153 409.905C613.083 400.076 609.191 393.22 609.153 393.152C609.01 392.906 609.095 392.591 609.342 392.449C609.588 392.31 609.903 392.392 610.045 392.638C610.084 392.703 613.664 399.01 614.975 408.211C619.249 399.64 626.066 389.616 636.591 382.291C636.825 382.13 637.145 382.186 637.307 382.419C637.47 382.652 637.411 382.973 637.179 383.136C626.324 390.691 619.473 401.163 615.311 409.854C623.793 405.725 632.804 407.357 633.205 407.433C633.483 407.485 633.667 407.755 633.614 408.035C633.574 408.248 633.407 408.404 633.207 408.444C633.145 408.456 633.078 408.457 633.012 408.445C632.913 408.426 623.088 406.64 614.594 411.39C610.896 419.526 609.61 425.754 609.584 425.885C609.542 426.097 609.377 426.251 609.178 426.291C609.114 426.303 609.046 426.304 608.98 426.291C608.701 426.235 608.52 425.965 608.575 425.686Z" fill="#F0F0F0"/>
<path d="M116.321 467.412L91.7387 468.129L67.158 467.412C66.099 484.013 69.3398 500.929 73.8087 509.193L73.826 509.19C74.6265 511.003 76.2342 512.723 78.6918 514.141C85.9445 518.329 97.6661 518.329 104.872 514.141C107.371 512.689 108.977 510.922 109.735 509.061C114.168 500.755 117.374 483.93 116.321 467.412Z" fill="white"/>
<path d="M109.063 457.345C118.694 462.904 118.745 471.919 109.177 477.48C99.6082 483.042 84.0451 483.042 74.4134 477.48C64.783 471.921 64.7324 462.906 74.3015 457.345C83.8693 451.784 99.4323 451.784 109.063 457.345Z" fill="#EBEBEB"/>
<path d="M105.255 459.558C112.768 463.897 112.808 470.93 105.344 475.268C97.878 479.606 85.7368 479.606 78.223 475.268C70.7092 470.93 70.6692 463.897 78.1351 459.558C85.5996 455.22 97.7421 455.22 105.255 459.558Z" fill="#E0E0E0"/>
<g opacity="0.15">
<path d="M105.255 459.558C112.768 463.897 112.808 470.93 105.344 475.268C97.878 479.606 85.7368 479.606 78.223 475.268C70.7092 470.93 70.6692 463.897 78.1351 459.558C85.5996 455.22 97.7421 455.22 105.255 459.558Z" fill="black"/>
</g>
<path d="M132.154 362.518C76.7592 380.655 76.2571 417.716 88.7459 444.105C91.8947 449.448 101.427 452.316 109.724 419.494L95.1728 421.36L112.129 412.766L116.533 399.6L102.395 400.65L120.34 393.103C126.953 373.104 132.154 362.518 132.154 362.518Z" fill="#BA68C8"/>
<path opacity="0.2" d="M132.154 362.518C76.7592 380.655 76.2571 417.716 88.7459 444.105C91.8947 449.448 101.427 452.316 109.724 419.494L95.1728 421.36L112.129 412.766L116.533 399.6L102.395 400.65L120.34 393.103C126.953 373.104 132.154 362.518 132.154 362.518Z" fill="black"/>
<path opacity="0.2" d="M132.154 362.518C76.7592 380.655 76.2571 417.716 88.7459 444.105C91.8947 449.448 101.427 452.316 109.724 419.494L95.1728 421.36L112.129 412.766L116.533 399.6L102.395 400.65L120.34 393.103C126.953 373.104 132.154 362.518 132.154 362.518Z" fill="white"/>
<path d="M116.486 371.785C87.2739 393.958 84.6365 419.376 92.8882 445.914C89.9698 422.546 86.8143 398.919 116.486 371.785Z" fill="white"/>
<path d="M38.3283 400.166C92.9323 407.854 99.5577 442.285 92.3116 468.937C90.2657 474.436 81.8661 478.691 68.6859 449.502L82.5467 448.821L65.3279 443.635L59.0382 432.106L72.3796 430.734L54.4122 426.686C44.9324 409.16 38.3283 400.166 38.3283 400.166Z" fill="#BA68C8"/>
<path opacity="0.2" d="M38.3283 400.166C92.9323 407.854 99.5577 442.285 92.3116 468.937C90.2657 474.436 81.8661 478.691 68.6859 449.502L82.5467 448.821L65.3279 443.635L59.0382 432.106L72.3796 430.734L54.4122 426.686C44.9324 409.16 38.3283 400.166 38.3283 400.166Z" fill="white"/>
<path opacity="0.1" d="M38.3283 400.166C92.9323 407.854 99.5577 442.285 92.3116 468.937C90.2657 474.436 81.8661 478.691 68.6859 449.502L82.5467 448.821L65.3279 443.635L59.0382 432.106L72.3796 430.734L54.4122 426.686C44.9324 409.16 38.3283 400.166 38.3283 400.166Z" fill="black"/>
<path d="M54.4603 406.193C85.3493 421.988 92.0293 445.224 88.7526 471.31C87.5898 449.062 86.6014 426.534 54.4603 406.193Z" fill="white"/>
<path d="M148.136 413.066C98.0592 413.886 88.2357 444.177 91.7828 469.01C93.0109 474.196 100.107 478.971 115.251 454.137L102.834 451.973L118.936 449.225L125.894 439.537L114.023 436.808L130.669 435.171C141.177 420.435 148.136 413.066 148.136 413.066Z" fill="#BA68C8"/>
<path d="M132.922 416.693C103.313 427.472 94.692 447.666 94.7253 471.545C98.2644 451.624 101.676 431.431 132.922 416.693Z" fill="white"/>
<path opacity="0.2" d="M148.136 413.066C98.0592 413.886 88.2357 444.177 91.7828 469.01C93.0109 474.196 100.107 478.971 115.251 454.137L102.834 451.973L118.936 449.225L125.894 439.537L114.023 436.808L130.669 435.171C141.177 420.435 148.136 413.066 148.136 413.066Z" fill="white"/>
<path d="M436.95 363.027C423.802 372.157 408.996 378.472 398.016 390.713C377.509 413.576 377.03 450.36 393.137 476.509C409.243 502.658 439.198 518.369 469.699 521.964C501.7 525.737 535.28 516.895 560.387 496.696C585.492 476.498 601.466 444.94 601.454 412.718C601.442 380.495 584.937 348.41 557.947 330.808C533.323 314.749 497.941 310.168 473.237 328.543C460.745 337.834 452.419 351.544 439.959 360.862C438.968 361.604 437.964 362.323 436.95 363.027Z" fill="#BA68C8"/>
<path opacity="0.2" d="M436.95 363.027C423.802 372.157 408.996 378.472 398.016 390.713C377.509 413.576 377.03 450.36 393.137 476.509C409.243 502.658 439.198 518.369 469.699 521.964C501.7 525.737 535.28 516.895 560.387 496.696C585.492 476.498 601.466 444.94 601.454 412.718C601.442 380.495 584.937 348.41 557.947 330.808C533.323 314.749 497.941 310.168 473.237 328.543C460.745 337.834 452.419 351.544 439.959 360.862C438.968 361.604 437.964 362.323 436.95 363.027Z" fill="black"/>
<path opacity="0.1" d="M436.95 363.027C423.802 372.157 408.996 378.472 398.016 390.713C377.509 413.576 377.03 450.36 393.137 476.509C409.243 502.658 439.198 518.369 469.699 521.964C501.7 525.737 535.28 516.895 560.387 496.696C585.492 476.498 601.466 444.94 601.454 412.718C601.442 380.495 584.937 348.41 557.947 330.808C533.323 314.749 497.941 310.168 473.237 328.543C460.745 337.834 452.419 351.544 439.959 360.862C438.968 361.604 437.964 362.323 436.95 363.027Z" fill="white"/>
<path opacity="0.1" d="M442.305 496.981C442.334 496.762 442.365 496.545 442.397 496.327C444.488 481.679 455.908 470.285 470.438 467.496C483.096 465.066 495.328 460.408 506.358 453.739C514.208 448.991 521.624 443.173 530.429 440.601C538.554 438.226 548.672 438.594 556.372 442.108C548.972 434.338 536.287 430.917 526.147 434.431C533.165 423.69 539.339 412.119 541.758 399.518C544.177 386.918 542.458 373.09 534.859 362.751C528.407 353.972 517.905 348.3 507.026 347.718C496.146 347.136 485.1 351.657 477.748 359.697C470.224 367.928 465.981 379.512 461.04 389.51C457.49 396.69 453.819 404.039 447.969 409.511C439.139 417.769 426.444 420.746 417.292 428.645C406.913 437.601 402.437 451.923 402.39 465.632C402.358 474.883 404.101 483.988 406.406 492.979C416.917 503.205 429.92 510.921 443.942 515.931C441.826 509.968 441.438 503.301 442.305 496.981Z" fill="black"/>
<path d="M584.275 408.3C583.737 380.881 570.703 354.194 549.411 336.914C536.385 326.342 520.549 319.528 504.05 316.994C500.987 317.295 497.957 317.804 494.977 318.515C514.122 319.635 532.887 326.696 547.847 338.839C568.58 355.666 581.271 381.651 581.795 408.348C582.383 438.337 567.714 468.903 542.554 490.113C522.836 506.738 496.645 517.759 467.857 521.725C468.471 521.808 469.085 521.893 469.699 521.965C472.287 522.27 474.886 522.484 477.488 522.624C503.065 517.663 526.229 507.12 544.152 492.008C569.878 470.322 584.877 439.028 584.275 408.3Z" fill="white"/>
<path d="M430.695 519.037L433.989 525.566C438.646 521.258 439.49 517.781 439.49 517.781C437.982 512.449 436.226 507.027 435.354 504.393C434.906 508.064 432.399 511.226 431.342 514.807C430.936 516.19 430.758 517.605 430.695 519.037Z" fill="#37474F"/>
<path d="M430.851 525.723L433.989 525.565L430.695 519.035C430.598 521.241 430.781 523.489 430.851 525.723Z" fill="#263238"/>
<path d="M433.241 496.677C432.138 495.007 430.764 493.542 429.343 492.127C430.241 494.863 430.019 498.008 429.283 500.85C428.304 504.636 426.529 508.186 425.643 511.995C424.564 516.632 424.81 521.615 422.847 525.952C420.937 530.17 416.924 533.372 412.386 534.298C410.705 534.64 408.837 534.652 407.411 533.7C406.766 533.27 406.286 532.585 406.043 531.847C405.046 533.902 403.873 535.866 402.47 537.677C400.916 539.685 398.988 541.888 399.41 544.391C399.759 546.461 401.73 547.96 403.786 548.388C405.841 548.814 407.971 548.381 410.009 547.874C414.382 546.784 418.73 545.318 422.463 542.792C426.196 540.267 429.29 536.573 430.366 532.198C430.884 530.088 430.923 527.914 430.852 525.725C430.782 523.49 430.599 521.243 430.695 519.037C430.758 517.605 430.936 516.19 431.344 514.808C432.401 511.226 434.907 508.064 435.356 504.393C435.38 504.196 435.424 504.004 435.434 503.805C435.581 501.279 434.634 498.788 433.241 496.677Z" fill="#455A64"/>
<path opacity="0.1" d="M433.241 496.677C432.138 495.007 430.764 493.542 429.343 492.127C430.241 494.863 430.019 498.008 429.283 500.85C428.304 504.636 426.529 508.186 425.643 511.995C424.564 516.632 424.81 521.615 422.847 525.952C420.937 530.17 416.924 533.372 412.386 534.298C410.705 534.64 408.837 534.652 407.411 533.7C406.766 533.27 406.286 532.585 406.043 531.847C405.046 533.902 403.873 535.866 402.47 537.677C400.916 539.685 398.988 541.888 399.41 544.391C399.759 546.461 401.73 547.96 403.786 548.388C405.841 548.814 407.971 548.381 410.009 547.874C414.382 546.784 418.73 545.318 422.463 542.792C426.196 540.267 429.29 536.573 430.366 532.198C430.884 530.088 430.923 527.914 430.852 525.725C430.782 523.49 430.599 521.243 430.695 519.037C430.758 517.605 430.936 516.19 431.344 514.808C432.401 511.226 434.907 508.064 435.356 504.393C435.38 504.196 435.424 504.004 435.434 503.805C435.581 501.279 434.634 498.788 433.241 496.677Z" fill="black"/>
<path d="M412.384 534.297C416.922 533.371 420.935 530.17 422.846 525.951C424.809 521.615 424.564 516.631 425.641 511.994C426.527 508.186 428.303 504.635 429.282 500.849C430.017 498.007 430.239 494.863 429.342 492.126C428.967 491.753 428.59 491.381 428.212 491.014C422.594 493.924 416.204 496.32 411.088 500.045C411.025 506.601 410.96 513.191 409.839 519.65C409.109 523.853 407.895 528.017 406.04 531.845C406.285 532.583 406.763 533.267 407.408 533.698C408.837 534.651 410.703 534.639 412.384 534.297Z" fill="#AB6160"/>
<path d="M393.306 517.004C392.376 522.429 388.223 533.471 388.223 533.471C388.223 533.471 407.691 534.264 408.12 533.368L413.844 524.52L393.306 517.004Z" fill="#C48281"/>
<path d="M451.588 387.959L401.929 415.626C392.7 420.768 387.784 431.226 389.712 441.615L399.351 493.52L391.445 518.631C398.265 527.776 413.921 528.241 413.921 528.241C422.654 510.725 429.061 503.285 434.021 488.612C438.982 473.937 442.289 463.811 442.289 463.811L483.53 452.54C502.81 447.27 517.026 430.82 519.265 410.96C519.969 404.724 520.001 400.465 520.001 400.465L451.588 387.959Z" fill="#455A64"/>
<path opacity="0.2" d="M448.217 404.311C448.205 409.798 450.211 415.268 453.771 419.445L422.477 438.978C417.335 442.197 413.527 447.162 411.753 452.964L399.35 493.52L410.536 448.353C411.823 443.158 415.093 438.673 419.646 435.859L448.255 418.261C444.947 409.994 448.217 404.311 448.217 404.311Z" fill="black"/>
<path d="M398.783 558.643L399.244 565.942C405.219 563.812 407.364 560.947 407.364 560.947C408.074 555.453 408.59 549.777 408.826 547.012C406.971 550.21 403.422 552.132 401.042 555.01C400.124 556.119 399.404 557.349 398.783 558.643Z" fill="#37474F"/>
<path d="M396.296 564.856L399.244 565.944L398.783 558.645C397.826 560.635 397.11 562.772 396.296 564.856Z" fill="#263238"/>
<path d="M409.914 539.085C409.557 537.115 408.87 535.229 408.12 533.369C407.87 536.238 406.429 539.042 404.636 541.366C402.247 544.462 399.219 547.029 396.906 550.182C394.092 554.02 392.357 558.7 388.848 561.914C385.432 565.041 380.483 566.408 375.947 565.474C374.268 565.128 372.545 564.405 371.609 562.969C371.185 562.319 371.013 561.502 371.079 560.727C369.354 562.226 367.504 563.57 365.502 564.683C363.284 565.918 360.645 567.185 360.048 569.653C359.556 571.693 360.777 573.847 362.499 575.047C364.222 576.249 366.35 576.687 368.423 577.021C372.873 577.739 377.446 578.1 381.872 577.247C386.297 576.393 390.594 574.214 393.303 570.612C394.608 568.876 395.5 566.892 396.295 564.854C397.109 562.77 397.824 560.633 398.78 558.643C399.401 557.349 400.122 556.12 401.039 555.009C403.42 552.13 406.968 550.208 408.824 547.01C408.923 546.838 409.039 546.68 409.129 546.5C410.257 544.236 410.366 541.573 409.914 539.085Z" fill="#455A64"/>
<path d="M375.946 565.474C380.483 566.408 385.431 565.042 388.846 561.914C392.356 558.699 394.09 554.02 396.905 550.181C399.216 547.027 402.245 544.462 404.634 541.366C406.429 539.042 407.868 536.238 408.119 533.369C407.92 532.879 407.721 532.39 407.518 531.902C401.207 532.37 394.39 532.061 388.222 533.473C385.587 539.476 382.935 545.51 379.364 551.009C377.041 554.586 374.287 557.936 371.076 560.727C371.011 561.502 371.181 562.319 371.606 562.969C372.545 564.404 374.266 565.129 375.946 565.474Z" fill="#C48281"/>
<path d="M502.485 314.606C510.586 296.075 511.095 274.357 503.869 255.467C501.554 249.416 498.274 243.417 492.904 239.791C486.038 235.156 477.145 235.225 468.864 235.464C464.467 235.59 459.979 235.733 455.85 237.251C451.721 238.77 448.332 242.03 447.253 246.294C441.841 245.287 436.373 249.571 434.914 254.877C433.454 260.185 435.366 265.984 438.731 270.339C442.096 274.696 446.762 277.842 451.461 280.708C448.623 282.197 446.515 285.643 445.52 288.689C444.525 291.737 444.769 295.168 446.182 298.045C441.189 297.917 436.1 301.583 434.551 306.331C433.001 311.08 434.314 316.497 437.359 320.457C440.403 324.417 444.998 327.003 449.832 328.261C454.666 329.52 459.746 329.537 464.718 329.06C469.86 334.042 479.284 333.937 485.737 330.839C492.19 327.743 499.617 321.164 502.485 314.606Z" fill="#263238"/>
<path d="M456.46 302.104L455.197 302.117C446.734 302.211 436.03 307.968 430.799 322.736L410.471 362.105L433.678 372.393L446.37 335.233L456.46 302.104Z" fill="#C48281"/>
<path d="M440.164 328.23C438.543 332.879 438.442 337.896 438.188 342.813C437.932 347.729 437.362 353.667 435.109 358.046C432.651 356.345 429.635 355.463 426.646 355.572C423.658 355.681 420.714 356.779 418.385 358.654C416.709 360.004 415.465 361.859 414.622 363.944L433.678 372.392L446.37 335.232L452.611 314.742C446.906 317.362 442.237 322.288 440.164 328.23Z" fill="#AB6160"/>
<path d="M433.892 365.289C432.184 360.901 428.043 357.553 423.396 356.803C418.747 356.051 413.476 358.48 410.473 362.107C407.94 365.165 408.339 369.301 409.934 372.936C412.439 378.637 419.417 381.944 425.415 380.27C431.412 378.594 436.15 371.092 433.892 365.289Z" fill="#C48281"/>
<path d="M458.6 301.38C449.639 302.801 444.088 325.455 441.181 334.05C438.173 342.936 442.261 349.384 446.815 354.755C448.485 356.723 449.247 359.306 448.913 361.866L439.493 396.859C465.206 415.95 508.312 406.696 519.999 400.462C519.999 384.484 515.972 372.484 512.441 365.032C509.033 357.841 507.023 350.067 506.748 342.114L506.306 329.266L509.411 307.106L487.083 301.794L467.409 300.918C467.409 300.918 461.516 300.918 458.6 301.38Z" fill="#BA68C8"/>
<path opacity="0.4" d="M458.6 301.38C449.639 302.801 444.088 325.455 441.181 334.05C438.173 342.936 442.261 349.384 446.815 354.755C448.485 356.723 449.247 359.306 448.913 361.866L439.493 396.859C465.206 415.95 508.312 406.696 519.999 400.462C519.999 384.484 515.972 372.484 512.441 365.032C509.033 357.841 507.023 350.067 506.748 342.114L506.306 329.266L509.411 307.106L487.083 301.794L467.409 300.918C467.409 300.918 461.516 300.918 458.6 301.38Z" fill="black"/>
<path d="M458.393 402.475C458.391 402.466 458.39 402.457 458.389 402.449C458.389 402.446 458.387 402.443 458.387 402.441C458.385 402.426 458.383 402.412 458.381 402.396C458.375 402.37 458.369 402.344 458.362 402.317C458.355 402.293 458.347 402.268 458.338 402.241C458.33 402.216 458.319 402.19 458.31 402.165C458.299 402.14 458.289 402.114 458.277 402.088C458.265 402.063 458.253 402.037 458.239 402.011C458.227 401.985 458.213 401.959 458.198 401.931C458.197 401.929 458.197 401.927 458.195 401.925L443.005 373.648C442.991 373.622 442.976 373.596 442.961 373.57C442.945 373.542 442.928 373.514 442.912 373.484C442.895 373.457 442.876 373.427 442.859 373.398C442.84 373.369 442.82 373.339 442.802 373.31C442.782 373.281 442.76 373.25 442.739 373.219C442.718 373.189 442.695 373.158 442.674 373.127C442.651 373.097 442.628 373.066 442.604 373.036C442.582 373.006 442.559 372.977 442.536 372.948C442.515 372.92 442.493 372.892 442.47 372.864C442.45 372.838 442.429 372.813 442.407 372.788C442.39 372.767 442.371 372.745 442.353 372.723C442.334 372.701 442.317 372.68 442.298 372.657C442.283 372.64 442.267 372.623 442.253 372.605C442.239 372.589 442.226 372.575 442.213 372.56C442.2 372.545 442.185 372.529 442.172 372.515C442.158 372.499 442.144 372.484 442.13 372.468C442.12 372.456 442.109 372.444 442.097 372.432C442.086 372.422 442.076 372.41 442.066 372.399C442.056 372.387 442.045 372.376 442.036 372.366C442.025 372.355 442.014 372.343 442.004 372.332C441.993 372.32 441.982 372.31 441.972 372.299C441.962 372.288 441.952 372.279 441.942 372.268C441.933 372.259 441.924 372.25 441.914 372.239C441.905 372.23 441.896 372.219 441.886 372.211C441.877 372.202 441.868 372.192 441.859 372.182C441.849 372.172 441.84 372.163 441.831 372.154C441.821 372.144 441.812 372.135 441.803 372.126C441.793 372.116 441.783 372.106 441.773 372.097C441.763 372.086 441.752 372.077 441.741 372.066C441.731 372.055 441.72 372.045 441.709 372.035C441.699 372.025 441.688 372.015 441.677 372.005C441.667 371.994 441.656 371.985 441.645 371.974C441.635 371.965 441.624 371.953 441.613 371.943C441.596 371.927 441.58 371.911 441.563 371.895C441.544 371.877 441.526 371.859 441.506 371.842C441.486 371.825 441.467 371.806 441.448 371.789C441.376 371.722 441.303 371.657 441.228 371.592C441.212 371.578 441.197 371.564 441.181 371.55C441.165 371.537 441.149 371.522 441.133 371.509C441.117 371.496 441.101 371.481 441.085 371.468C441.069 371.455 441.053 371.441 441.037 371.428C441.026 371.419 441.015 371.411 441.005 371.401C440.994 371.392 440.983 371.384 440.973 371.375C440.962 371.365 440.951 371.357 440.942 371.349C440.931 371.34 440.921 371.332 440.91 371.324C440.899 371.316 440.889 371.307 440.878 371.299C440.867 371.291 440.857 371.281 440.846 371.273C440.836 371.265 440.826 371.256 440.816 371.248C440.805 371.24 440.796 371.232 440.785 371.224C440.774 371.216 440.764 371.208 440.754 371.2C440.744 371.192 440.734 371.184 440.724 371.176C440.713 371.168 440.702 371.16 440.693 371.152C440.682 371.144 440.672 371.136 440.662 371.128C440.652 371.119 440.64 371.111 440.629 371.103C440.617 371.094 440.604 371.084 440.592 371.075C440.58 371.066 440.566 371.056 440.554 371.047C440.543 371.038 440.529 371.028 440.517 371.019C440.505 371.01 440.492 371 440.479 370.991C440.465 370.982 440.453 370.972 440.44 370.963C440.423 370.951 440.405 370.938 440.388 370.926C440.371 370.912 440.353 370.9 440.336 370.888C440.319 370.876 440.301 370.864 440.284 370.852C440.265 370.839 440.245 370.826 440.227 370.814C440.202 370.796 440.178 370.78 440.152 370.765C440.128 370.749 440.103 370.733 440.079 370.717C440.051 370.698 440.023 370.681 439.995 370.662C439.964 370.643 439.934 370.623 439.903 370.605C439.871 370.585 439.841 370.566 439.809 370.547C439.775 370.527 439.742 370.507 439.709 370.489C439.69 370.478 439.67 370.466 439.65 370.455L422.188 360.632C422.173 360.624 422.16 360.616 422.146 360.609C422.112 360.591 422.078 360.572 422.045 360.555C422.012 360.537 421.98 360.52 421.946 360.504C421.914 360.488 421.882 360.472 421.851 360.457C421.819 360.441 421.787 360.428 421.756 360.414C421.725 360.4 421.695 360.386 421.664 360.374C421.632 360.36 421.601 360.348 421.571 360.336C421.54 360.324 421.51 360.314 421.48 360.303C421.448 360.292 421.416 360.282 421.386 360.272C421.352 360.262 421.32 360.254 421.29 360.246C421.267 360.24 421.247 360.236 421.226 360.232C421.224 360.232 421.222 360.231 421.22 360.231C421.211 360.23 421.202 360.227 421.193 360.226C421.157 360.219 421.122 360.214 421.089 360.211C421.045 360.207 421.003 360.206 420.966 360.208C420.848 360.215 420.76 360.251 420.702 360.316L418.619 362.701C418.631 362.686 418.675 362.701 418.69 362.689C418.517 362.818 418.505 363.099 418.755 363.562L433.945 391.839C434.493 392.857 435.979 394.277 437.292 395.015L454.755 404.838C455.657 405.346 456.195 405.357 456.273 404.988C456.261 405.042 456.271 405.113 456.239 405.149L458.322 402.764C458.349 402.734 458.369 402.697 458.381 402.654C458.389 402.625 458.394 402.593 458.395 402.558C458.397 402.534 458.395 402.506 458.393 402.475ZM419.016 362.635C419.067 362.638 419.079 362.603 419.137 362.615C419.139 362.615 419.141 362.617 419.143 362.617C419.159 362.619 419.188 362.638 419.204 362.642C419.127 362.623 419.081 362.639 419.016 362.635ZM456.296 404.874C456.287 404.725 456.237 404.543 456.112 404.31C456.221 404.515 456.284 404.687 456.304 404.826C456.304 404.828 456.305 404.83 456.304 404.832C456.308 404.852 456.295 404.857 456.296 404.874Z" fill="#455A64"/>
<path opacity="0.15" d="M458.393 402.474C458.391 402.464 458.39 402.455 458.389 402.447C458.389 402.444 458.387 402.442 458.387 402.439C458.385 402.424 458.383 402.41 458.381 402.394C458.375 402.368 458.369 402.342 458.362 402.315C458.355 402.291 458.347 402.266 458.338 402.239C458.33 402.214 458.319 402.189 458.31 402.163C458.299 402.138 458.289 402.113 458.277 402.086C458.265 402.061 458.253 402.035 458.239 402.009C458.227 401.983 458.213 401.957 458.198 401.929L458.195 401.924L443.005 373.646L440.922 376.031L456.112 404.308C456.221 404.513 456.284 404.685 456.304 404.825V404.83C456.323 404.97 456.3 405.075 456.237 405.147L458.321 402.763C458.347 402.732 458.367 402.695 458.379 402.652C458.387 402.623 458.393 402.591 458.394 402.556C458.397 402.532 458.395 402.504 458.393 402.474Z" fill="white"/>
<path opacity="0.2" d="M442.961 373.568C442.945 373.54 442.928 373.512 442.912 373.483C442.895 373.455 442.876 373.425 442.859 373.396C442.84 373.367 442.82 373.337 442.802 373.308C442.782 373.279 442.76 373.248 442.739 373.217C442.718 373.187 442.695 373.156 442.674 373.126C442.651 373.095 442.628 373.064 442.604 373.034C442.582 373.004 442.559 372.975 442.537 372.946C442.515 372.918 442.493 372.89 442.47 372.862C442.45 372.837 442.429 372.811 442.407 372.786C442.39 372.765 442.371 372.743 442.353 372.721C442.334 372.699 442.317 372.678 442.298 372.655C442.283 372.638 442.267 372.621 442.253 372.603C442.24 372.587 442.226 372.573 442.213 372.558C442.2 372.543 442.185 372.527 442.172 372.513C442.158 372.497 442.144 372.482 442.13 372.466C442.12 372.454 442.109 372.442 442.097 372.43C442.086 372.42 442.076 372.408 442.066 372.397C442.056 372.385 442.045 372.374 442.036 372.364C442.025 372.353 442.014 372.341 442.004 372.33C441.993 372.318 441.982 372.308 441.972 372.297C441.962 372.286 441.952 372.277 441.942 372.266C441.933 372.257 441.924 372.248 441.915 372.237C441.905 372.228 441.896 372.217 441.887 372.209C441.877 372.2 441.868 372.19 441.859 372.18C441.849 372.17 441.84 372.161 441.831 372.152C441.821 372.143 441.812 372.133 441.803 372.124C441.793 372.115 441.783 372.104 441.773 372.095C441.763 372.084 441.752 372.075 441.741 372.064C441.731 372.053 441.72 372.043 441.709 372.033C441.699 372.023 441.688 372.013 441.677 372.003C441.667 371.992 441.656 371.983 441.645 371.972C441.635 371.963 441.624 371.951 441.613 371.941C441.596 371.925 441.58 371.909 441.563 371.893C441.544 371.875 441.526 371.857 441.506 371.84C441.486 371.823 441.467 371.804 441.448 371.787C441.376 371.72 441.303 371.655 441.229 371.59C441.213 371.576 441.197 371.562 441.181 371.548C441.165 371.535 441.149 371.52 441.133 371.507C441.117 371.494 441.101 371.479 441.085 371.466C441.069 371.453 441.053 371.439 441.037 371.426C441.026 371.417 441.015 371.409 441.005 371.399C440.994 371.39 440.983 371.382 440.973 371.373C440.962 371.363 440.951 371.355 440.942 371.347C440.931 371.338 440.921 371.33 440.91 371.322C440.9 371.314 440.889 371.305 440.878 371.297C440.868 371.289 440.857 371.279 440.846 371.271C440.836 371.263 440.826 371.254 440.816 371.246C440.805 371.238 440.796 371.23 440.785 371.222C440.774 371.214 440.764 371.206 440.754 371.198C440.744 371.19 440.734 371.182 440.724 371.174C440.713 371.166 440.702 371.158 440.693 371.15C440.682 371.142 440.672 371.134 440.662 371.126C440.652 371.117 440.64 371.109 440.629 371.101C440.617 371.092 440.604 371.082 440.592 371.073C440.58 371.064 440.567 371.054 440.555 371.045C440.543 371.036 440.529 371.026 440.517 371.017C440.505 371.008 440.492 370.998 440.479 370.989C440.465 370.98 440.453 370.97 440.44 370.961C440.423 370.949 440.405 370.936 440.388 370.924C440.371 370.91 440.353 370.898 440.336 370.886C440.319 370.874 440.301 370.862 440.284 370.85C440.265 370.837 440.246 370.824 440.227 370.812C440.202 370.795 440.178 370.779 440.152 370.763C440.128 370.747 440.103 370.731 440.079 370.715C440.051 370.696 440.023 370.679 439.995 370.66C439.964 370.641 439.934 370.621 439.903 370.603C439.871 370.583 439.841 370.564 439.809 370.545C439.775 370.525 439.742 370.505 439.709 370.487C439.69 370.476 439.67 370.464 439.65 370.454L422.188 360.63C422.173 360.622 422.16 360.614 422.146 360.607C422.112 360.589 422.078 360.57 422.045 360.553C422.012 360.535 421.98 360.518 421.946 360.502C421.915 360.486 421.883 360.47 421.851 360.456C421.819 360.44 421.787 360.426 421.756 360.412C421.725 360.398 421.695 360.384 421.664 360.372C421.632 360.358 421.601 360.346 421.571 360.334C421.54 360.322 421.51 360.312 421.48 360.301C421.448 360.29 421.416 360.28 421.386 360.27C421.352 360.26 421.32 360.252 421.29 360.244C421.267 360.238 421.247 360.234 421.226 360.23L421.221 360.229C421.211 360.228 421.202 360.225 421.193 360.224C421.157 360.217 421.122 360.212 421.089 360.209C421.045 360.205 421.003 360.204 420.966 360.206C420.848 360.213 420.76 360.249 420.702 360.314L418.619 362.699C418.711 362.593 418.888 362.564 419.137 362.615L419.143 362.616C419.393 362.668 419.717 362.799 420.103 363.016L437.566 372.839C437.888 373.022 438.225 373.247 438.557 373.499L438.559 373.5C438.89 373.752 439.217 374.03 439.52 374.319L439.521 374.32C439.825 374.609 440.104 374.906 440.344 375.197L440.347 375.201C440.587 375.491 440.784 375.774 440.922 376.032L443.005 373.648C442.991 373.62 442.976 373.594 442.961 373.568Z" fill="white"/>
<path d="M518.042 314.518C515.569 310.268 512.32 307.003 507.416 306.633C507.416 306.633 499.369 310.785 499.369 329.65L499.896 376.837L499.906 376.84C498.748 377.31 497.597 377.799 496.444 378.278C486.892 382.245 476.296 385.775 466.09 387.451C460.963 383.126 453.653 380.88 446.947 380.954L449.523 385.751C444.642 388.876 433.619 383.243 433.619 383.243C432.809 390.121 437.264 397.262 443.175 400.874C449.083 404.487 505.492 399.183 517.455 391.436C525.319 386.344 523.461 337.692 523.461 337.692C524.01 329.599 522.122 321.529 518.042 314.518Z" fill="#C48281"/>
<path d="M421.696 369.002C421.534 370.492 420.885 373.154 421.054 374.644C421.56 379.108 423.361 383.49 426.495 386.708C427.168 387.4 427.923 388.05 428.834 388.361C429.747 388.673 430.847 388.585 431.553 387.928C432.303 387.232 432.44 386.11 432.501 385.089C432.592 383.559 432.613 382.008 432.25 380.52C431.886 379.032 431.098 377.601 429.841 376.726C428.925 376.088 427.826 375.783 426.786 375.38C425.746 374.975 424.885 374.286 424.062 373.408L421.696 369.002Z" fill="#C48281"/>
<path d="M467.409 292.154V309.977C465.661 311.626 463.992 313.516 463.829 315.871C463.673 318.118 465.055 320.316 467.011 321.432C468.966 322.549 471.392 322.667 473.562 322.068C475.733 321.467 477.671 320.203 479.354 318.707C483.939 314.638 487.083 307.826 487.083 301.796V283.746L467.409 292.154Z" fill="#C48281"/>
<path d="M486.32 283.746C484.463 293.555 480.64 302.049 467.408 305.101V292.154L486.32 283.746Z" fill="#AB6160"/>
<path d="M481.708 273.408C481.553 274.595 481.439 276.97 481.681 278.142C481.922 279.314 482.475 280.446 483.376 281.234C484.276 282.021 485.436 282.334 486.596 282.042C485.85 278.988 487.857 275.526 490.877 274.655C493.898 273.784 497.44 275.646 498.435 278.628C499.149 280.769 498.618 283.19 497.408 285.094C496.199 286.999 494.375 288.44 492.437 289.595C490.128 290.547 487.452 289.527 486.122 287.41C480.441 295.253 470.223 301.379 460.4 300.961C457.732 300.847 455.023 300.187 452.846 298.639C449.027 295.923 448.576 291.611 447.931 287.362C447.116 281.982 446.743 276.496 447.392 271.077C448.288 263.587 451.301 256.139 456.88 251.062C460.898 267.104 475.98 272.449 481.708 273.408Z" fill="#C48281"/>
<path d="M461.245 272.4L454.88 280.939L461.202 282.826L461.245 272.4Z" fill="#AB6160"/>
<path d="M467.089 286.619C465.373 287.241 463.656 287.865 461.939 288.487C462.535 289.675 464.28 290.347 465.543 289.933C466.806 289.519 467.313 287.93 467.089 286.619Z" fill="#AB6160"/>
<path opacity="0.3" d="M467.089 286.619C465.373 287.241 463.656 287.865 461.939 288.487C462.535 289.675 464.28 290.347 465.543 289.933C466.806 289.519 467.313 287.93 467.089 286.619Z" fill="black"/>
<path d="M463.825 289.914C464.403 290.08 465.014 290.106 465.543 289.932C466.534 289.606 467.053 288.556 467.125 287.487C466.429 287.418 465.708 287.571 465.123 287.956C464.448 288.398 463.987 289.125 463.825 289.914Z" fill="#AB6160"/>
<path d="M470.547 273.743C470.543 274.771 469.705 275.603 468.677 275.597C467.649 275.593 466.818 274.756 466.822 273.727C466.826 272.699 467.663 271.868 468.692 271.873C469.721 271.877 470.551 272.715 470.547 273.743Z" fill="#263238"/>
<path d="M454.912 273.073C454.908 274.102 454.07 274.933 453.042 274.929C452.014 274.925 451.183 274.087 451.187 273.059C451.191 272.03 452.028 271.199 453.057 271.203C454.086 271.208 454.918 272.045 454.912 273.073Z" fill="#263238"/>
<path d="M453.131 265.656C451.751 266.602 450.371 267.548 448.991 268.494C448.586 267.513 448.986 266.242 449.811 265.575C450.634 264.906 452.255 265.058 453.131 265.656Z" fill="#263238"/>
<path d="M469.081 265.499C470.453 266.456 471.824 267.414 473.198 268.37C473.609 267.393 473.222 266.119 472.404 265.444C471.583 264.77 469.961 264.907 469.081 265.499Z" fill="#263238"/>
</svg>
