<svg width="31" height="29" viewBox="0 0 31 29" fill="none" xmlns="http://www.w3.org/2000/svg">
<path d="M5.63755 28.185L4.33277 27.9732C4.06366 27.9295 3.90503 27.7659 3.98024 27.6096L9.38912 16.3718C9.46432 16.2155 9.74609 16.1234 10.0151 16.1671L11.3199 16.3789C11.589 16.4226 11.7477 16.5862 11.6725 16.7425L6.26358 27.9803C6.18838 28.1366 5.90666 28.2287 5.63755 28.185Z" fill="#124460"/>
<path d="M17.4714 28.185L18.7762 27.9732C19.0453 27.9295 19.2039 27.7659 19.1287 27.6096L13.7198 16.3718C13.6446 16.2155 13.3628 16.1234 13.0938 16.1671L11.789 16.3789C11.5199 16.4226 11.3613 16.5862 11.4365 16.7425L16.8453 27.9803C16.9205 28.1366 17.2023 28.2287 17.4714 28.185Z" fill="#124460"/>
<path d="M11.354 22.6088C17.5312 22.6088 22.5388 17.6893 22.5388 11.6208C22.5388 5.55231 17.5312 0.632812 11.354 0.632812C5.17685 0.632812 0.16925 5.55231 0.16925 11.6208C0.16925 17.6893 5.17685 22.6088 11.354 22.6088Z" fill="#CB5840"/>
<path d="M11.3541 18.8729C15.431 18.8729 18.7359 15.6261 18.7359 11.621C18.7359 7.61592 15.431 4.36914 11.3541 4.36914C7.27733 4.36914 3.97241 7.61592 3.97241 11.621C3.97241 15.6261 7.27733 18.8729 11.3541 18.8729Z" fill="#FFAA22"/>
<path d="M11.3545 15.6541C13.6218 15.6541 15.4599 13.8484 15.4599 11.621C15.4599 9.39357 13.6218 7.58789 11.3545 7.58789C9.08722 7.58789 7.2492 9.39357 7.2492 11.621C7.2492 13.8484 9.08722 15.6541 11.3545 15.6541Z" fill="white"/>
<path d="M11.3542 13.8269C12.5962 13.8269 13.6031 12.8377 13.6031 11.6175C13.6031 10.3974 12.5962 9.4082 11.3542 9.4082C10.1121 9.4082 9.10524 10.3974 9.10524 11.6175C9.10524 12.8377 10.1121 13.8269 11.3542 13.8269Z" fill="#CB5840"/>
<path d="M24.3011 5.68137L24.5872 6.24647L30.9079 3.15456L28.8571 3.05126L30.0098 1.38086L23.6891 4.47276L23.9764 5.04027L13.7771 10.0342L13.4893 9.46695L11.247 11.6731L14.39 11.2423L14.1022 10.675L24.3011 5.68137Z" fill="#103947"/>
</svg>
