<svg width="77" height="53" viewBox="0 0 77 53" fill="none" xmlns="http://www.w3.org/2000/svg">
<path d="M48.1472 47.5208L62.4797 20.0627H59.5433C59.0018 20.0627 58.704 19.4332 59.0474 19.0146L74.323 0.396724C74.9851 -0.410209 76.2929 0.101626 76.2314 1.14352L75.1576 19.3495C75.0962 20.3917 74.172 21.1685 73.1348 21.0498L71.0875 20.8155L56.8667 51.6125C56.4965 52.4142 55.694 52.9276 54.8109 52.9276H49.8822L48.1472 47.5208Z" fill="url(#paint0_linear_2455_18222)"/>
<path d="M36.2971 28.2642L46.4156 50.7411C47.0149 52.0725 48.3393 52.9286 49.7992 52.9286H55.0155C55.7076 52.9286 56.3453 52.5531 56.681 51.9479L56.8665 51.6135C56.3061 51.6135 55.7929 51.2993 55.5382 50.8001L42.0565 24.3848L36.2971 28.2642Z" fill="url(#paint1_linear_2455_18222)"/>
<path d="M43.4191 27.0525C42.4044 26.2512 40.9219 26.4868 40.2055 27.563L25.3286 49.9146C24.137 51.7047 22.1291 52.7803 19.9786 52.7803H17.8853L16.1816 47.8727C16.1816 47.8727 30.0121 26.6662 33.5768 23.4583C33.5768 23.4583 37.1268 20.2588 40.627 22.6778C41.5518 23.3169 42.2538 24.229 42.6827 25.2681L43.4191 27.0525Z" fill="url(#paint2_linear_2455_18222)"/>
<path d="M0 34.6732C0 34.6732 2.49031 31.5604 7.31597 31.0762C7.31597 31.0762 9.60797 31.857 14.1741 40.039C18.7403 48.2209 21.7711 51.952 25.3277 49.9141L25.0332 50.403C24.0628 52.0142 22.3194 52.9994 20.4385 52.9994H18.4715C16.3058 52.9994 14.4251 49.6636 13.1604 47.9055C9.60662 42.9652 2.18309 35.4401 0 34.6732Z" fill="url(#paint3_linear_2455_18222)"/>
<path opacity="0.7" d="M74.5088 6.98514C74.5002 6.98514 74.4916 6.98469 74.4829 6.98365C74.3579 6.96956 74.268 6.85674 74.2822 6.73177L74.3829 5.8428C74.3971 5.71783 74.5097 5.62744 74.6348 5.64221C74.7598 5.6563 74.8496 5.76911 74.8354 5.89409L74.7347 6.78304C74.7215 6.89928 74.6231 6.98514 74.5088 6.98514Z" fill="white"/>
<path opacity="0.7" d="M61.7549 18.2065C61.7064 18.2065 61.6574 18.1911 61.6161 18.1592C61.5164 18.0825 61.4977 17.9396 61.5745 17.8398L74.1884 1.44993C74.3586 1.22852 74.6471 1.15014 74.9063 1.25494C75.1653 1.3597 75.3182 1.61654 75.2866 1.89409L75.064 3.85871C75.0498 3.98368 74.9379 4.07403 74.8121 4.05931C74.6872 4.04522 74.5973 3.9324 74.6115 3.80743L74.8341 1.84281C74.8467 1.73126 74.7617 1.68782 74.7355 1.67715C74.7089 1.66652 74.6179 1.63865 74.5493 1.72779L61.9354 18.1177C61.8907 18.176 61.8231 18.2065 61.7549 18.2065Z" fill="white"/>
<path opacity="0.7" d="M33.1397 35.388C33.0958 35.388 33.0515 35.3754 33.0125 35.3491C32.9083 35.2787 32.8807 35.1371 32.9511 35.0329L39.4747 25.363C39.7263 24.9901 40.1447 24.7885 40.5926 24.8219C41.041 24.856 41.4236 25.119 41.6159 25.5254C41.6698 25.6391 41.6213 25.7749 41.5075 25.8287C41.3941 25.8826 41.2582 25.8339 41.2043 25.7202C41.0828 25.4636 40.8413 25.2975 40.5582 25.2761C40.2746 25.2548 40.0111 25.3824 39.8522 25.6177L33.3286 35.2876C33.2847 35.3529 33.2128 35.388 33.1397 35.388Z" fill="white"/>
<path opacity="0.7" d="M31.4447 37.9036C31.4008 37.9036 31.3565 37.8909 31.3174 37.8646C31.2132 37.7942 31.1856 37.6527 31.2561 37.5485L31.6744 36.9285C31.7447 36.8241 31.8864 36.7968 31.9905 36.8671C32.0947 36.9375 32.1223 37.079 32.0519 37.1832L31.6335 37.8032C31.5897 37.8684 31.5178 37.9036 31.4447 37.9036Z" fill="white"/>
<defs>
<linearGradient id="paint0_linear_2455_18222" x1="81.1993" y1="-15.7781" x2="59.327" y2="38.5989" gradientUnits="userSpaceOnUse">
<stop stop-color="#8AC5C5"/>
<stop offset="1" stop-color="#336666"/>
</linearGradient>
<linearGradient id="paint1_linear_2455_18222" x1="59.4618" y1="64.1512" x2="43.9763" y2="37.1275" gradientUnits="userSpaceOnUse">
<stop stop-color="#339999"/>
<stop offset="1" stop-color="#336666"/>
</linearGradient>
<linearGradient id="paint2_linear_2455_18222" x1="43.1064" y1="19.6724" x2="21.5482" y2="46.3925" gradientUnits="userSpaceOnUse">
<stop stop-color="#336666"/>
<stop offset="1" stop-color="#8AC5C5"/>
</linearGradient>
<linearGradient id="paint3_linear_2455_18222" x1="12.6638" y1="31.0762" x2="12.6638" y2="52.9994" gradientUnits="userSpaceOnUse">
<stop stop-color="#A6F0F0"/>
<stop offset="0.991666" stop-color="#008080"/>
</linearGradient>
</defs>
</svg>
