<svg width="47" height="53" viewBox="0 0 47 53" fill="none" xmlns="http://www.w3.org/2000/svg">
<path d="M46.1481 12.8068C46.1481 12.8068 43.2757 35.8042 38.5549 40.9789C32.8875 47.1866 28.7748 46.279 26.4865 49.4797C26.4817 49.4797 26.4817 49.4846 26.4817 49.4846C24.1934 46.279 20.0807 47.1915 14.4085 40.9789C9.68764 35.8042 6.82007 12.8068 6.82007 12.8068C19.2601 6.76781 26.4817 0 26.4817 0C26.4817 0 26.4817 6.9382e-07 26.4865 0.00480986C26.7086 0.212478 33.9013 6.86443 46.1481 12.8068Z" fill="#CD9DD0"/>
<path opacity="0.1" d="M26.4865 0.00524682V49.4802C26.4817 49.4802 26.4817 49.485 26.4817 49.485C24.1934 46.2795 20.0807 47.1919 14.4085 40.9793C9.68764 35.8047 6.82007 12.8072 6.82007 12.8072C19.2601 6.76781 26.4817 0 26.4817 0C26.4817 0 26.4817 4.53589e-07 26.4865 0.00524682Z" fill="black"/>
<path d="M9.87097 14.6596C9.87097 14.6596 12.297 34.0864 16.2846 38.4597C21.0763 43.7113 24.5525 42.9401 26.4862 45.645C28.4195 42.9401 31.8961 43.7118 36.6877 38.4597C40.6754 34.0864 43.0966 14.6596 43.0966 14.6596C32.5886 9.55663 26.4862 3.83984 26.4862 3.83984C26.4862 3.83984 20.379 9.55663 9.87097 14.6596Z" fill="#CD9DD0"/>
<path opacity="0.2" d="M43.091 14.6606C43.091 14.6606 40.6654 34.0853 36.6765 38.4608C31.8891 43.7084 28.4165 42.942 26.4806 45.6391V3.8457C26.6673 4.02102 32.7456 9.63637 43.091 14.6606Z" fill="white"/>
<path d="M26.4847 32.4439C30.7391 32.4439 34.1881 28.995 34.1881 24.7405C34.1881 20.486 30.7391 17.0371 26.4847 17.0371C22.2302 17.0371 18.7812 20.486 18.7812 24.7405C18.7812 28.995 22.2302 32.4439 26.4847 32.4439Z" fill="#007474"/>
<path d="M25.6069 29.7457L22.1763 26.1778L23.4494 24.954L25.3407 26.921L29.4176 20.666L30.897 21.6305L25.6069 29.7457Z" fill="white"/>
<path d="M43.0916 46.1044L42.0021 46.3055L41.7586 47.454L41.5155 46.3055L40.426 46.1035L41.5107 45.8386L41.7586 44.7539L42.0069 45.8386L43.0916 46.1044Z" fill="#CD9DD0"/>
<path d="M10.8224 37.372L9.73339 37.5731L9.48987 38.7216L9.24636 37.5731L8.15686 37.3711L9.24154 37.1062L9.48987 36.0215L9.73776 37.1062L10.8224 37.372Z" fill="#CD9DD0"/>
<path d="M15.7945 7.10006L14.705 7.30161L14.4614 8.45013L14.2179 7.30161L13.1284 7.09963L14.2131 6.83468L14.4614 5.75L14.7098 6.83468L15.7945 7.10006Z" fill="#CD9DD0"/>
<path d="M41.1421 40.9402L40.5335 41.0529L40.3971 41.6948L40.2612 41.0529L39.6526 40.9402L40.2586 40.7919L40.3971 40.1855L40.5362 40.7919L41.1421 40.9402Z" fill="#CD9DD0"/>
<path d="M45.3532 28.1628L44.7442 28.2756L44.6083 28.9174L44.4723 28.2756L43.8633 28.1628L44.4697 28.0146L44.6083 27.4082L44.7469 28.0146L45.3532 28.1628Z" fill="#CD9DD0"/>
<path d="M40.1843 5.7507L39.5758 5.86349L39.4398 6.5053L39.3034 5.86349L38.6948 5.75026L39.3008 5.60205L39.4398 4.99609L39.5784 5.60205L40.1843 5.7507Z" fill="#CD9DD0"/>
<path d="M24.6326 52.2453L24.0235 52.3576L23.8876 52.9994L23.7516 52.3576L23.1426 52.2448L23.749 52.0966L23.8876 51.4902L24.0262 52.0966L24.6326 52.2453Z" fill="#CD9DD0"/>
<path d="M7.43784 38.8659L6.82926 38.9787L6.69286 39.6205L6.55689 38.9787L5.94788 38.8659L6.55427 38.7177L6.69286 38.1113L6.83189 38.7177L7.43784 38.8659Z" fill="#CD9DD0"/>
<path d="M8.38504 21.0734L7.77647 21.1858L7.64006 21.8276L7.50409 21.1858L6.89551 21.073L7.50147 20.9248L7.64006 20.3184L7.77908 20.9248L8.38504 21.0734Z" fill="#CD9DD0"/>
<path d="M33.9258 43.8203C33.6984 43.8203 33.6984 44.1731 33.9258 44.1731C34.1531 44.1731 34.1535 43.8203 33.9258 43.8203Z" fill="#CD9DD0"/>
<path d="M5.86057 11.8281C5.63323 11.8281 5.63323 12.1809 5.86057 12.1809C6.08748 12.1814 6.08791 11.8281 5.86057 11.8281Z" fill="#CD9DD0"/>
<path d="M39.4402 44.8164C39.2128 44.8164 39.2128 45.1692 39.4402 45.1692C39.6671 45.1692 39.6675 44.8164 39.4402 44.8164Z" fill="#CD9DD0"/>
<path d="M21.5613 17.2461C21.3344 17.2461 21.334 17.5989 21.5613 17.5989C21.7882 17.5993 21.7887 17.2461 21.5613 17.2461Z" fill="#CD9DD0"/>
<path d="M5.22226 24.3555C4.99492 24.3555 4.99492 24.7083 5.22226 24.7083C5.44917 24.7083 5.44961 24.3555 5.22226 24.3555Z" fill="#CD9DD0"/>
<path d="M1.1061 22.4316C0.945647 22.4316 0.94521 22.6813 1.1061 22.6813C1.26655 22.6813 1.26699 22.4316 1.1061 22.4316Z" fill="#CD9DD0"/>
<path d="M34.7871 3.44531C34.6267 3.44531 34.6262 3.69495 34.7871 3.69495C34.9476 3.69495 34.948 3.44531 34.7871 3.44531Z" fill="#CD9DD0"/>
<path d="M17.3582 46.1895C17.1977 46.1895 17.1973 46.4391 17.3582 46.4391C17.5186 46.4391 17.5191 46.1895 17.3582 46.1895Z" fill="#CD9DD0"/>
<path d="M13.4562 43.8965C13.0207 43.8965 13.0199 44.5733 13.4562 44.5733C13.8916 44.5733 13.8925 43.8965 13.4562 43.8965Z" fill="#CD9DD0"/>
</svg>
