<svg width="85" height="54" viewBox="0 0 85 54" fill="none" xmlns="http://www.w3.org/2000/svg">
<path d="M23.5652 9.41992H24.0474L33.3835 16.4965C31.9433 18.5652 31.1013 20.9826 31.1013 23.8273L18.7903 23.6318C18.7903 18.2179 20.5657 13.4149 23.5652 9.41992Z" fill="url(#paint0_linear_2455_18179)"/>
<path d="M40.0877 11.5684C37.8814 12.2731 36.2351 13.7119 34.7189 15.3937C34.7068 15.4071 34.7005 15.4428 34.6832 15.4433C34.304 15.4543 34.438 15.4651 34.201 15.4423L34.1798 15.4265L24.4268 8.3804C27.5933 4.68654 31.8516 1.94695 36.653 0.787109H37.1352L40.0877 11.5684Z" fill="url(#paint1_linear_2455_18179)"/>
<path d="M51.9073 1.7342L49.1868 11.7192C47.9816 11.2903 46.6477 10.9178 45.3017 10.8466C44.0988 10.783 42.5224 11.0807 41.3992 11.3178L37.9569 0.473399C40.1786 0.0286776 42.498 -0.110596 44.8643 0.0891312C47.3497 0.298933 49.7129 0.868314 51.9073 1.7342Z" fill="url(#paint2_linear_2455_18179)"/>
<path d="M63.1364 10.5794L55.316 15.9653L55.3886 16.2515H54.9065C53.6066 14.5762 51.894 13.1497 49.907 12.219L53.0941 2.24055C53.4267 2.22292 53.2722 2.23945 53.5763 2.23945C53.5852 2.23945 53.5925 2.24662 53.6005 2.25049C57.5136 4.12015 60.7253 7.14189 63.1364 10.5794Z" fill="url(#paint3_linear_2455_18179)"/>
<path d="M67.5141 24.3815L57.6101 24.2332C57.6101 21.5988 56.8846 19.3161 55.6284 17.2991L63.8221 11.6289C64.3043 11.6289 64.2377 11.6114 64.3043 11.6289C64.3862 11.6503 64.0271 11.9602 64.0727 12.0359C66.2585 15.6636 67.5141 19.849 67.5141 24.3815Z" fill="url(#paint4_linear_2455_18179)"/>
<path d="M43.3608 20.2116L56.4767 10.0977L47.162 23.7244L43.3608 20.2116Z" fill="url(#paint5_linear_2455_18179)"/>
<path d="M48.3 22.7457C48.3 24.6187 46.7702 26.1233 44.8642 26.1062C42.9369 26.0889 41.3585 24.5255 41.3585 22.6145C41.3585 20.7035 42.9368 19.1998 44.8642 19.2554C46.7703 19.3103 48.3 20.8728 48.3 22.7457Z" fill="url(#paint6_linear_2455_18179)"/>
<path d="M44.8642 24.7611C43.6976 24.7461 42.7426 23.7943 42.7426 22.6396C42.7426 21.4849 43.6976 20.5692 44.8642 20.5983C46.023 20.6272 46.9601 21.5786 46.9601 22.7193C46.9601 23.86 46.023 24.776 44.8642 24.7611ZM44.8642 21.0045C43.9258 20.9821 43.1586 21.7191 43.1586 22.6475C43.1586 23.5758 43.9258 24.3418 44.8642 24.355C45.7975 24.3681 46.5531 23.6309 46.5531 22.7116C46.5531 21.7924 45.7975 21.0266 44.8642 21.0045Z" fill="url(#paint7_linear_2455_18179)"/>
<path d="M24.0474 9.45117L33.8657 16.5128C32.4255 18.5814 31.5834 20.9914 31.5834 23.8361L19.2725 23.6518C19.2725 18.2379 21.0479 13.3899 24.0474 9.45117Z" fill="url(#paint8_linear_2455_18179)"/>
<path d="M40.5698 11.5607C38.2636 12.2972 36.2316 13.6477 34.6831 15.4415L24.9089 8.37244C28.0755 4.67858 32.3338 2.00933 37.1352 0.771484L40.5698 11.5607Z" fill="url(#paint9_linear_2455_18179)"/>
<path d="M52.3895 1.7342L49.1867 11.7192C47.9816 11.2903 46.6924 11.0244 45.3464 10.9531C44.1435 10.8895 42.9702 10.985 41.847 11.2221L38.439 0.473399C40.6607 0.0286776 42.9801 -0.110596 45.3464 0.0891312C47.8318 0.298933 50.195 0.868314 52.3895 1.7342Z" fill="url(#paint10_linear_2455_18179)"/>
<path d="M63.6186 10.5793L55.3887 16.2427C54.0888 14.5406 52.3762 13.1453 50.3892 12.2146L53.5763 2.23828C57.6668 4.10153 61.1246 7.02358 63.6186 10.5793Z" fill="url(#paint11_linear_2455_18179)"/>
<path d="M67.9963 24.3815L58.0923 24.2333C58.0923 21.5988 57.3668 19.3161 56.1106 17.2992L64.3043 11.6289C66.6444 15.3492 67.9963 19.6786 67.9963 24.3815Z" fill="url(#paint12_linear_2455_18179)"/>
<path d="M43.8429 20.2116L56.9588 10.0977L47.6441 23.7244L43.8429 20.2116Z" fill="url(#paint13_linear_2455_18179)"/>
<path d="M48.7822 22.7457C48.7822 24.6187 47.2524 26.1233 45.3463 26.1062C43.419 26.0889 41.8407 24.5255 41.8407 22.6145C41.8407 20.7035 43.419 19.1998 45.3463 19.2554C47.2524 19.3103 48.7822 20.8728 48.7822 22.7457Z" fill="url(#paint14_linear_2455_18179)"/>
<path d="M45.3464 24.7611C44.1798 24.7461 43.2247 23.7943 43.2247 22.6396C43.2247 21.4849 44.1798 20.5692 45.3464 20.5983C46.5052 20.6272 47.4423 21.5786 47.4423 22.7193C47.4423 23.86 46.5052 24.776 45.3464 24.7611ZM45.3464 21.0045C44.408 20.9821 43.6407 21.7191 43.6407 22.6475C43.6407 23.5758 44.408 24.3418 45.3464 24.355C46.2797 24.3681 47.0353 23.6309 47.0353 22.7116C47.0353 21.7924 46.2797 21.0266 45.3464 21.0045Z" fill="#D8DEE8"/>
<path d="M79.9179 25.6198L8.23911 23.694C4.26457 23.5872 0.971191 26.79 0.971191 30.8499V46.2384C0.971191 50.2983 4.26457 53.3824 8.23911 53.1325L79.9179 48.6249C82.2938 48.4755 84.1877 45.8821 84.1877 42.8299V31.2611C84.1877 28.2088 82.2937 25.6836 79.9179 25.6198Z" fill="url(#paint15_linear_2455_18179)"/>
<path d="M80.7014 25.6198L9.02268 23.694C5.04813 23.5872 1.75476 26.79 1.75476 30.8499V46.2384C1.75476 50.2983 5.04813 53.3824 9.02268 53.1325L80.7014 48.6249C83.0773 48.4755 84.9712 45.8821 84.9712 42.8299V31.2611C84.9712 28.2088 83.0773 25.6836 80.7014 25.6198Z" fill="#97A6B7"/>
<path d="M9.02262 52.1748C5.58911 52.3807 2.74231 49.7018 2.74231 46.1992V30.856C2.74231 27.3533 5.58915 24.5719 9.02262 24.6541L80.7013 26.3704C82.7597 26.4197 84.4101 28.6126 84.4101 31.2595V42.8541C84.4101 45.501 82.7597 47.7533 80.7013 47.8768L9.02262 52.1748Z" fill="url(#paint16_linear_2455_18179)"/>
<path d="M18.5626 30.6272L20.6051 34.9507C20.6803 35.1099 20.8255 35.2193 20.9933 35.2435L25.4563 35.8856C25.8662 35.9446 26.0296 36.4789 25.7334 36.7908L22.5225 40.1707C22.4022 40.2973 22.3473 40.4768 22.3757 40.6506L23.1404 45.3317C23.2115 45.7672 22.7756 46.1205 22.4016 45.9292L18.3368 43.8492C18.1842 43.7711 18.0017 43.7776 17.8487 43.8666L13.6646 46.302C13.2686 46.5325 12.8046 46.2071 12.8805 45.751L13.692 40.8755C13.722 40.6953 13.664 40.5137 13.5369 40.3898L10.068 37.0065C9.74053 36.6871 9.9213 36.1208 10.3732 36.0493L15.1389 35.2943C15.3127 35.2667 15.4629 35.1529 15.5406 34.9899L17.622 30.6217C17.8148 30.217 18.3706 30.2209 18.5626 30.6272Z" fill="#D8DEE8"/>
<path d="M34.8989 30.7246L36.7378 34.8271C36.8055 34.9782 36.9363 35.0821 37.0875 35.1051L41.1103 35.7168C41.4802 35.773 41.6276 36.2807 41.3603 36.5767L38.4652 39.7831C38.3569 39.9031 38.3074 40.0735 38.333 40.2386L39.0221 44.6837C39.0863 45.0974 38.6933 45.4319 38.3563 45.2495L34.6957 43.268C34.5584 43.1936 34.3941 43.1994 34.2565 43.2836L30.4941 45.585C30.1382 45.8026 29.7213 45.4932 29.7896 45.061L30.5187 40.4409C30.5456 40.2702 30.4935 40.0979 30.3793 39.9803L27.264 36.7708C26.9701 36.468 27.1323 35.9317 27.5379 35.8641L31.8192 35.1507C31.9755 35.1247 32.1106 35.0169 32.1804 34.8624L34.0525 30.7196C34.2259 30.3357 34.7261 30.3392 34.8989 30.7246Z" fill="url(#paint17_linear_2455_18179)"/>
<path d="M49.6408 30.8098L51.3052 34.7128C51.3665 34.8566 51.4849 34.9555 51.6218 34.9774L55.2666 35.5615C55.6019 35.6153 55.7355 36.0988 55.4932 36.3804L52.8695 39.4304C52.7713 39.5445 52.7265 39.7065 52.7497 39.8637L53.374 44.0955C53.4321 44.4894 53.0761 44.807 52.7708 44.6327L49.457 42.7408C49.3328 42.6699 49.1842 42.6751 49.0597 42.755L45.6582 44.9362C45.3368 45.1424 44.9602 44.8475 45.0218 44.4369L45.6804 40.0467C45.7048 39.8845 45.6577 39.7207 45.5545 39.6087L42.7413 36.556C42.476 36.2682 42.6225 35.7588 42.9885 35.6948L46.8557 35.0188C46.997 34.994 47.119 34.8916 47.1822 34.7447L48.8751 30.8053C49.032 30.4401 49.4845 30.4434 49.6408 30.8098Z" fill="url(#paint18_linear_2455_18179)"/>
<path d="M63.0111 30.8887L64.5246 34.6106C64.5803 34.7478 64.688 34.8421 64.8125 34.8631L68.1302 35.4219C68.4356 35.4733 68.5573 35.9349 68.3366 36.2036L65.9478 39.1116C65.8585 39.2203 65.8177 39.3749 65.8388 39.5248L66.407 43.5629C66.4599 43.9388 66.1359 44.2411 65.858 44.0743L62.844 42.2642C62.731 42.1964 62.5959 42.2012 62.4828 42.2771L59.3928 44.3502C59.1009 44.546 58.759 44.2643 58.815 43.8732L59.4129 39.6911C59.435 39.5365 59.3923 39.3804 59.2986 39.2736L56.7457 36.3631C56.5051 36.0888 56.6379 35.6037 56.9699 35.543L60.4803 34.9006C60.6086 34.8771 60.7195 34.7795 60.7768 34.6396L62.3151 30.8845C62.4577 30.5363 62.869 30.5393 63.0111 30.8887Z" fill="url(#paint19_linear_2455_18179)"/>
<path d="M75.1926 30.9608L76.5749 34.5178C76.6258 34.6489 76.7242 34.7391 76.8379 34.7592L79.8705 35.2948C80.1499 35.3442 80.2612 35.7856 80.0593 36.0425L77.8753 38.8211C77.7936 38.925 77.7564 39.0727 77.7757 39.2161L78.295 43.0774C78.3434 43.4369 78.0472 43.7254 77.7933 43.5654L75.0401 41.8304C74.9369 41.7654 74.8136 41.7698 74.7103 41.8421L71.8908 43.8173C71.6246 44.0037 71.3129 43.7341 71.3639 43.3607L71.9092 39.368C71.9293 39.2204 71.8904 39.0713 71.8049 38.9691L69.4777 36.1882C69.2585 35.9262 69.3795 35.4633 69.682 35.4054L72.8827 34.7935C72.9998 34.7711 73.101 34.6779 73.1533 34.5443L74.5572 30.9571C74.6873 30.6243 75.0629 30.627 75.1926 30.9608Z" fill="#D8DEE8"/>
<g opacity="0.1">
<path d="M70.7319 38.3906C61.8349 35.9612 55.7718 48.8975 45.1133 46.2959C35.6972 43.9976 35.4319 33.1903 24.0182 25.5138C23.2272 24.9818 22.4204 24.4888 21.5993 24.0319L9.02268 23.694C5.04813 23.5872 1.75476 26.7899 1.75476 30.8499V46.2384C1.75476 50.2983 5.04813 53.3824 9.02268 53.1325L80.2456 48.6536C77.0319 41.6514 73.6096 39.1764 70.7319 38.3906Z" fill="#97A6B7"/>
</g>
<path d="M18.5626 30.6292L20.6051 34.9527C20.6803 35.1118 20.8255 35.2213 20.9933 35.2454L25.4563 35.8875C25.8662 35.9465 26.0296 36.4809 25.7334 36.7927L22.5225 40.1726C22.4022 40.2992 22.3473 40.4787 22.3757 40.6526L23.1404 45.3336C23.2115 45.7692 22.7756 46.1225 22.4016 45.9311L18.3368 43.8512C18.1842 43.7731 18.0017 43.7795 17.8487 43.8686L13.6646 46.304C13.2686 46.5344 12.8046 46.2091 12.8805 45.7529L13.692 40.8774C13.722 40.6973 13.664 40.5157 13.5369 40.3917L10.068 37.0084C9.74053 36.6891 9.9213 36.1228 10.3732 36.0512L15.1389 35.2962C15.3127 35.2686 15.4629 35.1548 15.5406 34.9919L17.622 30.6237C17.8148 30.2189 18.3706 30.2229 18.5626 30.6292Z" fill="url(#paint20_linear_2455_18179)"/>
<defs>
<linearGradient id="paint0_linear_2455_18179" x1="25.8339" y1="19.6921" x2="5.98423" y2="91.742" gradientUnits="userSpaceOnUse">
<stop stop-color="#311944"/>
<stop offset="1" stop-color="#893976"/>
</linearGradient>
<linearGradient id="paint1_linear_2455_18179" x1="33.0851" y1="-13.7265" x2="31.8172" y2="18.0305" gradientUnits="userSpaceOnUse">
<stop stop-color="#311944"/>
<stop offset="1" stop-color="#893976"/>
</linearGradient>
<linearGradient id="paint2_linear_2455_18179" x1="44.3319" y1="11.4507" x2="39.9503" y2="77.537" gradientUnits="userSpaceOnUse">
<stop stop-color="#311944"/>
<stop offset="1" stop-color="#893976"/>
</linearGradient>
<linearGradient id="paint3_linear_2455_18179" x1="53.598" y1="10.1088" x2="107.843" y2="-28.7524" gradientUnits="userSpaceOnUse">
<stop stop-color="#311944"/>
<stop offset="1" stop-color="#893976"/>
</linearGradient>
<linearGradient id="paint4_linear_2455_18179" x1="73.9703" y1="-29.1534" x2="55.6868" y2="35.3449" gradientUnits="userSpaceOnUse">
<stop stop-color="#311944"/>
<stop offset="1" stop-color="#893976"/>
</linearGradient>
<linearGradient id="paint5_linear_2455_18179" x1="48.7011" y1="13.9648" x2="52.6323" y2="17.3256" gradientUnits="userSpaceOnUse">
<stop stop-color="#311944"/>
<stop offset="1" stop-color="#893976"/>
</linearGradient>
<linearGradient id="paint6_linear_2455_18179" x1="41.3586" y1="22.6801" x2="48.3" y2="22.6801" gradientUnits="userSpaceOnUse">
<stop stop-color="#311944"/>
<stop offset="1" stop-color="#893976"/>
</linearGradient>
<linearGradient id="paint7_linear_2455_18179" x1="42.7425" y1="22.6794" x2="46.9601" y2="22.6794" gradientUnits="userSpaceOnUse">
<stop stop-color="#311944"/>
<stop offset="1" stop-color="#893976"/>
</linearGradient>
<linearGradient id="paint8_linear_2455_18179" x1="26.3022" y1="19.7624" x2="6.63515" y2="91.1495" gradientUnits="userSpaceOnUse">
<stop stop-color="#AB316D"/>
<stop offset="1" stop-color="#792D3D"/>
</linearGradient>
<linearGradient id="paint9_linear_2455_18179" x1="33.5664" y1="-13.7119" x2="32.2995" y2="18.0206" gradientUnits="userSpaceOnUse">
<stop stop-color="#FFC444"/>
<stop offset="0.5407" stop-color="#F8964E"/>
<stop offset="0.9964" stop-color="#F36F56"/>
</linearGradient>
<linearGradient id="paint10_linear_2455_18179" x1="44.8188" y1="11.3685" x2="40.4689" y2="76.9766" gradientUnits="userSpaceOnUse">
<stop stop-color="#FFC444"/>
<stop offset="0.9964" stop-color="#F36F56"/>
</linearGradient>
<linearGradient id="paint11_linear_2455_18179" x1="54.0809" y1="10.1071" x2="108.313" y2="-28.745" gradientUnits="userSpaceOnUse">
<stop offset="0.0036" stop-color="#E38DDD"/>
<stop offset="1" stop-color="#9571F6"/>
</linearGradient>
<linearGradient id="paint12_linear_2455_18179" x1="74.3258" y1="-28.6424" x2="56.2146" y2="35.248" gradientUnits="userSpaceOnUse">
<stop offset="0.0036" stop-color="#E38DDD"/>
<stop offset="1" stop-color="#9571F6"/>
</linearGradient>
<linearGradient id="paint13_linear_2455_18179" x1="49.1832" y1="13.9648" x2="53.1144" y2="17.3256" gradientUnits="userSpaceOnUse">
<stop stop-color="#444B8C"/>
<stop offset="0.9964" stop-color="#26264F"/>
</linearGradient>
<linearGradient id="paint14_linear_2455_18179" x1="41.8407" y1="22.6801" x2="48.7822" y2="22.6801" gradientUnits="userSpaceOnUse">
<stop stop-color="#444B8C"/>
<stop offset="0.9964" stop-color="#26264F"/>
</linearGradient>
<linearGradient id="paint15_linear_2455_18179" x1="0.971185" y1="38.419" x2="84.1877" y2="38.419" gradientUnits="userSpaceOnUse">
<stop stop-color="#444B8C"/>
<stop offset="0.9964" stop-color="#26264F"/>
</linearGradient>
<linearGradient id="paint16_linear_2455_18179" x1="21.2283" y1="73.0863" x2="60.7109" y2="17.046" gradientUnits="userSpaceOnUse">
<stop offset="0.0036" stop-color="#EBEFF2"/>
<stop offset="1" stop-color="white"/>
</linearGradient>
<linearGradient id="paint17_linear_2455_18179" x1="45.6377" y1="26.8752" x2="23.6572" y2="47.8511" gradientUnits="userSpaceOnUse">
<stop stop-color="#FFC444"/>
<stop offset="0.9964" stop-color="#F36F56"/>
</linearGradient>
<linearGradient id="paint18_linear_2455_18179" x1="53.0763" y1="34.6429" x2="31.5697" y2="55.1667" gradientUnits="userSpaceOnUse">
<stop stop-color="#FFC444"/>
<stop offset="0.9964" stop-color="#F36F56"/>
</linearGradient>
<linearGradient id="paint19_linear_2455_18179" x1="63.4932" y1="36.3038" x2="40.5247" y2="72.1933" gradientUnits="userSpaceOnUse">
<stop stop-color="#FFC444"/>
<stop offset="0.9964" stop-color="#F36F56"/>
</linearGradient>
<linearGradient id="paint20_linear_2455_18179" x1="20.2283" y1="29.2903" x2="5.48048" y2="70.1504" gradientUnits="userSpaceOnUse">
<stop stop-color="#FFC444"/>
<stop offset="0.9964" stop-color="#F36F56"/>
</linearGradient>
</defs>
</svg>
