<svg width="44" height="53" viewBox="0 0 44 53" fill="none" xmlns="http://www.w3.org/2000/svg">
<path d="M12.4214 53L7.7659 46.6837L0 47.7226L10.4111 24.1875L22.8325 29.4649L12.4214 53Z" fill="#005B5B"/>
<path d="M12.5983 50.8687L11.9286 49.9601L12.203 49.7664L12.5243 50.2021L12.7426 49.709L13.0534 49.8405L12.5983 50.8687Z" fill="#E6AFEA"/>
<path d="M10.1606 46.9953L9.88635 47.1895L10.9077 48.5753L11.1819 48.3812L10.1606 46.9953Z" fill="#E6AFEA"/>
<path d="M7.68999 45.3121L7.64392 44.9834L8.58318 44.8574L9.13809 45.6104L8.86367 45.8048L8.42758 45.2127L7.68999 45.3121Z" fill="#E6AFEA"/>
<path d="M5.94677 45.2096L4.25073 45.4355L4.2963 45.764L5.99233 45.5381L5.94677 45.2096Z" fill="#E6AFEA"/>
<path d="M1.46631 46.1447L1.9226 45.1133L2.233 45.2452L2.01596 45.7363L2.55673 45.6634L2.6024 45.9922L1.46631 46.1447Z" fill="#E6AFEA"/>
<path d="M2.87949 43.7852L2.56909 43.6533L3.21494 42.1933L3.52533 42.3252L2.87949 43.7852ZM4.17158 40.8648L3.86118 40.733L4.50703 39.273L4.81783 39.4049L4.17158 40.8648ZM5.46327 37.9453L5.15247 37.8134L5.79831 36.3535L6.10911 36.4854L5.46327 37.9453ZM6.75495 35.0254L6.44456 34.8935L7.09041 33.4336L7.4008 33.5659L6.75495 35.0254ZM8.04624 32.1055L7.73585 31.9736L8.38169 30.5137L8.69249 30.6456L8.04624 32.1055ZM9.33793 29.1856L9.02713 29.0537L9.67298 27.5938L9.98377 27.7256L9.33793 29.1856Z" fill="#E6AFEA"/>
<path d="M10.6292 26.2656L10.3184 26.1337L10.7225 25.2207L11.6541 25.6168L11.5195 25.921L10.8987 25.6568L10.6292 26.2656Z" fill="#E6AFEA"/>
<path d="M19.4617 29.2925L18.1381 28.7301L18.2727 28.4255L19.5963 28.9884L19.4617 29.2925ZM16.8137 28.1673L15.4901 27.6048L15.6247 27.3003L16.9487 27.8627L16.8137 28.1673ZM14.1661 27.0424L12.842 26.48L12.9766 26.1758L14.3006 26.7378L14.1661 27.0424Z" fill="#E6AFEA"/>
<path d="M21.4483 30.8594L21.1375 30.7275L21.4071 30.1192L20.7859 29.8554L20.9205 29.5508L21.8521 29.9469L21.4483 30.8594Z" fill="#E6AFEA"/>
<path d="M13.698 48.3805L13.3872 48.2486L14.0335 46.7886L14.3438 46.9205L13.698 48.3805ZM14.9897 45.4609L14.6793 45.329L15.3251 43.8691L15.6355 44.001L14.9897 45.4609ZM16.2814 42.5414L15.971 42.4091L16.6168 40.9492L16.9276 41.0811L16.2814 42.5414ZM17.5731 39.6211L17.2623 39.4892L17.9081 38.0293L18.2189 38.1616L17.5731 39.6211ZM18.8644 36.7012L18.554 36.5693L19.1998 35.1094L19.5102 35.2413L18.8644 36.7012ZM20.156 33.7813L19.8457 33.6494L20.4915 32.1895L20.8023 32.3214L20.156 33.7813Z" fill="#E6AFEA"/>
<path d="M30.6406 53L35.2961 46.6837L43.062 47.7226L32.6513 24.1875L20.2295 29.4649L30.6406 53Z" fill="#005B5B"/>
<path d="M30.4631 50.8687L31.132 49.9601L30.858 49.7664L30.5371 50.2021L30.3184 49.709L30.0081 49.8405L30.4631 50.8687Z" fill="#E6AFEA"/>
<path d="M32.9031 46.993L31.8818 48.3789L32.1561 48.573L33.1774 47.1871L32.9031 46.993Z" fill="#E6AFEA"/>
<path d="M35.3714 45.3121L35.4171 44.9834L34.4782 44.8574L33.9233 45.6104L34.1978 45.8048L34.6334 45.2127L35.3714 45.3121Z" fill="#E6AFEA"/>
<path d="M37.1098 45.2083L37.0638 45.5371L38.7595 45.7649L38.8055 45.4361L37.1098 45.2083Z" fill="#E6AFEA"/>
<path d="M41.5967 46.1447L41.1408 45.1133L40.83 45.2452L41.047 45.7363L40.5067 45.6634L40.4606 45.9922L41.5967 46.1447Z" fill="#E6AFEA"/>
<path d="M39.538 42.3252L39.8488 42.1933L40.4946 43.6533L40.1842 43.7852L39.538 42.3252ZM38.2467 39.4053L38.5571 39.2734L39.2029 40.7333L38.8926 40.8652L38.2467 39.4053ZM36.955 36.4854L37.2658 36.3535L37.9113 37.8134L37.6009 37.9453L36.955 36.4854ZM35.6629 33.5655L35.9737 33.4332L36.62 34.8931L36.3092 35.025L35.6629 33.5655ZM34.3716 30.6456L34.682 30.5137L35.3279 31.9736L35.0175 32.1055L34.3716 30.6456ZM33.08 27.7256L33.3908 27.5938L34.0366 29.0537L33.7262 29.1856L33.08 27.7256Z" fill="#E6AFEA"/>
<path d="M32.4338 26.2656L32.7446 26.1337L32.3404 25.2207L31.4084 25.6168L31.5434 25.921L32.1646 25.6568L32.4338 26.2656Z" fill="#E6AFEA"/>
<path d="M23.4633 28.9915L24.7869 28.4286L24.9215 28.7332L23.5978 29.2957L23.4633 28.9915ZM26.1113 27.8666L27.4349 27.3042L27.5699 27.6087L26.2463 28.1712L26.1113 27.8666ZM28.7585 26.7417L30.0826 26.1797L30.2175 26.4839L28.8935 27.0463L28.7585 26.7417Z" fill="#E6AFEA"/>
<path d="M21.6141 30.8594L21.9245 30.7275L21.6553 30.1192L22.2761 29.8554L22.1415 29.5508L21.21 29.9469L21.6141 30.8594Z" fill="#E6AFEA"/>
<path d="M28.7168 46.9209L29.0276 46.789L29.6735 48.249L29.3623 48.3805L28.7168 46.9209ZM27.4251 44.001L27.7355 43.8691L28.3814 45.329L28.071 45.4609L27.4251 44.001ZM26.1335 41.0811L26.4438 40.9492L27.0897 42.4091L26.7793 42.5414L26.1335 41.0811ZM24.8418 38.1616L25.1526 38.0293L25.7984 39.4892L25.4876 39.6211L24.8418 38.1616ZM23.5505 35.2413L23.8609 35.1094L24.5071 36.5693L24.1963 36.7012L23.5505 35.2413ZM22.2588 32.3214L22.5692 32.1895L23.215 33.6494L22.9046 33.7813L22.2588 32.3214Z" fill="#E6AFEA"/>
<path d="M41.9473 19.0333L38.8276 24.5412L38.0488 30.7949L32.218 33.4498L27.8414 38.0666L21.5313 36.851L15.2208 38.0666L10.8449 33.4498L5.01374 30.7945L4.23493 24.5412L1.11523 19.0333L4.23493 13.5254L5.01374 7.27205L10.8449 4.61672L15.2212 0L21.5313 1.21557L27.8418 0L32.218 4.61672L38.0488 7.27205L38.8276 13.5258L41.9473 19.0333Z" fill="#FF6F61"/>
<path d="M37.9822 19.0342C37.9822 27.9381 30.6168 35.1563 21.5309 35.1563C12.4455 35.1563 5.08008 27.9381 5.08008 19.0342C5.08008 10.1303 12.4455 2.91211 21.5309 2.91211C30.6168 2.91211 37.9822 10.1303 37.9822 19.0342Z" fill="#005B5B"/>
<path d="M21.5299 34.0095C13.1024 34.0095 6.24622 27.2904 6.24622 19.0313C6.24622 10.7719 13.1024 4.05273 21.5299 4.05273C29.9582 4.05273 36.8139 10.7719 36.8139 19.0313C36.8139 27.29 29.9578 34.0095 21.5299 34.0095ZM21.5299 4.72568C13.4815 4.72568 6.93328 11.1434 6.93328 19.0313C6.93328 26.9193 13.4815 33.3366 21.5299 33.3366C29.5791 33.3366 36.1272 26.9193 36.1272 19.0313C36.1272 11.143 29.5791 4.72568 21.5299 4.72568Z" fill="#E6AFEA"/>
</svg>
