<svg width="54" height="53" viewBox="0 0 54 53" fill="none" xmlns="http://www.w3.org/2000/svg">
<path d="M0.971191 26.4931C0.971191 41.1395 12.8425 53 27.4713 53C42.1001 53 53.9712 41.1395 53.9712 26.4931C53.9712 17.7218 49.7109 9.94361 43.134 5.13046L40.0595 9.32292C45.3401 13.212 48.7732 19.4596 48.7732 26.4931C48.7732 38.2433 39.2183 47.8008 27.4713 47.8008C15.7241 47.8008 6.16921 38.2434 6.16921 26.4931C6.16921 14.7568 15.7241 5.19938 27.4713 5.19938V0C12.8425 0 0.971191 11.8605 0.971191 26.4931Z" fill="#007474"/>
<path d="M6.16919 26.4932C6.16919 38.2433 15.7241 47.8008 27.4713 47.8008C39.2183 47.8008 48.7732 38.2435 48.7732 26.4932C48.7732 19.4596 45.34 13.212 40.0595 9.32294L36.6264 13.9982C40.4595 16.8254 42.955 21.3766 42.955 26.4932C42.955 35.03 36.0061 41.9808 27.4715 41.9808C18.9368 41.9808 11.9877 35.03 11.9877 26.4932C11.9877 17.9563 18.9368 11.0054 27.4715 11.0054V5.19922C15.7243 5.1994 6.16919 14.7568 6.16919 26.4932Z" fill="#F0CFF2"/>
<path d="M27.4711 0V5.19938C32.1728 5.19938 36.5295 6.7302 40.0593 9.32292L43.1338 5.13046C38.7495 1.90312 33.3308 0 27.4711 0Z" fill="#FF6F61"/>
<path d="M27.4711 5.19922V11.0054C30.8904 11.0054 34.0615 12.1224 36.6261 13.9981L40.0591 9.32276C36.5297 6.73003 32.1728 5.19922 27.4711 5.19922Z" fill="#E5F0F8"/>
<path d="M17.3449 25.4456H17.3982C17.6905 25.3037 18.0369 25.2326 18.4361 25.2326C18.7731 25.2326 19.1145 25.2903 19.4607 25.4058C19.8065 25.5209 20.1191 25.7007 20.3984 25.9447C20.6777 26.1891 20.906 26.4994 21.0836 26.8765C21.2612 27.2536 21.3499 27.6997 21.3499 28.2141C21.3499 28.7378 21.2636 29.1972 21.0904 29.5917C20.9172 29.9869 20.6845 30.317 20.3914 30.5834C20.0991 30.8494 19.7572 31.0493 19.3674 31.1822C18.9763 31.3153 18.5599 31.3822 18.1161 31.3822C17.6722 31.3822 17.2558 31.3107 16.8655 31.169C16.4752 31.0275 16.1337 30.8233 15.8407 30.557C15.5477 30.2906 15.3149 29.9713 15.1419 29.5988C14.9693 29.226 14.8824 28.8091 14.8824 28.3475C14.8824 28.0548 14.9048 27.7885 14.9495 27.5489C14.9935 27.3093 15.0574 27.0811 15.1419 26.8635C15.2264 26.6463 15.3263 26.4333 15.4417 26.2247C15.5566 26.016 15.6857 25.7966 15.8279 25.5656L18.2094 21.7988H19.7132L17.3449 25.4456ZM16.1607 28.3072C16.1607 28.5915 16.2072 28.8529 16.3003 29.0925C16.3934 29.3321 16.5263 29.5385 16.6995 29.7116C16.8726 29.8848 17.0786 30.0201 17.3184 30.1176C17.5579 30.2153 17.8241 30.264 18.1164 30.264C18.4095 30.264 18.6758 30.2153 18.9153 30.1176C19.1548 30.0201 19.361 29.8848 19.5341 29.7116C19.7066 29.5387 19.8402 29.3323 19.9333 29.0925C20.0264 28.8529 20.0729 28.5915 20.0729 28.3072C20.0729 28.0235 20.0264 27.7615 19.9333 27.5219C19.8402 27.2825 19.7068 27.0761 19.5341 26.9032C19.361 26.73 19.155 26.5949 18.9153 26.4972C18.6758 26.3997 18.4095 26.3508 18.1164 26.3508C17.8241 26.3508 17.5579 26.3999 17.3184 26.4972C17.0788 26.5949 16.8726 26.73 16.6995 26.9032C16.5263 27.0761 16.3934 27.2825 16.3003 27.5219C16.2072 27.7615 16.1607 28.0235 16.1607 28.3072Z" fill="#008080"/>
<path d="M28.0835 22.9968H24.2646L24.2248 25.3528C24.2862 25.3261 24.3751 25.2997 24.4904 25.2731C24.6058 25.2463 24.7238 25.2243 24.8435 25.2064C24.9633 25.1886 25.0806 25.1756 25.1961 25.1666C25.3108 25.158 25.409 25.1532 25.4884 25.1532C25.9322 25.1532 26.3338 25.2286 26.6932 25.3794C27.0525 25.5303 27.3604 25.7433 27.6179 26.0183C27.8748 26.2932 28.0722 26.6217 28.21 27.0032C28.3471 27.385 28.416 27.8064 28.416 28.2678C28.416 28.7382 28.3297 29.164 28.1565 29.5455C27.9833 29.9273 27.7462 30.2556 27.4445 30.5304C27.1429 30.8057 26.7921 31.0162 26.3931 31.1626C25.9942 31.3091 25.5639 31.3824 25.1028 31.3824C24.4641 31.3824 23.8869 31.2182 23.3724 30.8897C22.8578 30.5616 22.4899 30.091 22.2683 29.4789L23.5456 29.0397C23.7152 29.4746 23.9422 29.7873 24.2272 29.9781C24.512 30.1689 24.8677 30.2642 25.2952 30.2642C25.5446 30.2642 25.7831 30.2199 26.0103 30.1312C26.2368 30.0424 26.4329 29.9161 26.5975 29.7519C26.7626 29.5877 26.8934 29.386 26.9917 29.1462C27.0897 28.9066 27.1386 28.6359 27.1386 28.3342C27.1386 27.642 26.9277 27.1251 26.5068 26.7838C26.0847 26.4422 25.5373 26.2712 24.8633 26.2712C24.6237 26.2712 24.3195 26.3134 23.9516 26.3975C23.5836 26.482 23.2396 26.6039 22.9207 26.7636L23.0268 21.7988H28.0834L28.0835 22.9968Z" fill="#008080"/>
<path d="M29.7068 23.9134C29.7068 23.5853 29.7689 23.2792 29.893 22.9949C30.017 22.7111 30.186 22.4625 30.3988 22.2495C30.6115 22.0365 30.8599 21.8681 31.1443 21.7438C31.428 21.6197 31.7338 21.5572 32.0622 21.5572C32.3906 21.5572 32.6965 21.6195 32.9802 21.7438C33.2644 21.8679 33.5127 22.0365 33.7257 22.2495C33.9386 22.4625 34.1069 22.7111 34.2315 22.9949C34.3556 23.2792 34.4177 23.5853 34.4177 23.9134C34.4177 24.2419 34.3556 24.5478 34.2315 24.832C34.1067 25.1159 33.9385 25.3643 33.7257 25.5773C33.5129 25.7903 33.2646 25.9588 32.9802 26.0829C32.6965 26.2074 32.3906 26.2695 32.0622 26.2695C31.7338 26.2695 31.428 26.2074 31.1443 26.0829C30.86 25.9588 30.6117 25.7901 30.3988 25.5773C30.1858 25.3643 30.017 25.1161 29.893 24.832C29.7689 24.5478 29.7068 24.2417 29.7068 23.9134ZM30.7451 23.9134C30.7451 24.2863 30.8712 24.5988 31.1243 24.8518C31.3768 25.1047 31.6897 25.231 32.062 25.231C32.4344 25.231 32.7473 25.1047 33.0005 24.8518C33.2531 24.5988 33.3797 24.2863 33.3797 23.9134C33.3797 23.5406 33.2531 23.228 33.0005 22.975C32.7473 22.7221 32.4344 22.5958 32.062 22.5958C31.6897 22.5958 31.3768 22.7221 31.1243 22.975C30.8712 23.228 30.7451 23.5406 30.7451 23.9134ZM32.3415 31.6333L31.5434 31.2208L37.4651 21.3711L38.2632 21.7835L32.3415 31.6333ZM35.3492 29.1044C35.3492 28.7762 35.4113 28.4701 35.5354 28.1858C35.6595 27.902 35.8284 27.6535 36.0412 27.4405C36.254 27.2275 36.5023 27.059 36.786 26.9347C37.0702 26.8106 37.3763 26.7481 37.7045 26.7481C38.0322 26.7481 38.3382 26.8104 38.6224 26.9347C38.9061 27.0588 39.155 27.2275 39.3679 27.4405C39.5809 27.6535 39.7489 27.902 39.8732 28.1858C39.9973 28.4701 40.0594 28.7762 40.0594 29.1044C40.0594 29.4328 39.9973 29.7388 39.8732 30.0229C39.7491 30.307 39.5809 30.5553 39.3679 30.7683C39.155 30.9813 38.9061 31.1501 38.6224 31.2742C38.3382 31.3983 38.0322 31.4604 37.7045 31.4604C37.3761 31.4604 37.0702 31.3983 36.786 31.2742C36.5023 31.1501 36.2541 30.9811 36.0412 30.7683C35.8282 30.5553 35.6595 30.307 35.5354 30.0229C35.4113 29.7388 35.3492 29.4327 35.3492 29.1044ZM36.387 29.1044C36.387 29.4772 36.5137 29.7898 36.7662 30.0427C37.0187 30.2957 37.3315 30.422 37.7047 30.422C38.077 30.422 38.3899 30.2957 38.6424 30.0427C38.8951 29.7898 39.0216 29.4772 39.0216 29.1044C39.0216 28.7319 38.8949 28.419 38.6424 28.166C38.3899 27.9131 38.077 27.7867 37.7047 27.7867C37.3315 27.7867 37.0189 27.9131 36.7662 28.166C36.5137 28.419 36.387 28.7319 36.387 29.1044Z" fill="#008080"/>
</svg>
