<svg width="25" height="25" viewBox="0 0 25 25" fill="none" xmlns="http://www.w3.org/2000/svg">
<g clip-path="url(#clip0_670_3611)">
<path d="M12.4982 22.9173C6.74509 22.9173 2.08154 18.2538 2.08154 12.5007C2.08154 6.74753 6.74509 2.08398 12.4982 2.08398C18.2513 2.08398 22.9149 6.74753 22.9149 12.5007C22.9149 18.2538 18.2513 22.9173 12.4982 22.9173ZM11.4565 15.6257V17.709H13.5399V15.6257H11.4565ZM13.5399 13.9121C14.377 13.6598 15.0957 13.1152 15.565 12.3775C16.0344 11.6397 16.2231 10.758 16.0969 9.8928C15.9707 9.02761 15.5379 8.23653 14.8774 7.66363C14.2169 7.09073 13.3726 6.77413 12.4982 6.77148C11.6553 6.77142 10.8385 7.06331 10.1865 7.59752C9.53459 8.13173 9.0878 8.87527 8.92217 9.70169L10.9659 10.1111C11.0239 9.82089 11.1631 9.55315 11.3673 9.339C11.5716 9.12485 11.8324 8.97309 12.1195 8.90139C12.4066 8.82968 12.7081 8.84097 12.9891 8.93395C13.27 9.02693 13.5187 9.19777 13.7064 9.4266C13.894 9.65543 14.0128 9.93283 14.0489 10.2265C14.0851 10.5202 14.037 10.8182 13.9105 11.0856C13.7839 11.3531 13.584 11.5792 13.334 11.7375C13.084 11.8958 12.7941 11.9798 12.4982 11.9798C12.2219 11.9798 11.957 12.0896 11.7616 12.2849C11.5663 12.4803 11.4565 12.7452 11.4565 13.0215V14.584H13.5399V13.9121Z" fill="#B40FBF"/>
</g>
<defs>
<clipPath id="clip0_670_3611">
<rect width="25" height="25" fill="white"/>
</clipPath>
</defs>
</svg>
