<svg width="16" height="18" viewBox="0 0 16 18" fill="none" xmlns="http://www.w3.org/2000/svg">
<path d="M1.17796 0.285145C0.964972 0.559324 0.857428 0.910814 0.877361 1.2676V16.7336C0.85737 17.0904 0.964921 17.4419 1.17796 17.716L1.22602 17.7664L9.27291 9.10279V8.89838L1.22602 0.234375L1.17796 0.285145Z" fill="url(#paint0_linear_2453_17120)"/>
<path d="M11.9551 11.9917L9.27295 9.1026V8.89819L11.9557 6.00977L12.0162 6.0469L15.1942 7.99104C16.1019 8.5463 16.1019 9.45484 15.1942 10.0104L12.0162 11.9546L11.9551 11.9917Z" fill="url(#paint1_linear_2453_17120)"/>
<path d="M12.0164 11.9538L9.27317 9L1.17822 17.7154C1.36319 17.891 1.59939 17.9915 1.8459 17.9993C2.09242 18.0072 2.33372 17.9219 2.52799 17.7583L12.0164 11.9538Z" fill="url(#paint2_linear_2453_17120)"/>
<path d="M12.0164 6.04601L2.52799 0.241478C2.33372 0.077905 2.09242 -0.00734539 1.8459 0.000496553C1.59939 0.00833849 1.36319 0.108779 1.17822 0.284415L9.27317 8.99989L12.0164 6.04601Z" fill="url(#paint3_linear_2453_17120)"/>
<path opacity="0.2" d="M11.9559 11.8887L2.52799 17.6561C2.3412 17.8092 2.11322 17.8927 1.87846 17.8941C1.64371 17.8954 1.41491 17.8145 1.22661 17.6636L1.17822 17.7157L1.22629 17.7661L1.22661 17.7657C1.41488 17.9168 1.64369 17.9977 1.87846 17.9964C2.11324 17.995 2.34123 17.9114 2.52799 17.7582L12.0164 11.9537L11.9559 11.8887Z" fill="black"/>
<path opacity="0.12" d="M1.17794 17.6133C0.964977 17.3391 0.857437 16.9876 0.877346 16.6309V16.733C0.857425 17.0898 0.964967 17.4413 1.17794 17.7155L1.22633 17.6634L1.17794 17.6133Z" fill="black"/>
<path opacity="0.12" d="M15.1942 9.90721L11.9558 11.8885L12.0163 11.9535L15.1942 10.0094C15.3812 9.92203 15.543 9.78232 15.6627 9.60479C15.7825 9.42727 15.8558 9.21842 15.8751 9C15.835 9.1978 15.7525 9.38278 15.6343 9.54027C15.5161 9.69775 15.3654 9.82339 15.1942 9.90721Z" fill="black"/>
<path opacity="0.25" d="M2.52756 0.343428L15.1939 8.09176C15.3652 8.17557 15.5159 8.30126 15.6341 8.45881C15.7523 8.61636 15.8348 8.80144 15.8748 8.99932C15.8557 8.78082 15.7824 8.57186 15.6626 8.39425C15.5428 8.21664 15.381 8.0769 15.1939 7.98959L2.52756 0.241259C1.61979 -0.314061 0.877197 0.147202 0.877197 1.26665V1.36882C0.877197 0.249441 1.61979 -0.211822 2.52756 0.343428Z" fill="white"/>
<defs>
<linearGradient id="paint0_linear_2453_17120" x1="8.55931" y1="1.10453" x2="-3.14483" y2="11.9754" gradientUnits="userSpaceOnUse">
<stop stop-color="#00A0FF"/>
<stop offset="0.00657" stop-color="#00A1FF"/>
<stop offset="0.2601" stop-color="#00BEFF"/>
<stop offset="0.5122" stop-color="#00D2FF"/>
<stop offset="0.7604" stop-color="#00DFFF"/>
<stop offset="1" stop-color="#00E3FF"/>
</linearGradient>
<linearGradient id="paint1_linear_2453_17120" x1="16.3761" y1="9.00074" x2="0.659738" y2="9.00074" gradientUnits="userSpaceOnUse">
<stop stop-color="#FFE000"/>
<stop offset="0.4087" stop-color="#FFBD00"/>
<stop offset="0.7754" stop-color="#FFA500"/>
<stop offset="1" stop-color="#FF9C00"/>
</linearGradient>
<linearGradient id="paint2_linear_2453_17120" x1="10.5258" y1="10.605" x2="-5.34594" y2="25.3467" gradientUnits="userSpaceOnUse">
<stop stop-color="#FF3A44"/>
<stop offset="1" stop-color="#C31162"/>
</linearGradient>
<linearGradient id="paint3_linear_2453_17120" x1="-0.860012" y1="-4.86377" x2="6.22738" y2="1.71902" gradientUnits="userSpaceOnUse">
<stop stop-color="#32A071"/>
<stop offset="0.0685" stop-color="#2DA771"/>
<stop offset="0.4762" stop-color="#15CF74"/>
<stop offset="0.8009" stop-color="#06E775"/>
<stop offset="1" stop-color="#00F076"/>
</linearGradient>
</defs>
</svg>
