<svg width="25" height="24" viewBox="0 0 25 24" fill="none" xmlns="http://www.w3.org/2000/svg">
<path d="M22.2891 1.48027L22.8791 2.07027C23.6921 2.88427 23.5691 4.32727 22.6021 5.29327L10.4351 17.4603L6.49305 18.9023C5.99805 19.0843 5.51605 18.8483 5.41805 18.3773C5.38493 18.2064 5.40053 18.0297 5.46305 17.8673L6.93305 13.8913L19.0661 1.75727C20.0331 0.791269 21.4761 0.666269 22.2891 1.48027ZM9.90405 2.69027C10.0354 2.69027 10.1654 2.71614 10.2867 2.76639C10.4081 2.81664 10.5183 2.8903 10.6112 2.98316C10.704 3.07602 10.7777 3.18626 10.8279 3.30759C10.8782 3.42891 10.9041 3.55895 10.9041 3.69027C10.9041 3.82159 10.8782 3.95163 10.8279 4.07295C10.7777 4.19428 10.704 4.30452 10.6112 4.39738C10.5183 4.49023 10.4081 4.56389 10.2867 4.61415C10.1654 4.6644 10.0354 4.69027 9.90405 4.69027H5.90405C5.37362 4.69027 4.86491 4.90098 4.48984 5.27606C4.11477 5.65113 3.90405 6.15984 3.90405 6.69027V18.6903C3.90405 19.2207 4.11477 19.7294 4.48984 20.1045C4.86491 20.4796 5.37362 20.6903 5.90405 20.6903H17.9041C18.4345 20.6903 18.9432 20.4796 19.3183 20.1045C19.6933 19.7294 19.9041 19.2207 19.9041 18.6903V14.6903C19.9041 14.4251 20.0094 14.1707 20.1969 13.9832C20.3845 13.7956 20.6388 13.6903 20.9041 13.6903C21.1693 13.6903 21.4236 13.7956 21.6112 13.9832C21.7987 14.1707 21.9041 14.4251 21.9041 14.6903V18.6903C21.9041 19.7511 21.4826 20.7686 20.7325 21.5187C19.9823 22.2688 18.9649 22.6903 17.9041 22.6903H5.90405C4.84319 22.6903 3.82577 22.2688 3.07563 21.5187C2.32548 20.7686 1.90405 19.7511 1.90405 18.6903V6.69027C1.90405 5.6294 2.32548 4.61199 3.07563 3.86184C3.82577 3.1117 4.84319 2.69027 5.90405 2.69027H9.90405Z" fill="#8F2396"/>
</svg>
